<?xml version="1.0" standalone="no"?>
<!DOCTYPE svg PUBLIC "-//W3C//DTD SVG 1.1//EN" "http://www.w3.org/Graphics/SVG/1.1/DTD/svg11.dtd" >
<svg xmlns="http://www.w3.org/2000/svg">
<metadata>
Created by FontPrep 20130207 at Wed Apr  2 09:42:53 2014
 By Administrator
Copyright (c) 1989 Adobe Systems Incorporated.  All Rights Reserved.Impressum is a registered trademark of Fundicion Tipografica Neufville S. A.
</metadata>
<defs>
<font id="625687d0dfbf0767cfcb80992f3b759a" horiz-adv-x='1024' >
  <font-face 
    font-family="Impressum-Italic"
    font-weight="500"
    font-style="italic"
    font-stretch="normal"
    units-per-em="2048"
    panose-1="0 0 0 0 0 0 0 0 0 0"
    ascent="1638"
    descent="-410"
    x-height="1016"
    cap-height="1483"
    bbox="-317 -440 2103 1970"
    underline-thickness="102"
    underline-position="-153"
    slope="-12"
    unicode-range="U+0020-FB02"
  />
<missing-glyph horiz-adv-x="569" 
 />
    <glyph glyph-name=".notdef" horiz-adv-x="569" 
 />
    <glyph glyph-name=".null" horiz-adv-x="0" 
 />
    <glyph glyph-name="nonmarkingreturn" horiz-adv-x="681" 
 />
    <glyph glyph-name="space" unicode=" " horiz-adv-x="569" 
 />
    <glyph glyph-name="exclam" unicode="!" horiz-adv-x="681" 
d="M135 113q0 47 33 80t80 33t80 -34q32 -32 32 -79t-32 -80t-80 -33q-47 0 -80 33t-33 80zM489 1483q55 0 83 -36t28 -83t-22 -127l-246 -870h-82l121 979q14 137 118 137z" />
    <glyph glyph-name="quotedbl" unicode="&#x22;" horiz-adv-x="909" 
d="M301 1444q0 76 80 76t80 -76q0 -31 -8 -80l-33 -250q-6 -61 -39 -61t-39 61l-33 250q-8 49 -8 80zM692 1520q80 0 80 -76q0 -31 -8 -80l-33 -250q-6 -61 -39 -61t-39 61l-32 250q-8 49 -9 80q0 76 80 76z" />
    <glyph glyph-name="numbersign" unicode="#" 
d="M680 518l41 258h-262l-41 -258h262zM213 0l61 395h-213l15 123h217l41 258h-219l14 123h223l62 395h125l-62 -395h262l62 395h125l-62 -395h213l-14 -123h-217l-41 -258h219l-14 -123h-224l-61 -395h-125l62 395h-263l-61 -395h-125z" />
    <glyph glyph-name="dollar" unicode="$" 
d="M186 348q0 -98 56 -166t153 -94l121 539q-127 61 -197 139q-69 78 -69 224t108 239q109 94 256 94q29 0 56 -6l37 162h100l-43 -185q21 -7 74 -29t67 -22q31 0 47 41h76l-76 -362h-80q10 44 10 98t-38 106q-39 52 -101 78l-100 -448q168 -80 219 -117q129 -98 129 -266
t-121 -285t-329 -117q-25 0 -74 4l-37 -168h-98l41 185q-59 14 -128 43t-87 28q-35 0 -58 -59h-73l90 402h73q-4 -20 -4 -58zM555 801l94 428q-98 -1 -169 -57t-70 -156q0 -133 145 -215zM532 66q127 0 207 80t80 178q1 100 -55 154t-160 106l-117 -514q14 -4 45 -4z" />
    <glyph glyph-name="percent" unicode="%" horiz-adv-x="2048" 
d="M1300 213q0 -80 40 -138q40 -59 113 -59t126 66q100 125 98 321q0 75 -40 133q-41 58 -113 58t-125 -66t-76 -150t-23 -165zM1165 276q0 140 108 252t246 111q138 0 216 -82q77 -83 77 -223t-108 -252t-245 -111q-138 0 -216 82q-78 83 -78 223zM371 946q0 -80 40 -138
q41 -58 113 -58t125 66q99 122 99 321q0 74 -40 132t-113 58t-126 -65q-98 -122 -98 -316zM236 1008q0 140 107 253q108 111 246 111t216 -82t78 -222t-108 -252t-246 -112t-216 82q-77 82 -77 222zM535 -37l870 1417h106l-870 -1417h-106z" />
    <glyph glyph-name="ampersand" unicode="&#x26;" horiz-adv-x="1478" 
d="M1092 -29q-125 0 -248 162q-117 -100 -201 -131t-168 -31q-165 1 -281 105t-116 250t91 245q91 98 308 211q-43 125 -43 243t83 211t197 93q114 -1 180 -65q67 -64 67 -170t-97 -199q-72 -69 -184 -141q51 -133 217 -400q92 117 92 219q0 95 -127 99l21 69h471l-15 -69
q-61 -2 -104 -18t-78 -56q-35 -41 -50 -68q-15 -26 -59 -114t-90 -156q104 -141 170 -141q115 0 150 282h94q-17 -149 -60 -246q-43 -98 -95 -141q-53 -43 -125 -43zM713 1235q-57 0 -94 -52t-37 -139t51 -182q205 123 205 250q0 59 -34 91t-91 32zM274 356q0 -98 68 -168
t182 -70t248 109q-143 213 -242 435q-144 -88 -200 -148t-56 -158z" />
    <glyph glyph-name="quotesingle" unicode="'" horiz-adv-x="569" 
d="M352 1520q80 0 80 -76q0 -31 -8 -80l-33 -250q-6 -61 -39 -61t-39 61l-32 250q-8 49 -9 80q0 76 80 76z" />
    <glyph glyph-name="parenleft" unicode="(" horiz-adv-x="796" 
d="M360 406q0 -245 85 -306q40 -29 100 -30l-15 -70q-184 0 -269 124t-85 322q0 276 102 539q54 139 131 249t195 180t260 69l-12 -70q-113 -4 -211 -129q-99 -125 -157 -298t-91 -336q-33 -164 -33 -244z" />
    <glyph glyph-name="parenright" unicode=")" horiz-adv-x="796" 
d="M666 1036q0 -275 -102 -538q-54 -139 -131 -249q-77 -109 -196 -179t-260 -70l13 70q113 4 211 129q158 201 248 634q60 297 10 454q-23 67 -63 95t-99 31l14 70q183 0 269 -124t86 -323z" />
    <glyph glyph-name="asterisk" unicode="*" horiz-adv-x="1024" 
d="M229 1249q0 33 27 58t68 25t104 -68l154 -170l-238 49q-115 20 -115 106zM889 1214q33 0 61 -26t29 -62q0 -84 -105 -84q-24 1 -61 9l-223 43l219 100q47 20 80 20zM356 797q-38 -1 -62 27t-24 65q1 59 105 106l209 95l-119 -211q-45 -82 -109 -82zM801 818
q0 -40 -25 -66t-63 -27q-87 0 -101 137l-24 228l164 -179q49 -53 49 -93zM557 1384q0 35 23 67q24 32 62 32t63 -25q52 -52 -11 -162l-108 -198l-27 241q-2 10 -2 45z" />
    <glyph glyph-name="plus" unicode="+" horiz-adv-x="1228" 
d="M96 451v135h451v450h135v-450h451v-135h-451v-451h-135v451h-451z" />
    <glyph glyph-name="comma" unicode="," horiz-adv-x="569" 
d="M336 78q0 -100 -76 -186t-176 -134l-35 64q145 84 176 207q-115 0 -114 94q0 47 29 75q30 28 85 28t83 -44q28 -43 28 -104z" />
    <glyph glyph-name="hyphen" unicode="-" horiz-adv-x="796" 
d="M111 494l24 106h551l-24 -106h-551z" />
    <glyph glyph-name="period" unicode="." horiz-adv-x="569" 
d="M111 113q0 47 32 80q33 33 80 33t80 -34q33 -32 33 -79t-33 -80t-80 -33t-80 33q-32 33 -32 80z" />
    <glyph glyph-name="slash" unicode="/" horiz-adv-x="1024" 
d="M18 -37l836 1557h152l-836 -1557h-152z" />
    <glyph glyph-name="zero" unicode="0" 
d="M272 349q0 -118 43 -201q43 -82 137 -82t175 93q80 93 130 231q111 307 109 560q0 113 -43 196t-137 83t-174 -93t-130 -232q-110 -304 -110 -555zM88 430q0 194 71 398t213 350t321 145q179 0 269 -132t88 -291q-1 -159 -38 -308q-92 -367 -298 -527q-120 -93 -284 -93
t-253 132t-89 326z" />
    <glyph glyph-name="one" unicode="1" 
d="M561 1066q0 46 -35 62t-118 25l14 70q199 0 287 100h100l-236 -1040q-14 -53 -14 -105t40 -80q40 -27 151 -28l-15 -70h-588l17 70q178 0 211 141l170 743q16 66 16 112z" />
    <glyph glyph-name="two" unicode="2" 
d="M803 971q0 115 -78 181t-193 65q-63 0 -113 -24q-89 -43 -89 -91q0 -16 22 -29q68 -35 68 -108q0 -47 -33 -78t-90 -31t-92 44t-35 106q0 143 123 230t270 87q201 0 319 -106t118 -253t-87 -250q-86 -104 -308 -204t-312 -171t-107 -179h432q150 0 202 40t91 189h76
l-90 -389h-870q37 300 205 440q79 66 249 164t246 174q76 78 76 193z" />
    <glyph glyph-name="three" unicode="3" 
d="M815 996q0 100 -70 160t-178 61q-63 0 -112 -25t-49 -49q0 -14 22 -49t23 -75q0 -40 -33 -70q-33 -29 -83 -29t-86 40t-36 97q0 106 113 186q114 80 288 80t280 -88t105 -217q1 -129 -79 -217t-201 -115v-4q106 -27 171 -107t64 -188q0 -186 -148 -301t-356 -115t-315 89
q-106 89 -106 210q0 54 39 100t91 46t86 -32t34 -79q0 -73 -63 -102q-43 -19 2 -64q24 -23 78 -42t122 -19q129 0 234 91q106 91 106 205t-76 186q-76 73 -207 73h-55l26 106q96 1 172 19t136 78t61 160z" />
    <glyph glyph-name="four" unicode="4" 
d="M645 498l119 540l-4 4l-545 -544h430zM352 0l15 70q106 0 154 39t67 129l33 153h-588l26 107l832 825h115l-181 -825h181l-25 -107h-180l-13 -55q-26 -119 -26 -171q0 -53 49 -73t139 -22l-16 -70h-582z" />
    <glyph glyph-name="five" unicode="5" 
d="M483 -29q-169 0 -287 88t-118 207q0 62 34 104t89 42t85 -31t30 -75t-34 -72q-32 -28 -32 -54t56 -64t136 -38q162 0 260 117t99 272q0 104 -45 174q-44 69 -102 93t-122 24q-121 0 -227 -94h-112l143 630h663l-36 -159h-551l-76 -336q135 66 256 65q174 0 290 -108
t116 -294t-146 -338q-145 -152 -369 -153z" />
    <glyph glyph-name="six" unicode="6" 
d="M578 770q-122 0 -212 -142t-90 -276q0 -133 52 -210t159 -76q139 0 227 146q87 146 87 308q0 106 -51 178t-172 72zM742 1323q146 0 240 -82q95 -82 95 -184q0 -63 -31 -107q-32 -43 -90 -43t-93 30q-36 30 -36 77t38 81t38 46q0 31 -49 59t-104 29q-102 0 -186 -80
q-146 -138 -193 -383l4 -4q111 102 259 102t250 -103q101 -103 101 -269q0 -119 -51 -234t-168 -201q-118 -86 -288 -86t-272 130t-102 330t87 424q48 124 117 226q68 102 178 172t256 70z" />
    <glyph glyph-name="seven" unicode="7" 
d="M389 -29q-53 0 -84 41t-31 101q0 182 159 425t530 597h-451q-121 0 -165 -38t-79 -169h-69l82 366h845l-36 -159q-328 -370 -373 -447q-27 -45 -74 -125q-98 -168 -139 -467q-16 -125 -115 -125z" />
    <glyph glyph-name="eight" unicode="8" 
d="M705 1229q-100 1 -166 -101t-66 -194q0 -180 162 -180q98 0 165 94q66 94 66 185t-44 143t-117 53zM264 287q0 -93 64 -157t153 -64q90 0 162 60t105 140q32 80 32 165t-56 157t-153 71q-139 1 -223 -113t-84 -259zM68 317q0 162 107 274q108 112 253 132v4
q-68 33 -104 90t-35 119q0 168 124 278t277 109q152 0 256 -79t104 -210t-81 -218q-82 -87 -203 -107v-4q104 -33 158 -113t53 -186q0 -170 -143 -302q-144 -132 -330 -133q-186 0 -311 92t-125 254z" />
    <glyph glyph-name="nine" unicode="9" 
d="M561 524q121 0 211 142t90 276q0 133 -52 210t-159 77q-139 -1 -226 -147t-87 -308q0 -106 51 -178t172 -72zM397 -29q-145 0 -240 82t-96 185q0 63 32 106t89 43t93 -30q36 -31 36 -77t-38 -80t-37 -46q0 -31 49 -60t104 -28q102 0 186 80q143 135 193 382l-4 4
q-112 -102 -260 -102t-249 104t-101 269q0 119 51 233t168 201q117 86 287 86t272 -130t102 -331t-87 -423q-48 -124 -117 -226q-68 -102 -178 -172t-255 -70z" />
    <glyph glyph-name="colon" unicode=":" horiz-adv-x="569" 
d="M111 113q0 47 32 80q33 33 80 33t80 -34q33 -32 33 -79t-33 -80t-80 -33t-80 33q-32 33 -32 80zM246 690q0 47 33 80t79 33t80 -33q33 -33 33 -80t-33 -80q-33 -32 -80 -32q-48 0 -80 32t-32 80z" />
    <glyph glyph-name="semicolon" unicode=";" horiz-adv-x="569" 
d="M246 690q0 47 33 80t79 33t80 -33q33 -33 33 -80t-33 -80q-33 -32 -80 -32q-48 0 -80 32t-32 80zM336 78q0 -100 -76 -186t-176 -134l-35 64q145 84 176 207q-115 0 -114 94q0 47 29 75q30 28 85 28t83 -44q28 -43 28 -104z" />
    <glyph glyph-name="less" unicode="&#x3c;" horiz-adv-x="1228" 
d="M96 457v123l1037 475v-135l-867 -402l867 -401v-135z" />
    <glyph glyph-name="equal" unicode="=" horiz-adv-x="1228" 
d="M96 246v135h1037v-135h-1037zM96 655v136h1037v-136h-1037z" />
    <glyph glyph-name="greater" unicode="&#x3e;" horiz-adv-x="1228" 
d="M96 -18v135l867 401l-867 402v135l1037 -475v-123z" />
    <glyph glyph-name="question" unicode="?" 
d="M371 113q0 47 33 80q34 33 79 33t79 -34q34 -32 34 -79t-34 -80t-79 -33t-79 33q-33 33 -33 80zM422 1278q0 -28 35 -58q35 -28 35 -74t-35 -79t-87 -33t-90 40t-38 95q0 123 128 219t322 95t306 -99q114 -98 114 -247q0 -117 -52 -200t-129 -134t-155 -101t-140 -134
t-73 -201h-106q16 119 58 211t92 143q74 75 206 184q104 85 102 223q0 111 -76 180q-77 68 -183 68t-170 -35t-64 -63z" />
    <glyph glyph-name="at" unicode="@" horiz-adv-x="1638" 
d="M1217 399q91 0 161 74t104 176q34 103 34 201q0 200 -168 387q-80 88 -208 144t-280 57q-270 0 -458 -200t-189 -554q0 -250 191 -438t477 -189q137 0 235 26t211 77l29 -68q-282 -129 -482 -129t-368 73q-168 72 -265 186q-200 234 -200 485q0 356 240 584
q240 229 565 229t538 -190t213 -474q0 -121 -47 -242q-47 -120 -145 -208q-99 -88 -209 -88t-162 58q-52 60 -55 101h-4q-31 -49 -103 -104t-141 -55q-233 -2 -233 282q0 141 108 329q51 89 139 150t200 61t157 -110h4l20 82h156l-137 -549q-15 -61 -15 -86t20 -51t67 -27z
M645 606q0 -98 45 -145t105 -47q102 0 192 144t90 339q0 150 -107 150t-216 -123t-109 -318z" />
    <glyph glyph-name="A" unicode="A" horiz-adv-x="1593" 
d="M997 643l-108 614l-373 -614h481zM1075 199q0 23 -6 63l-53 275h-565l-156 -252q-45 -74 -45 -114q0 -39 28 -61t60 -28t92 -12l-10 -70h-539l15 70q143 16 213 129l792 1284h143l234 -1268q14 -82 62 -111t139 -34l-13 -70h-608l14 70q14 0 38 3t43 5t27 5t26 8
q16 5 23 11t20 15t19 34q7 25 7 48z" />
    <glyph glyph-name="B" unicode="B" horiz-adv-x="1478" 
d="M690 106q217 0 339 92t122 246q0 264 -373 265h-280l-138 -603h330zM426 1322q0 58 -50 73q-50 14 -132 18l14 70h684q199 0 303 -92q105 -93 105 -243t-92 -248t-236 -130v-4q152 -10 247 -93t95 -233q0 -190 -163 -315t-443 -125h-795l14 70q100 0 143 33q42 34 64 130
l226 992q16 67 16 97zM817 815q162 0 249 96t87 217q0 248 -309 248h-195l-127 -561h295z" />
    <glyph glyph-name="C" unicode="C" horiz-adv-x="1593" 
d="M1399 961v88q0 125 -69 207q-70 82 -154 112q-84 29 -177 29q-157 0 -281 -68q-124 -69 -201 -179q-159 -228 -159 -501q0 -275 146 -419t395 -144q182 0 311 90t189 258h104q-49 -217 -223 -344t-436 -127q-307 0 -509 183t-202 509q0 231 99 428q98 197 284 317
t420 120q168 0 447 -109q24 -8 40 -8q53 0 88 80h72l-115 -522h-69z" />
    <glyph glyph-name="D" unicode="D" horiz-adv-x="1705" 
d="M426 1322q0 58 -50 73q-50 14 -132 18l14 70h594q375 -1 566 -183t192 -475q0 -233 -114 -437q-62 -112 -156 -197t-242 -138q-150 -53 -336 -53h-799l14 70q100 0 143 33q42 34 64 130l226 992q16 67 16 97zM629 106q174 0 312 50t219 126q81 75 134 174q90 168 90 361
q0 129 -38 229t-100 162q-169 168 -464 168q-94 0 -135 -4l-287 -1266h269z" />
    <glyph glyph-name="E" unicode="E" horiz-adv-x="1478" 
d="M1219 1232q0 66 -41 106q-41 38 -150 38h-377l-129 -561h140q84 0 136 29q52 28 71 64t44 108l19 51h76l-148 -670h-76q18 111 19 168q0 143 -144 144h-161l-140 -603h461q171 0 236 67t99 163t63 196h77l-120 -532h-1211l14 70q100 0 143 33q42 34 64 130l203 881
q35 154 35 188q0 72 -60 92q-46 15 -149 19l12 70h1147l-108 -522h-84q39 205 39 271z" />
    <glyph glyph-name="F" unicode="F" horiz-adv-x="1251" 
d="M426 1322q0 58 -50 73q-50 14 -132 18l14 70h1075l-108 -518h-84q39 195 39 265t-41 108t-150 38h-338l-129 -561h140q84 0 136 29q52 28 71 64t44 108l19 55h76l-148 -670h-76q18 100 19 164q0 143 -144 144h-161l-101 -443q-16 -70 -16 -112t39 -62t147 -22l-14 -70
h-590l14 70q100 0 143 33q42 34 64 130l226 992q16 67 16 97z" />
    <glyph glyph-name="G" unicode="G" horiz-adv-x="1705" 
d="M1042 1397q-186 0 -349 -108q-163 -107 -249 -283t-86 -392t129 -372t349 -156q127 0 228 44q162 71 236 230q27 58 27 104t-32 74q-33 28 -65 32t-89 8l14 69h588l-14 -69q-111 -6 -154 -44t-68 -143l-94 -391h-82v207h-4q-188 -244 -528 -244q-268 0 -462 177
q-93 85 -149 218q-55 133 -55 290q0 316 212 581q103 129 277 210t372 81q196 0 390 -76q88 -35 119 -35q31 1 47 17t37 57h74l-117 -514h-78q8 70 9 100q0 162 -124 245q-123 83 -309 83z" />
    <glyph glyph-name="H" unicode="H" horiz-adv-x="1705" 
d="M426 1322q0 58 -50 73q-50 14 -132 18l14 70h608l-14 -70q-113 -2 -160 -28t-67 -117l-103 -453h742l92 402q16 71 16 113t-41 62t-155 21l14 70h590l-15 -70q-94 0 -134 -35t-62 -129l-226 -991q-16 -78 -16 -116q0 -68 182 -72l-14 -70h-608l14 70q113 2 160 28t67 117
l113 494h-743l-101 -443q-16 -70 -16 -112t39 -62t147 -22l-14 -70h-590l14 70q100 0 143 33q42 34 64 130l226 992q16 67 16 97z" />
    <glyph glyph-name="I" unicode="I" horiz-adv-x="798" 
d="M446 1322q0 58 -51 73q-51 14 -131 18l15 70h608l-15 -70q-114 -2 -160 -28t-67 -117l-227 -1002q-16 -70 -16 -112t38 -62q39 -20 148 -22l-15 -70h-589l14 70q100 0 142 34t65 129l225 992q16 67 16 97z" />
    <glyph glyph-name="J" unicode="J" horiz-adv-x="909" 
d="M202 -37q-132 0 -216 66q-82 66 -82 174q0 61 36 103t88 42t83 -29t31 -69t-34 -78q-34 -37 -34 -53t29 -33q30 -16 69 -16q68 0 118 59t70 154l203 876q23 93 23 145t-43 78t-133 31l14 70h573l-14 -70q-117 -8 -149 -45t-62 -160l-209 -905q-35 -152 -132 -246
t-229 -94z" />
    <glyph glyph-name="K" unicode="K" horiz-adv-x="1593" 
d="M426 1315q0 59 -49 77t-146 21l15 70h600l-15 -70q-98 -2 -142 -29t-64 -116l-121 -531l4 -4l579 518q84 74 84 107t-36 42q-37 9 -136 13l15 70h567l-14 -70q-131 -6 -224 -88l-444 -387l375 -745q37 -74 83 -97t134 -26l-14 -70h-605l15 70q84 2 126 20t42 62t-64 170
l-243 485l-285 -250l-66 -291q-16 -70 -16 -112t39 -62t147 -22l-14 -70h-590l14 70q100 0 143 33q42 34 64 130l226 992q16 68 16 90z" />
    <glyph glyph-name="L" unicode="L" horiz-adv-x="1251" 
d="M-23 70q100 0 143 33q42 34 64 130l203 881q35 154 35 188q0 72 -60 92q-46 15 -149 19l12 70h678l-16 -70q-135 0 -191 -31t-82 -149l-258 -1127h267q235 0 333 88t158 343h78l-121 -537h-1132l12 70h26z" />
    <glyph glyph-name="M" unicode="M" horiz-adv-x="1933" 
d="M430 1313q0 67 -53 82t-135 18l14 70h422l223 -1155l717 1155h367l-19 -70q-84 -2 -119 -38t-55 -120l-207 -899q-37 -164 -37 -200t30 -56t68 -24t103 -6l-14 -70h-625l12 70q115 2 165 30t71 115l244 1030h-5l-776 -1245h-61l-232 1245h-4l-219 -997q-12 -68 -12 -90
q0 -71 117 -82q23 -2 79 -6l-14 -70h-498l17 70q92 2 133 26t59 105l203 901q41 180 41 211z" />
    <glyph glyph-name="N" unicode="N" horiz-adv-x="1593" 
d="M403 1322q0 58 -51 73q-51 14 -131 18l15 70h337l572 -1182h4l194 852q27 119 27 153q0 71 -51 87t-131 20l16 70h473l-16 -70q-80 -10 -121 -43t-61 -121l-285 -1249h-119l-571 1182h-4l-209 -916q-17 -70 -17 -112t38 -62t141 -22l-15 -70h-499l14 70q102 0 144 34
t65 129l225 992q16 67 16 97z" />
    <glyph glyph-name="O" unicode="O" horiz-adv-x="1820" 
d="M133 668q0 234 131 449q70 114 169 203t251 144t330 56q313 0 512 -184t198 -521q0 -238 -131 -449q-70 -114 -169 -203q-98 -89 -250 -145t-330 -55q-313 1 -512 185t-199 520zM358 642q0 -315 153 -444q153 -130 344 -129t342 126t226 303q76 178 76 342
q0 429 -318 543q-85 30 -182 30q-188 0 -339 -125q-150 -125 -226 -303q-76 -179 -76 -343z" />
    <glyph glyph-name="P" unicode="P" horiz-adv-x="1251" 
d="M426 1322q0 58 -50 73q-50 14 -132 18l14 70h524q224 1 354 -97t130 -292q0 -128 -74 -252q-90 -151 -280 -217q-108 -37 -244 -37h-199l-72 -322q-16 -70 -16 -112t39 -62t147 -22l-14 -70h-590l14 70q100 0 143 33q42 34 64 130l226 992q16 67 16 97zM623 694
q215 0 323 125t107 263q0 138 -75 216t-233 78h-98l-153 -682h129z" />
    <glyph glyph-name="Q" unicode="Q" horiz-adv-x="1820" 
d="M1285 -289q-115 0 -181 69t-119 193q-51 -10 -141 -10q-313 0 -512 184t-199 521q0 234 131 449q70 114 169 203t251 144t330 56q313 0 512 -184t198 -521q0 -270 -160 -499q-161 -228 -407 -302q37 -86 79 -133t101 -47t102 49q42 50 56 113h84q-27 -129 -103 -207
t-191 -78zM772 258q-53 0 -87 -31t-73 -100q109 -57 201 -57t127 8q-39 88 -77 134t-91 46zM1499 858q0 411 -318 525q-85 30 -182 30q-188 0 -339 -125q-150 -125 -226 -303t-76 -360q0 -305 191 -459q49 104 109 160t164 55q104 0 166 -65q64 -65 116 -181q176 88 286 297
q109 209 109 426z" />
    <glyph glyph-name="R" unicode="R" horiz-adv-x="1593" 
d="M1001 760q195 -31 195 -197q0 -83 -22 -189t-21 -191q0 -85 70 -85q76 0 125 104t90 296h78q-55 -291 -112 -376q-21 -32 -55 -75t-96 -64q-61 -20 -104 -20q-92 0 -142 51q-51 51 -51 124t22 204t21 207q0 160 -264 160h-237l-101 -443q-16 -70 -16 -112t39 -62t147 -22
l-14 -70h-590l14 70q100 0 143 33q42 34 64 130l226 992q16 67 16 97q0 58 -50 73q-50 14 -132 18l14 70h748q207 0 307 -89t100 -220q0 -166 -121 -274t-291 -136v-4zM709 815q125 0 218 27q93 28 143 64t90 97t39 158q-1 95 -78 155t-230 60h-244l-127 -561h189z" />
    <glyph glyph-name="S" unicode="S" horiz-adv-x="1366" 
d="M236 463q0 -166 114 -272q115 -105 278 -105t261 81t98 200t-72 187t-173 104t-202 77t-173 126t-72 220q0 193 130 316t333 123q141 0 318 -79q56 -26 81 -26q55 0 90 68h64l-115 -514h-72q8 57 9 88q1 164 -95 260t-242 96t-232 -75q-85 -75 -85 -184q0 -108 75 -170
t180 -99q104 -37 210 -81t181 -136t75 -234q0 -207 -152 -339t-378 -132q-170 0 -320 80q-78 43 -134 43t-97 -86h-78l125 539h76q-6 -37 -6 -76z" />
    <glyph glyph-name="T" unicode="T" horiz-adv-x="1366" 
d="M598 1376q-166 0 -232 -81t-122 -318h-78l108 506h1188l-110 -506h-80q35 160 35 223q-1 108 -57 142t-163 34h-135l-252 -1110q-16 -70 -16 -112t39 -62t147 -22h21l-17 -70h-663l16 70q145 2 193 34q47 33 78 168l250 1104h-150z" />
    <glyph glyph-name="U" unicode="U" horiz-adv-x="1705" 
d="M416 430q0 -168 119 -256t292 -88q391 0 482 406l153 675q20 86 20 144q0 57 -48 79q-49 22 -134 23l15 70h487l-16 -70q-80 -1 -122 -25t-58 -96l-191 -839q-57 -248 -224 -369t-413 -121q-158 0 -294 67q-163 78 -228 213q-37 77 -37 160t21 179l133 585q20 86 20 144
t-49 79t-133 23l14 70h570l-17 -70q-80 -1 -122 -25t-58 -96l-170 -751q-12 -59 -12 -111z" />
    <glyph glyph-name="V" unicode="V" horiz-adv-x="1593" 
d="M571 1294q0 -18 11 -96l123 -948l653 971q39 57 39 96q0 84 -185 96l15 70h536l-14 -70q-76 -2 -118 -30t-93 -103l-868 -1280h-129l-154 1147q-23 166 -54 209q-32 43 -171 57l12 70h608l-16 -70q-195 0 -195 -119z" />
    <glyph glyph-name="W" unicode="W" horiz-adv-x="1933" 
d="M711 1413q-152 0 -152 -131q0 -61 12 -983h4l555 1184h142l65 -1184h4l392 909q33 78 32 113q0 92 -192 92l14 70h516l-14 -70q-92 -4 -142 -56t-94 -151l-534 -1206h-154l-67 1159h-4l-555 -1159h-148l-33 1128q-4 150 -45 212t-161 73l14 70h604l-20 -70h-39z" />
    <glyph glyph-name="X" unicode="X" horiz-adv-x="1593" 
d="M643 1307q0 -33 31 -90l182 -328l289 348q49 57 49 98q0 78 -170 78l14 70h531l-15 -70q-119 -12 -227 -143l-409 -490l307 -551q47 -85 105 -121t151 -38l-15 -70h-671l14 70q203 4 203 106q0 39 -33 96l-195 351l-272 -322q-88 -104 -88 -147q0 -72 154 -84l-15 -70
h-538l14 70q100 8 145 36t131 132l408 491l-219 393q-8 14 -30 54t-31 55q-9 14 -29 47t-59 68q-75 67 -185 67l14 70h662l-17 -70q-186 0 -186 -106z" />
    <glyph glyph-name="Y" unicode="Y" horiz-adv-x="1478" 
d="M575 1290q0 -31 25 -90l188 -481l429 520q35 43 35 89t-45 64q-44 18 -136 21l14 70h564l-13 -70q-84 -8 -129 -34t-102 -93l-578 -696l-71 -309q-20 -94 -20 -123q-1 -59 66 -75q47 -10 113 -13l-14 -70h-602l14 70q135 2 173 36t69 168l74 316l-252 637
q-47 117 -91 151t-161 35l12 70h660l-15 -70q-78 0 -142 -29t-65 -94z" />
    <glyph glyph-name="Z" unicode="Z" horiz-adv-x="1366" 
d="M750 106q164 0 240 45q44 25 73 53q55 52 98 192q16 52 39 143h78l-121 -539h-1079l24 102l953 1274h-410q-104 0 -174 -26t-111 -92t-56 -106q-14 -40 -30 -102t-20 -75h-76l109 508h1040l-24 -94l-959 -1283h406z" />
    <glyph glyph-name="bracketleft" unicode="[" horiz-adv-x="796" 
d="M131 0l332 1483h360l-16 -70h-176l-301 -1343h174l-17 -70h-356z" />
    <glyph glyph-name="backslash" unicode="\" horiz-adv-x="1024" 
d="M854 -37l-836 1557h152l836 -1557h-152z" />
    <glyph glyph-name="bracketright" unicode="]" horiz-adv-x="796" 
d="M211 70l301 1343h-174l16 70h357l-332 -1483h-361l17 70h176z" />
    <glyph glyph-name="asciicircum" unicode="^" horiz-adv-x="1228" 
d="M317 625h-135l371 747h123l371 -747h-136l-297 596z" />
    <glyph glyph-name="underscore" unicode="_" horiz-adv-x="1024" 
d="M1024 -256h-1024v102h1024v-102z" />
    <glyph glyph-name="grave" unicode="`" horiz-adv-x="569" 
d="M182 1462q0 38 23 58t61 20t80 -55l229 -301h-67l-283 209q-43 31 -43 69z" />
    <glyph glyph-name="a" unicode="a" horiz-adv-x="1366" 
d="M305 342q0 -94 54 -163t161 -69t200 99q93 98 139 223t46 233q0 109 -62 187q-61 78 -161 78t-175 -61q-127 -101 -181 -337q-22 -96 -21 -190zM979 162q0 -51 49 -51q113 0 209 280h82q-104 -428 -367 -428q-78 0 -118 41t-39 86q0 45 12 82h-4q-61 -82 -157 -145
t-195 -64q-174 0 -258 122t-84 289q0 168 62 318t189 255t283 106q115 -1 195 -59t112 -169h4l43 191h168l-170 -754q-16 -72 -16 -100z" />
    <glyph glyph-name="b" unicode="b" horiz-adv-x="1253" 
d="M338 392q0 -122 62 -214t182 -92t210 97q91 97 132 221t41 242q-1 118 -59 201t-176 83t-212 -88t-137 -208t-43 -242zM338 1315q0 89 -113 95q-18 1 -59 3l14 70h285q82 0 106 20l-137 -608l4 -4q142 162 332 162t290 -124t101 -313q1 -260 -151 -456t-394 -197
q-272 0 -348 256l-139 -219h-82l250 1102q41 180 41 213z" />
    <glyph glyph-name="c" unicode="c" 
d="M745 1053q123 -1 221 -63t97 -167q0 -59 -39 -103t-101 -44t-99 36q-36 36 -36 72q0 66 37 85q37 18 37 44q0 45 -90 45q-186 0 -326 -190t-141 -383q0 -135 73 -217t201 -82t220 76t143 190h92q-59 -180 -190 -284q-132 -104 -320 -104t-302 126q-114 127 -113 313
q0 254 190 452t446 198z" />
    <glyph glyph-name="d" unicode="d" horiz-adv-x="1366" 
d="M289 370q0 -118 58 -201t170 -83t203 96t138 224t47 240t-60 198t-176 86t-207 -97t-132 -221t-41 -242zM1059 1314q0 69 -62 86q-34 9 -110 13l14 70h285q82 0 106 20l-284 -1241q-16 -72 -17 -100q0 -51 49 -51q113 0 209 280h82q-104 -428 -366 -428q-74 0 -116 42
t-42 86t8 71h-4q-53 -84 -145 -142t-193 -57q-180 0 -280 124q-101 124 -101 301q0 176 64 324t189 244q126 96 288 97q106 -1 192 -59t125 -163h4l64 271q41 178 41 212z" />
    <glyph glyph-name="e" unicode="e" 
d="M885 823q0 61 -47 99t-117 36q-154 0 -281 -158t-145 -323q330 22 501 170q89 78 89 176zM92 393q0 176 99 329t252 242t295 89t231 -65q88 -65 88 -166q1 -101 -57 -175t-144 -119q-246 -129 -567 -133v-43q1 -118 69 -192t187 -74t225 74t166 192h94
q-70 -176 -206 -282t-320 -106t-298 126q-114 127 -114 303z" />
    <glyph glyph-name="f" unicode="f" horiz-adv-x="681" 
d="M965 1327q0 -51 -34 -87t-82 -36t-79 28t-31 62t20 65q19 30 19 42t-15 24q-15 13 -41 13t-54 -18t-63 -82q-36 -64 -58 -169l-35 -153h242l-21 -82h-239l-209 -934h-183l209 934h-186l22 82h183q45 236 139 370t264 134q88 0 160 -48t72 -145z" />
    <glyph glyph-name="g" unicode="g" horiz-adv-x="1251" 
d="M895 725q0 105 -56 169t-158 64q-101 0 -169 -82t-68 -188t56 -170t157 -64q100 -1 169 82t69 189zM922 -104q0 88 -77 120t-265 32q-188 -1 -298 -37t-110 -127t92 -141t262 -50t283 58q113 57 113 145zM260 682q0 166 119 268t287 103q121 0 229 -58q17 89 73 151
t124 62t108 -37q39 -37 39 -86t-24 -75t-66 -27q-94 0 -94 102q0 18 -15 19q-20 0 -38 -37t-19 -61q0 -24 42 -125q42 -100 42 -172q0 -164 -121 -256q-121 -93 -298 -93t-294 105q-86 -74 -86 -148q0 -98 151 -108q30 -2 77 -2h196q267 0 335 -114q30 -50 30 -126
q0 -158 -153 -263q-152 -105 -396 -105t-370 85t-126 188q0 104 74 156t178 70v4q-131 49 -131 177q0 71 51 137t123 112q-47 66 -47 154z" />
    <glyph glyph-name="h" unicode="h" horiz-adv-x="1366" 
d="M350 1315q0 68 -61 85q-34 9 -111 13l15 70h284q82 0 107 20l-193 -823l4 -4q106 172 220 274t264 103q104 -1 169 -63t64 -165q0 -55 -25 -163l-73 -332q-27 -113 -27 -166t51 -53t112 86q60 86 91 194h88q-43 -166 -144 -297t-229 -131q-74 0 -120 41q-46 40 -45 92
q0 52 14 111l90 411q33 150 33 189t-29 69t-76 29q-125 -1 -292 -193t-234 -483l-53 -229h-187l252 1102q41 180 41 213z" />
    <glyph glyph-name="i" unicode="i" horiz-adv-x="681" 
d="M375 1325q0 47 34 80q35 33 79 33t78 -33t34 -80t-34 -80t-79 -33t-79 33t-33 80zM395 1016q82 0 107 20l-166 -706q-27 -113 -27 -166t51 -53t112 86q60 86 91 194h88q-43 -166 -144 -297t-228 -131q-74 0 -120 41q-46 40 -46 92t14 111l100 428q41 180 41 213
q0 32 -14 54q-24 36 -98 41q-19 1 -60 3l15 70h284z" />
    <glyph glyph-name="j" unicode="j" horiz-adv-x="569" 
d="M375 1325q0 47 34 80q35 33 79 33t78 -33t34 -80t-34 -80t-79 -33t-79 33t-33 80zM-92 -401v69q68 4 98 58t66 211l155 698q41 180 41 213q0 68 -61 85q-34 9 -111 13l15 70h284q82 0 107 20l-244 -1065q-44 -190 -114 -281t-236 -91z" />
    <glyph glyph-name="k" unicode="k" horiz-adv-x="1366" 
d="M350 1315q0 68 -61 85q-34 9 -111 13l15 70h272q82 0 106 20l-165 -727l4 -2q122 133 236 206t243 73t204 -67t75 -166q-1 -185 -163 -278q-126 -73 -298 -122l155 -254q35 -55 86 -55q72 0 129 89t84 195h86q-37 -232 -175 -359q-79 -73 -164 -73t-137 46t-120 155
l-178 293q148 17 318 87q88 36 146 95t58 128t-47 110t-119 41q-141 0 -298 -150t-203 -362l-90 -406h-181l252 1102q41 180 41 213z" />
    <glyph glyph-name="l" unicode="l" horiz-adv-x="681" 
d="M475 1483q82 0 107 20l-275 -1173q-27 -113 -27 -166t52 -53q51 0 111 86t92 194h88q-43 -166 -145 -297t-228 -131q-74 0 -120 41q-46 40 -46 92t14 111l209 895q41 180 41 213t-14 55q-24 36 -98 40q-19 1 -60 3l14 70h285z" />
    <glyph glyph-name="m" unicode="m" horiz-adv-x="2048" 
d="M268 848q0 68 -61 85q-34 9 -111 13l15 70h272q82 0 106 20l-73 -323l4 -4q244 344 459 344q104 -1 169 -63t64 -165q-4 -61 -14 -102l4 -4q225 334 440 334q104 -1 169 -63t65 -165q0 -55 -25 -163l-74 -332q-27 -113 -27 -166t52 -53q51 0 112 86q60 86 91 194h88
q-43 -166 -145 -297t-228 -131q-74 0 -120 41q-46 40 -46 92t14 111l91 411q33 150 32 179q0 109 -104 108q-143 0 -289 -190t-221 -510l-47 -205h-182l147 618q33 139 33 179q0 109 -105 108q-143 0 -289 -190t-221 -510l-47 -205h-182l143 635q41 180 41 213z" />
    <glyph glyph-name="n" unicode="n" horiz-adv-x="1366" 
d="M268 848q0 68 -61 85q-34 9 -111 13l15 70h272q82 0 106 20l-83 -368l4 -4q66 145 197 267q132 122 272 122q104 -1 169 -63t64 -165q0 -55 -25 -163l-73 -332q-27 -113 -27 -166t51 -53t112 86q60 86 91 194h88q-43 -166 -144 -297t-229 -131q-74 0 -120 41
q-46 40 -45 92q0 52 14 111l90 411q33 150 33 191t-26 69t-71 27q-119 -1 -285 -193t-233 -483l-53 -229h-176l143 635q41 180 41 213z" />
    <glyph glyph-name="o" unicode="o" horiz-adv-x="1253" 
d="M289 399q1 -149 71 -245t214 -96t268 165q123 166 123 393q0 146 -76 244t-201 98q-164 0 -282 -164t-117 -395zM92 451q0 250 166 426t418 176q217 -1 351 -139t134 -349q0 -250 -166 -426t-417 -176q-217 0 -352 138q-134 139 -134 350z" />
    <glyph glyph-name="p" unicode="p" horiz-adv-x="1253" 
d="M344 373q0 -115 62 -201t179 -86q116 0 207 97t132 221t41 242q-1 118 -59 201t-176 83t-211 -97t-134 -221t-41 -239zM250 846q0 100 -123 100h-49l14 70h273q82 0 106 20l-39 -172l4 -2q154 190 339 190t285 -123q100 -124 101 -313q1 -260 -151 -456t-388 -197
q-236 0 -335 225h-4l-131 -589h-175l232 1036q41 180 41 211z" />
    <glyph glyph-name="q" unicode="q" horiz-adv-x="1253" 
d="M905 643q0 115 -60 201t-176 86t-207 -97t-132 -221t-41 -242t58 -201t176 -83t210 97t132 221t40 239zM474 -37q-182 0 -281 124q-101 124 -101 301q0 176 64 324t189 244t269 96q281 1 349 -247l149 211h72l-326 -1417h-174l123 528l-4 4q-147 -168 -329 -168z" />
    <glyph glyph-name="r" unicode="r" horiz-adv-x="909" 
d="M268 848q0 68 -61 85q-34 9 -111 13l15 70h272q82 0 106 20l-69 -313l4 -4q76 154 175 244t198 90q63 0 106 -41q43 -40 43 -98t-33 -97t-81 -39t-72 18t-29 40q-16 56 -49 57q-63 0 -178 -180t-193 -525l-43 -188h-184l143 635q41 180 41 213z" />
    <glyph glyph-name="s" unicode="s" horiz-adv-x="1024" 
d="M213 723q0 156 118 243q117 87 279 87t258 -72t97 -162q0 -59 -34 -99t-85 -40t-85 32t-34 70t23 68q23 31 22 39q0 29 -49 49t-125 20t-144 -48t-69 -130q0 -96 175 -163q73 -29 146 -61q74 -32 124 -95t51 -154q0 -139 -123 -241t-357 -103q-147 0 -244 74t-98 176
q0 55 38 101q37 46 93 46t88 -28t32 -72q0 -43 -34 -73q-33 -30 -32 -48q0 -33 48 -57t122 -25q126 -1 204 55t78 142q0 59 -50 102t-121 71q-71 27 -141 59t-121 92q-50 60 -50 145z" />
    <glyph glyph-name="t" unicode="t" horiz-adv-x="796" 
d="M344 164q0 -53 55 -53t120 86t95 194h88q-40 -164 -148 -296t-241 -132q-73 0 -119 41q-46 40 -46 92t14 111l166 727h-219l20 80q176 2 261 98t140 285h84l-86 -381h256l-18 -82h-258l-137 -604q-27 -113 -27 -166z" />
    <glyph glyph-name="u" unicode="u" horiz-adv-x="1366" 
d="M393 1016q82 0 107 20l-146 -639q-30 -141 -30 -186t26 -73t68 -27q118 1 284 193t234 482l53 230h182l-172 -754q-16 -72 -16 -100q0 -51 49 -51q113 0 209 280h82q-104 -428 -367 -428q-78 0 -118 44q-40 45 -39 105q0 60 43 242l-4 4q-64 -130 -184 -250
q-140 -145 -300 -145q-88 1 -150 63q-64 62 -64 146t22 182l63 281q41 180 41 213q0 69 -59 84q-42 11 -98 14l14 70h270z" />
    <glyph glyph-name="v" unicode="v" 
d="M283 1053q100 0 144 -122t93 -489l29 -217q199 187 293 331t94 222q0 29 -42 65t-42 89t35 87t95 34t98 -48q40 -48 40 -112q0 -162 -162 -370t-561 -560q-6 129 -57 484t-78 399q-14 23 -41 22q-72 0 -121 -180h-82q16 110 78 230q31 59 80 97t107 38z" />
    <glyph glyph-name="w" unicode="w" horiz-adv-x="1705" 
d="M1503 768q0 33 -22 52q-23 19 -47 43t-23 73q0 49 36 83q37 34 101 34t102 -44t38 -118q0 -147 -156 -361t-518 -567l-125 748l-514 -748q0 127 -40 480t-71 401q-16 25 -39 24q-76 0 -123 -180h-84q37 183 139 295q61 70 125 70t98 -32t68 -151t66 -540h4l490 723
l135 -832q100 84 230 269t130 278z" />
    <glyph glyph-name="x" unicode="x" horiz-adv-x="1253" 
d="M1080 1053q72 0 114 -37q41 -37 41 -88t-33 -88t-80 -37t-82 39q-34 39 -56 39t-62 -48t-203 -264l129 -356q18 -55 38 -73t48 -17q63 0 108 79t62 193h82q-14 -220 -142 -357q-70 -75 -156 -75t-126 44q-41 44 -94 194l-72 196q-198 -285 -270 -359t-150 -75
q-78 0 -118 36t-40 90t31 89t79 35t83 -39t57 -39q22 1 71 61q50 60 222 300l-72 200q-45 127 -69 162q-25 35 -63 35q-38 1 -81 -53t-57 -154h-82q15 160 109 263t196 104q51 0 86 -26t68 -116l88 -245q176 250 250 318t146 69z" />
    <glyph glyph-name="y" unicode="y" 
d="M274 1053q60 -1 106 -51q119 -132 282 -861q299 444 299 615q1 36 -55 74t-56 96t35 93q35 34 97 34t100 -47q38 -48 38 -142t-101 -311t-245 -428t-318 -369q-173 -158 -300 -157q-68 -1 -107 35t-39 88t33 90q33 36 84 36t94 -38t80 -39t112 65t117 125
q-55 285 -223 778q-29 84 -46 107t-40 22q-57 0 -108 -176l-82 21q84 340 243 340z" />
    <glyph glyph-name="z" unicode="z" 
d="M461 856q-186 0 -219 -166h-80l67 326h756l-31 -135l-684 -684l4 -4q98 43 171 43t183 -56t150 -57q170 0 189 268h82q-14 -248 -92 -338t-220 -90q-99 0 -245 69t-216 68q-108 0 -204 -100l-72 70l786 786h-325z" />
    <glyph glyph-name="braceleft" unicode="{" horiz-adv-x="796" 
d="M254 600q0 101 -115 141q100 29 145 85q44 56 68 169l41 176q43 187 135 249t285 63l-6 -33q-99 -18 -149 -82t-76 -184l-35 -156q-29 -126 -76 -192t-154 -93l-2 -4q123 -37 123 -151q0 -47 -20 -133l-35 -156q-16 -82 -16 -106q0 -133 122 -160l-10 -33q-157 0 -227 39
t-70 151q1 45 17 121l41 176q14 66 14 113z" />
    <glyph glyph-name="bar" unicode="|" horiz-adv-x="454" 
d="M160 -37v1557h135v-1557h-135z" />
    <glyph glyph-name="braceright" unicode="}" horiz-adv-x="796" 
d="M403 895q0 47 21 133l35 156q16 82 16 106q0 133 -123 160l10 33q158 0 228 -39t69 -152q0 -45 -16 -121l-41 -176q-14 -67 -14 -113q0 -100 114 -141q-98 -29 -142 -85t-71 -169l-40 -176q-43 -187 -135 -249t-285 -62l6 33q98 17 148 81t77 185l35 156q29 127 76 193
t153 91l2 4q-123 37 -123 152z" />
    <glyph glyph-name="asciitilde" unicode="~" horiz-adv-x="1228" 
d="M820 383q-71 0 -212 68t-209 67q-117 0 -184 -143l-74 102q92 176 256 176q80 1 235 -67t206 -68t91 37t85 107l73 -103q-41 -55 -67 -86t-78 -61q-51 -30 -122 -29z" />
    <glyph glyph-name="exclamdown" unicode="&#xa1;" horiz-adv-x="681" 
d="M547 969q0 -47 -34 -80t-79 -33t-79 33t-33 80q0 47 33 80q34 33 79 33t79 -34q34 -32 34 -79zM193 -401q-55 -1 -83 35t-28 83t22 127l246 871h82l-121 -979q-14 -137 -118 -137z" />
    <glyph glyph-name="cent" unicode="&#xa2;" 
d="M109 403q0 254 189 451t445 199l56 135l82 -29l-47 -115q94 -18 162 -76t67 -131q0 -73 -39 -117t-101 -44t-99 36q-36 36 -36 72q0 66 37 85q37 18 37 44q0 35 -63 43l-342 -835q51 -27 125 -27q127 0 219 76t141 190h92q-59 -180 -189 -284t-317 -105q-70 0 -125 19
l-63 -154l-76 31l64 156q-102 51 -161 154q-58 103 -58 226zM305 402q0 -154 82 -232l315 780q-164 -37 -280 -215q-116 -179 -117 -333z" />
    <glyph glyph-name="sterling" unicode="&#xa3;" 
d="M217 608h-172l25 107h147l12 116q27 310 231 431q101 61 206 61q104 0 192 -43t118 -43t60 45h76l-80 -362h-78q8 41 9 86q1 94 -63 144t-167 50q-317 0 -325 -485h272l-27 -107h-250q-25 -158 -57 -242t-119 -202l4 -2q133 59 219 59t185 -39t147 -39q48 -1 78 19
q55 35 79 108t34 140h82q-43 -319 -167 -400q-60 -39 -140 -39q-80 -1 -210 57t-216 58t-218 -86l-59 90q106 102 139 225t33 293z" />
    <glyph glyph-name="currency" unicode="&#xa4;" 
d="M61 648q0 177 109 308l-115 115l90 90l115 -112q133 106 309 106t310 -108l114 114l90 -90l-112 -113q106 -135 106 -311t-108 -309l114 -115l-90 -90l-114 115q-131 -109 -309 -109t-312 107l-113 -113l-90 90l115 115q-109 133 -109 310zM197 647q0 -157 105 -271
t267 -114t268 115q105 115 105 271t-105 270t-267 114t-268 -114q-105 -114 -105 -271z" />
    <glyph glyph-name="yen" unicode="&#xa5;" 
d="M459 1126q0 -31 16 -82l98 -329h62l270 362q31 41 31 78t-37 50t-115 20l15 69h491l-12 -69q-78 -9 -118 -29t-83 -74l-315 -407h268l-20 -94h-320l-51 -66l-33 -139h359l-21 -94h-360l-19 -78q-18 -82 -18 -106t14 -38t43 -20t47 -7t51 -3l-12 -70h-543l17 70
q178 0 211 141l26 111h-356l21 94h358l33 139l-23 66h-323l20 94h270l-120 358q-31 90 -74 120t-146 32l11 69h575l-12 -69q-70 -2 -123 -25t-53 -74z" />
    <glyph glyph-name="brokenbar" unicode="&#xa6;" horiz-adv-x="454" 
d="M160 938v582h135v-582h-135zM160 -37v582h135v-582h-135z" />
    <glyph glyph-name="section" unicode="&#xa7;" 
d="M289 652q0 -112 76 -174q75 -64 187 -64t200 70t88 180q0 108 -72 170t-184 61q-112 1 -204 -65q-91 -66 -91 -178zM104 608q0 281 359 357q-121 84 -121 224t114 235q114 96 259 96t236 -77t91 -163q0 -57 -34 -97t-84 -40q-51 1 -85 29t-34 70t29 75q28 33 28 50
t-34 37t-93 21q-102 0 -168 -60q-65 -60 -65 -141t54 -128t130 -72q76 -26 153 -54t131 -97t54 -177q0 -160 -110 -252t-275 -112q84 -58 124 -118t40 -148q0 -136 -119 -228t-251 -92t-234 64t-103 180q0 55 34 96t86 41t85 -26q33 -25 33 -67t-31 -74t-31 -46t14 -30
q34 -41 129 -43q95 -1 155 64t60 143q1 139 -185 218q-77 33 -155 70q-78 36 -132 104t-54 168z" />
    <glyph glyph-name="dieresis" unicode="&#xa8;" horiz-adv-x="569" 
d="M539 1321q0 47 33 80q34 33 79 33t79 -33t34 -80t-34 -80t-79 -33t-79 33q-33 33 -33 80zM125 1321q0 47 34 80t79 33q44 0 78 -33t34 -80t-34 -80t-78 -33t-79 33q-34 33 -34 80z" />
    <glyph glyph-name="copyright" unicode="&#xa9;" horiz-adv-x="1638" 
d="M164 741q0 -283 191 -477t463 -194t465 194q191 196 191 478t-190 477q-192 195 -464 195t-465 -195q-191 -195 -191 -478zM41 741q0 324 227 551q227 228 551 228t551 -228t227 -551q0 -324 -227 -551t-551 -227t-551 227t-227 551zM1143 1077v-149h-33q-10 80 -68 135
t-187 55q-130 0 -204 -99t-76 -270t74 -277t234 -107q182 0 260 184h35l-35 -154q-3 -14 -17 -22t-92 -31t-172 -23q-198 1 -322 107t-124 322q0 156 119 286t342 129q102 0 198 -30q68 -25 68 -56z" />
    <glyph glyph-name="ordfeminine" unicode="&#xaa;" horiz-adv-x="888" 
d="M637 1139q0 57 -37 102q-36 45 -106 45t-125 -60t-78 -131t-23 -130t32 -99t97 -41q94 -1 167 101t73 213zM350 719q-229 -1 -229 273q0 128 99 254t258 126t194 -139h4l26 123h125l-110 -438q-10 -47 -10 -62q0 -31 32 -31q70 0 135 152h54q-68 -258 -244 -258
q-55 -1 -84 25t-29 54t7 46l-3 4q-104 -129 -225 -129z" />
    <glyph glyph-name="guillemotleft" unicode="&#xab;" horiz-adv-x="909" 
d="M395 553l260 254h158l-266 -254l262 -266h-147zM68 553l260 254h157l-266 -254l262 -266h-147z" />
    <glyph glyph-name="logicalnot" unicode="&#xac;" horiz-adv-x="1228" 
d="M997 221v434h-901v136h1037v-570h-136z" />
    <glyph glyph-name="registered" unicode="&#xae;" horiz-adv-x="1638" 
d="M713 1094v-355h96q147 0 147 193q0 162 -151 162h-92zM578 463v557q0 52 -18 68t-87 18v33h381q104 0 177 -50q73 -51 73 -139t-48 -148t-126 -85l123 -170q96 -129 164 -185v-18h-138q-31 0 -61 38t-92 141q-61 103 -107 171h-106v-231q0 -53 18 -69t86 -17v-33h-344v33
q69 1 87 17t18 69zM164 741q0 -283 191 -477t463 -194t465 194q191 196 191 478t-190 477q-192 195 -464 195t-465 -195q-191 -195 -191 -478zM41 741q0 324 227 551q227 228 551 228t551 -228t227 -551q0 -324 -227 -551t-551 -227t-551 227t-227 551z" />
    <glyph glyph-name="macron" unicode="&#xaf;" horiz-adv-x="569" 
d="M166 1257l24 123h549l-22 -123h-551z" />
    <glyph glyph-name="degree" unicode="&#xb0;" horiz-adv-x="819" 
d="M272 1079q0 -82 58 -140t142 -58q83 0 140 58t58 140q0 83 -58 141t-140 58q-84 0 -142 -58t-58 -141zM178 1079q0 121 86 207t207 86t207 -86t86 -207t-86 -207t-207 -86t-207 86t-86 207z" />
    <glyph glyph-name="plusminus" unicode="&#xb1;" horiz-adv-x="1228" 
d="M96 0v135h1037v-135h-1037zM96 557v135h451v344h135v-344h451v-135h-451v-344h-135v344h-451z" />
    <glyph glyph-name="twosuperior" unicode="&#xb2;" horiz-adv-x="739" 
d="M567 1157q0 68 -48 107t-105 39q-58 0 -98 -24t-40 -44q0 -9 29 -29t29 -51t-24 -49t-68 -18t-68 25q-25 26 -24 65q0 88 81 141q82 53 196 53t201 -58t87 -154q-1 -96 -57 -155q-56 -61 -199 -121t-203 -102t-72 -98h273q96 0 130 23t60 104h49l-59 -233h-571
q16 138 75 206t193 141t184 119q49 46 49 113z" />
    <glyph glyph-name="threesuperior" unicode="&#xb3;" horiz-adv-x="739" 
d="M580 1161q0 69 -42 105t-94 37q-52 -1 -85 -15q-32 -14 -31 -31q0 -4 14 -23t14 -46t-22 -45q-22 -19 -61 -19q-41 0 -65 24t-24 60q0 78 83 121t190 43t183 -48t75 -131q0 -83 -51 -135t-132 -69v-4q70 -14 113 -62t43 -114q0 -111 -100 -179t-240 -69q-140 0 -212 54
q-71 54 -70 124q0 39 26 67q27 28 72 28q86 0 86 -70q0 -35 -27 -51q-27 -17 -27 -25q1 -24 50 -40q49 -17 90 -17q86 0 145 53q59 54 59 124t-52 107q-54 37 -128 37h-30l18 70q92 0 162 35t70 104z" />
    <glyph glyph-name="acute" unicode="&#xb4;" horiz-adv-x="569" 
d="M686 1540q30 0 52 -22q24 -22 24 -40q0 -48 -39 -74q-17 -12 -25 -18t-10 -6l-313 -196h-76l260 270q47 50 72 68t55 18z" />
    <glyph glyph-name="mu" unicode="&#xb5;" horiz-adv-x="1366" 
d="M393 1016q82 0 107 20l-146 -639q-30 -141 -30 -186t26 -73t68 -27q125 -1 289 201t239 522l43 182h182l-172 -754q-16 -72 -16 -100q0 -51 49 -51q113 0 209 280h82q-104 -428 -367 -428q-78 0 -118 44q-40 45 -39 105q0 60 43 242l-4 4q-64 -130 -184 -250
q-60 -62 -136 -104t-150 -41q-74 0 -126 53q-14 -260 -42 -339t-112 -78q-47 -1 -72 31q-24 32 -24 79t26 137q27 90 74 242t78 293l55 254q41 180 41 213q0 69 -59 84q-42 11 -98 14l14 70h270z" />
    <glyph glyph-name="paragraph" unicode="&#xb6;" horiz-adv-x="1228" 
d="M549 733l147 656q-118 0 -194 -72q-138 -130 -135 -385q0 -100 51 -150t131 -49zM864 -172h23l-10 -45h-293l366 1630h-123l-366 -1630h-293l10 45h23q145 0 174 127l151 684q-319 0 -319 307q0 262 142 400t399 137h509l-10 -45h-22q-145 0 -174 -127l-303 -1356l-7 -37
q0 -90 123 -90z" />
    <glyph glyph-name="periodcentered" unicode="&#xb7;" horiz-adv-x="569" 
d="M172 649q0 47 33 80t80 33t80 -33t33 -80t-34 -80q-32 -33 -79 -33t-80 34q-33 32 -33 79z" />
    <glyph glyph-name="cedilla" unicode="&#xb8;" horiz-adv-x="569" 
d="M118 -371q60 0 94 27t34 67t-31 59t-71 19t-64 -12l-21 18l134 193h75l-82 -121l4 -4q25 8 52 8q70 0 116 -43t48 -109q0 -67 -65 -119t-181 -52t-201 47l37 59q62 -37 122 -37z" />
    <glyph glyph-name="onesuperior" unicode="&#xb9;" horiz-adv-x="739" 
d="M426 684q0 -59 123 -61l-10 -45h-385l10 45q111 0 131 82l106 430q11 47 11 64t-14 29t-30 14q-18 3 -57 7l11 45q129 0 186 62h78l-150 -608q-10 -35 -10 -64z" />
    <glyph glyph-name="ordmasculine" unicode="&#xba;" horiz-adv-x="815" 
d="M268 979q0 -86 45 -138q45 -53 136 -53t166 96t75 228q0 86 -45 138t-136 52t-166 -96t-75 -227zM121 1024q0 138 111 243q112 105 270 105t246 -83q90 -83 90 -221t-112 -244q-112 -105 -270 -105t-246 83q-89 84 -89 222z" />
    <glyph glyph-name="guillemotright" unicode="&#xbb;" horiz-adv-x="909" 
d="M96 287l266 254l-262 266h148l266 -266l-260 -254h-158zM424 287l266 254l-262 266h147l267 -266l-260 -254h-158z" />
    <glyph glyph-name="onequarter" unicode="&#xbc;" horiz-adv-x="1708" 
d="M1354 299l76 324h-5l-346 -324h275zM1442 100q0 -59 123 -55l-13 -45h-389l8 45q70 0 102 23t44 75l20 86h-389l19 70l540 496h92l-116 -496h116l-16 -70h-117l-6 -28q-18 -86 -18 -101zM381 684q0 -59 123 -61l-10 -45h-385l10 45q111 0 131 82l106 430q10 47 10 64
t-12 29q-14 12 -32 14q-18 3 -56 7l10 45q129 0 187 62h78l-150 -608q-10 -35 -10 -64zM336 -37l870 1417h107l-871 -1417h-106z" />
    <glyph glyph-name="onehalf" unicode="&#xbd;" horiz-adv-x="1708" 
d="M1452 580q0 68 -48 106q-48 39 -106 39t-97 -24q-40 -24 -40 -44q0 -10 29 -29q29 -18 29 -50t-24 -50t-68 -18q-45 0 -69 26t-24 64q0 88 82 141t196 53t200 -58t87 -154q0 -96 -56 -155q-55 -61 -199 -121t-203 -101t-72 -99h272q96 0 130 23t61 104h49l-59 -233h-572
q16 139 76 207q60 69 194 141t183 118t49 114zM381 684q0 -59 123 -61l-10 -45h-385l10 45q111 0 131 82l106 430q10 47 10 64t-12 29q-14 12 -32 14q-18 3 -56 7l10 45q129 0 187 62h78l-150 -608q-10 -35 -10 -64zM319 -37l871 1417h106l-870 -1417h-107z" />
    <glyph glyph-name="threequarters" unicode="&#xbe;" horiz-adv-x="1708" 
d="M1354 299l76 324h-5l-346 -324h275zM1442 100q0 -59 123 -55l-13 -45h-389l8 45q70 0 102 23t44 75l20 86h-389l19 70l540 496h92l-116 -496h116l-16 -70h-117l-6 -28q-18 -86 -18 -101zM623 1161q0 69 -42 105q-43 36 -95 37q-52 -1 -84 -15t-31 -31q0 -4 14 -23t14 -46
q1 -27 -21 -45q-22 -19 -62 -19t-64 24t-25 60q0 78 83 121t190 43q106 0 182 -48t76 -131t-51 -135t-132 -69v-4q70 -14 113 -62t43 -114q0 -111 -100 -179q-101 -68 -241 -69q-140 0 -211 54t-70 124q0 39 26 67q27 28 72 28q86 0 86 -70q0 -35 -27 -51q-26 -17 -26 -25
q1 -24 49 -40q49 -17 90 -17q86 0 145 53q60 54 60 124t-54 107t-127 37h-30l18 70q92 0 162 35t70 104zM397 -37l871 1417h106l-870 -1417h-107z" />
    <glyph glyph-name="questiondown" unicode="&#xbf;" 
d="M768 969q0 -47 -34 -80t-79 -33t-79 33t-33 80q0 47 34 80q35 33 79 33t78 -34q34 -32 34 -79zM484 -295q106 0 169 35t63 64q0 30 -34 58q-35 28 -35 74t35 78q35 33 87 33t90 -40t38 -95q0 -123 -128 -218q-127 -95 -321 -95t-308 98t-113 248q0 212 181 334
q76 51 154 101t140 134q61 84 73 201h107q-16 -119 -58 -211t-92 -144q-79 -80 -206 -184q-103 -85 -103 -209q0 -125 77 -193q78 -68 184 -69z" />
    <glyph glyph-name="Agrave" unicode="&#xc0;" horiz-adv-x="1593" 
d="M735 1892q0 38 23 58q22 20 60 20t81 -55l229 -301h-67l-283 209q-43 31 -43 69zM997 643l-108 614l-373 -614h481zM1075 199q0 23 -6 63l-53 275h-565l-156 -252q-45 -74 -45 -114q0 -39 28 -61t60 -28t92 -12l-10 -70h-539l15 70q143 16 213 129l792 1284h143
l234 -1268q14 -82 62 -111t139 -34l-13 -70h-608l14 70q14 0 38 3t43 5t27 5t26 8q16 5 23 11t20 15t19 34q7 25 7 48z" />
    <glyph glyph-name="Aacute" unicode="&#xc1;" horiz-adv-x="1593" 
d="M1238 1970q30 0 54 -22t23 -40q0 -48 -39 -74q-16 -11 -24 -17t-11 -7l-313 -196h-76l260 270q47 50 72 68q24 18 54 18zM997 643l-108 614l-373 -614h481zM1075 199q0 23 -6 63l-53 275h-565l-156 -252q-45 -74 -45 -114q0 -39 28 -61t60 -28t92 -12l-10 -70h-539l15 70
q143 16 213 129l792 1284h143l234 -1268q14 -82 62 -111t139 -34l-13 -70h-608l14 70q14 0 38 3t43 5t27 5t26 8q16 5 23 11t20 15t19 34q7 25 7 48z" />
    <glyph glyph-name="Acircumflex" unicode="&#xc2;" horiz-adv-x="1593" 
d="M662 1614l329 356h111l178 -356h-80l-176 209l-274 -209h-88zM997 643l-108 614l-373 -614h481zM1075 199q0 23 -6 63l-53 275h-565l-156 -252q-45 -74 -45 -114q0 -39 28 -61t60 -28t92 -12l-10 -70h-539l15 70q143 16 213 129l792 1284h143l234 -1268q14 -82 62 -111
t139 -34l-13 -70h-608l14 70q14 0 38 3t43 5t27 5t26 8q16 5 23 11t20 15t19 34q7 25 7 48z" />
    <glyph glyph-name="Atilde" unicode="&#xc3;" horiz-adv-x="1593" 
d="M1155 1661q-45 0 -146 44t-147 44q-82 0 -108 -88h-66q23 86 82 149q60 64 130 64t164 -45t144 -45q82 0 109 90h65q-23 -86 -82 -150t-145 -63zM997 643l-108 614l-373 -614h481zM1075 199q0 23 -6 63l-53 275h-565l-156 -252q-45 -74 -45 -114q0 -39 28 -61t60 -28
t92 -12l-10 -70h-539l15 70q143 16 213 129l792 1284h143l234 -1268q14 -82 62 -111t139 -34l-13 -70h-608l14 70q14 0 38 3t43 5t27 5t26 8q16 5 23 11t20 15t19 34q7 25 7 48z" />
    <glyph glyph-name="Adieresis" unicode="&#xc4;" horiz-adv-x="1593" 
d="M1092 1751q0 47 33 80q34 33 79 33t79 -33t34 -80t-34 -80t-79 -33t-79 33q-33 33 -33 80zM678 1751q0 47 34 80t79 33t79 -33t33 -80q0 -47 -34 -80q-35 -33 -79 -33t-78 33t-34 80zM997 643l-108 614l-373 -614h481zM1075 199q0 23 -6 63l-53 275h-565l-156 -252
q-45 -74 -45 -114q0 -39 28 -61t60 -28t92 -12l-10 -70h-539l15 70q143 16 213 129l792 1284h143l234 -1268q14 -82 62 -111t139 -34l-13 -70h-608l14 70q14 0 38 3t43 5t27 5t26 8q16 5 23 11t20 15t19 34q7 25 7 48z" />
    <glyph glyph-name="Aring" unicode="&#xc5;" horiz-adv-x="1593" 
d="M881 1724q0 -53 37 -90t90 -37t90 37t37 90q0 52 -37 90t-90 38t-90 -38q-37 -37 -37 -90zM799 1724q0 86 61 148q62 62 148 61q86 0 147 -61q61 -62 61 -148t-60 -147q-62 -61 -148 -61t-148 61q-61 61 -61 147zM997 643l-108 614l-373 -614h481zM1075 199q0 23 -6 63
l-53 275h-565l-156 -252q-45 -74 -45 -114q0 -39 28 -61t60 -28t92 -12l-10 -70h-539l15 70q143 16 213 129l792 1284h143l234 -1268q14 -82 62 -111t139 -34l-13 -70h-608l14 70q14 0 38 3t43 5t27 5t26 8q16 5 23 11t20 15t19 34q7 25 7 48z" />
    <glyph glyph-name="AE" unicode="&#xc6;" horiz-adv-x="1820" 
d="M856 643l164 733h-102l-420 -733h358zM1686 1239q0 76 -50 107t-145 30h-274l-125 -561h122q88 0 117 35t66 168h80l-127 -576h-82q26 134 26 182t-24 66q-25 18 -80 19h-123l-133 -603h268q166 0 247 78t142 328h78l-113 -512h-933l12 70q57 2 80 18t35 76l84 373h-396
l-135 -238q-61 -109 -61 -153t34 -59t119 -17l-16 -70h-488l15 70q53 2 81 8q29 6 67 42t79 107l723 1256h983l-102 -486h-82q31 166 31 242z" />
    <glyph glyph-name="Ccedilla" unicode="&#xc7;" horiz-adv-x="1593" 
d="M651 -371q59 0 93 27t34 67t-30 59q-31 19 -71 19t-65 -12l-20 18l114 166q-217 33 -371 173q-202 183 -202 509q0 231 99 428q98 197 284 317t420 120q168 0 447 -109q24 -8 40 -8q53 0 88 80h72l-115 -522h-69v88q0 125 -69 207q-70 82 -154 112q-84 29 -177 29
q-157 0 -281 -68q-124 -69 -201 -179q-159 -228 -159 -501q0 -275 146 -419t395 -144q182 0 311 90t189 258h104q-49 -217 -223 -344t-436 -127q-34 0 -67 2l-58 -86l4 -4q25 8 51 8q70 0 117 -43t47 -109q0 -67 -65 -119t-181 -52t-200 47l36 59q63 -37 123 -37z" />
    <glyph glyph-name="Egrave" unicode="&#xc8;" horiz-adv-x="1478" 
d="M637 1892q0 78 83 78q38 0 81 -55l229 -301h-67l-283 209q-43 31 -43 69zM1219 1232q0 66 -41 106q-41 38 -150 38h-377l-129 -561h140q84 0 136 29q52 28 71 64t44 108l19 51h76l-148 -670h-76q18 111 19 168q0 143 -144 144h-161l-140 -603h461q171 0 236 67t99 163
t63 196h77l-120 -532h-1211l14 70q100 0 143 33q42 34 64 130l203 881q35 154 35 188q0 72 -60 92q-46 15 -149 19l12 70h1147l-108 -522h-84q39 205 39 271z" />
    <glyph glyph-name="Eacute" unicode="&#xc9;" horiz-adv-x="1478" 
d="M1140 1970q30 0 54 -22t23 -40q1 -18 -1 -25t-6 -13t-7 -10q-18 -23 -30 -30t-20 -13t-10 -7l-314 -196h-75l260 270q48 50 72 68t54 18zM1219 1232q0 66 -41 106q-41 38 -150 38h-377l-129 -561h140q84 0 136 29q52 28 71 64t44 108l19 51h76l-148 -670h-76
q18 111 19 168q0 143 -144 144h-161l-140 -603h461q171 0 236 67t99 163t63 196h77l-120 -532h-1211l14 70q100 0 143 33q42 34 64 130l203 881q35 154 35 188q0 72 -60 92q-46 15 -149 19l12 70h1147l-108 -522h-84q39 205 39 271z" />
    <glyph glyph-name="Ecircumflex" unicode="&#xca;" horiz-adv-x="1478" 
d="M563 1614l330 356h111l178 -356h-80l-176 209l-275 -209h-88zM1219 1232q0 66 -41 106q-41 38 -150 38h-377l-129 -561h140q84 0 136 29q52 28 71 64t44 108l19 51h76l-148 -670h-76q18 111 19 168q0 143 -144 144h-161l-140 -603h461q171 0 236 67t99 163t63 196h77
l-120 -532h-1211l14 70q100 0 143 33q42 34 64 130l203 881q35 154 35 188q0 72 -60 92q-46 15 -149 19l12 70h1147l-108 -522h-84q39 205 39 271z" />
    <glyph glyph-name="Edieresis" unicode="&#xcb;" horiz-adv-x="1478" 
d="M993 1751q0 47 34 80t79 33t79 -33t34 -80t-34 -80t-79 -33t-79 33t-34 80zM580 1751q0 47 33 80q34 33 79 33t79 -33t34 -80t-34 -80t-79 -33t-79 33q-33 33 -33 80zM1219 1232q0 66 -41 106q-41 38 -150 38h-377l-129 -561h140q84 0 136 29q52 28 71 64t44 108l19 51
h76l-148 -670h-76q18 111 19 168q0 143 -144 144h-161l-140 -603h461q171 0 236 67t99 163t63 196h77l-120 -532h-1211l14 70q100 0 143 33q42 34 64 130l203 881q35 154 35 188q0 72 -60 92q-46 15 -149 19l12 70h1147l-108 -522h-84q39 205 39 271z" />
    <glyph glyph-name="Igrave" unicode="&#xcc;" horiz-adv-x="798" 
d="M338 1892q0 78 83 78q38 0 81 -55l229 -301h-67l-283 209q-43 31 -43 69zM446 1322q0 58 -51 73q-51 14 -131 18l15 70h608l-15 -70q-114 -2 -160 -28t-67 -117l-227 -1002q-16 -70 -16 -112t38 -62q39 -20 148 -22l-15 -70h-589l14 70q100 0 142 34t65 129l225 992
q16 67 16 97z" />
    <glyph glyph-name="Iacute" unicode="&#xcd;" horiz-adv-x="798" 
d="M841 1970q29 0 53 -22t24 -40t-2 -25t-5 -13q-4 -6 -7 -10q-18 -23 -30 -30t-20 -13t-10 -7l-314 -196h-75l260 270q47 50 71 68t55 18zM446 1322q0 58 -51 73q-51 14 -131 18l15 70h608l-15 -70q-114 -2 -160 -28t-67 -117l-227 -1002q-16 -70 -16 -112t38 -62
q39 -20 148 -22l-15 -70h-589l14 70q100 0 142 34t65 129l225 992q16 67 16 97z" />
    <glyph glyph-name="Icircumflex" unicode="&#xce;" horiz-adv-x="798" 
d="M264 1614l330 356h111l178 -356h-80l-176 209l-275 -209h-88zM446 1322q0 58 -51 73q-51 14 -131 18l15 70h608l-15 -70q-114 -2 -160 -28t-67 -117l-227 -1002q-16 -70 -16 -112t38 -62q39 -20 148 -22l-15 -70h-589l14 70q100 0 142 34t65 129l225 992q16 67 16 97z
" />
    <glyph glyph-name="Idieresis" unicode="&#xcf;" horiz-adv-x="798" 
d="M694 1751q0 47 34 80t79 33t79 -33t34 -80t-34 -80t-79 -33t-79 33t-34 80zM281 1751q0 47 33 80q34 33 79 33t79 -33t34 -80t-34 -80t-79 -33t-79 33q-33 33 -33 80zM446 1322q0 58 -51 73q-51 14 -131 18l15 70h608l-15 -70q-114 -2 -160 -28t-67 -117l-227 -1002
q-16 -70 -16 -112t38 -62q39 -20 148 -22l-15 -70h-589l14 70q100 0 142 34t65 129l225 992q16 67 16 97z" />
    <glyph glyph-name="Eth" unicode="&#xd0;" horiz-adv-x="1705" 
d="M629 106q174 0 312 50t219 126q81 75 134 174q90 168 90 361q0 129 -38 229t-100 162q-169 168 -464 168q-94 0 -135 -4l-125 -557h430l-20 -106h-434l-138 -603h269zM426 1322q0 58 -50 73q-50 14 -132 18l14 70h594q375 -1 566 -183t192 -475q0 -233 -114 -437
q-62 -112 -156 -197t-242 -138q-150 -53 -336 -53h-799l14 70q100 0 143 33q42 34 64 130l109 476h-184l20 106h188l93 410q16 67 16 97z" />
    <glyph glyph-name="Ntilde" unicode="&#xd1;" horiz-adv-x="1593" 
d="M1114 1661q-45 0 -146 44t-147 44q-82 0 -108 -88h-66q23 86 82 149q59 64 129 64t166 -45q94 -45 143 -45q82 0 109 90h65q-23 -86 -81 -150q-59 -63 -146 -63zM403 1322q0 58 -51 73q-51 14 -131 18l15 70h337l572 -1182h4l194 852q27 119 27 153q0 71 -51 87t-131 20
l16 70h473l-16 -70q-80 -10 -121 -43t-61 -121l-285 -1249h-119l-571 1182h-4l-209 -916q-17 -70 -17 -112t38 -62t141 -22l-15 -70h-499l14 70q102 0 144 34t65 129l225 992q16 67 16 97z" />
    <glyph glyph-name="Ograve" unicode="&#xd2;" horiz-adv-x="1820" 
d="M809 1892q0 78 83 78q38 0 81 -55l229 -301h-67l-283 209q-43 31 -43 69zM133 668q0 234 131 449q70 114 169 203t251 144t330 56q313 0 512 -184t198 -521q0 -238 -131 -449q-70 -114 -169 -203q-98 -89 -250 -145t-330 -55q-313 1 -512 185t-199 520zM358 642
q0 -315 153 -444q153 -130 344 -129t342 126t226 303q76 178 76 342q0 429 -318 543q-85 30 -182 30q-188 0 -339 -125q-150 -125 -226 -303q-76 -179 -76 -343z" />
    <glyph glyph-name="Oacute" unicode="&#xd3;" horiz-adv-x="1820" 
d="M1312 1970q30 0 54 -22t23 -46q0 -23 -8 -34q-8 -10 -13 -17q-6 -7 -16 -15t-14 -10t-13 -9q-8 -6 -10 -7l-314 -196h-75l260 270q48 50 72 68t54 18zM133 668q0 234 131 449q70 114 169 203t251 144t330 56q313 0 512 -184t198 -521q0 -238 -131 -449
q-70 -114 -169 -203q-98 -89 -250 -145t-330 -55q-313 1 -512 185t-199 520zM358 642q0 -315 153 -444q153 -130 344 -129t342 126t226 303q76 178 76 342q0 429 -318 543q-85 30 -182 30q-188 0 -339 -125q-150 -125 -226 -303q-76 -179 -76 -343z" />
    <glyph glyph-name="Ocircumflex" unicode="&#xd4;" horiz-adv-x="1820" 
d="M735 1614l330 356h111l178 -356h-80l-176 209l-275 -209h-88zM133 668q0 234 131 449q70 114 169 203t251 144t330 56q313 0 512 -184t198 -521q0 -238 -131 -449q-70 -114 -169 -203q-98 -89 -250 -145t-330 -55q-313 1 -512 185t-199 520zM358 642q0 -315 153 -444
q153 -130 344 -129t342 126t226 303q76 178 76 342q0 429 -318 543q-85 30 -182 30q-188 0 -339 -125q-150 -125 -226 -303q-76 -179 -76 -343z" />
    <glyph glyph-name="Otilde" unicode="&#xd5;" horiz-adv-x="1820" 
d="M1229 1661q-45 0 -147 44t-146 44q-82 0 -109 -88h-65q23 86 82 149q60 64 130 64t164 -45t144 -45q82 0 109 90h65q-23 -86 -82 -150t-145 -63zM133 668q0 234 131 449q70 114 169 203t251 144t330 56q313 0 512 -184t198 -521q0 -238 -131 -449q-70 -114 -169 -203
q-98 -89 -250 -145t-330 -55q-313 1 -512 185t-199 520zM358 642q0 -315 153 -444q153 -130 344 -129t342 126t226 303q76 178 76 342q0 429 -318 543q-85 30 -182 30q-188 0 -339 -125q-150 -125 -226 -303q-76 -179 -76 -343z" />
    <glyph glyph-name="Odieresis" unicode="&#xd6;" horiz-adv-x="1820" 
d="M1165 1751q0 47 34 80t79 33t79 -33t34 -80t-34 -80t-79 -33t-79 33t-34 80zM752 1751q0 47 33 80q34 33 79 33t79 -33t34 -80t-34 -80t-79 -33t-79 33q-33 33 -33 80zM133 668q0 234 131 449q70 114 169 203t251 144t330 56q313 0 512 -184t198 -521q0 -238 -131 -449
q-70 -114 -169 -203q-98 -89 -250 -145t-330 -55q-313 1 -512 185t-199 520zM358 642q0 -315 153 -444q153 -130 344 -129t342 126t226 303q76 178 76 342q0 429 -318 543q-85 30 -182 30q-188 0 -339 -125q-150 -125 -226 -303q-76 -179 -76 -343z" />
    <glyph glyph-name="multiply" unicode="&#xd7;" horiz-adv-x="1228" 
d="M520 518l-373 373l95 94l372 -375l373 375l94 -94l-372 -373l372 -373l-94 -94l-373 375l-372 -375l-95 94z" />
    <glyph glyph-name="Oslash" unicode="&#xd8;" horiz-adv-x="1820" 
d="M133 668q0 234 131 449q70 114 169 203t251 144t330 56q258 0 438 -125l129 143l70 -61l-125 -142q199 -188 198 -520q0 -238 -131 -449q-70 -114 -169 -203q-98 -89 -250 -145t-330 -55q-258 0 -438 125l-130 -143l-69 61l127 141q-201 190 -201 521zM844 70
q202 0 353 125t226 303q76 178 76 374t-90 334l-901 -1003q134 -133 336 -133zM1014 1413q-203 0 -354 -125q-150 -125 -226 -303t-76 -375t91 -334l899 1004q-131 133 -334 133z" />
    <glyph glyph-name="Ugrave" unicode="&#xd9;" horiz-adv-x="1705" 
d="M793 1892q0 38 22 58q23 20 61 20t80 -55l230 -301h-68l-282 209q-43 31 -43 69zM416 430q0 -168 119 -256t292 -88q391 0 482 406l153 675q20 86 20 144q0 57 -48 79q-49 22 -134 23l15 70h487l-16 -70q-80 -1 -122 -25t-58 -96l-191 -839q-57 -248 -224 -369t-413 -121
q-158 0 -294 67q-163 78 -228 213q-37 77 -37 160t21 179l133 585q20 86 20 144t-49 79t-133 23l14 70h570l-17 -70q-80 -1 -122 -25t-58 -96l-170 -751q-12 -59 -12 -111z" />
    <glyph glyph-name="Uacute" unicode="&#xda;" horiz-adv-x="1705" 
d="M1296 1970q30 0 53 -22t23 -40t-1 -25q-1 -9 -13 -24q-12 -16 -16 -19q-5 -3 -12 -8t-10 -7t-11 -8t-11 -7l-313 -196h-76l260 270q47 50 72 68t55 18zM416 430q0 -168 119 -256t292 -88q391 0 482 406l153 675q20 86 20 144q0 57 -48 79q-49 22 -134 23l15 70h487
l-16 -70q-80 -1 -122 -25t-58 -96l-191 -839q-57 -248 -224 -369t-413 -121q-158 0 -294 67q-163 78 -228 213q-37 77 -37 160t21 179l133 585q20 86 20 144t-49 79t-133 23l14 70h570l-17 -70q-80 -1 -122 -25t-58 -96l-170 -751q-12 -59 -12 -111z" />
    <glyph glyph-name="Ucircumflex" unicode="&#xdb;" horiz-adv-x="1705" 
d="M719 1614l330 356h110l178 -356h-80l-176 209l-274 -209h-88zM416 430q0 -168 119 -256t292 -88q391 0 482 406l153 675q20 86 20 144q0 57 -48 79q-49 22 -134 23l15 70h487l-16 -70q-80 -1 -122 -25t-58 -96l-191 -839q-57 -248 -224 -369t-413 -121q-158 0 -294 67
q-163 78 -228 213q-37 77 -37 160t21 179l133 585q20 86 20 144t-49 79t-133 23l14 70h570l-17 -70q-80 -1 -122 -25t-58 -96l-170 -751q-12 -59 -12 -111z" />
    <glyph glyph-name="Udieresis" unicode="&#xdc;" horiz-adv-x="1705" 
d="M1149 1751q0 47 34 80t79 33q44 0 78 -33t34 -80t-34 -80t-78 -33t-79 33q-34 33 -34 80zM735 1751q0 47 34 80t79 33t79 -33t34 -80t-34 -80t-79 -33t-79 33t-34 80zM416 430q0 -168 119 -256t292 -88q391 0 482 406l153 675q20 86 20 144q0 57 -48 79q-49 22 -134 23
l15 70h487l-16 -70q-80 -1 -122 -25t-58 -96l-191 -839q-57 -248 -224 -369t-413 -121q-158 0 -294 67q-163 78 -228 213q-37 77 -37 160t21 179l133 585q20 86 20 144t-49 79t-133 23l14 70h570l-17 -70q-80 -1 -122 -25t-58 -96l-170 -751q-12 -59 -12 -111z" />
    <glyph glyph-name="Yacute" unicode="&#xdd;" horiz-adv-x="1478" 
d="M1140 1970q30 0 54 -22t23 -40q1 -18 -1 -25t-6 -13t-7 -10q-18 -23 -30 -30t-20 -13t-10 -7l-314 -196h-75l260 270q48 50 72 68t54 18zM575 1290q0 -31 25 -90l188 -481l429 520q35 43 35 89t-45 64q-44 18 -136 21l14 70h564l-13 -70q-84 -8 -129 -34t-102 -93
l-578 -696l-71 -309q-20 -94 -20 -123q-1 -59 66 -75q47 -10 113 -13l-14 -70h-602l14 70q135 2 173 36t69 168l74 316l-252 637q-47 117 -91 151t-161 35l12 70h660l-15 -70q-78 0 -142 -29t-65 -94z" />
    <glyph glyph-name="Thorn" unicode="&#xde;" horiz-adv-x="1251" 
d="M575 451q193 -1 309 111t115 278q0 293 -313 293h-92l-154 -682h135zM426 1322q0 58 -50 73q-50 14 -132 18l14 70h608l-14 -70q-123 -2 -166 -32t-68 -142h113q240 0 361 -103t120 -286q0 -215 -160 -361q-161 -145 -454 -145h-182l-19 -78q-16 -70 -16 -112t39 -62
t147 -22l-14 -70h-590l14 70q100 0 143 33q42 34 64 130l226 992q16 67 16 97z" />
    <glyph glyph-name="germandbls" unicode="&#xdf;" horiz-adv-x="1253" 
d="M774 1520q133 0 246 -72t113 -197t-75 -195t-196 -85v-4q147 -25 223 -124t76 -247t-52 -290q-52 -140 -167 -241t-254 -101t-213 72q-74 73 -74 202q0 72 17 149h86q-8 -89 -8 -149t38 -114t109 -54q104 0 181 91t109 201t32 211q0 328 -314 349l23 94q121 0 204 51
t83 166q-1 82 -57 131t-146 49q-219 0 -277 -256l-270 -1157h-182l243 1075q45 195 139 310q109 135 363 135z" />
    <glyph glyph-name="agrave" unicode="&#xe0;" horiz-adv-x="1366" 
d="M541 1462q0 38 22 58q23 20 61 20t81 -55l229 -301h-68l-282 209q-43 31 -43 69zM305 342q0 -94 54 -163t161 -69t200 99q93 98 139 223t46 233q0 109 -62 187q-61 78 -161 78t-175 -61q-127 -101 -181 -337q-22 -96 -21 -190zM979 162q0 -51 49 -51q113 0 209 280h82
q-104 -428 -367 -428q-78 0 -118 41t-39 86q0 45 12 82h-4q-61 -82 -157 -145t-195 -64q-174 0 -258 122t-84 289q0 168 62 318t189 255t283 106q115 -1 195 -59t112 -169h4l43 191h168l-170 -754q-16 -72 -16 -100z" />
    <glyph glyph-name="aacute" unicode="&#xe1;" horiz-adv-x="1366" 
d="M1044 1540q30 0 53 -22t23 -40t-1 -25t-5 -13q-18 -26 -33 -37q-16 -10 -24 -16q-8 -7 -10 -7l-314 -196h-76l261 270q48 50 72 68t54 18zM305 342q0 -94 54 -163t161 -69t200 99q93 98 139 223t46 233q0 109 -62 187q-61 78 -161 78t-175 -61q-127 -101 -181 -337
q-22 -96 -21 -190zM979 162q0 -51 49 -51q113 0 209 280h82q-104 -428 -367 -428q-78 0 -118 41t-39 86q0 45 12 82h-4q-61 -82 -157 -145t-195 -64q-174 0 -258 122t-84 289q0 168 62 318t189 255t283 106q115 -1 195 -59t112 -169h4l43 191h168l-170 -754
q-16 -72 -16 -100z" />
    <glyph glyph-name="acircumflex" unicode="&#xe2;" horiz-adv-x="1366" 
d="M467 1184l330 356h110l178 -356h-79l-177 209l-274 -209h-88zM305 342q0 -94 54 -163t161 -69t200 99q93 98 139 223t46 233q0 109 -62 187q-61 78 -161 78t-175 -61q-127 -101 -181 -337q-22 -96 -21 -190zM979 162q0 -51 49 -51q113 0 209 280h82q-104 -428 -367 -428
q-78 0 -118 41t-39 86q0 45 12 82h-4q-61 -82 -157 -145t-195 -64q-174 0 -258 122t-84 289q0 168 62 318t189 255t283 106q115 -1 195 -59t112 -169h4l43 191h168l-170 -754q-16 -72 -16 -100z" />
    <glyph glyph-name="atilde" unicode="&#xe3;" horiz-adv-x="1366" 
d="M961 1231q-45 0 -147 44t-146 44q-82 0 -109 -88h-65q23 86 81 149q59 64 130 64t165 -45t144 -45q81 0 108 90h66q-23 -86 -82 -150t-145 -63zM305 342q0 -94 54 -163t161 -69t200 99q93 98 139 223t46 233q0 109 -62 187q-61 78 -161 78t-175 -61q-127 -101 -181 -337
q-22 -96 -21 -190zM979 162q0 -51 49 -51q113 0 209 280h82q-104 -428 -367 -428q-78 0 -118 41t-39 86q0 45 12 82h-4q-61 -82 -157 -145t-195 -64q-174 0 -258 122t-84 289q0 168 62 318t189 255t283 106q115 -1 195 -59t112 -169h4l43 191h168l-170 -754
q-16 -72 -16 -100z" />
    <glyph glyph-name="adieresis" unicode="&#xe4;" horiz-adv-x="1366" 
d="M897 1321q0 47 33 80t80 33t80 -33q32 -33 32 -80t-32 -80t-80 -33q-47 0 -80 33t-33 80zM483 1321q0 47 33 80t80 33t80 -33t33 -80t-33 -80t-80 -33t-80 33t-33 80zM305 342q0 -94 54 -163t161 -69t200 99q93 98 139 223t46 233q0 109 -62 187q-61 78 -161 78t-175 -61
q-127 -101 -181 -337q-22 -96 -21 -190zM979 162q0 -51 49 -51q113 0 209 280h82q-104 -428 -367 -428q-78 0 -118 41t-39 86q0 45 12 82h-4q-61 -82 -157 -145t-195 -64q-174 0 -258 122t-84 289q0 168 62 318t189 255t283 106q115 -1 195 -59t112 -169h4l43 191h168
l-170 -754q-16 -72 -16 -100z" />
    <glyph glyph-name="aring" unicode="&#xe5;" horiz-adv-x="1366" 
d="M666 1356q0 -53 38 -90t88 -37q52 0 90 37t38 90t-38 90t-89 37t-89 -37t-38 -90zM584 1356q0 86 61 147t147 61t148 -60q61 -62 61 -148t-61 -148t-147 -61q-86 0 -148 61q-61 62 -61 148zM305 342q0 -94 54 -163t161 -69t200 99q93 98 139 223t46 233q0 109 -62 187
q-61 78 -161 78t-175 -61q-127 -101 -181 -337q-22 -96 -21 -190zM979 162q0 -51 49 -51q113 0 209 280h82q-104 -428 -367 -428q-78 0 -118 41t-39 86q0 45 12 82h-4q-61 -82 -157 -145t-195 -64q-174 0 -258 122t-84 289q0 168 62 318t189 255t283 106q115 -1 195 -59
t112 -169h4l43 191h168l-170 -754q-16 -72 -16 -100z" />
    <glyph glyph-name="ae" unicode="&#xe6;" horiz-adv-x="1820" 
d="M1575 823q0 61 -47 99t-117 36q-154 0 -281 -158t-145 -323q332 22 501 170q89 78 89 176zM270 263q0 -73 47 -119t129 -46q168 0 271 154q102 154 108 336q-69 -41 -181 -76q-112 -34 -186 -56t-130 -71q-58 -49 -58 -122zM375 -37q-137 0 -219 81t-82 206t82 200
q82 76 198 102t232 45t198 67t82 134q0 87 -67 130q-68 43 -153 43q-84 0 -150 -30t-66 -69q0 -12 26 -42t26 -78t-35 -76q-34 -29 -90 -29t-91 37t-35 96q0 90 79 155q143 118 354 118q272 0 346 -181q111 92 210 136t225 45q126 0 214 -65t88 -166t-57 -175
q-58 -74 -144 -119q-248 -129 -567 -133v-43q0 -118 69 -192q70 -74 188 -74t224 74t166 192h94q-70 -176 -206 -282t-296 -106t-265 76q-103 77 -134 212q-180 -289 -444 -289z" />
    <glyph glyph-name="ccedilla" unicode="&#xe7;" 
d="M424 -371q60 0 93 27q34 27 34 67t-31 59t-71 19t-64 -12l-20 18l109 159q-154 15 -260 133t-105 304q0 254 190 452t446 198q123 -1 221 -63t97 -167q0 -59 -39 -103t-101 -44t-99 36q-36 36 -36 72q0 66 37 85q37 18 37 44q0 45 -90 45q-186 0 -326 -190t-141 -383
q0 -135 73 -217t201 -82t220 76t143 190h92q-59 -180 -186 -281t-299 -107l-57 -85l4 -4q25 8 51 8q70 0 117 -43t47 -109q0 -67 -65 -119q-66 -52 -182 -52t-200 47l37 59q63 -37 123 -37z" />
    <glyph glyph-name="egrave" unicode="&#xe8;" 
d="M467 1462q0 78 83 78q38 0 81 -55l229 -301h-67l-283 209q-43 31 -43 69zM885 823q0 61 -47 99t-117 36q-154 0 -281 -158t-145 -323q330 22 501 170q89 78 89 176zM92 393q0 176 99 329t252 242t295 89t231 -65q88 -65 88 -166q1 -101 -57 -175t-144 -119
q-246 -129 -567 -133v-43q1 -118 69 -192t187 -74t225 74t166 192h94q-70 -176 -206 -282t-320 -106t-298 126q-114 127 -114 303z" />
    <glyph glyph-name="eacute" unicode="&#xe9;" 
d="M970 1540q30 0 54 -22t23 -46q0 -23 -8 -34q-8 -10 -13 -17q-6 -7 -16 -15t-14 -10t-13 -10q-8 -6 -10 -6l-314 -196h-75l260 270q48 50 72 68t54 18zM885 823q0 61 -47 99t-117 36q-154 0 -281 -158t-145 -323q330 22 501 170q89 78 89 176zM92 393q0 176 99 329
t252 242t295 89t231 -65q88 -65 88 -166q1 -101 -57 -175t-144 -119q-246 -129 -567 -133v-43q1 -118 69 -192t187 -74t225 74t166 192h94q-70 -176 -206 -282t-320 -106t-298 126q-114 127 -114 303z" />
    <glyph glyph-name="ecircumflex" unicode="&#xea;" 
d="M393 1184l330 356h111l178 -356h-80l-176 209l-275 -209h-88zM885 823q0 61 -47 99t-117 36q-154 0 -281 -158t-145 -323q330 22 501 170q89 78 89 176zM92 393q0 176 99 329t252 242t295 89t231 -65q88 -65 88 -166q1 -101 -57 -175t-144 -119q-246 -129 -567 -133v-43
q1 -118 69 -192t187 -74t225 74t166 192h94q-70 -176 -206 -282t-320 -106t-298 126q-114 127 -114 303z" />
    <glyph glyph-name="edieresis" unicode="&#xeb;" 
d="M823 1321q0 47 33 80t80 33t80 -33t33 -80t-33 -80t-80 -33t-80 33t-33 80zM410 1321q0 47 32 80q33 33 80 33t80 -33t33 -80t-33 -80t-80 -33t-80 33q-32 33 -32 80zM885 823q0 61 -47 99t-117 36q-154 0 -281 -158t-145 -323q330 22 501 170q89 78 89 176zM92 393
q0 176 99 329t252 242t295 89t231 -65q88 -65 88 -166q1 -101 -57 -175t-144 -119q-246 -129 -567 -133v-43q1 -118 69 -192t187 -74t225 74t166 192h94q-70 -176 -206 -282t-320 -106t-298 126q-114 127 -114 303z" />
    <glyph glyph-name="igrave" unicode="&#xec;" horiz-adv-x="681" 
d="M199 1462q0 38 22 58q23 20 61 20t80 -55l230 -301h-68l-282 209q-43 31 -43 69zM395 1016q82 0 107 20l-166 -706q-27 -113 -27 -166t51 -53t112 86q60 86 91 194h88q-43 -166 -144 -297t-228 -131q-74 0 -120 41q-46 40 -46 92t14 111l100 428q41 180 41 213
q0 32 -14 54q-24 36 -98 41q-19 1 -60 3l15 70h284z" />
    <glyph glyph-name="iacute" unicode="&#xed;" horiz-adv-x="681" 
d="M742 1540q30 0 54 -22t24 -40t-2 -25q-1 -9 -13 -24q-12 -16 -16 -19q-5 -3 -12 -8t-10 -7q-3 -3 -11 -9t-11 -6l-313 -196h-76l260 270q47 50 72 68q24 18 54 18zM395 1016q82 0 107 20l-166 -706q-27 -113 -27 -166t51 -53t112 86q60 86 91 194h88q-43 -166 -144 -297
t-228 -131q-74 0 -120 41q-46 40 -46 92t14 111l100 428q41 180 41 213q0 32 -14 54q-24 36 -98 41q-19 1 -60 3l15 70h284z" />
    <glyph glyph-name="icircumflex" unicode="&#xee;" horiz-adv-x="681" 
d="M125 1184l330 356h110l178 -356h-79l-177 209l-274 -209h-88zM395 1016q82 0 107 20l-166 -706q-27 -113 -27 -166t51 -53t112 86q60 86 91 194h88q-43 -166 -144 -297t-228 -131q-74 0 -120 41q-46 40 -46 92t14 111l100 428q41 180 41 213q0 32 -14 54q-24 36 -98 41
q-19 1 -60 3l15 70h284z" />
    <glyph glyph-name="idieresis" unicode="&#xef;" horiz-adv-x="681" 
d="M555 1321q0 47 34 80t79 33q44 0 78 -33t34 -80t-34 -80t-78 -33t-79 33q-34 33 -34 80zM141 1321q0 47 34 80t79 33t79 -33t34 -80t-34 -80t-79 -33t-79 33t-34 80zM395 1016q82 0 107 20l-166 -706q-27 -113 -27 -166t51 -53t112 86q60 86 91 194h88
q-43 -166 -144 -297t-228 -131q-74 0 -120 41q-46 40 -46 92t14 111l100 428q41 180 41 213q0 32 -14 54q-24 36 -98 41q-19 1 -60 3l15 70h284z" />
    <glyph glyph-name="eth" unicode="&#xf0;" horiz-adv-x="1253" 
d="M1161 700q0 -426 -263 -630q-136 -106 -336 -106t-336 135q-134 135 -134 361t160 401t375 175t325 -143l4 4q-43 262 -194 410l-230 -117l-59 65l217 109q-86 66 -217 102l43 66q154 -37 277 -117l233 117l53 -66l-213 -106q143 -117 219 -290q76 -172 76 -370zM965 604
q0 150 -71 244q-72 94 -216 94t-266 -164t-123 -387q1 -147 71 -240t214 -93t268 162q123 163 123 384z" />
    <glyph glyph-name="ntilde" unicode="&#xf1;" horiz-adv-x="1366" 
d="M899 1231q-45 0 -146 44t-147 44q-82 0 -108 -88h-66q23 86 82 149q60 64 130 64t164 -45t144 -45q82 0 109 90h65q-23 -86 -82 -150t-145 -63zM268 848q0 68 -61 85q-34 9 -111 13l15 70h272q82 0 106 20l-83 -368l4 -4q66 145 197 267q132 122 272 122q104 -1 169 -63
t64 -165q0 -55 -25 -163l-73 -332q-27 -113 -27 -166t51 -53t112 86q60 86 91 194h88q-43 -166 -144 -297t-229 -131q-74 0 -120 41q-46 40 -45 92q0 52 14 111l90 411q33 150 33 191t-26 69t-71 27q-119 -1 -285 -193t-233 -483l-53 -229h-176l143 635q41 180 41 213z" />
    <glyph glyph-name="ograve" unicode="&#xf2;" horiz-adv-x="1253" 
d="M483 1462q0 38 23 58q22 20 60 20t81 -55l230 -301h-68l-283 209q-43 31 -43 69zM289 399q1 -149 71 -245t214 -96t268 165q123 166 123 393q0 146 -76 244t-201 98q-164 0 -282 -164t-117 -395zM92 451q0 250 166 426t418 176q217 -1 351 -139t134 -349
q0 -250 -166 -426t-417 -176q-217 0 -352 138q-134 139 -134 350z" />
    <glyph glyph-name="oacute" unicode="&#xf3;" horiz-adv-x="1253" 
d="M986 1540q30 0 54 -22t23 -40q0 -48 -39 -74l-24 -18t-11 -6l-313 -196h-76l260 270q47 50 72 68q24 18 54 18zM289 399q1 -149 71 -245t214 -96t268 165q123 166 123 393q0 146 -76 244t-201 98q-164 0 -282 -164t-117 -395zM92 451q0 250 166 426t418 176
q217 -1 351 -139t134 -349q0 -250 -166 -426t-417 -176q-217 0 -352 138q-134 139 -134 350z" />
    <glyph glyph-name="ocircumflex" unicode="&#xf4;" horiz-adv-x="1253" 
d="M410 1184l329 356h111l178 -356h-80l-176 209l-274 -209h-88zM289 399q1 -149 71 -245t214 -96t268 165q123 166 123 393q0 146 -76 244t-201 98q-164 0 -282 -164t-117 -395zM92 451q0 250 166 426t418 176q217 -1 351 -139t134 -349q0 -250 -166 -426t-417 -176
q-217 0 -352 138q-134 139 -134 350z" />
    <glyph glyph-name="otilde" unicode="&#xf5;" horiz-adv-x="1253" 
d="M903 1231q-45 0 -146 44t-147 44q-82 0 -108 -88h-66q23 86 82 149q59 64 130 64t165 -45t143 -45q82 0 109 90h65q-23 -86 -81 -150q-59 -63 -146 -63zM289 399q1 -149 71 -245t214 -96t268 165q123 166 123 393q0 146 -76 244t-201 98q-164 0 -282 -164t-117 -395z
M92 451q0 250 166 426t418 176q217 -1 351 -139t134 -349q0 -250 -166 -426t-417 -176q-217 0 -352 138q-134 139 -134 350z" />
    <glyph glyph-name="odieresis" unicode="&#xf6;" horiz-adv-x="1253" 
d="M840 1321q0 47 32 80q33 33 80 33t80 -33t33 -80t-33 -80t-80 -33t-80 33q-32 33 -32 80zM426 1321q0 47 33 80t80 33t79 -33t33 -80q0 -47 -33 -80q-34 -33 -80 -33t-79 33t-33 80zM289 399q1 -149 71 -245t214 -96t268 165q123 166 123 393q0 146 -76 244t-201 98
q-164 0 -282 -164t-117 -395zM92 451q0 250 166 426t418 176q217 -1 351 -139t134 -349q0 -250 -166 -426t-417 -176q-217 0 -352 138q-134 139 -134 350z" />
    <glyph glyph-name="divide" unicode="&#xf7;" horiz-adv-x="1228" 
d="M483 102q0 52 39 92t92 40t93 -39q39 -39 39 -93t-40 -92q-38 -39 -92 -39t-92 39q-39 39 -39 92zM483 934q0 53 39 92t92 39q52 0 92 -39t40 -92t-40 -92q-38 -39 -92 -39t-92 39q-39 39 -39 92zM96 451v135h1037v-135h-1037z" />
    <glyph glyph-name="oslash" unicode="&#xf8;" horiz-adv-x="1253" 
d="M92 451q0 250 166 426t418 176q168 0 293 -88l100 112l66 -65l-99 -111q125 -131 125 -336q0 -250 -166 -426t-417 -176q-174 0 -293 90l-101 -114l-65 65l98 111q-125 131 -125 336zM565 57q154 0 277 166t123 393q0 92 -33 168l-565 -639q72 -88 198 -88zM688 958
q-164 0 -282 -164t-117 -395q-1 -100 30 -170l564 637q-72 92 -195 92z" />
    <glyph glyph-name="ugrave" unicode="&#xf9;" horiz-adv-x="1366" 
d="M541 1462q0 38 22 58q23 20 61 20t81 -55l229 -301h-68l-282 209q-43 31 -43 69zM393 1016q82 0 107 20l-146 -639q-30 -141 -30 -186t26 -73t68 -27q118 1 284 193t234 482l53 230h182l-172 -754q-16 -72 -16 -100q0 -51 49 -51q113 0 209 280h82q-104 -428 -367 -428
q-78 0 -118 44q-40 45 -39 105q0 60 43 242l-4 4q-64 -130 -184 -250q-140 -145 -300 -145q-88 1 -150 63q-64 62 -64 146t22 182l63 281q41 180 41 213q0 69 -59 84q-42 11 -98 14l14 70h270z" />
    <glyph glyph-name="uacute" unicode="&#xfa;" horiz-adv-x="1366" 
d="M1044 1540q30 0 53 -22t23 -40t-1 -25t-5 -13q-18 -26 -33 -37q-16 -10 -24 -16q-8 -7 -10 -7l-314 -196h-76l261 270q48 50 72 68t54 18zM393 1016q82 0 107 20l-146 -639q-30 -141 -30 -186t26 -73t68 -27q118 1 284 193t234 482l53 230h182l-172 -754
q-16 -72 -16 -100q0 -51 49 -51q113 0 209 280h82q-104 -428 -367 -428q-78 0 -118 44q-40 45 -39 105q0 60 43 242l-4 4q-64 -130 -184 -250q-140 -145 -300 -145q-88 1 -150 63q-64 62 -64 146t22 182l63 281q41 180 41 213q0 69 -59 84q-42 11 -98 14l14 70h270z" />
    <glyph glyph-name="ucircumflex" unicode="&#xfb;" horiz-adv-x="1366" 
d="M467 1184l330 356h110l178 -356h-79l-177 209l-274 -209h-88zM393 1016q82 0 107 20l-146 -639q-30 -141 -30 -186t26 -73t68 -27q118 1 284 193t234 482l53 230h182l-172 -754q-16 -72 -16 -100q0 -51 49 -51q113 0 209 280h82q-104 -428 -367 -428q-78 0 -118 44
q-40 45 -39 105q0 60 43 242l-4 4q-64 -130 -184 -250q-140 -145 -300 -145q-88 1 -150 63q-64 62 -64 146t22 182l63 281q41 180 41 213q0 69 -59 84q-42 11 -98 14l14 70h270z" />
    <glyph glyph-name="udieresis" unicode="&#xfc;" horiz-adv-x="1366" 
d="M897 1321q0 47 33 80t80 33t80 -33q32 -33 32 -80t-32 -80t-80 -33q-47 0 -80 33t-33 80zM483 1321q0 47 33 80t80 33t80 -33t33 -80t-33 -80t-80 -33t-80 33t-33 80zM393 1016q82 0 107 20l-146 -639q-30 -141 -30 -186t26 -73t68 -27q118 1 284 193t234 482l53 230h182
l-172 -754q-16 -72 -16 -100q0 -51 49 -51q113 0 209 280h82q-104 -428 -367 -428q-78 0 -118 44q-40 45 -39 105q0 60 43 242l-4 4q-64 -130 -184 -250q-140 -145 -300 -145q-88 1 -150 63q-64 62 -64 146t22 182l63 281q41 180 41 213q0 69 -59 84q-42 11 -98 14l14 70
h270z" />
    <glyph glyph-name="yacute" unicode="&#xfd;" 
d="M970 1540q30 0 54 -22t23 -46q0 -23 -8 -34q-8 -10 -13 -17q-6 -7 -16 -15t-14 -10t-13 -10q-8 -6 -10 -6l-314 -196h-75l260 270q48 50 72 68t54 18zM274 1053q60 -1 106 -51q119 -132 282 -861q299 444 299 615q1 36 -55 74t-56 96t35 93q35 34 97 34t100 -47
q38 -48 38 -142t-101 -311t-245 -428t-318 -369q-173 -158 -300 -157q-68 -1 -107 35t-39 88t33 90q33 36 84 36t94 -38t80 -39t112 65t117 125q-55 285 -223 778q-29 84 -46 107t-40 22q-57 0 -108 -176l-82 21q84 340 243 340z" />
    <glyph glyph-name="thorn" unicode="&#xfe;" horiz-adv-x="1253" 
d="M344 373q0 -115 62 -201t179 -86q116 0 207 97t132 221t41 242q-1 118 -59 201t-176 83t-211 -97t-134 -221t-41 -239zM358 1315q0 68 -61 85q-34 9 -111 13l15 70h272q82 0 107 20l-148 -639l4 -2q154 190 339 190t285 -123q100 -124 101 -313q1 -260 -151 -456
t-388 -197q-236 0 -335 225h-4l-131 -589h-175l340 1503q41 180 41 213z" />
    <glyph glyph-name="ydieresis" unicode="&#xff;" 
d="M823 1321q0 47 33 80t80 33t80 -33t33 -80t-33 -80t-80 -33t-80 33t-33 80zM410 1321q0 47 32 80q33 33 80 33t80 -33t33 -80t-33 -80t-80 -33t-80 33q-32 33 -32 80zM274 1053q60 -1 106 -51q119 -132 282 -861q299 444 299 615q1 36 -55 74t-56 96t35 93q35 34 97 34
t100 -47q38 -48 38 -142t-101 -311t-245 -428t-318 -369q-173 -158 -300 -157q-68 -1 -107 35t-39 88t33 90q33 36 84 36t94 -38t80 -39t112 65t117 125q-55 285 -223 778q-29 84 -46 107t-40 22q-57 0 -108 -176l-82 21q84 340 243 340z" />
    <glyph glyph-name="dotlessi" unicode="&#x131;" horiz-adv-x="681" 
d="M395 1016q82 0 107 20l-166 -706q-27 -113 -27 -166t51 -53t112 86q60 86 91 194h88q-43 -166 -144 -297t-228 -131q-74 0 -120 41q-46 40 -46 92t14 111l100 428q41 180 41 213q0 32 -14 54q-24 36 -98 41q-19 1 -60 3l15 70h284z" />
    <glyph glyph-name="Lslash" unicode="&#x141;" horiz-adv-x="1251" 
d="M-23 70q100 0 143 33q42 34 64 130l86 375l-237 -116l22 116l244 121l88 385q35 154 35 188q0 72 -60 92q-46 15 -149 19l12 70h678l-16 -70q-135 0 -191 -31t-82 -149l-90 -393l484 239l-23 -116l-487 -242l-142 -615h267q235 0 333 88t158 343h78l-121 -537h-1132
l12 70h26z" />
    <glyph glyph-name="lslash" unicode="&#x142;" horiz-adv-x="681" 
d="M475 1483q82 0 107 20l-136 -573l5 -4l225 174l-25 -125l-235 -178l-109 -467q-27 -113 -27 -166t52 -53q51 0 111 86t92 194h88q-43 -166 -145 -297t-228 -131q-74 0 -120 41q-46 40 -46 92t14 111l99 418l-4 4l-205 -156l24 121l215 164l80 344q41 180 41 213t-14 55
q-24 36 -98 40q-19 1 -60 3l14 70h285z" />
    <glyph glyph-name="OE" unicode="&#x152;" horiz-adv-x="1933" 
d="M920 336l165 743q16 74 17 121q0 90 -69 141t-187 51t-229 -100t-169 -251q-121 -311 -118 -580q0 -164 72 -267q72 -104 214 -104t208 60t96 186zM1335 106q166 0 247 78t142 328h78l-112 -512h-781q-96 0 -207 -8t-143 -8q-227 0 -335 164t-107 403q0 335 178 629
q86 141 227 230t312 89q45 0 171 -8t220 -8h747l-102 -486h-82q31 166 31 242q1 76 -49 107t-146 30h-274l-125 -561h123q88 0 116 35t66 168h80l-127 -576h-82q27 134 27 182t-25 66t-80 19h-123l-133 -603h268z" />
    <glyph glyph-name="oe" unicode="&#x153;" horiz-adv-x="1933" 
d="M549 -37q-201 0 -329 140t-128 348q0 245 166 423t401 179q131 0 240 -67t156 -187q82 102 222 178t273 76q134 0 222 -65t88 -166t-58 -175t-143 -119q-86 -45 -231 -88t-336 -45v-43q0 -118 68 -192t188 -74q118 0 225 74t166 192h94q-70 -176 -206 -282t-314 -107
q-117 0 -199 46t-149 147q-172 -193 -416 -193zM1688 823q0 61 -48 99t-116 36q-154 0 -281 -158t-145 -323q331 22 500 170q90 78 90 176zM926 624q0 132 -64 233t-204 101q-142 0 -256 -156t-113 -403q-1 -172 71 -257t183 -85t203 95q180 182 180 472z" />
    <glyph glyph-name="Scaron" unicode="&#x160;" horiz-adv-x="1366" 
d="M772 1614l-178 356h80l176 -209l274 209h88l-329 -356h-111zM236 463q0 -166 114 -272q115 -105 278 -105t261 81t98 200t-72 187t-173 104t-202 77t-173 126t-72 220q0 193 130 316t333 123q141 0 318 -79q56 -26 81 -26q55 0 90 68h64l-115 -514h-72q8 57 9 88
q1 164 -95 260t-242 96t-232 -75q-85 -75 -85 -184q0 -108 75 -170t180 -99q104 -37 210 -81t181 -136t75 -234q0 -207 -152 -339t-378 -132q-170 0 -320 80q-78 43 -134 43t-97 -86h-78l125 539h76q-6 -37 -6 -76z" />
    <glyph glyph-name="scaron" unicode="&#x161;" horiz-adv-x="1024" 
d="M600 1184l-178 356h80l176 -209l274 209h88l-329 -356h-111zM213 723q0 156 118 243q117 87 279 87t258 -72t97 -162q0 -59 -34 -99t-85 -40t-85 32t-34 70t23 68q23 31 22 39q0 29 -49 49t-125 20t-144 -48t-69 -130q0 -96 175 -163q73 -29 146 -61q74 -32 124 -95
t51 -154q0 -139 -123 -241t-357 -103q-147 0 -244 74t-98 176q0 55 38 101q37 46 93 46t88 -28t32 -72q0 -43 -34 -73q-33 -30 -32 -48q0 -33 48 -57t122 -25q126 -1 204 55t78 142q0 59 -50 102t-121 71q-71 27 -141 59t-121 92q-50 60 -50 145z" />
    <glyph glyph-name="Ydieresis" unicode="&#x178;" horiz-adv-x="1478" 
d="M993 1751q0 47 34 80t79 33t79 -33t34 -80t-34 -80t-79 -33t-79 33t-34 80zM580 1751q0 47 33 80q34 33 79 33t79 -33t34 -80t-34 -80t-79 -33t-79 33q-33 33 -33 80zM575 1290q0 -31 25 -90l188 -481l429 520q35 43 35 89t-45 64q-44 18 -136 21l14 70h564l-13 -70
q-84 -8 -129 -34t-102 -93l-578 -696l-71 -309q-20 -94 -20 -123q-1 -59 66 -75q47 -10 113 -13l-14 -70h-602l14 70q135 2 173 36t69 168l74 316l-252 637q-47 117 -91 151t-161 35l12 70h660l-15 -70q-78 0 -142 -29t-65 -94z" />
    <glyph glyph-name="Zcaron" unicode="&#x17d;" horiz-adv-x="1366" 
d="M772 1614l-178 356h80l176 -209l274 209h88l-329 -356h-111zM750 106q164 0 240 45q44 25 73 53q55 52 98 192q16 52 39 143h78l-121 -539h-1079l24 102l953 1274h-410q-104 0 -174 -26t-111 -92t-56 -106q-14 -40 -30 -102t-20 -75h-76l109 508h1040l-24 -94l-959 -1283
h406z" />
    <glyph glyph-name="zcaron" unicode="&#x17e;" 
d="M657 1184l-178 356h80l176 -209l275 209h88l-330 -356h-111zM461 856q-186 0 -219 -166h-80l67 326h756l-31 -135l-684 -684l4 -4q98 43 171 43t183 -56t150 -57q170 0 189 268h82q-14 -248 -92 -338t-220 -90q-99 0 -245 69t-216 68q-108 0 -204 -100l-72 70l786 786
h-325z" />
    <glyph glyph-name="florin" unicode="&#x192;" 
d="M864 1323q96 0 171 -57t75 -154q0 -55 -32 -93t-84 -38t-81 30q-29 31 -29 71t37 70q65 54 13 87q-23 14 -47 14q-92 0 -139 -174l-101 -364h291l-29 -94h-288l-207 -750q-74 -272 -305 -272q-100 0 -175 50q-74 50 -73 140q0 61 29 105q30 43 82 43t84 -27
q30 -27 30 -67q0 -41 -33 -75t-33 -52t18 -32q18 -15 44 -16q94 0 133 146l225 807h-278l28 94h277l100 358q70 250 297 250z" />
    <glyph glyph-name="circumflex" unicode="&#x2c6;" horiz-adv-x="569" 
d="M109 1184l329 356h111l178 -356h-80l-176 209l-274 -209h-88z" />
    <glyph glyph-name="caron" unicode="&#x2c7;" horiz-adv-x="569" 
d="M373 1184l-178 356h79l177 -209l274 209h88l-330 -356h-110z" />
    <glyph glyph-name="breve" unicode="&#x2d8;" horiz-adv-x="569" 
d="M454 1307q96 0 167 54q72 54 104 146h63q-24 -139 -116 -231t-230 -92q-286 -1 -276 323h70q6 -96 64 -148t154 -52z" />
    <glyph glyph-name="dotaccent" unicode="&#x2d9;" horiz-adv-x="569" 
d="M334 1321q0 47 34 80t78 33t79 -33q34 -33 34 -80t-34 -80t-79 -33q-44 0 -78 33t-34 80z" />
    <glyph glyph-name="ring" unicode="&#x2da;" horiz-adv-x="569" 
d="M266 1356q0 -53 37 -90t90 -37t90 37t37 90t-37 90t-90 37t-90 -37t-37 -90zM184 1356q0 86 62 147t147 61t147 -60q62 -62 62 -148t-61 -148t-147 -61q-86 -1 -148 61t-62 148z" />
    <glyph glyph-name="ogonek" unicode="&#x2db;" horiz-adv-x="569" 
d="M117 -440q-74 0 -118 36t-44 99q0 100 89 180t202 125h133q-264 -162 -264 -281q-1 -37 23 -57t55 -20q63 0 137 63l32 -55q-131 -90 -245 -90z" />
    <glyph glyph-name="tilde" unicode="&#x2dc;" horiz-adv-x="569" 
d="M602 1231q-45 0 -146 44t-147 44q-82 0 -108 -88h-66q23 86 82 149q59 64 129 64t166 -45q94 -45 143 -45q82 0 109 90h65q-23 -86 -81 -150q-59 -63 -146 -63z" />
    <glyph glyph-name="hungarumlaut" unicode="&#x2dd;" horiz-adv-x="569" 
d="M890 1540q30 0 54 -22t23 -40q0 -18 -1 -27t-9 -17q-7 -8 -12 -14t-15 -14t-14 -10t-13 -10q-8 -6 -10 -6l-313 -196h-76l260 270q47 50 72 68q24 18 54 18zM480 1540q30 0 54 -22t24 -40t-2 -25q-1 -9 -13 -24q-12 -16 -16 -19q-5 -3 -12 -8t-10 -7q-3 -3 -11 -9t-11 -6
l-313 -196h-76l260 270q47 50 72 68q24 18 54 18z" />
    <glyph glyph-name="endash" unicode="&#x2013;" horiz-adv-x="1024" 
d="M-12 494l24 106h1024l-24 -106h-1024z" />
    <glyph glyph-name="emdash" unicode="&#x2014;" horiz-adv-x="2048" 
d="M-12 494l24 106h2048l-24 -106h-2048z" />
    <glyph glyph-name="quoteleft" unicode="&#x2018;" horiz-adv-x="569" 
d="M451 1155q0 -47 -30 -75t-85 -28t-83 44q-28 43 -28 104q0 100 76 186t176 134l35 -64q-145 -84 -176 -207q115 0 115 -94z" />
    <glyph glyph-name="quoteright" unicode="&#x2019;" horiz-adv-x="569" 
d="M401 1520q55 0 83 -43t28 -105q0 -100 -76 -186t-176 -133l-35 63q145 84 176 207q-115 0 -114 94q0 47 29 75q30 28 85 28z" />
    <glyph glyph-name="quotesinglbase" unicode="&#x201a;" horiz-adv-x="569" 
d="M336 78q0 -100 -76 -186t-176 -134l-35 64q145 84 176 207q-115 0 -114 94q0 47 29 75q30 28 85 28t83 -44q28 -43 28 -104z" />
    <glyph glyph-name="quotedblleft" unicode="&#x201c;" horiz-adv-x="909" 
d="M768 1155q0 -47 -30 -75t-85 -28t-83 44q-28 43 -27 104q0 100 76 186t176 134l34 -64q-145 -84 -176 -207q115 0 115 -94zM473 1155q0 -47 -30 -75q-31 -28 -85 -28t-83 44q-28 43 -27 104q0 100 76 186t176 134l35 -64q-145 -84 -177 -207q115 0 115 -94z" />
    <glyph glyph-name="quotedblright" unicode="&#x201d;" horiz-adv-x="909" 
d="M309 1417q0 47 30 75t85 28t83 -43t28 -105q0 -100 -76 -186t-176 -133l-35 63q145 84 176 207q-115 0 -115 94zM604 1417q0 47 30 75t85 28t83 -43t27 -105q1 -100 -75 -186t-176 -133l-35 63q145 84 176 207q-115 0 -115 94z" />
    <glyph glyph-name="quotedblbase" unicode="&#x201e;" horiz-adv-x="909" 
d="M141 123q0 47 30 75t85 28t83 -44q28 -43 28 -104q0 -100 -76 -186t-176 -134l-35 64q145 84 176 207q-115 0 -115 94zM436 123q0 47 30 75t85 28t83 -44q28 -43 28 -104q0 -100 -76 -186t-176 -134l-35 64q145 84 176 207q-115 0 -115 94z" />
    <glyph glyph-name="dagger" unicode="&#x2020;" 
d="M311 0l203 909h-356l24 107h357l104 467h184l-104 -467h356l-24 -107h-357l-202 -909h-185z" />
    <glyph glyph-name="daggerdbl" unicode="&#x2021;" 
d="M311 0l80 360h-356l24 107h357l123 549h-357l25 106h356l80 361h184l-79 -361h356l-25 -106h-356l-123 -549h356l-24 -107h-357l-79 -360h-185z" />
    <glyph glyph-name="bullet" unicode="&#x2022;" horiz-adv-x="1024" 
d="M141 741q0 154 109 263q108 108 262 108t262 -108t109 -263q0 -155 -109 -263q-108 -108 -262 -108t-262 109q-108 108 -109 262z" />
    <glyph glyph-name="ellipsis" unicode="&#x2026;" horiz-adv-x="2048" 
d="M1497 113q0 47 34 80t79 33t79 -34q33 -32 33 -79t-34 -80t-78 -33q-45 0 -79 33t-34 80zM815 113q0 47 33 80t80 33t80 -34q32 -32 32 -79t-32 -80t-80 -33q-47 0 -80 33t-33 80zM133 113q0 47 34 80t79 33t79 -34q33 -32 33 -79t-34 -80t-78 -33q-45 0 -79 33t-34 80z
" />
    <glyph glyph-name="perthousand" unicode="&#x2030;" horiz-adv-x="2048" 
d="M1931 340q0 -158 -104 -263q-105 -105 -215 -105t-177 69q-67 70 -67 188q0 165 93 267t217 102t189 -70q64 -70 64 -188zM819 168q0 -152 111 -152q86 0 140 116t54 268t-110 153q-62 0 -110 -75q-84 -133 -85 -310zM1260 340q0 -158 -104 -263t-216 -105
q-110 0 -177 69q-67 70 -67 188q0 165 94 267t217 102q125 0 189 -70t64 -188zM205 -37l870 1417h107l-871 -1417h-106zM240 942q0 -152 110 -151q86 -1 140 115t54 269t-110 152q-63 0 -110 -75q-84 -134 -84 -310zM680 1114q0 -158 -104 -263t-216 -105q-110 0 -177 69
q-67 70 -66 189q0 164 93 266t217 102q125 0 189 -70t64 -188zM1491 168q0 -152 111 -152q86 0 140 116t54 268t-110 153q-62 0 -110 -75q-84 -133 -85 -310z" />
    <glyph glyph-name="guilsinglleft" unicode="&#x2039;" horiz-adv-x="569" 
d="M55 553l260 254h158l-266 -254l262 -266h-147z" />
    <glyph glyph-name="guilsinglright" unicode="&#x203a;" horiz-adv-x="569" 
d="M96 287l266 254l-262 266h148l266 -266l-260 -254h-158z" />
    <glyph glyph-name="fraction" unicode="&#x2044;" horiz-adv-x="342" 
d="M-317 -37l870 1417h106l-870 -1417h-106z" />
    <glyph glyph-name="trademark" unicode="&#x2122;" horiz-adv-x="2027" 
d="M1040 829v510q0 41 -44 70t-93 29v45h248l315 -633l328 633h211v-45q-63 0 -88 -27t-25 -82v-522q0 -74 12 -86t91 -21v-45h-350v45q78 8 90 20t10 87v463h-4l-311 -615h-23l-305 615h-4v-441q0 -69 20 -97t88 -32v-45h-268v45q62 4 82 32t20 97zM383 1438h-98
q-111 0 -135 -135h-46v180h707v-180h-45q-25 135 -133 135h-103v-631q0 -74 12 -86t91 -21v-45h-350v45q78 8 90 20t10 87v631z" />
    <glyph glyph-name="minus" unicode="&#x2212;" horiz-adv-x="1228" 
d="M96 451v135h1037v-135h-1037z" />
    <glyph glyph-name="fi" unicode="&#xfb01;" horiz-adv-x="1366" 
d="M1204 1323q0 -53 -33 -88t-82 -35t-79 26t-31 56q0 30 12 58t13 40q0 23 -36 40q-36 18 -102 18t-135 -37q-67 -37 -109 -102q-83 -130 -110 -283h506q76 0 129 20l-166 -706q-27 -113 -27 -166t52 -53t111 86q60 86 91 194h88q-43 -166 -144 -297t-228 -131
q-74 0 -120 41q-46 40 -46 92t14 111l100 428q41 180 41 211q0 62 -49 75t-112 13h-258l-209 -934h-183l209 934h-207l23 82h203q39 225 174 364t370 140q146 0 238 -52t92 -145z" />
    <glyph glyph-name="fl" unicode="&#xfb02;" horiz-adv-x="1366" 
d="M838 1520q63 0 164 -18q102 -18 148 -19q46 0 105 20l-274 -1173q-27 -113 -27 -166t52 -53t111 86q60 86 91 194h88q-43 -166 -144 -297t-228 -131q-74 0 -120 41q-46 40 -46 92t14 111l209 895q41 178 41 224t-40 79t-117 33t-141 -38q-152 -89 -212 -384h242l-21 -82
h-239l-209 -934h-183l209 934h-207l23 82h203q98 504 508 504z" />
    </font>
</defs>
</svg>
