<?xml version="1.0" standalone="no"?>
<!DOCTYPE svg PUBLIC "-//W3C//DTD SVG 1.1//EN" "http://www.w3.org/Graphics/SVG/1.1/DTD/svg11.dtd" >
<svg>
<metadata>
Created by FontForge 20110222 at Tue Feb  4 07:52:54 2014
 By Orthosie Webhosting
Copyright (c) 2010 by Emmanuel Rey, distributed by B&#38;P Foundry Srl, Switzerland, http://www.bpfoundry.com. All rights reserved.
</metadata>
<defs>
<font id="SimplonBPRegular" horiz-adv-x="558" >
  <font-face 
    font-family="SimplonBPRegular"
    font-weight="400"
    font-stretch="normal"
    units-per-em="1000"
    panose-1="0 0 0 0 0 0 0 0 0 0"
    ascent="800"
    descent="-200"
    x-height="516"
    cap-height="700"
    bbox="-245 -229 1129 925"
    underline-thickness="50"
    underline-position="-50"
    unicode-range="U+0020-FB06"
  />
<missing-glyph horiz-adv-x="225" 
 />
    <glyph glyph-name="f_f" unicode="ff" horiz-adv-x="634" 
d="M303 628h-79q-27 0 -37.5 -10t-10.5 -35v-67h127v-72h-127v-444h-75v444h-73v72h73v61q0 68 26.5 95.5t96.5 27.5h79v-72zM620 628h-79q-27 0 -37.5 -10t-10.5 -35v-67h127v-72h-127v-444h-75v444h-73v72h73v61q0 68 26.5 95.5t96.5 27.5h79v-72z" />
    <glyph glyph-name="fi" unicode="fi" horiz-adv-x="542" 
d="M303 628h-79q-27 0 -37.5 -10t-10.5 -35v-67h127v-72h-127v-444h-75v444h-73v72h73v61q0 68 26.5 95.5t96.5 27.5h79v-72zM467 700v-97h-75v97h75zM467 516v-516h-75v516h75z" />
    <glyph glyph-name="fl" unicode="fl" horiz-adv-x="571" 
d="M303 628h-79q-27 0 -37.5 -10t-10.5 -35v-67h127v-72h-127v-444h-75v444h-73v72h73v61q0 68 26.5 95.5t96.5 27.5h79v-72zM465 117v583h-75v-577q0 -68 26.5 -95.5t96.5 -27.5h16v72h-16q-27 0 -37.5 10t-10.5 35z" />
    <glyph glyph-name="f_f_i" unicode="ffi" horiz-adv-x="859" 
d="M303 628h-79q-27 0 -37.5 -10t-10.5 -35v-67h127v-72h-127v-444h-75v444h-73v72h73v61q0 68 26.5 95.5t96.5 27.5h79v-72zM620 628h-79q-27 0 -37.5 -10t-10.5 -35v-67h127v-72h-127v-444h-75v444h-73v72h73v61q0 68 26.5 95.5t96.5 27.5h79v-72zM784 700v-97h-75v97h75z
M784 516v-516h-75v516h75z" />
    <glyph glyph-name="f_f_l" unicode="ffl" horiz-adv-x="888" 
d="M303 628h-79q-27 0 -37.5 -10t-10.5 -35v-67h127v-72h-127v-444h-75v444h-73v72h73v61q0 68 26.5 95.5t96.5 27.5h79v-72zM620 628h-79q-27 0 -37.5 -10t-10.5 -35v-67h127v-72h-127v-444h-75v444h-73v72h73v61q0 68 26.5 95.5t96.5 27.5h79v-72zM782 117v583h-75v-577
q0 -68 26.5 -95.5t96.5 -27.5h16v72h-16q-27 0 -37.5 10t-10.5 35z" />
    <glyph glyph-name="s_t" unicode="st" horiz-adv-x="812" 
d="M415 365h-77q-14 93 -113 93q-43 0 -70 -20t-27 -55q0 -55 71 -72l97 -24q64 -16 98 -51t34 -102q0 -73 -49.5 -108.5t-132.5 -35.5q-87 0 -144 43t-63 132h77q5 -52 40 -77.5t90 -25.5q104 0 106 74q0 58 -72 76l-101 25q-52 12 -89.5 46.5t-37.5 96.5q0 69 50 109.5
t124 40.5q82 0 132.5 -41t56.5 -124zM645 444v-327q0 -25 10.5 -35t37.5 -10h79v-72h-79q-70 0 -96.5 27.5t-26.5 95.5v321h-73v72h73v117h75v-117h127v-72h-127z" />
    <glyph glyph-name="f_b" unicode="fb" horiz-adv-x="857" 
d="M303 628h-79q-27 0 -37.5 -10t-10.5 -35v-67h127v-72h-127v-444h-75v444h-73v72h73v61q0 68 26.5 95.5t96.5 27.5h79v-72zM594 -10q-37 0 -72.5 16.5t-54.5 46.5v-53h-75v700h75v-233q19 30 54.5 46.5t72.5 16.5q83 0 142.5 -48.5t59.5 -153.5v-136q0 -105 -59.5 -153.5
t-142.5 -48.5zM721 191v138q0 61 -36.5 95t-90.5 34t-90.5 -34t-36.5 -95v-138q0 -61 36.5 -95t90.5 -34t90.5 34t36.5 95z" />
    <glyph glyph-name="f_h" unicode="fh" horiz-adv-x="864" 
d="M303 628h-79q-27 0 -37.5 -10t-10.5 -35v-67h127v-72h-127v-444h-75v444h-73v72h73v61q0 68 26.5 95.5t96.5 27.5h79v-72zM594 530q83 0 142.5 -48.5t59.5 -153.5v-328h-75v329q0 61 -36.5 95t-90.5 34t-90.5 -34t-36.5 -95v-329h-75v700h75v-233q19 30 54.5 46.5
t72.5 16.5z" />
    <glyph glyph-name="f_k" unicode="fk" horiz-adv-x="822" 
d="M303 628h-79q-27 0 -37.5 -10t-10.5 -35v-67h127v-72h-127v-444h-75v444h-73v72h73v61q0 68 26.5 95.5t96.5 27.5h79v-72zM467 700v-428l225 244h93l-186 -202l213 -314h-88l-176 259l-81 -88v-171h-75v700h75z" />
    <glyph glyph-name="f_j" unicode="fj" horiz-adv-x="542" 
d="M303 628h-79q-27 0 -37.5 -10t-10.5 -35v-67h127v-72h-127v-444h-75v444h-73v72h73v61q0 68 26.5 95.5t96.5 27.5h79v-72zM467 700v-97h-75v97h75zM392 -67v583h75v-577q0 -68 -26.5 -95.5t-96.5 -27.5h-16v72h16q27 0 37.5 10t10.5 35z" />
    <glyph glyph-name="f_t" unicode="ft" horiz-adv-x="658" 
d="M303 628h-79q-27 0 -37.5 -10t-10.5 -35v-67h127v-72h-127v-444h-75v444h-73v72h73v61q0 68 26.5 95.5t96.5 27.5h79v-72zM491 117v327h127v72h-127v117h-75v-117h-73v-72h73v-321q0 -68 26.5 -95.5t96.5 -27.5h79v72h-79q-27 0 -37.5 10t-10.5 35z" />
    <glyph glyph-name="f_f_j" unicode="ffj" horiz-adv-x="859" 
d="M303 628h-79q-27 0 -37.5 -10t-10.5 -35v-67h127v-72h-127v-444h-75v444h-73v72h73v61q0 68 26.5 95.5t96.5 27.5h79v-72zM620 628h-79q-27 0 -37.5 -10t-10.5 -35v-67h127v-72h-127v-444h-75v444h-73v72h73v61q0 68 26.5 95.5t96.5 27.5h79v-72zM784 700v-97h-75v97h75z
M709 -67v583h75v-577q0 -68 -26.5 -95.5t-96.5 -27.5h-16v72h16q27 0 37.5 10t10.5 35z" />
    <glyph glyph-name="f_f_k" unicode="ffk" horiz-adv-x="1139" 
d="M303 628h-79q-27 0 -37.5 -10t-10.5 -35v-67h127v-72h-127v-444h-75v444h-73v72h73v61q0 68 26.5 95.5t96.5 27.5h79v-72zM620 628h-79q-27 0 -37.5 -10t-10.5 -35v-67h127v-72h-127v-444h-75v444h-73v72h73v61q0 68 26.5 95.5t96.5 27.5h79v-72zM784 700v-428l225 244
h93l-186 -202l213 -314h-88l-176 259l-81 -88v-171h-75v700h75z" />
    <glyph glyph-name="f_f_t" unicode="fft" horiz-adv-x="975" 
d="M303 628h-79q-27 0 -37.5 -10t-10.5 -35v-67h127v-72h-127v-444h-75v444h-73v72h73v61q0 68 26.5 95.5t96.5 27.5h79v-72zM620 628h-79q-27 0 -37.5 -10t-10.5 -35v-67h127v-72h-127v-444h-75v444h-73v72h73v61q0 68 26.5 95.5t96.5 27.5h79v-72zM808 117v327h127v72
h-127v117h-75v-117h-73v-72h73v-321q0 -68 26.5 -95.5t96.5 -27.5h79v72h-79q-27 0 -37.5 10t-10.5 35z" />
    <glyph glyph-name="f_f_b" unicode="ffb" horiz-adv-x="1174" 
d="M303 628h-79q-27 0 -37.5 -10t-10.5 -35v-67h127v-72h-127v-444h-75v444h-73v72h73v61q0 68 26.5 95.5t96.5 27.5h79v-72zM620 628h-79q-27 0 -37.5 -10t-10.5 -35v-67h127v-72h-127v-444h-75v444h-73v72h73v61q0 68 26.5 95.5t96.5 27.5h79v-72zM911 -10
q-37 0 -72.5 16.5t-54.5 46.5v-53h-75v700h75v-233q19 30 54.5 46.5t72.5 16.5q83 0 142.5 -48.5t59.5 -153.5v-136q0 -105 -59.5 -153.5t-142.5 -48.5zM1038 191v138q0 61 -36.5 95t-90.5 34t-90.5 -34t-36.5 -95v-138q0 -61 36.5 -95t90.5 -34t90.5 34t36.5 95z" />
    <glyph glyph-name="f_f_h" unicode="ffh" horiz-adv-x="1181" 
d="M303 628h-79q-27 0 -37.5 -10t-10.5 -35v-67h127v-72h-127v-444h-75v444h-73v72h73v61q0 68 26.5 95.5t96.5 27.5h79v-72zM620 628h-79q-27 0 -37.5 -10t-10.5 -35v-67h127v-72h-127v-444h-75v444h-73v72h73v61q0 68 26.5 95.5t96.5 27.5h79v-72zM911 530
q83 0 142.5 -48.5t59.5 -153.5v-328h-75v329q0 61 -36.5 95t-90.5 34t-90.5 -34t-36.5 -95v-329h-75v700h75v-233q19 30 54.5 46.5t72.5 16.5z" />
    <glyph glyph-name="s_p" unicode="sp" horiz-adv-x="1011" 
d="M415 365h-77q-14 93 -113 93q-43 0 -70 -20t-27 -55q0 -55 71 -72l97 -24q64 -16 98 -51t34 -102q0 -73 -49.5 -108.5t-132.5 -35.5q-87 0 -144 43t-63 132h77q5 -52 40 -77.5t90 -25.5q104 0 106 74q0 58 -72 76l-101 25q-52 12 -89.5 46.5t-37.5 96.5q0 69 50 109.5
t124 40.5q82 0 132.5 -41t56.5 -124zM748 -10q-37 0 -72.5 16.5t-54.5 46.5v-237h-75v700h75v-49q19 30 54.5 46.5t72.5 16.5q83 0 142.5 -48.5t59.5 -153.5v-136q0 -105 -59.5 -153.5t-142.5 -48.5zM875 191v138q0 61 -36.5 95t-90.5 34t-90.5 -34t-36.5 -95v-138
q0 -61 36.5 -95t90.5 -34t90.5 34t36.5 95z" />
    <glyph glyph-name="c_t" unicode="ct" horiz-adv-x="856" 
d="M263 530q78 0 135.5 -42.5t65.5 -134.5h-76q-7 50 -42.5 77.5t-82.5 27.5q-54 0 -90.5 -34t-36.5 -95v-138q0 -61 36.5 -95t90.5 -34q47 0 82.5 27.5t42.5 77.5h76q-8 -92 -65.5 -134.5t-135.5 -42.5q-83 0 -142.5 48.5t-59.5 153.5v136q0 105 59.5 153.5t142.5 48.5z
M689 444v-327q0 -25 10.5 -35t37.5 -10h79v-72h-79q-70 0 -96.5 27.5t-26.5 95.5v321h-73v72h73v117h75v-117h127v-72h-127z" />
    <glyph glyph-name="t_t" unicode="tt" horiz-adv-x="682" 
d="M174 444v-327q0 -25 10.5 -35t37.5 -10h79v-72h-79q-70 0 -96.5 27.5t-26.5 95.5v321h-73v72h73v117h75v-117h127v-72h-127zM515 444v-327q0 -25 10.5 -35t37.5 -10h79v-72h-79q-70 0 -96.5 27.5t-26.5 95.5v321h-73v72h73v117h75v-117h127v-72h-127z" />
    <glyph glyph-name="t_f" unicode="tf" horiz-adv-x="658" 
d="M174 117v327h127v72h-127v117h-75v-117h-73v-72h73v-321q0 -68 26.5 -95.5t96.5 -27.5h79v72h-79q-27 0 -37.5 10t-10.5 35zM644 628h-79q-27 0 -37.5 -10t-10.5 -35v-67h127v-72h-127v-444h-75v444h-73v72h73v61q0 68 26.5 95.5t96.5 27.5h79v-72z" />
    <glyph glyph-name=".notdef" horiz-adv-x="225" 
 />
    <glyph glyph-name=".null" horiz-adv-x="0" 
 />
    <glyph glyph-name="nonmarkingreturn" horiz-adv-x="333" 
 />
    <glyph glyph-name="space" unicode=" " horiz-adv-x="225" 
 />
    <glyph glyph-name="exclam" unicode="!" horiz-adv-x="275" 
d="M175 700v-490h-75v490h75zM85 0v105h105v-105h-105z" />
    <glyph glyph-name="quotedbl" unicode="&#x22;" horiz-adv-x="404" 
d="M324 476h-75v224h75v-224zM155 476h-75v224h75v-224z" />
    <glyph glyph-name="numbersign" unicode="#" horiz-adv-x="700" 
d="M169 0h-68l51 206h-69v65h85l39 158h-85v65h101l52 206h68l-52 -206h188l52 206h68l-52 -206h71v-65h-87l-39 -158h86v-65h-102l-51 -206h-68l51 206h-188zM275 429l-39 -158h188l39 158h-188z" />
    <glyph glyph-name="dollar" unicode="$" horiz-adv-x="504" 
d="M235 -100v91q-82 7 -134.5 64.5t-59.5 151.5h75q8 -61 39 -99t80 -45v257l-43 16q-139 52 -139 189q0 72 47 125t135 59v91h43v-91q71 -7 118.5 -56.5t51.5 -129.5h-74q-6 48 -31.5 77.5t-64.5 35.5v-250l43 -16q66 -24 101 -76t35 -121q0 -76 -44.5 -126t-134.5 -56v-91
h-43zM128 526q0 -84 82 -115l25 -9v235q-55 -6 -81 -36t-26 -75zM299 296l-21 8v-241q50 5 77 32.5t27 77.5q0 40 -20.5 74t-62.5 49z" />
    <glyph glyph-name="percent" unicode="%" horiz-adv-x="840" 
d="M194 351q62 0 62 65v162q0 65 -62 65q-61 0 -61 -65v-162q0 -65 61 -65zM194 288q-49 0 -87.5 29t-38.5 97v166q0 68 38.5 97t87.5 29t88 -29t39 -97v-166q0 -68 -39 -97t-88 -29zM625 700h71l-481 -700h-71zM645 57q62 0 62 65v162q0 65 -62 65q-61 0 -61 -65v-162
q0 -65 61 -65zM645 -6q-49 0 -87.5 29t-38.5 97v166q0 68 38.5 97t87.5 29t88 -29t39 -97v-166q0 -68 -39 -97t-88 -29z" />
    <glyph glyph-name="ampersand" unicode="&#x26;" horiz-adv-x="593" 
d="M383 628h-132q-53 0 -87.5 -32t-34.5 -88t34.5 -88t87.5 -32h132v80h75v-80h127v-72h-127v-316h-207q-83 0 -140 48.5t-57 144.5q0 53 24 96t61 63q-37 19 -61 60.5t-24 95.5q0 97 56.5 144.5t140.5 47.5h132v-72zM251 72h132v244h-132q-57 0 -89.5 -32.5t-32.5 -89.5
t32.5 -89.5t89.5 -32.5z" />
    <glyph glyph-name="quotesingle" unicode="'" horiz-adv-x="235" 
d="M155 476h-75v224h75v-224z" />
    <glyph glyph-name="parenleft" unicode="(" horiz-adv-x="274" 
d="M96 9v568q0 68 26.5 95.5t96.5 27.5h16v-64h-22q-30 0 -41 -12t-11 -39v-584q0 -27 11 -39t41 -12h22v-64h-16q-70 0 -96.5 27.5t-26.5 95.5z" />
    <glyph glyph-name="parenright" unicode=")" horiz-adv-x="274" 
d="M178 577v-568q0 -68 -26.5 -95.5t-96.5 -27.5h-16v64h22q30 0 41 12t11 39v584q0 27 -11 39t-41 12h-22v64h16q70 0 96.5 -27.5t26.5 -95.5z" />
    <glyph glyph-name="asterisk" unicode="*" horiz-adv-x="475" 
d="M311 376l-73 100l-74 -100l-52 38l73 100l-118 39l20 61l118 -38v124h65v-124l118 38l20 -61l-118 -39l73 -100z" />
    <glyph glyph-name="plus" unicode="+" 
d="M249 78v170h-172v65h172v169h65v-169h167v-65h-167v-170h-65z" />
    <glyph glyph-name="comma" unicode="," horiz-adv-x="275" 
d="M85 0v105h105v-105l-35 -94h-64l35 94h-41z" />
    <glyph glyph-name="hyphen" unicode="-" horiz-adv-x="400" 
d="M345 248h-290v65h290v-65z" />
    <glyph glyph-name="period" unicode="." horiz-adv-x="275" 
d="M85 0v105h105v-105h-105z" />
    <glyph glyph-name="slash" unicode="/" horiz-adv-x="345" 
d="M278 700h72l-283 -700h-72z" />
    <glyph glyph-name="zero" unicode="0" horiz-adv-x="532" 
d="M393 191v318q0 61 -36.5 95t-90.5 34t-90.5 -34t-36.5 -95v-318q0 -61 36.5 -95t90.5 -34t90.5 34t36.5 95zM468 508v-316q0 -105 -59.5 -153.5t-142.5 -48.5t-142.5 48.5t-59.5 153.5v316q0 105 59.5 153.5t142.5 48.5t142.5 -48.5t59.5 -153.5z" />
    <glyph glyph-name="one" unicode="1" horiz-adv-x="341" 
d="M181 700h75v-700h-75v605l-134 -115v95z" />
    <glyph glyph-name="two" unicode="2" horiz-adv-x="505" 
d="M48 508q0 105 59.5 153.5t142.5 48.5t142.5 -48.5t59.5 -150.5q0 -59 -25.5 -108t-76.5 -105l-205 -226h307v-72h-404v72l249 274q80 87 80 166q0 59 -37 92.5t-90 33.5q-54 0 -90.5 -34t-36.5 -95v-19h-75v18z" />
    <glyph glyph-name="three" unicode="3" horiz-adv-x="511" 
d="M47 192v8h75v-9q0 -62 38 -95.5t94 -33.5q55 0 88.5 33t33.5 91q0 53 -33.5 91.5t-88.5 38.5h-50v72h50q53 0 87.5 33.5t34.5 92.5q0 57 -36.5 90.5t-90.5 33.5t-90.5 -34t-36.5 -95v-9h-75v8q0 105 59.5 153.5t142.5 48.5q84 0 143 -49.5t59 -146.5q0 -56 -24 -99.5
t-61 -62.5q37 -21 61 -64.5t24 -101.5q0 -98 -58 -147t-139 -49q-39 0 -74.5 10.5t-66 33t-48.5 63t-18 95.5z" />
    <glyph glyph-name="four" unicode="4" horiz-adv-x="512" 
d="M484 189h-73v-189h-75v189h-321v70l321 441h75v-441h73v-70zM101 259h235v322z" />
    <glyph glyph-name="five" unicode="5" horiz-adv-x="512" 
d="M148 296h-75v404h368v-72h-293v-224q46 40 118 40q83 0 142.5 -48.5t59.5 -153.5v-50q0 -105 -59.5 -153.5t-142.5 -48.5t-142.5 48.5t-59.5 153.5v8h75v-9q0 -61 36.5 -95t90.5 -34t90.5 34t36.5 95v52q0 61 -36.5 95t-90.5 34q-40 0 -72 -19.5t-46 -56.5z" />
    <glyph glyph-name="six" unicode="6" horiz-adv-x="526" 
d="M64 508q0 105 59.5 153.5t142.5 48.5t142.5 -48.5t59.5 -153.5v-8h-75v9q0 61 -36.5 95t-90.5 34t-90.5 -34t-36.5 -95v-121q19 22 55 35.5t72 13.5q83 0 142.5 -48.5t59.5 -153.5v-43q0 -105 -59.5 -153.5t-142.5 -48.5t-142.5 48.5t-59.5 153.5v316zM139 236v-45
q0 -61 36.5 -95t90.5 -34t90.5 34t36.5 95v45q0 61 -36.5 95t-90.5 34t-90.5 -34t-36.5 -95z" />
    <glyph glyph-name="seven" unicode="7" horiz-adv-x="440" 
d="M416 628l-221 -628h-79l221 628h-319v72h398v-72z" />
    <glyph glyph-name="eight" unicode="8" horiz-adv-x="524" 
d="M262 317q-52 0 -89.5 -35.5t-37.5 -92.5t37.5 -92t89.5 -35t89.5 35t37.5 92t-37.5 92.5t-89.5 35.5zM262 -10q-84 0 -143 51t-59 148q0 111 82 163q-75 60 -75 161q0 97 57 147t138 50t138 -50t57 -147q0 -101 -75 -161q82 -52 82 -163q0 -97 -59 -148t-143 -51z
M262 638q-56 0 -88 -34.5t-32 -90.5q0 -60 34 -92.5t86 -32.5t86 32.5t34 92.5q0 56 -32 90.5t-88 34.5z" />
    <glyph glyph-name="nine" unicode="9" horiz-adv-x="526" 
d="M462 508v-316q0 -105 -59.5 -153.5t-142.5 -48.5t-142.5 48.5t-59.5 153.5v8h75v-9q0 -61 36.5 -95t90.5 -34t90.5 34t36.5 95v121q-19 -22 -55 -35.5t-72 -13.5q-83 0 -142.5 48.5t-59.5 153.5v43q0 105 59.5 153.5t142.5 48.5t142.5 -48.5t59.5 -153.5zM387 464v45
q0 61 -36.5 95t-90.5 34t-90.5 -34t-36.5 -95v-45q0 -61 36.5 -95t90.5 -34t90.5 34t36.5 95z" />
    <glyph glyph-name="colon" unicode=":" horiz-adv-x="275" 
d="M85 411v105h105v-105h-105zM85 0v105h105v-105h-105z" />
    <glyph glyph-name="semicolon" unicode=";" horiz-adv-x="275" 
d="M85 411v105h105v-105h-105zM85 0v105h105v-105l-35 -94h-64l35 94h-41z" />
    <glyph glyph-name="less" unicode="&#x3c;" 
d="M145 259l336 -189v-75l-404 227v74l404 227v-75z" />
    <glyph glyph-name="equal" unicode="=" 
d="M481 140h-404v65h404v-65zM481 345h-404v65h404v-65z" />
    <glyph glyph-name="greater" unicode="&#x3e;" 
d="M77 70l336 189l-336 189v75l404 -227v-74l-404 -227v75z" />
    <glyph glyph-name="question" unicode="?" horiz-adv-x="502" 
d="M117 509v-9h-75v8q0 105 59.5 153.5t142.5 48.5t142.5 -48.5t59.5 -153.5q0 -42 -20.5 -83t-48.5 -67l-60 -55q-36 -33 -36 -71v-22h-75v22q0 39 13 64t45 55l60 55q47 45 47 103q0 61 -36.5 95t-90.5 34t-90.5 -34t-36.5 -95zM192 0v105h105v-105h-105z" />
    <glyph glyph-name="at" unicode="@" horiz-adv-x="888" 
d="M571 186v67q-172 -12 -212 -34q-27 -15 -36 -32t-9 -42q0 -37 28.5 -60t83.5 -23q63 0 104 32.5t41 91.5zM444 458q-47 0 -81 -26t-43 -74h-77q9 89 66.5 130.5t134.5 41.5q83 0 142.5 -48.5t59.5 -153.5v-217q0 -26 15 -41.5t39 -15.5t38.5 15.5t14.5 41.5v257
q0 120 -91 199t-218 79t-218 -79t-91 -199v-220q0 -120 91 -199t218 -79q108 0 191 57l35 -56q-98 -65 -226 -65q-159 0 -266.5 96.5t-107.5 245.5v220q0 149 107.5 245.5t266.5 96.5t266.5 -96.5t107.5 -245.5v-262q0 -57 -31 -86.5t-87 -29.5q-93 0 -129 63
q-48 -63 -161 -63q-72 0 -121.5 39t-49.5 114q0 48 25.5 89t86.5 59q63 18 220 29v9q0 61 -36.5 95t-90.5 34z" />
    <glyph glyph-name="A" unicode="A" horiz-adv-x="566" 
d="M474 0l-64 197h-254l-64 -197h-78l225 700h88l225 -700h-78zM387 268l-104 325l-104 -325h208z" />
    <glyph glyph-name="B" unicode="B" horiz-adv-x="579" 
d="M80 0v700h233q103 0 152.5 -56.5t49.5 -135.5q0 -50 -21 -89t-56 -61q46 -23 70 -67t24 -95q0 -82 -49 -139t-153 -57h-250zM330 316h-173v-240h173q57 0 90.5 32t33.5 88t-33.5 88t-90.5 32zM437 508q0 52 -33 84t-91 32h-156v-232h156q58 0 91 32t33 84z" />
    <glyph glyph-name="C" unicode="C" horiz-adv-x="559" 
d="M285 710q97 0 158 -58t67 -159h-77q-6 68 -46.5 104.5t-101.5 36.5q-65 0 -107 -42t-42 -119v-246q0 -77 42 -119t107 -42q61 0 101.5 36.5t46.5 104.5h77q-6 -101 -67 -159t-158 -58q-102 0 -164 64t-62 173v246q0 109 62 173t164 64z" />
    <glyph glyph-name="D" unicode="D" horiz-adv-x="591" 
d="M80 700h226q102 0 164 -64t62 -173v-226q0 -109 -62 -173t-164 -64h-226v700zM306 624h-149v-548h149q65 0 107 42t42 119v226q0 77 -42 118.5t-107 42.5z" />
    <glyph glyph-name="E" unicode="E" horiz-adv-x="542" 
d="M157 316v-240h321v-76h-398v700h398v-76h-321v-232h321v-76h-321z" />
    <glyph glyph-name="F" unicode="F" horiz-adv-x="532" 
d="M157 316v-316h-77v700h398v-76h-321v-232h321v-76h-321z" />
    <glyph glyph-name="G" unicode="G" horiz-adv-x="566" 
d="M285 710q97 0 158 -58t67 -159h-77q-6 68 -46.5 104.5t-101.5 36.5q-65 0 -107 -42t-42 -119v-246q0 -77 42 -119t107 -42t107 42t42 119v69h-149v76h226v-145q0 -109 -62 -173t-164 -64t-164 64t-62 173v246q0 109 62 173t164 64z" />
    <glyph glyph-name="H" unicode="H" horiz-adv-x="612" 
d="M455 392v308h77v-700h-77v316h-298v-316h-77v700h77v-308h298z" />
    <glyph glyph-name="I" unicode="I" horiz-adv-x="237" 
d="M80 0v700h77v-700h-77z" />
    <glyph glyph-name="J" unicode="J" horiz-adv-x="473" 
d="M14 192v8h77v-8q0 -57 33.5 -91.5t83.5 -34.5t83.5 34.5t33.5 91.5v508h77v-508q0 -104 -57 -153t-137 -49t-137 49t-57 153z" />
    <glyph glyph-name="K" unicode="K" horiz-adv-x="610" 
d="M157 206v-206h-77v700h77v-380l323 380h98l-246 -288l272 -412h-91l-232 352z" />
    <glyph glyph-name="L" unicode="L" horiz-adv-x="493" 
d="M80 0v700h77v-624h321v-76h-398z" />
    <glyph glyph-name="M" unicode="M" horiz-adv-x="718" 
d="M359 276l202 424h77v-700h-76v538l-167 -350h-72l-167 350v-538h-76v700h77z" />
    <glyph glyph-name="N" unicode="N" horiz-adv-x="612" 
d="M532 700v-700h-77l-298 551v-551h-77v700h77l298 -551v551h77z" />
    <glyph glyph-name="O" unicode="O" horiz-adv-x="570" 
d="M434 227v246q0 77 -42 119t-107 42t-107 -42t-42 -119v-246q0 -77 42 -119t107 -42t107 42t42 119zM511 473v-246q0 -109 -62 -173t-164 -64t-164 64t-62 173v246q0 109 62 173t164 64t164 -64t62 -173z" />
    <glyph glyph-name="P" unicode="P" horiz-adv-x="561" 
d="M532 486q0 -99 -55 -156.5t-171 -57.5h-149v-272h-77v700h226q116 0 171 -57.5t55 -156.5zM453 486q0 62 -35.5 100t-111.5 38h-149v-276h149q76 0 111.5 38t35.5 100z" />
    <glyph glyph-name="Q" unicode="Q" horiz-adv-x="581" 
d="M511 473v-246q0 -84 -39 -143l78 -79l-51 -50l-75 77q-56 -42 -139 -42q-102 0 -164 64t-62 173v246q0 109 62 173t164 64t164 -64t62 -173zM368 89l-78 80l50 50l76 -77q18 38 18 85v246q0 77 -42 119t-107 42t-107 -42t-42 -119v-246q0 -77 42 -119t107 -42q48 0 83 23
z" />
    <glyph glyph-name="R" unicode="R" horiz-adv-x="572" 
d="M268 317h-111v-317h-77v700h238q103 0 152.5 -56.5t49.5 -135.5q0 -71 -40 -124.5t-124 -64.5l187 -319h-89zM442 508q0 52 -33 84t-91 32h-161v-233h161q58 0 91 32.5t33 84.5z" />
    <glyph glyph-name="S" unicode="S" horiz-adv-x="517" 
d="M263 -10q-96 0 -158 58.5t-69 158.5h79q9 -66 49.5 -103.5t98.5 -37.5q61 0 97.5 28.5t36.5 82.5q0 47 -27 77t-86 46l-89 25q-74 21 -110.5 75.5t-36.5 123.5q0 87 59.5 136.5t147.5 49.5q90 0 145 -48.5t66 -138.5h-79q-25 111 -132 111q-61 0 -95 -31t-34 -79
q0 -95 104 -124l82 -23q163 -46 163 -200q0 -86 -54.5 -136.5t-157.5 -50.5z" />
    <glyph glyph-name="T" unicode="T" horiz-adv-x="479" 
d="M201 624h-187v76h451v-76h-187v-624h-77v624z" />
    <glyph glyph-name="U" unicode="U" horiz-adv-x="594" 
d="M71 227v473h77v-473q0 -77 42 -119t107 -42t107 42t42 119v473h77v-473q0 -109 -62 -173t-164 -64t-164 64t-62 173z" />
    <glyph glyph-name="V" unicode="V" horiz-adv-x="566" 
d="M283 107l191 593h78l-225 -700h-88l-225 700h78z" />
    <glyph glyph-name="W" unicode="W" horiz-adv-x="726" 
d="M496 0l-133 479l-133 -479h-74l-129 700h76l99 -546l124 446h74l124 -446l99 546h76l-129 -700h-74z" />
    <glyph glyph-name="X" unicode="X" horiz-adv-x="564" 
d="M282 417l164 283h85l-197 -338l212 -362h-88l-176 304l-176 -304h-88l212 362l-197 338h85z" />
    <glyph glyph-name="Y" unicode="Y" horiz-adv-x="545" 
d="M311 278v-278h-77v279l-231 421h84l186 -339l185 339h84z" />
    <glyph glyph-name="Z" unicode="Z" horiz-adv-x="537" 
d="M496 0h-457v76l362 548h-357v76h447v-76l-362 -548h367v-76z" />
    <glyph glyph-name="bracketleft" unicode="[" horiz-adv-x="274" 
d="M96 -114v814h139v-64h-74v-686h74v-64h-139z" />
    <glyph glyph-name="backslash" unicode="\" horiz-adv-x="345" 
d="M-5 700h72l283 -700h-72z" />
    <glyph glyph-name="bracketright" unicode="]" horiz-adv-x="274" 
d="M178 700v-814h-139v64h74v686h-74v64h139z" />
    <glyph glyph-name="asciicircum" unicode="^" horiz-adv-x="616" 
d="M343 700l208 -400h-75l-168 323l-168 -323h-75l208 400h70z" />
    <glyph glyph-name="underscore" unicode="_" horiz-adv-x="404" 
d="M404 -125h-404v65h404v-65z" />
    <glyph glyph-name="grave" unicode="`" horiz-adv-x="304" 
d="M53 700h108l77 -129h-67z" />
    <glyph glyph-name="a" unicode="a" horiz-adv-x="527" 
d="M257 458q-47 0 -81 -26t-43 -74h-77q9 89 66.5 130.5t134.5 41.5q83 0 142.5 -48.5t59.5 -153.5v-328h-75v53q-48 -63 -161 -63q-72 0 -121.5 39t-49.5 114q0 48 25.5 89t86.5 59q63 18 220 29v9q0 61 -36.5 95t-90.5 34zM384 186v67q-172 -12 -212 -34q-27 -15 -36 -32
t-9 -42q0 -37 28.5 -60t83.5 -23q63 0 104 32.5t41 91.5z" />
    <glyph glyph-name="b" unicode="b" horiz-adv-x="540" 
d="M277 -10q-37 0 -72.5 16.5t-54.5 46.5v-53h-75v700h75v-233q19 30 54.5 46.5t72.5 16.5q83 0 142.5 -48.5t59.5 -153.5v-136q0 -105 -59.5 -153.5t-142.5 -48.5zM404 191v138q0 61 -36.5 95t-90.5 34t-90.5 -34t-36.5 -95v-138q0 -61 36.5 -95t90.5 -34t90.5 34t36.5 95z
" />
    <glyph glyph-name="c" unicode="c" horiz-adv-x="515" 
d="M263 530q78 0 135.5 -42.5t65.5 -134.5h-76q-7 50 -42.5 77.5t-82.5 27.5q-54 0 -90.5 -34t-36.5 -95v-138q0 -61 36.5 -95t90.5 -34q47 0 82.5 27.5t42.5 77.5h76q-8 -92 -65.5 -134.5t-135.5 -42.5q-83 0 -142.5 48.5t-59.5 153.5v136q0 105 59.5 153.5t142.5 48.5z
" />
    <glyph glyph-name="d" unicode="d" horiz-adv-x="540" 
d="M263 -10q-83 0 -142.5 48.5t-59.5 153.5v136q0 105 59.5 153.5t142.5 48.5q37 0 72.5 -16.5t54.5 -46.5v233h75v-700h-75v53q-19 -30 -54.5 -46.5t-72.5 -16.5zM136 329v-138q0 -61 36.5 -95t90.5 -34t90.5 34t36.5 95v138q0 61 -36.5 95t-90.5 34t-90.5 -34t-36.5 -95z
" />
    <glyph glyph-name="e" unicode="e" horiz-adv-x="521" 
d="M263 62q47 0 81 26t43 74h77q-9 -89 -66.5 -130.5t-134.5 -41.5q-83 0 -142.5 48.5t-59.5 153.5v136q0 105 59.5 153.5t142.5 48.5t142.5 -48.5t59.5 -153.5v-87h-329v-50q0 -61 36.5 -95t90.5 -34zM390 310v19q0 61 -36.5 95t-90.5 34t-90.5 -34t-36.5 -95v-19h254z" />
    <glyph glyph-name="f" unicode="f" horiz-adv-x="317" 
d="M303 628h-79q-27 0 -37.5 -10t-10.5 -35v-67h127v-72h-127v-444h-75v444h-73v72h73v61q0 68 26.5 95.5t96.5 27.5h79v-72z" />
    <glyph glyph-name="g" unicode="g" horiz-adv-x="539" 
d="M262 -122q54 0 90.5 34t36.5 95v66q-19 -30 -54.5 -46.5t-72.5 -16.5q-83 0 -142.5 48.5t-59.5 153.5v116q0 105 59.5 153.5t142.5 48.5q37 0 72.5 -16.5t54.5 -46.5v49h75v-508q0 -105 -59.5 -153.5t-142.5 -48.5q-78 0 -135.5 42.5t-65.5 134.5h76q7 -50 42 -77.5
t83 -27.5zM135 329v-118q0 -61 36.5 -95t90.5 -34t90.5 34t36.5 95v118q0 61 -36.5 95t-90.5 34t-90.5 -34t-36.5 -95z" />
    <glyph glyph-name="h" unicode="h" horiz-adv-x="547" 
d="M277 530q83 0 142.5 -48.5t59.5 -153.5v-328h-75v329q0 61 -36.5 95t-90.5 34t-90.5 -34t-36.5 -95v-329h-75v700h75v-233q19 30 54.5 46.5t72.5 16.5z" />
    <glyph glyph-name="i" unicode="i" horiz-adv-x="225" 
d="M150 700v-97h-75v97h75zM150 516v-516h-75v516h75z" />
    <glyph glyph-name="j" unicode="j" horiz-adv-x="225" 
d="M150 700v-97h-75v97h75zM75 -67v583h75v-577q0 -68 -26.5 -95.5t-96.5 -27.5h-16v72h16q27 0 37.5 10t10.5 35z" />
    <glyph glyph-name="k" unicode="k" horiz-adv-x="505" 
d="M150 700v-428l225 244h93l-186 -202l213 -314h-88l-176 259l-81 -88v-171h-75v700h75z" />
    <glyph glyph-name="l" unicode="l" horiz-adv-x="254" 
d="M148 700v-583q0 -25 10.5 -35t37.5 -10h16v-72h-16q-70 0 -96.5 27.5t-26.5 95.5v577h75z" />
    <glyph glyph-name="m" unicode="m" horiz-adv-x="846" 
d="M778 0h-75v335q0 55 -36 89t-83 34q-49 0 -84.5 -35t-35.5 -94v-329h-75v335q0 55 -36 89t-83 34q-49 0 -84.5 -35t-35.5 -94v-329h-75v516h75v-49q17 29 52.5 46t67.5 17q47 0 89 -20t67 -61q25 40 67.5 60.5t89.5 20.5q79 0 137 -50.5t58 -151.5v-328z" />
    <glyph glyph-name="n" unicode="n" horiz-adv-x="547" 
d="M277 530q83 0 142.5 -48.5t59.5 -153.5v-328h-75v329q0 61 -36.5 95t-90.5 34t-90.5 -34t-36.5 -95v-329h-75v516h75v-49q19 30 54.5 46.5t72.5 16.5z" />
    <glyph glyph-name="o" unicode="o" horiz-adv-x="526" 
d="M390 191v138q0 61 -36.5 95t-90.5 34t-90.5 -34t-36.5 -95v-138q0 -61 36.5 -95t90.5 -34t90.5 34t36.5 95zM465 328v-136q0 -105 -59.5 -153.5t-142.5 -48.5t-142.5 48.5t-59.5 153.5v136q0 105 59.5 153.5t142.5 48.5t142.5 -48.5t59.5 -153.5z" />
    <glyph glyph-name="p" unicode="p" horiz-adv-x="540" 
d="M277 -10q-37 0 -72.5 16.5t-54.5 46.5v-237h-75v700h75v-49q19 30 54.5 46.5t72.5 16.5q83 0 142.5 -48.5t59.5 -153.5v-136q0 -105 -59.5 -153.5t-142.5 -48.5zM404 191v138q0 61 -36.5 95t-90.5 34t-90.5 -34t-36.5 -95v-138q0 -61 36.5 -95t90.5 -34t90.5 34t36.5 95z
" />
    <glyph glyph-name="q" unicode="q" horiz-adv-x="540" 
d="M263 -10q-83 0 -142.5 48.5t-59.5 153.5v136q0 105 59.5 153.5t142.5 48.5q37 0 72.5 -16.5t54.5 -46.5v49h75v-700h-75v237q-19 -30 -54.5 -46.5t-72.5 -16.5zM136 329v-138q0 -61 36.5 -95t90.5 -34t90.5 34t36.5 95v138q0 61 -36.5 95t-90.5 34t-90.5 -34t-36.5 -95z
" />
    <glyph glyph-name="r" unicode="r" horiz-adv-x="327" 
d="M150 516v-54q19 30 54.5 46.5t72.5 16.5h33v-72h-33q-54 0 -90.5 -34t-36.5 -95v-324h-75v516h75z" />
    <glyph glyph-name="s" unicode="s" horiz-adv-x="471" 
d="M415 365h-77q-14 93 -113 93q-43 0 -70 -20t-27 -55q0 -55 71 -72l97 -24q64 -16 98 -51t34 -102q0 -73 -49.5 -108.5t-132.5 -35.5q-87 0 -144 43t-63 132h77q5 -52 40 -77.5t90 -25.5q104 0 106 74q0 58 -72 76l-101 25q-52 12 -89.5 46.5t-37.5 96.5q0 69 50 109.5
t124 40.5q82 0 132.5 -41t56.5 -124z" />
    <glyph glyph-name="t" unicode="t" horiz-adv-x="341" 
d="M174 444v-327q0 -25 10.5 -35t37.5 -10h79v-72h-79q-70 0 -96.5 27.5t-26.5 95.5v321h-73v72h73v117h75v-117h127v-72h-127z" />
    <glyph glyph-name="u" unicode="u" horiz-adv-x="541" 
d="M267 -10q-35 0 -67.5 10t-63.5 31.5t-49.5 62.5t-18.5 95v327h75v-322q0 -65 36.5 -98.5t87.5 -33.5t87.5 34.5t36.5 94.5v325h75v-516h-75v53q-19 -29 -54 -46t-70 -17z" />
    <glyph glyph-name="v" unicode="v" horiz-adv-x="468" 
d="M462 516l-186 -516h-84l-186 516h80l148 -419l148 419h80z" />
    <glyph glyph-name="w" unicode="w" horiz-adv-x="684" 
d="M379 516l114 -402l100 402h78l-136 -516h-78l-115 405l-115 -405h-78l-136 516h78l100 -402l114 402h74z" />
    <glyph glyph-name="x" unicode="x" horiz-adv-x="474" 
d="M374 0l-137 209l-137 -209h-85l175 265l-167 251h87l127 -191l127 191h87l-167 -251l175 -265h-85z" />
    <glyph glyph-name="y" unicode="y" horiz-adv-x="468" 
d="M462 516l-234 -647q-10 -29 -36.5 -40.5t-77.5 -12.5h-29v72h38q22 0 31 7t14 23l27 74l-189 524h80l148 -419l148 419h80z" />
    <glyph glyph-name="z" unicode="z" horiz-adv-x="466" 
d="M421 444l-291 -372h298v-72h-389v72l291 372h-284v72h375v-72z" />
    <glyph glyph-name="braceleft" unicode="{" horiz-adv-x="306" 
d="M128 9v201q0 27 -11 39t-41 12h-22v64h22q30 0 41 12t11 39v201q0 68 26.5 95.5t96.5 27.5h16v-64h-22q-30 0 -41 -12t-11 -39v-201q0 -71 -33 -91q33 -20 33 -91v-201q0 -27 11 -39t41 -12h22v-64h-16q-70 0 -96.5 27.5t-26.5 95.5z" />
    <glyph glyph-name="bar" unicode="|" horiz-adv-x="225" 
d="M80 -100v800h65v-800h-65z" />
    <glyph glyph-name="braceright" unicode="}" horiz-adv-x="306" 
d="M178 210v-201q0 -68 -26.5 -95.5t-96.5 -27.5h-16v64h22q30 0 41 12t11 39v201q0 71 33 91q-33 20 -33 91v201q0 27 -11 39t-41 12h-22v64h16q70 0 96.5 -27.5t26.5 -95.5v-201q0 -27 11 -39t41 -12h22v-64h-22q-30 0 -41 -12t-11 -39z" />
    <glyph glyph-name="asciitilde" unicode="~" horiz-adv-x="524" 
d="M102 225l-42 46q58 65 132 65q37 0 80.5 -23t65.5 -23q34 0 84 46l42 -46q-58 -65 -132 -65q-37 0 -80.5 23t-65.5 23q-34 0 -84 -46z" />
    <glyph glyph-name="exclamdown" unicode="&#xa1;" horiz-adv-x="245" 
d="M160 306v-490h-75v490h75zM70 411v105h105v-105h-105z" />
    <glyph glyph-name="cent" unicode="&#xa2;" horiz-adv-x="525" 
d="M246 -100v91q-77 6 -128.5 54.5t-51.5 146.5v136q0 97 51.5 145.5t128.5 55.5v91h43v-91q72 -6 122.5 -48.5t57.5 -127.5h-76q-6 44 -35 70.5t-69 32.5v-393q41 6 69.5 33t34.5 71h76q-7 -85 -57.5 -127.5t-122.5 -48.5v-91h-43zM141 191q0 -55 29.5 -88t75.5 -40v393
q-46 -6 -75.5 -39t-29.5 -88v-138z" />
    <glyph glyph-name="sterling" unicode="&#xa3;" horiz-adv-x="588" 
d="M65 377h64v131q0 105 59.5 153.5t142.5 48.5t142.5 -48.5t59.5 -153.5h-75v1q0 61 -36.5 95t-90.5 34t-90.5 -34t-36.5 -95v-132h254v-53h-254v-201q0 -38 -11 -51h340v-72h-468v72h16q27 0 37.5 9.5t10.5 34.5v208h-64v53z" />
    <glyph glyph-name="currency" unicode="&#xa4;" horiz-adv-x="717" 
d="M65 84l85 85q-61 74 -61 171q0 96 61 171l-85 85l38 38l85 -86q73 62 171 62q96 0 170 -61l85 85l38 -38l-85 -85q62 -75 62 -171q0 -95 -62 -172l85 -84l-38 -38l-85 85q-74 -61 -170 -61q-97 0 -171 61l-85 -85zM161 340q0 -82 58 -140t140 -58t140 58t58 140t-58 140
t-140 58t-140 -58t-58 -140z" />
    <glyph glyph-name="yen" unicode="&#xa5;" horiz-adv-x="587" 
d="M360 332h135v-53h-164v-86h164v-53h-164v-140h-75v140h-164v53h164v86h-164v53h135l-203 368h83l187 -341l186 341h83z" />
    <glyph glyph-name="brokenbar" unicode="&#xa6;" horiz-adv-x="225" 
d="M145 700v-339h-65v339h65zM80 -100v339h65v-339h-65z" />
    <glyph glyph-name="section" unicode="&#xa7;" horiz-adv-x="548" 
d="M87 -20h66q3 -51 36.5 -81.5t84.5 -30.5t82.5 27.5t32.5 73.5q0 37 -20.5 63.5t-50.5 36.5l-107 36q-32 11 -53 21t-45.5 29t-37.5 49t-13 69q0 107 90 144q-59 48 -59 132q0 73 52 117t129 44q78 0 127 -40.5t59 -123.5h-66q-7 50 -38.5 76t-81.5 26q-51 0 -82.5 -27.5
t-32.5 -73.5q0 -37 20.5 -63.5t50.5 -36.5l107 -36q32 -11 53 -21t45.5 -29t37.5 -49t13 -69q0 -107 -91 -144q60 -51 60 -132q0 -73 -52 -117t-129 -44q-82 0 -131 45.5t-56 128.5zM321 348l-81 27q-49 -2 -80 -26.5t-32 -73.5q0 -74 99 -107l81 -27q48 2 79.5 26.5
t32.5 73.5q0 74 -99 107z" />
    <glyph glyph-name="dieresis" unicode="&#xa8;" horiz-adv-x="408" 
d="M142 684v-97h-75v97h75zM341 684v-97h-75v97h75z" />
    <glyph glyph-name="copyright" unicode="&#xa9;" horiz-adv-x="810" 
d="M45 350q0 149 105.5 254.5t254.5 105.5t254.5 -105.5t105.5 -254.5t-105.5 -254.5t-254.5 -105.5t-254.5 105.5t-105.5 254.5zM110 350q0 -123 86 -209.5t209 -86.5t209 86.5t86 209.5t-86 209.5t-209 86.5t-209 -86.5t-86 -209.5zM405 135q-69 0 -111 40.5t-42 108.5
v132q0 67 42 108t111 41q66 0 107.5 -37t45.5 -100h-68q-4 34 -29 51.5t-56 17.5q-34 0 -59.5 -20.5t-25.5 -60.5v-132q0 -40 25.5 -61t59.5 -21q31 0 56 18t29 52h68q-4 -63 -46 -100t-107 -37z" />
    <glyph glyph-name="ordfeminine" unicode="&#xaa;" horiz-adv-x="323" 
d="M132 395q-45 0 -74 22.5t-29 66.5q0 70 65 91q39 12 125 17q-5 54 -60 54q-45 0 -59 -39h-66q5 38 27 62t46 31.5t52 7.5q49 0 87.5 -28.5t38.5 -96.5v-182h-65v28q-28 -34 -88 -34zM142 458q78 0 78 65v12q-89 -5 -114 -21q-12 -6 -12 -24q0 -32 48 -32z" />
    <glyph glyph-name="guillemotleft" unicode="&#xab;" horiz-adv-x="468" 
d="M224 89l-167 147v74l167 147v-87l-110 -97l110 -97v-87zM403 89l-167 147v74l167 147v-87l-110 -97l110 -97v-87z" />
    <glyph glyph-name="logicalnot" unicode="&#xac;" 
d="M416 78v170h-339v65h404v-235h-65z" />
    <glyph glyph-name="registered" unicode="&#xae;" horiz-adv-x="810" 
d="M45 350q0 149 105.5 254.5t254.5 105.5t254.5 -105.5t105.5 -254.5t-105.5 -254.5t-254.5 -105.5t-254.5 105.5t-105.5 254.5zM110 350q0 -123 86 -209.5t209 -86.5t209 86.5t86 209.5t-86 209.5t-209 86.5t-209 -86.5t-86 -209.5zM503 141h76l-106 180q93 19 93 117
q0 57 -34.5 89t-95.5 32h-170v-418h68v177h65zM334 384v107h102q28 0 44 -14t16 -40t-16 -39.5t-44 -13.5h-102z" />
    <glyph glyph-name="macron" unicode="&#xaf;" horiz-adv-x="426" 
d="M64 603v65h298v-65h-298z" />
    <glyph glyph-name="degree" unicode="&#xb0;" horiz-adv-x="414" 
d="M51 549q0 65 45.5 110.5t110.5 45.5t110.5 -45.5t45.5 -110.5t-45.5 -110.5t-110.5 -45.5t-110.5 45.5t-45.5 110.5zM110 549q0 -41 28.5 -69.5t68.5 -28.5t68.5 28.5t28.5 69.5t-28.5 69.5t-68.5 28.5t-68.5 -28.5t-28.5 -69.5z" />
    <glyph glyph-name="plusminus" unicode="&#xb1;" 
d="M481 307h-167v-144h-65v144h-172v65h172v144h65v-144h167v-65zM481 0h-404v65h404v-65z" />
    <glyph glyph-name="two.superior" unicode="&#xb2;" horiz-adv-x="309" 
d="M27 401v63l148 152q39 40 39 69q0 65 -61 65t-61 -64v-4h-65v5q0 68 38.5 97t87.5 29t87.5 -29t38.5 -97q0 -32 -12 -56t-43 -56l-108 -111h163v-63h-252z" />
    <glyph glyph-name="three.superior" unicode="&#xb3;" horiz-adv-x="312" 
d="M157 395q-51 0 -90.5 28t-40.5 94h65q1 -29 18.5 -44t45.5 -15q59 0 59 56q0 28 -17.5 44t-44.5 16h-35v59h35q29 0 45.5 15.5t16.5 40.5q0 27 -17 44t-45 17t-44 -15t-17 -44h-65q1 45 23 74t48 38.5t55 9.5q47 0 87 -30.5t40 -93.5q0 -60 -48 -85q22 -12 35 -37t13 -53
q0 -61 -36 -90t-86 -29z" />
    <glyph glyph-name="acute" unicode="&#xb4;" horiz-adv-x="304" 
d="M143 700h108l-118 -129h-67z" />
    <glyph glyph-name="mu" unicode="&#xb5;" horiz-adv-x="548" 
d="M274 -10q-35 0 -70 17t-54 46v-237h-75v700h75v-325q0 -60 36.5 -94.5t87.5 -34.5t87.5 34.5t36.5 94.5v325h75v-516h-75v53q-19 -29 -54 -46t-70 -17z" />
    <glyph glyph-name="mu" unicode="&#x3bc;" horiz-adv-x="548" 
d="M274 -10q-35 0 -70 17t-54 46v-237h-75v700h75v-325q0 -60 36.5 -94.5t87.5 -34.5t87.5 34.5t36.5 94.5v325h75v-516h-75v53q-19 -29 -54 -46t-70 -17z" />
    <glyph glyph-name="paragraph" unicode="&#xb6;" horiz-adv-x="566" 
d="M481 700v-787h-64v723h-110v-723h-65v387h-10q-82 0 -140.5 58.5t-58.5 141.5q0 82 58.5 141t140.5 59h249z" />
    <glyph glyph-name="periodcentered" unicode="&#xb7;" horiz-adv-x="285" 
d="M90 238v105h105v-105h-105z" />
    <glyph glyph-name="cedilla" unicode="&#xb8;" horiz-adv-x="268" 
d="M55 -158l71 158h65l-38 -158h-98z" />
    <glyph glyph-name="one.superior" unicode="&#xb9;" horiz-adv-x="217" 
d="M104 401v322l-78 -67v84l78 67h65v-406h-65z" />
    <glyph glyph-name="ordmasculine" unicode="&#xba;" horiz-adv-x="321" 
d="M161 458q61 0 61 65v58q0 65 -61 65q-62 0 -62 -65v-58q0 -65 62 -65zM161 395q-49 0 -88 29t-39 97v62q0 36 12 62t32 39t40.5 18.5t42.5 5.5q49 0 87.5 -28.5t38.5 -96.5v-62q0 -68 -38.5 -97t-87.5 -29z" />
    <glyph glyph-name="guillemotright" unicode="&#xbb;" horiz-adv-x="468" 
d="M411 236l-167 -147v87l110 97l-110 97v87l167 -147v-74zM232 236l-167 -147v87l110 97l-110 97v87l167 -147v-74z" />
    <glyph glyph-name="onequarter" unicode="&#xbc;" horiz-adv-x="840" 
d="M201 294v322l-78 -67v84l78 67h65v-406h-65zM625 700h71l-481 -700h-71zM681 0v98h-179v63l179 245h65v-245h43v-63h-43v-98h-65zM581 161h100v138z" />
    <glyph glyph-name="onehalf" unicode="&#xbd;" horiz-adv-x="840" 
d="M201 294v322l-78 -67v84l78 67h65v-406h-65zM625 700h71l-481 -700h-71zM519 0v63l148 152q39 40 39 69q0 65 -61 65t-61 -64v-4h-65v5q0 68 38.5 97t87.5 29t87.5 -29t38.5 -97q0 -32 -12 -56t-43 -56l-108 -111h163v-63h-252z" />
    <glyph glyph-name="threequarters" unicode="&#xbe;" horiz-adv-x="840" 
d="M199 288q-51 0 -90.5 28t-40.5 94h65q1 -29 18.5 -44t45.5 -15q59 0 59 56q0 28 -17.5 44t-44.5 16h-35v59h35q29 0 45.5 15.5t16.5 40.5q0 27 -17 44t-45 17t-44 -15t-17 -44h-65q1 45 23 74t48 38.5t55 9.5q47 0 87 -30.5t40 -93.5q0 -60 -48 -85q22 -12 35 -37t13 -53
q0 -61 -36 -90t-86 -29zM625 700h71l-481 -700h-71zM681 0v98h-179v63l179 245h65v-245h43v-63h-43v-98h-65zM581 161h100v138z" />
    <glyph glyph-name="questiondown" unicode="&#xbf;" horiz-adv-x="484" 
d="M377 7v9h75v-8q0 -105 -59.5 -153.5t-142.5 -48.5t-142.5 48.5t-59.5 153.5q0 42 20.5 83t48.5 67l60 55q36 33 36 71v22h75v-22q0 -39 -13 -64t-45 -55l-60 -55q-47 -45 -47 -103q0 -61 36.5 -95t90.5 -34t90.5 34t36.5 95zM198 411v105h105v-105h-105z" />
    <glyph glyph-name="Agrave" unicode="&#xc0;" horiz-adv-x="566" 
d="M474 0l-64 197h-254l-64 -197h-78l225 700h88l225 -700h-78zM387 268l-104 325l-104 -325h208zM148 854h110l92 -109h-74z" />
    <glyph glyph-name="Aacute" unicode="&#xc1;" horiz-adv-x="566" 
d="M474 0l-64 197h-254l-64 -197h-78l225 700h88l225 -700h-78zM387 268l-104 325l-104 -325h208zM308 854h110l-128 -109h-74z" />
    <glyph glyph-name="Acircumflex" unicode="&#xc2;" horiz-adv-x="566" 
d="M474 0l-64 197h-254l-64 -197h-78l225 700h88l225 -700h-78zM387 268l-104 325l-104 -325h208zM342 745l-59 51l-59 -51h-99l125 109h66l125 -109h-99z" />
    <glyph glyph-name="Atilde" unicode="&#xc3;" horiz-adv-x="566" 
d="M474 0l-64 197h-254l-64 -197h-78l225 700h88l225 -700h-78zM387 268l-104 325l-104 -325h208zM227 852q30 0 55 -14l30 -16q16 -8 26 -8q28 0 39 36h65q-9 -45 -37.5 -73.5t-65.5 -28.5q-30 0 -55 14l-30 16q-16 8 -26 8q-28 0 -39 -36h-65q9 45 37.5 73.5t65.5 28.5z
" />
    <glyph glyph-name="Adieresis" unicode="&#xc4;" horiz-adv-x="566" 
d="M474 0l-64 197h-254l-64 -197h-78l225 700h88l225 -700h-78zM387 268l-104 325l-104 -325h208zM420 848v-97h-77v97h77zM223 848v-97h-77v97h77z" />
    <glyph glyph-name="Aring" unicode="&#xc5;" horiz-adv-x="566" 
d="M474 0l-64 197h-254l-64 -197h-78l225 700h88l225 -700h-78zM387 268l-104 325l-104 -325h208zM209 799q0 31 21.5 53t52.5 22t53 -22t22 -53t-22 -52.5t-53 -21.5t-52.5 21.5t-21.5 52.5zM257 799q0 -11 7.5 -18.5t18.5 -7.5t18.5 7.5t7.5 18.5t-7.5 18.5t-18.5 7.5
t-18.5 -7.5t-7.5 -18.5z" />
    <glyph glyph-name="AE" unicode="&#xc6;" horiz-adv-x="839" 
d="M212 268h165v359zM775 0h-398v197h-198l-90 -197h-82l322 700h446v-76h-321v-232h321v-76h-321v-240h321v-76z" />
    <glyph glyph-name="Ccedilla" unicode="&#xc7;" horiz-adv-x="559" 
d="M193 -158l62 150q-90 9 -143 71.5t-53 163.5v246q0 109 62 173t164 64q97 0 158 -58t67 -159h-77q-6 68 -46.5 104.5t-101.5 36.5q-65 0 -107 -42t-42 -119v-246q0 -77 42 -119t107 -42q61 0 101.5 36.5t46.5 104.5h77q-5 -88 -53.5 -144.5t-127.5 -68.5l-36 -152h-100z
" />
    <glyph glyph-name="Egrave" unicode="&#xc8;" horiz-adv-x="542" 
d="M157 316v-240h321v-76h-398v700h398v-76h-321v-232h321v-76h-321zM144 854h110l92 -109h-74z" />
    <glyph glyph-name="Eacute" unicode="&#xc9;" horiz-adv-x="542" 
d="M157 316v-240h321v-76h-398v700h398v-76h-321v-232h321v-76h-321zM304 854h110l-128 -109h-74z" />
    <glyph glyph-name="Ecircumflex" unicode="&#xca;" horiz-adv-x="542" 
d="M157 316v-240h321v-76h-398v700h398v-76h-321v-232h321v-76h-321zM338 745l-59 51l-59 -51h-99l125 109h66l125 -109h-99z" />
    <glyph glyph-name="Edieresis" unicode="&#xcb;" horiz-adv-x="542" 
d="M157 316v-240h321v-76h-398v700h398v-76h-321v-232h321v-76h-321zM416 848v-97h-77v97h77zM219 848v-97h-77v97h77z" />
    <glyph glyph-name="Igrave" unicode="&#xcc;" horiz-adv-x="237" 
d="M80 0v700h77v-700h-77zM-17 854h110l92 -109h-74z" />
    <glyph glyph-name="Iacute" unicode="&#xcd;" horiz-adv-x="237" 
d="M80 0v700h77v-700h-77zM143 854h110l-128 -109h-74z" />
    <glyph glyph-name="Icircumflex" unicode="&#xce;" horiz-adv-x="237" 
d="M80 0v700h77v-700h-77zM177 745l-59 51l-59 -51h-99l125 109h66l125 -109h-99z" />
    <glyph glyph-name="Idieresis" unicode="&#xcf;" horiz-adv-x="237" 
d="M80 0v700h77v-700h-77zM255 848v-97h-77v97h77zM58 848v-97h-77v97h77z" />
    <glyph glyph-name="Eth" unicode="&#xd0;" horiz-adv-x="602" 
d="M91 700h226q102 0 164 -64t62 -173v-226q0 -109 -62 -173t-164 -64h-226v323h-70v55h70v322zM317 624h-149v-246h149v-55h-149v-247h149q65 0 107 42t42 119v226q0 77 -42 118.5t-107 42.5z" />
    <glyph glyph-name="Ntilde" unicode="&#xd1;" horiz-adv-x="612" 
d="M532 700v-700h-77l-298 551v-551h-77v700h77l298 -551v551h77zM250 852q30 0 55 -14l30 -16q16 -8 26 -8q29 0 39 36h65q-9 -45 -37.5 -73.5t-65.5 -28.5q-30 0 -55 14l-30 16q-16 8 -26 8q-28 0 -39 -36h-65q9 45 37.5 73.5t65.5 28.5z" />
    <glyph glyph-name="Ograve" unicode="&#xd2;" horiz-adv-x="570" 
d="M434 227v246q0 77 -42 119t-107 42t-107 -42t-42 -119v-246q0 -77 42 -119t107 -42t107 42t42 119zM511 473v-246q0 -109 -62 -173t-164 -64t-164 64t-62 173v246q0 109 62 173t164 64t164 -64t62 -173zM150 854h110l92 -109h-74z" />
    <glyph glyph-name="Oacute" unicode="&#xd3;" horiz-adv-x="570" 
d="M434 227v246q0 77 -42 119t-107 42t-107 -42t-42 -119v-246q0 -77 42 -119t107 -42t107 42t42 119zM511 473v-246q0 -109 -62 -173t-164 -64t-164 64t-62 173v246q0 109 62 173t164 64t164 -64t62 -173zM310 854h110l-128 -109h-74z" />
    <glyph glyph-name="Ocircumflex" unicode="&#xd4;" horiz-adv-x="570" 
d="M434 227v246q0 77 -42 119t-107 42t-107 -42t-42 -119v-246q0 -77 42 -119t107 -42t107 42t42 119zM511 473v-246q0 -109 -62 -173t-164 -64t-164 64t-62 173v246q0 109 62 173t164 64t164 -64t62 -173zM344 745l-59 51l-59 -51h-99l125 109h66l125 -109h-99z" />
    <glyph glyph-name="Otilde" unicode="&#xd5;" horiz-adv-x="570" 
d="M434 227v246q0 77 -42 119t-107 42t-107 -42t-42 -119v-246q0 -77 42 -119t107 -42t107 42t42 119zM511 473v-246q0 -109 -62 -173t-164 -64t-164 64t-62 173v246q0 109 62 173t164 64t164 -64t62 -173zM229 852q30 0 55 -14l30 -16q16 -8 26 -8q28 0 39 36h65
q-9 -45 -37.5 -73.5t-65.5 -28.5q-30 0 -55 14l-30 16q-16 8 -26 8q-28 0 -39 -36h-65q9 45 37.5 73.5t65.5 28.5z" />
    <glyph glyph-name="Odieresis" unicode="&#xd6;" horiz-adv-x="570" 
d="M434 227v246q0 77 -42 119t-107 42t-107 -42t-42 -119v-246q0 -77 42 -119t107 -42t107 42t42 119zM511 473v-246q0 -109 -62 -173t-164 -64t-164 64t-62 173v246q0 109 62 173t164 64t164 -64t62 -173zM422 848v-97h-77v97h77zM225 848v-97h-77v97h77z" />
    <glyph glyph-name="multiply" unicode="&#xd7;" 
d="M71 118l162 162l-163 164l46 46l163 -164l164 164l46 -46l-164 -164l163 -162l-46 -46l-163 162l-162 -162z" />
    <glyph glyph-name="Oslash" unicode="&#xd8;" horiz-adv-x="576" 
d="M514 473v-246q0 -109 -62 -173t-164 -64q-87 0 -145 46l-33 -59l-48 27l42 74q-42 61 -42 149v246q0 109 62 173t164 64q87 0 145 -47l34 61l47 -28l-42 -75q42 -59 42 -148zM139 227q0 -39 10 -68l244 434q-41 41 -105 41q-65 0 -107 -42t-42 -119v-246zM437 227v246
q0 36 -11 67l-243 -434q42 -40 105 -40q65 0 107 42t42 119z" />
    <glyph glyph-name="Ugrave" unicode="&#xd9;" horiz-adv-x="594" 
d="M71 227v473h77v-473q0 -77 42 -119t107 -42t107 42t42 119v473h77v-473q0 -109 -62 -173t-164 -64t-164 64t-62 173zM162 854h110l92 -109h-74z" />
    <glyph glyph-name="Uacute" unicode="&#xda;" horiz-adv-x="594" 
d="M71 227v473h77v-473q0 -77 42 -119t107 -42t107 42t42 119v473h77v-473q0 -109 -62 -173t-164 -64t-164 64t-62 173zM322 854h110l-128 -109h-74z" />
    <glyph glyph-name="Ucircumflex" unicode="&#xdb;" horiz-adv-x="594" 
d="M71 227v473h77v-473q0 -77 42 -119t107 -42t107 42t42 119v473h77v-473q0 -109 -62 -173t-164 -64t-164 64t-62 173zM356 745l-59 51l-59 -51h-99l125 109h66l125 -109h-99z" />
    <glyph glyph-name="Udieresis" unicode="&#xdc;" horiz-adv-x="594" 
d="M71 227v473h77v-473q0 -77 42 -119t107 -42t107 42t42 119v473h77v-473q0 -109 -62 -173t-164 -64t-164 64t-62 173zM433 848v-97h-77v97h77zM236 848v-97h-77v97h77z" />
    <glyph glyph-name="Yacute" unicode="&#xdd;" horiz-adv-x="545" 
d="M311 0v278l231 422h-84l-185 -339l-186 339h-84l231 -421v-279h77zM298 854h110l-128 -109h-74z" />
    <glyph glyph-name="Thorn" unicode="&#xde;" horiz-adv-x="551" 
d="M532 350q0 -99 -55 -156.5t-171 -57.5h-149v-136h-77v700h77v-136h149q116 0 171 -57.5t55 -156.5zM453 350q0 62 -35.5 100t-111.5 38h-149v-276h149q76 0 111.5 38t35.5 100z" />
    <glyph glyph-name="germandbls" unicode="&#xdf;" horiz-adv-x="527" 
d="M231 -5v75q22 -8 51 -8q122 0 122 140q0 58 -35 98.5t-106 40.5h-4h-7h-21v72h21q102 0 102 112q0 113 -102 113t-102 -113v-525h-75v525q0 99 48.5 142t128.5 43t128.5 -43t48.5 -142q0 -95 -48 -140q98 -53 98 -183q0 -102 -53.5 -157t-143.5 -55q-24 0 -51 5z" />
    <glyph glyph-name="agrave" unicode="&#xe0;" horiz-adv-x="527" 
d="M257 458q-47 0 -81 -26t-43 -74h-77q9 89 66.5 130.5t134.5 41.5q83 0 142.5 -48.5t59.5 -153.5v-328h-75v53q-48 -63 -161 -63q-72 0 -121.5 39t-49.5 114q0 48 25.5 89t86.5 59q63 18 220 29v9q0 61 -36.5 95t-90.5 34zM384 186v67q-172 -12 -212 -34q-27 -15 -36 -32
t-9 -42q0 -37 28.5 -60t83.5 -23q63 0 104 32.5t41 91.5zM128 700h108l77 -129h-67z" />
    <glyph glyph-name="aacute" unicode="&#xe1;" horiz-adv-x="527" 
d="M257 458q-47 0 -81 -26t-43 -74h-77q9 89 66.5 130.5t134.5 41.5q83 0 142.5 -48.5t59.5 -153.5v-328h-75v53q-48 -63 -161 -63q-72 0 -121.5 39t-49.5 114q0 48 25.5 89t86.5 59q63 18 220 29v9q0 61 -36.5 95t-90.5 34zM384 186v67q-172 -12 -212 -34q-27 -15 -36 -32
t-9 -42q0 -37 28.5 -60t83.5 -23q63 0 104 32.5t41 91.5zM270 700h108l-118 -129h-67z" />
    <glyph glyph-name="acircumflex" unicode="&#xe2;" horiz-adv-x="527" 
d="M257 458q-47 0 -81 -26t-43 -74h-77q9 89 66.5 130.5t134.5 41.5q83 0 142.5 -48.5t59.5 -153.5v-328h-75v53q-48 -63 -161 -63q-72 0 -121.5 39t-49.5 114q0 48 25.5 89t86.5 59q63 18 220 29v9q0 61 -36.5 95t-90.5 34zM384 186v67q-172 -12 -212 -34q-27 -15 -36 -32
t-9 -42q0 -37 28.5 -60t83.5 -23q63 0 104 32.5t41 91.5zM293 700l125 -129h-89l-69 71l-69 -71h-89l125 129h66z" />
    <glyph glyph-name="atilde" unicode="&#xe3;" horiz-adv-x="527" 
d="M257 458q-47 0 -81 -26t-43 -74h-77q9 89 66.5 130.5t134.5 41.5q83 0 142.5 -48.5t59.5 -153.5v-328h-75v53q-48 -63 -161 -63q-72 0 -121.5 39t-49.5 114q0 48 25.5 89t86.5 59q63 18 220 29v9q0 61 -36.5 95t-90.5 34zM384 186v67q-172 -12 -212 -34q-27 -15 -36 -32
t-9 -42q0 -37 28.5 -60t83.5 -23q63 0 104 32.5t41 91.5zM159 586h-58q9 45 37.5 73.5t65.5 28.5q30 0 55 -14l30 -17q14 -9 31 -9q13 0 25 11t16 27h58q-9 -45 -37.5 -73.5t-65.5 -28.5q-30 0 -55 14l-30 17q-14 9 -31 9q-13 0 -25 -11t-16 -27z" />
    <glyph glyph-name="adieresis" unicode="&#xe4;" horiz-adv-x="527" 
d="M257 458q-47 0 -81 -26t-43 -74h-77q9 89 66.5 130.5t134.5 41.5q83 0 142.5 -48.5t59.5 -153.5v-328h-75v53q-48 -63 -161 -63q-72 0 -121.5 39t-49.5 114q0 48 25.5 89t86.5 59q63 18 220 29v9q0 61 -36.5 95t-90.5 34zM384 186v67q-172 -12 -212 -34q-27 -15 -36 -32
t-9 -42q0 -37 28.5 -60t83.5 -23q63 0 104 32.5t41 91.5zM198 684v-97h-75v97h75zM397 684v-97h-75v97h75z" />
    <glyph glyph-name="aring" unicode="&#xe5;" horiz-adv-x="527" 
d="M257 458q-47 0 -81 -26t-43 -74h-77q9 89 66.5 130.5t134.5 41.5q83 0 142.5 -48.5t59.5 -153.5v-328h-75v53q-48 -63 -161 -63q-72 0 -121.5 39t-49.5 114q0 48 25.5 89t86.5 59q63 18 220 29v9q0 61 -36.5 95t-90.5 34zM384 186v67q-172 -12 -212 -34q-27 -15 -36 -32
t-9 -42q0 -37 28.5 -60t83.5 -23q63 0 104 32.5t41 91.5zM234 635q0 -11 8.5 -19.5t19.5 -8.5t19.5 8.5t8.5 19.5t-8.5 19.5t-19.5 8.5t-19.5 -8.5t-8.5 -19.5zM188 635q0 31 21.5 53t52.5 22t53 -22t22 -53t-22 -52.5t-53 -21.5t-52.5 21.5t-21.5 52.5z" />
    <glyph glyph-name="ae" unicode="&#xe6;" horiz-adv-x="844" 
d="M586 62q47 0 81 26t43 74h77q-9 -89 -66.5 -130.5t-134.5 -41.5q-57 0 -106 23.5t-74 73.5q-49 -97 -183 -97q-72 0 -121.5 39t-49.5 114q0 48 25.5 89t86.5 59q63 18 220 29v15q-2 59 -38.5 91t-88.5 32q-47 0 -81 -26t-43 -74h-77q9 89 66.5 130.5t134.5 41.5
q111 0 164 -83q52 83 165 83q83 0 142.5 -48.5t59.5 -153.5v-87h-329v-50q0 -61 36.5 -95t90.5 -34zM384 186v67q-172 -12 -212 -34q-27 -15 -36 -32t-9 -42q0 -37 28.5 -60t83.5 -23q63 0 104 32.5t41 91.5zM713 310v19q0 61 -36.5 95t-90.5 34t-90.5 -34t-36.5 -95v-19
h254z" />
    <glyph glyph-name="ccedilla" unicode="&#xe7;" horiz-adv-x="515" 
d="M171 -158l67 149q-76 7 -126.5 55.5t-50.5 145.5v136q0 105 59.5 153.5t142.5 48.5q78 0 135.5 -42.5t65.5 -134.5h-76q-7 50 -42.5 77.5t-82.5 27.5q-54 0 -90.5 -34t-36.5 -95v-138q0 -61 36.5 -95t90.5 -34q47 0 82.5 27.5t42.5 77.5h76q-7 -79 -51 -121.5t-108 -52.5
l-36 -151h-98z" />
    <glyph glyph-name="egrave" unicode="&#xe8;" horiz-adv-x="521" 
d="M263 62q47 0 81 26t43 74h77q-9 -89 -66.5 -130.5t-134.5 -41.5q-83 0 -142.5 48.5t-59.5 153.5v136q0 105 59.5 153.5t142.5 48.5t142.5 -48.5t59.5 -153.5v-87h-329v-50q0 -61 36.5 -95t90.5 -34zM390 310v19q0 61 -36.5 95t-90.5 34t-90.5 -34t-36.5 -95v-19h254z
M140 700h108l77 -129h-67z" />
    <glyph glyph-name="eacute" unicode="&#xe9;" horiz-adv-x="521" 
d="M263 62q47 0 81 26t43 74h77q-9 -89 -66.5 -130.5t-134.5 -41.5q-83 0 -142.5 48.5t-59.5 153.5v136q0 105 59.5 153.5t142.5 48.5t142.5 -48.5t59.5 -153.5v-87h-329v-50q0 -61 36.5 -95t90.5 -34zM390 310v19q0 61 -36.5 95t-90.5 34t-90.5 -34t-36.5 -95v-19h254z
M278 700h108l-118 -129h-67z" />
    <glyph glyph-name="ecircumflex" unicode="&#xea;" horiz-adv-x="521" 
d="M263 62q47 0 81 26t43 74h77q-9 -89 -66.5 -130.5t-134.5 -41.5q-83 0 -142.5 48.5t-59.5 153.5v136q0 105 59.5 153.5t142.5 48.5t142.5 -48.5t59.5 -153.5v-87h-329v-50q0 -61 36.5 -95t90.5 -34zM390 310v19q0 61 -36.5 95t-90.5 34t-90.5 -34t-36.5 -95v-19h254z
M296 700l125 -129h-89l-69 71l-69 -71h-89l125 129h66z" />
    <glyph glyph-name="edieresis" unicode="&#xeb;" horiz-adv-x="521" 
d="M263 62q47 0 81 26t43 74h77q-9 -89 -66.5 -130.5t-134.5 -41.5q-83 0 -142.5 48.5t-59.5 153.5v136q0 105 59.5 153.5t142.5 48.5t142.5 -48.5t59.5 -153.5v-87h-329v-50q0 -61 36.5 -95t90.5 -34zM390 310v19q0 61 -36.5 95t-90.5 34t-90.5 -34t-36.5 -95v-19h254z
M201 684v-97h-75v97h75zM400 684v-97h-75v97h75z" />
    <glyph glyph-name="igrave" unicode="&#xec;" horiz-adv-x="225" 
d="M150 516v-516h-75v516h75zM-11 700h108l77 -129h-67z" />
    <glyph glyph-name="iacute" unicode="&#xed;" horiz-adv-x="225" 
d="M150 516v-516h-75v516h75zM127 700h108l-118 -129h-67z" />
    <glyph glyph-name="icircumflex" unicode="&#xee;" horiz-adv-x="225" 
d="M150 516v-516h-75v516h75zM145 700l125 -129h-89l-69 71l-69 -71h-89l125 129h66z" />
    <glyph glyph-name="idieresis" unicode="&#xef;" horiz-adv-x="225" 
d="M150 516v-516h-75v516h75zM50 684v-97h-75v97h75zM249 684v-97h-75v97h75z" />
    <glyph glyph-name="eth" unicode="&#xf0;" horiz-adv-x="526" 
d="M250 700l44 -60h89v-53h-50l97 -133q35 -48 35 -126v-136q0 -105 -59.5 -153.5t-142.5 -48.5t-142.5 48.5t-59.5 153.5v136q0 105 59.5 153.5t142.5 48.5q3 0 11 -0.5t11 -0.5l-42 58h-125v53h86l-43 60h89zM390 191v138q0 61 -36.5 95t-90.5 34t-90.5 -34t-36.5 -95
v-138q0 -61 36.5 -95t90.5 -34t90.5 34t36.5 95z" />
    <glyph glyph-name="ntilde" unicode="&#xf1;" horiz-adv-x="547" 
d="M277 530q83 0 142.5 -48.5t59.5 -153.5v-328h-75v329q0 61 -36.5 95t-90.5 34t-90.5 -34t-36.5 -95v-329h-75v516h75v-49q19 30 54.5 46.5t72.5 16.5zM176 586h-58q9 45 37.5 73.5t65.5 28.5q30 0 55 -14l30 -17q14 -9 31 -9q13 0 25 11t16 27h58q-9 -45 -37.5 -73.5
t-65.5 -28.5q-30 0 -55 14l-30 17q-14 9 -31 9q-13 0 -25 -11t-16 -27z" />
    <glyph glyph-name="ograve" unicode="&#xf2;" horiz-adv-x="526" 
d="M390 191v138q0 61 -36.5 95t-90.5 34t-90.5 -34t-36.5 -95v-138q0 -61 36.5 -95t90.5 -34t90.5 34t36.5 95zM465 328v-136q0 -105 -59.5 -153.5t-142.5 -48.5t-142.5 48.5t-59.5 153.5v136q0 105 59.5 153.5t142.5 48.5t142.5 -48.5t59.5 -153.5zM140 700h108l77 -129
h-67z" />
    <glyph glyph-name="oacute" unicode="&#xf3;" horiz-adv-x="526" 
d="M390 191v138q0 61 -36.5 95t-90.5 34t-90.5 -34t-36.5 -95v-138q0 -61 36.5 -95t90.5 -34t90.5 34t36.5 95zM465 328v-136q0 -105 -59.5 -153.5t-142.5 -48.5t-142.5 48.5t-59.5 153.5v136q0 105 59.5 153.5t142.5 48.5t142.5 -48.5t59.5 -153.5zM278 700h108l-118 -129
h-67z" />
    <glyph glyph-name="ocircumflex" unicode="&#xf4;" horiz-adv-x="526" 
d="M390 191v138q0 61 -36.5 95t-90.5 34t-90.5 -34t-36.5 -95v-138q0 -61 36.5 -95t90.5 -34t90.5 34t36.5 95zM465 328v-136q0 -105 -59.5 -153.5t-142.5 -48.5t-142.5 48.5t-59.5 153.5v136q0 105 59.5 153.5t142.5 48.5t142.5 -48.5t59.5 -153.5zM296 700l125 -129h-89
l-69 71l-69 -71h-89l125 129h66z" />
    <glyph glyph-name="otilde" unicode="&#xf5;" horiz-adv-x="526" 
d="M390 191v138q0 61 -36.5 95t-90.5 34t-90.5 -34t-36.5 -95v-138q0 -61 36.5 -95t90.5 -34t90.5 34t36.5 95zM465 328v-136q0 -105 -59.5 -153.5t-142.5 -48.5t-142.5 48.5t-59.5 153.5v136q0 105 59.5 153.5t142.5 48.5t142.5 -48.5t59.5 -153.5zM162 586h-58
q9 45 37.5 73.5t65.5 28.5q30 0 55 -14l30 -17q14 -9 31 -9q13 0 25 11t16 27h58q-9 -45 -37.5 -73.5t-65.5 -28.5q-30 0 -55 14l-30 17q-14 9 -31 9q-13 0 -25 -11t-16 -27z" />
    <glyph glyph-name="odieresis" unicode="&#xf6;" horiz-adv-x="526" 
d="M390 191v138q0 61 -36.5 95t-90.5 34t-90.5 -34t-36.5 -95v-138q0 -61 36.5 -95t90.5 -34t90.5 34t36.5 95zM465 328v-136q0 -105 -59.5 -153.5t-142.5 -48.5t-142.5 48.5t-59.5 153.5v136q0 105 59.5 153.5t142.5 48.5t142.5 -48.5t59.5 -153.5zM201 684v-97h-75v97h75z
M400 684v-97h-75v97h75z" />
    <glyph glyph-name="divide" unicode="&#xf7;" 
d="M227 468q0 22 15 37.5t37 15.5t37.5 -15.5t15.5 -37.5t-15.5 -37t-37.5 -15t-37 15t-15 37zM227 92q0 22 15 37.5t37 15.5t37.5 -15.5t15.5 -37.5t-15.5 -37t-37.5 -15t-37 15t-15 37zM481 248h-404v65h404v-65z" />
    <glyph glyph-name="oslash" unicode="&#xf8;" horiz-adv-x="532" 
d="M468 328v-136q0 -105 -59.5 -153.5t-142.5 -48.5q-75 0 -125 35l-33 -49l-44 29l38 57q-38 49 -38 130v136q0 105 59.5 153.5t142.5 48.5q72 0 124 -35l33 50l45 -30l-38 -57q38 -51 38 -130zM393 191v138q0 32 -11 57l-199 -297q35 -27 83 -27q54 0 90.5 34t36.5 95z
M139 191q0 -32 11 -57l198 298q-35 26 -82 26q-54 0 -90.5 -34t-36.5 -95v-138z" />
    <glyph glyph-name="ugrave" unicode="&#xf9;" horiz-adv-x="541" 
d="M267 -10q-35 0 -67.5 10t-63.5 31.5t-49.5 62.5t-18.5 95v327h75v-322q0 -65 36.5 -98.5t87.5 -33.5t87.5 34.5t36.5 94.5v325h75v-516h-75v53q-19 -29 -54 -46t-70 -17zM144 700h108l77 -129h-67z" />
    <glyph glyph-name="uacute" unicode="&#xfa;" horiz-adv-x="541" 
d="M267 -10q-35 0 -67.5 10t-63.5 31.5t-49.5 62.5t-18.5 95v327h75v-322q0 -65 36.5 -98.5t87.5 -33.5t87.5 34.5t36.5 94.5v325h75v-516h-75v53q-19 -29 -54 -46t-70 -17zM282 700h108l-118 -129h-67z" />
    <glyph glyph-name="ucircumflex" unicode="&#xfb;" horiz-adv-x="541" 
d="M267 -10q-35 0 -67.5 10t-63.5 31.5t-49.5 62.5t-18.5 95v327h75v-322q0 -65 36.5 -98.5t87.5 -33.5t87.5 34.5t36.5 94.5v325h75v-516h-75v53q-19 -29 -54 -46t-70 -17zM300 700l125 -129h-89l-69 71l-69 -71h-89l125 129h66z" />
    <glyph glyph-name="udieresis" unicode="&#xfc;" horiz-adv-x="541" 
d="M267 -10q-35 0 -67.5 10t-63.5 31.5t-49.5 62.5t-18.5 95v327h75v-322q0 -65 36.5 -98.5t87.5 -33.5t87.5 34.5t36.5 94.5v325h75v-516h-75v53q-19 -29 -54 -46t-70 -17zM205 684v-97h-75v97h75zM404 684v-97h-75v97h75z" />
    <glyph glyph-name="yacute" unicode="&#xfd;" horiz-adv-x="468" 
d="M462 516l-234 -647q-10 -29 -36.5 -40.5t-77.5 -12.5h-29v72h38q22 0 31 7t14 23l27 74l-189 524h80l148 -419l148 419h80zM249 700h108l-118 -129h-67z" />
    <glyph glyph-name="thorn" unicode="&#xfe;" horiz-adv-x="540" 
d="M277 -10q-37 0 -72.5 16.5t-54.5 46.5v-237h-75v884h75v-233q19 30 54.5 46.5t72.5 16.5q83 0 142.5 -48.5t59.5 -153.5v-136q0 -105 -59.5 -153.5t-142.5 -48.5zM404 191v138q0 61 -36.5 95t-90.5 34t-90.5 -34t-36.5 -95v-138q0 -61 36.5 -95t90.5 -34t90.5 34t36.5 95
z" />
    <glyph glyph-name="ydieresis" unicode="&#xff;" horiz-adv-x="468" 
d="M462 516l-234 -647q-10 -29 -36.5 -40.5t-77.5 -12.5h-29v72h38q22 0 31 7t14 23l27 74l-189 524h80l148 -419l148 419h80zM172 684v-97h-75v97h75zM371 684v-97h-75v97h75z" />
    <glyph glyph-name="Amacron" unicode="&#x100;" horiz-adv-x="566" 
d="M474 0l-64 197h-254l-64 -197h-78l225 700h88l225 -700h-78zM387 268l-104 325l-104 -325h208zM134 766v67h298v-67h-298z" />
    <glyph glyph-name="amacron" unicode="&#x101;" horiz-adv-x="527" 
d="M257 458q-47 0 -81 -26t-43 -74h-77q9 89 66.5 130.5t134.5 41.5q83 0 142.5 -48.5t59.5 -153.5v-328h-75v53q-48 -63 -161 -63q-72 0 -121.5 39t-49.5 114q0 48 25.5 89t86.5 59q63 18 220 29v9q0 61 -36.5 95t-90.5 34zM384 186v67q-172 -12 -212 -34q-27 -15 -36 -32
t-9 -42q0 -37 28.5 -60t83.5 -23q63 0 104 32.5t41 91.5zM111 603v65h298v-65h-298z" />
    <glyph glyph-name="Abreve" unicode="&#x102;" horiz-adv-x="566" 
d="M474 0l-64 197h-254l-64 -197h-78l225 700h88l225 -700h-78zM387 268l-104 325l-104 -325h208zM322 808q20 0 33 13t13 33h63q0 -45 -32 -77t-77 -32h-78q-45 0 -77 32t-32 77h63q0 -20 13 -33t33 -13h78z" />
    <glyph glyph-name="abreve" unicode="&#x103;" horiz-adv-x="527" 
d="M257 458q-47 0 -81 -26t-43 -74h-77q9 89 66.5 130.5t134.5 41.5q83 0 142.5 -48.5t59.5 -153.5v-328h-75v53q-48 -63 -161 -63q-72 0 -121.5 39t-49.5 114q0 48 25.5 89t86.5 59q63 18 220 29v9q0 61 -36.5 95t-90.5 34zM384 186v67q-172 -12 -212 -34q-27 -15 -36 -32
t-9 -42q0 -37 28.5 -60t83.5 -23q63 0 104 32.5t41 91.5zM241 571q-53 0 -91 38t-38 91h61q0 -28 19.5 -48t48.5 -20h38q29 0 48.5 20t19.5 48h61q0 -53 -38 -91t-91 -38h-38z" />
    <glyph glyph-name="Aogonek" unicode="&#x104;" horiz-adv-x="566" 
d="M552 0q-26 -19 -40.5 -31t-28 -30.5t-13.5 -35.5q0 -29 30 -29q24 0 52 17v-62q-27 -18 -63 -18q-45 0 -70.5 22t-25.5 64q0 63 81 103l-64 197h-254l-64 -197h-78l225 700h88zM387 268l-104 325l-104 -325h208z" />
    <glyph glyph-name="aogonek" unicode="&#x105;" horiz-adv-x="527" 
d="M257 458q-47 0 -81 -26t-43 -74h-77q9 89 66.5 130.5t134.5 41.5q83 0 142.5 -48.5t59.5 -153.5v-328q-26 -19 -40.5 -31t-28 -30.5t-13.5 -35.5q0 -31 30 -31q24 0 52 17v-60q-27 -18 -63 -18q-45 0 -69.5 21.5t-24.5 64.5q0 63 82 103v53q-48 -63 -161 -63
q-72 0 -121.5 39t-49.5 114q0 48 25.5 89t86.5 59q63 18 220 29v9q0 61 -36.5 95t-90.5 34zM384 186v67q-172 -12 -212 -34q-27 -15 -36 -32t-9 -42q0 -37 28.5 -60t83.5 -23q63 0 104 32.5t41 91.5z" />
    <glyph glyph-name="Cacute" unicode="&#x106;" horiz-adv-x="559" 
d="M285 710q97 0 158 -58t67 -159h-77q-6 68 -46.5 104.5t-101.5 36.5q-65 0 -107 -42t-42 -119v-246q0 -77 42 -119t107 -42q61 0 101.5 36.5t46.5 104.5h77q-6 -101 -67 -159t-158 -58q-102 0 -164 64t-62 173v246q0 109 62 173t164 64zM309 854h110l-128 -109h-74z" />
    <glyph glyph-name="cacute" unicode="&#x107;" horiz-adv-x="515" 
d="M263 530q78 0 135.5 -42.5t65.5 -134.5h-76q-7 50 -42.5 77.5t-82.5 27.5q-54 0 -90.5 -34t-36.5 -95v-138q0 -61 36.5 -95t90.5 -34q47 0 82.5 27.5t42.5 77.5h76q-8 -92 -65.5 -134.5t-135.5 -42.5q-83 0 -142.5 48.5t-59.5 153.5v136q0 105 59.5 153.5t142.5 48.5z
M278 700h108l-118 -129h-67z" />
    <glyph glyph-name="Ccircumflex" unicode="&#x108;" horiz-adv-x="559" 
d="M285 710q97 0 158 -58t67 -159h-77q-6 68 -46.5 104.5t-101.5 36.5q-65 0 -107 -42t-42 -119v-246q0 -77 42 -119t107 -42q61 0 101.5 36.5t46.5 104.5h77q-6 -101 -67 -159t-158 -58q-102 0 -164 64t-62 173v246q0 109 62 173t164 64zM343 745l-59 51l-59 -51h-99
l125 109h66l125 -109h-99z" />
    <glyph glyph-name="ccircumflex" unicode="&#x109;" horiz-adv-x="515" 
d="M263 530q78 0 135.5 -42.5t65.5 -134.5h-76q-7 50 -42.5 77.5t-82.5 27.5q-54 0 -90.5 -34t-36.5 -95v-138q0 -61 36.5 -95t90.5 -34q47 0 82.5 27.5t42.5 77.5h76q-8 -92 -65.5 -134.5t-135.5 -42.5q-83 0 -142.5 48.5t-59.5 153.5v136q0 105 59.5 153.5t142.5 48.5z
M295 700l125 -129h-89l-69 71l-69 -71h-89l125 129h66z" />
    <glyph glyph-name="Cdotaccent" unicode="&#x10a;" horiz-adv-x="559" 
d="M285 710q97 0 158 -58t67 -159h-77q-6 68 -46.5 104.5t-101.5 36.5q-65 0 -107 -42t-42 -119v-246q0 -77 42 -119t107 -42q61 0 101.5 36.5t46.5 104.5h77q-6 -101 -67 -159t-158 -58q-102 0 -164 64t-62 173v246q0 109 62 173t164 64zM323 848v-97h-77v97h77z" />
    <glyph glyph-name="cdotaccent" unicode="&#x10b;" horiz-adv-x="515" 
d="M263 530q78 0 135.5 -42.5t65.5 -134.5h-76q-7 50 -42.5 77.5t-82.5 27.5q-54 0 -90.5 -34t-36.5 -95v-138q0 -61 36.5 -95t90.5 -34q47 0 82.5 27.5t42.5 77.5h76q-8 -92 -65.5 -134.5t-135.5 -42.5q-83 0 -142.5 48.5t-59.5 153.5v136q0 105 59.5 153.5t142.5 48.5z
M300 684v-97h-75v97h75z" />
    <glyph glyph-name="Ccaron" unicode="&#x10c;" horiz-adv-x="559" 
d="M285 710q97 0 158 -58t67 -159h-77q-6 68 -46.5 104.5t-101.5 36.5q-65 0 -107 -42t-42 -119v-246q0 -77 42 -119t107 -42q61 0 101.5 36.5t46.5 104.5h77q-6 -101 -67 -159t-158 -58q-102 0 -164 64t-62 173v246q0 109 62 173t164 64zM284 803l59 51h99l-125 -109h-66
l-125 109h99z" />
    <glyph glyph-name="ccaron" unicode="&#x10d;" horiz-adv-x="515" 
d="M263 530q78 0 135.5 -42.5t65.5 -134.5h-76q-7 50 -42.5 77.5t-82.5 27.5q-54 0 -90.5 -34t-36.5 -95v-138q0 -61 36.5 -95t90.5 -34q47 0 82.5 27.5t42.5 77.5h76q-8 -92 -65.5 -134.5t-135.5 -42.5q-83 0 -142.5 48.5t-59.5 153.5v136q0 105 59.5 153.5t142.5 48.5z
M420 700l-125 -129h-66l-125 129h89l69 -71l69 71h89z" />
    <glyph glyph-name="Dcaron" unicode="&#x10e;" horiz-adv-x="591" 
d="M80 700h226q102 0 164 -64t62 -173v-226q0 -109 -62 -173t-164 -64h-226v700zM306 624h-149v-548h149q65 0 107 42t42 119v226q0 77 -42 118.5t-107 42.5zM286 803l59 51h99l-125 -109h-66l-125 109h99z" />
    <glyph glyph-name="dcaron" unicode="&#x10f;" horiz-adv-x="540" 
d="M619 700l-70 -158h-54l28 158h96zM263 -10q37 0 72.5 16.5t54.5 46.5v-53h75v700h-75v-233q-19 30 -54.5 46.5t-72.5 16.5q-83 0 -142.5 -48.5t-59.5 -153.5v-136q0 -105 59.5 -153.5t142.5 -48.5zM136 191v138q0 61 36.5 95t90.5 34t90.5 -34t36.5 -95v-138
q0 -61 -36.5 -95t-90.5 -34t-90.5 34t-36.5 95z" />
    <glyph glyph-name="Dcroat" unicode="&#x110;" horiz-adv-x="602" 
d="M91 700h226q102 0 164 -64t62 -173v-226q0 -109 -62 -173t-164 -64h-226v323h-70v55h70v322zM317 624h-149v-246h149v-55h-149v-247h149q65 0 107 42t42 119v226q0 77 -42 118.5t-107 42.5z" />
    <glyph glyph-name="dcroat" unicode="&#x111;" horiz-adv-x="541" 
d="M263 -10q-83 0 -142.5 48.5t-59.5 153.5v136q0 105 59.5 153.5t142.5 48.5q37 0 72.5 -16.5t54.5 -46.5v122h-127v53h127v58h75v-58h70v-53h-70v-589h-75v53q-19 -30 -54.5 -46.5t-72.5 -16.5zM136 329v-138q0 -61 36.5 -95t90.5 -34t90.5 34t36.5 95v138q0 61 -36.5 95
t-90.5 34t-90.5 -34t-36.5 -95z" />
    <glyph glyph-name="Emacron" unicode="&#x112;" horiz-adv-x="542" 
d="M157 316v-240h321v-76h-398v700h398v-76h-321v-232h321v-76h-321zM130 766v67h298v-67h-298z" />
    <glyph glyph-name="emacron" unicode="&#x113;" horiz-adv-x="521" 
d="M263 62q47 0 81 26t43 74h77q-9 -89 -66.5 -130.5t-134.5 -41.5q-83 0 -142.5 48.5t-59.5 153.5v136q0 105 59.5 153.5t142.5 48.5t142.5 -48.5t59.5 -153.5v-87h-329v-50q0 -61 36.5 -95t90.5 -34zM390 310v19q0 61 -36.5 95t-90.5 34t-90.5 -34t-36.5 -95v-19h254z
M114 603v65h298v-65h-298z" />
    <glyph glyph-name="Ebreve" unicode="&#x114;" horiz-adv-x="542" 
d="M157 316v-240h321v-76h-398v700h398v-76h-321v-232h321v-76h-321zM318 808q20 0 33 13t13 33h63q0 -45 -32 -77t-77 -32h-78q-45 0 -77 32t-32 77h63q0 -20 13 -33t33 -13h78z" />
    <glyph glyph-name="ebreve" unicode="&#x115;" horiz-adv-x="521" 
d="M263 62q47 0 81 26t43 74h77q-9 -89 -66.5 -130.5t-134.5 -41.5q-83 0 -142.5 48.5t-59.5 153.5v136q0 105 59.5 153.5t142.5 48.5t142.5 -48.5t59.5 -153.5v-87h-329v-50q0 -61 36.5 -95t90.5 -34zM390 310v19q0 61 -36.5 95t-90.5 34t-90.5 -34t-36.5 -95v-19h254z
M244 571q-53 0 -91 38t-38 91h61q0 -28 20 -48t48 -20h38q28 0 48 20t20 48h61q0 -53 -38 -91t-91 -38h-38z" />
    <glyph glyph-name="Edotaccent" unicode="&#x116;" horiz-adv-x="542" 
d="M157 316v-240h321v-76h-398v700h398v-76h-321v-232h321v-76h-321zM318 848v-97h-77v97h77z" />
    <glyph glyph-name="edotaccent" unicode="&#x117;" horiz-adv-x="521" 
d="M263 62q47 0 81 26t43 74h77q-9 -89 -66.5 -130.5t-134.5 -41.5q-83 0 -142.5 48.5t-59.5 153.5v136q0 105 59.5 153.5t142.5 48.5t142.5 -48.5t59.5 -153.5v-87h-329v-50q0 -61 36.5 -95t90.5 -34zM390 310v19q0 61 -36.5 95t-90.5 34t-90.5 -34t-36.5 -95v-19h254z
M301 684v-97h-75v97h75z" />
    <glyph glyph-name="Eogonek" unicode="&#x118;" horiz-adv-x="542" 
d="M157 316v-240h321v-76q-26 -19 -40.5 -31t-28 -30.5t-13.5 -35.5q0 -29 30 -29q24 0 52 17v-62q-27 -18 -63 -18q-45 0 -70.5 22t-25.5 64q0 63 82 103h-321v700h398v-76h-321v-232h321v-76h-321z" />
    <glyph glyph-name="eogonek" unicode="&#x119;" horiz-adv-x="521" 
d="M263 62q47 0 81 26t43 74h77q-8 -82 -63 -128q-5 -4 -27 -22.5t-32 -27.5t-25 -25t-21.5 -29.5t-6.5 -26.5q0 -31 30 -31q24 0 52 17v-60q-27 -18 -63 -18q-45 0 -69.5 21.5t-24.5 64.5q0 56 64 94q-5 -1 -15 -1q-83 0 -142.5 48.5t-59.5 153.5v136q0 105 59.5 153.5
t142.5 48.5t142.5 -48.5t59.5 -153.5v-87h-329v-50q0 -61 36.5 -95t90.5 -34zM390 310v19q0 61 -36.5 95t-90.5 34t-90.5 -34t-36.5 -95v-19h254z" />
    <glyph glyph-name="Ecaron" unicode="&#x11a;" horiz-adv-x="542" 
d="M157 316v-240h321v-76h-398v700h398v-76h-321v-232h321v-76h-321zM279 803l59 51h99l-125 -109h-66l-125 109h99z" />
    <glyph glyph-name="ecaron" unicode="&#x11b;" horiz-adv-x="521" 
d="M263 62q47 0 81 26t43 74h77q-9 -89 -66.5 -130.5t-134.5 -41.5q-83 0 -142.5 48.5t-59.5 153.5v136q0 105 59.5 153.5t142.5 48.5t142.5 -48.5t59.5 -153.5v-87h-329v-50q0 -61 36.5 -95t90.5 -34zM390 310v19q0 61 -36.5 95t-90.5 34t-90.5 -34t-36.5 -95v-19h254z
M421 700l-125 -129h-66l-125 129h89l69 -71l69 71h89z" />
    <glyph glyph-name="Gcircumflex" unicode="&#x11c;" horiz-adv-x="566" 
d="M285 710q97 0 158 -58t67 -159h-77q-6 68 -46.5 104.5t-101.5 36.5q-65 0 -107 -42t-42 -119v-246q0 -77 42 -119t107 -42t107 42t42 119v69h-149v76h226v-145q0 -109 -62 -173t-164 -64t-164 64t-62 173v246q0 109 62 173t164 64zM344 745l-59 51l-59 -51h-99l125 109
h66l125 -109h-99z" />
    <glyph glyph-name="gcircumflex" unicode="&#x11d;" horiz-adv-x="539" 
d="M262 -122q54 0 90.5 34t36.5 95v66q-19 -30 -54.5 -46.5t-72.5 -16.5q-83 0 -142.5 48.5t-59.5 153.5v116q0 105 59.5 153.5t142.5 48.5q37 0 72.5 -16.5t54.5 -46.5v49h75v-508q0 -105 -59.5 -153.5t-142.5 -48.5q-78 0 -135.5 42.5t-65.5 134.5h76q7 -50 42 -77.5
t83 -27.5zM135 329v-118q0 -61 36.5 -95t90.5 -34t90.5 34t36.5 95v118q0 61 -36.5 95t-90.5 34t-90.5 -34t-36.5 -95zM295 700l125 -129h-89l-69 71l-69 -71h-89l125 129h66z" />
    <glyph glyph-name="Gbreve" unicode="&#x11e;" horiz-adv-x="566" 
d="M285 710q97 0 158 -58t67 -159h-77q-6 68 -46.5 104.5t-101.5 36.5q-65 0 -107 -42t-42 -119v-246q0 -77 42 -119t107 -42t107 42t42 119v69h-149v76h226v-145q0 -109 -62 -173t-164 -64t-164 64t-62 173v246q0 109 62 173t164 64zM324 808q20 0 33 13t13 33h63
q0 -45 -32 -77t-77 -32h-78q-45 0 -77 32t-32 77h63q0 -20 13 -33t33 -13h78z" />
    <glyph glyph-name="gbreve" unicode="&#x11f;" horiz-adv-x="539" 
d="M262 -122q54 0 90.5 34t36.5 95v66q-19 -30 -54.5 -46.5t-72.5 -16.5q-83 0 -142.5 48.5t-59.5 153.5v116q0 105 59.5 153.5t142.5 48.5q37 0 72.5 -16.5t54.5 -46.5v49h75v-508q0 -105 -59.5 -153.5t-142.5 -48.5q-78 0 -135.5 42.5t-65.5 134.5h76q7 -50 42 -77.5
t83 -27.5zM135 329v-118q0 -61 36.5 -95t90.5 -34t90.5 34t36.5 95v118q0 61 -36.5 95t-90.5 34t-90.5 -34t-36.5 -95zM243 571q-53 0 -91 38t-38 91h61q0 -28 19.5 -48t48.5 -20h38q29 0 48.5 20t19.5 48h61q0 -53 -38 -91t-91 -38h-38z" />
    <glyph glyph-name="Gdotaccent" unicode="&#x120;" horiz-adv-x="566" 
d="M285 710q97 0 158 -58t67 -159h-77q-6 68 -46.5 104.5t-101.5 36.5q-65 0 -107 -42t-42 -119v-246q0 -77 42 -119t107 -42t107 42t42 119v69h-149v76h226v-145q0 -109 -62 -173t-164 -64t-164 64t-62 173v246q0 109 62 173t164 64zM324 848v-97h-77v97h77z" />
    <glyph glyph-name="gdotaccent" unicode="&#x121;" horiz-adv-x="539" 
d="M262 -122q54 0 90.5 34t36.5 95v66q-19 -30 -54.5 -46.5t-72.5 -16.5q-83 0 -142.5 48.5t-59.5 153.5v116q0 105 59.5 153.5t142.5 48.5q37 0 72.5 -16.5t54.5 -46.5v49h75v-508q0 -105 -59.5 -153.5t-142.5 -48.5q-78 0 -135.5 42.5t-65.5 134.5h76q7 -50 42 -77.5
t83 -27.5zM135 329v-118q0 -61 36.5 -95t90.5 -34t90.5 34t36.5 95v118q0 61 -36.5 95t-90.5 34t-90.5 -34t-36.5 -95zM300 684v-97h-75v97h75z" />
    <glyph glyph-name="Gcommaaccent" unicode="&#x122;" horiz-adv-x="566" 
d="M285 710q97 0 158 -58t67 -159h-77q-6 68 -46.5 104.5t-101.5 36.5q-65 0 -107 -42t-42 -119v-246q0 -77 42 -119t107 -42t107 42t42 119v69h-149v76h226v-145q0 -109 -62 -173t-164 -64t-164 64t-62 173v246q0 109 62 173t164 64zM238 -145v95h95v-95l-25 -84h-64l25 84
h-31z" />
    <glyph glyph-name="gcommaaccent" unicode="&#x123;" horiz-adv-x="539" 
d="M262 -122q54 0 90.5 34t36.5 95v66q-19 -30 -54.5 -46.5t-72.5 -16.5q-83 0 -142.5 48.5t-59.5 153.5v116q0 105 59.5 153.5t142.5 48.5q37 0 72.5 -16.5t54.5 -46.5v49h75v-508q0 -105 -59.5 -153.5t-142.5 -48.5q-78 0 -135.5 42.5t-65.5 134.5h76q7 -50 42 -77.5
t83 -27.5zM135 329v-118q0 -61 36.5 -95t90.5 -34t90.5 34t36.5 95v118q0 61 -36.5 95t-90.5 34t-90.5 -34t-36.5 -95zM310 666v-95h-95v95l25 84h64l-25 -84h31z" />
    <glyph glyph-name="Hcircumflex" unicode="&#x124;" horiz-adv-x="612" 
d="M455 392v308h77v-700h-77v316h-298v-316h-77v700h77v-308h298zM365 745l-59 51l-59 -51h-99l125 109h66l125 -109h-99z" />
    <glyph glyph-name="hcircumflex" unicode="&#x125;" horiz-adv-x="547" 
d="M277 530q83 0 142.5 -48.5t59.5 -153.5v-328h-75v329q0 61 -36.5 95t-90.5 34t-90.5 -34t-36.5 -95v-329h-75v700h75v-233q19 30 54.5 46.5t72.5 16.5zM310 874l125 -129h-89l-69 71l-69 -71h-89l125 129h66z" />
    <glyph glyph-name="Hbar" unicode="&#x126;" horiz-adv-x="612" 
d="M157 700v-126h298v126h77v-700h-77v316h-298v-316h-77v700h77zM455 392v127h-298v-127h298z" />
    <glyph glyph-name="hbar" unicode="&#x127;" horiz-adv-x="547" 
d="M277 530q83 0 142.5 -48.5t59.5 -153.5v-328h-75v329q0 61 -36.5 95t-90.5 34t-90.5 -34t-36.5 -95v-329h-75v589h-70v53h70v58h75v-58h127v-53h-127v-122q19 30 54.5 46.5t72.5 16.5z" />
    <glyph glyph-name="Itilde" unicode="&#x128;" horiz-adv-x="237" 
d="M80 0v700h77v-700h-77zM62 852q30 0 55 -14l30 -16q16 -8 26 -8q29 0 39 36h65q-9 -45 -37.5 -73.5t-65.5 -28.5q-30 0 -55 14l-30 16q-16 8 -26 8q-29 0 -39 -36h-65q9 45 37.5 73.5t65.5 28.5z" />
    <glyph glyph-name="itilde" unicode="&#x129;" horiz-adv-x="225" 
d="M150 516v-516h-75v516h75zM11 586h-58q9 45 37.5 73.5t65.5 28.5q30 0 55 -14l30 -17q14 -9 31 -9q13 0 25 11t16 27h58q-9 -45 -37.5 -73.5t-65.5 -28.5q-30 0 -55 14l-30 17q-14 9 -31 9q-13 0 -25 -11t-16 -27z" />
    <glyph glyph-name="Imacron" unicode="&#x12a;" horiz-adv-x="237" 
d="M80 0v700h77v-700h-77zM-31 766v67h298v-67h-298z" />
    <glyph glyph-name="imacron" unicode="&#x12b;" horiz-adv-x="225" 
d="M150 516v-516h-75v516h75zM-37 603v65h298v-65h-298z" />
    <glyph glyph-name="Ibreve" unicode="&#x12c;" horiz-adv-x="237" 
d="M80 0v700h77v-700h-77zM157 808q19 0 32.5 13t13.5 33h63q0 -45 -32 -77t-77 -32h-78q-45 0 -77 32t-32 77h63q0 -20 13.5 -33t32.5 -13h78z" />
    <glyph glyph-name="ibreve" unicode="&#x12d;" horiz-adv-x="225" 
d="M150 516v-516h-75v516h75zM93 571q-53 0 -91 38t-38 91h61q0 -28 19.5 -48t48.5 -20h38q29 0 48.5 20t19.5 48h61q0 -53 -38 -91t-91 -38h-38z" />
    <glyph glyph-name="Iogonek" unicode="&#x12e;" horiz-adv-x="237" 
d="M80 0v700h77v-700q-26 -19 -40.5 -31t-28 -30.5t-13.5 -35.5q0 -29 30 -29q24 0 52 17v-62q-27 -18 -63 -18q-45 0 -70.5 22t-25.5 64q0 63 82 103z" />
    <glyph glyph-name="iogonek" unicode="&#x12f;" horiz-adv-x="225" 
d="M75 0v516h75v-516q-26 -19 -40.5 -31t-28 -30.5t-13.5 -35.5q0 -31 30 -31q24 0 52 17v-60q-27 -18 -63 -18q-45 0 -69.5 21.5t-24.5 64.5q0 63 82 103zM150 700v-97h-75v97h75z" />
    <glyph glyph-name="Idotaccent" unicode="&#x130;" horiz-adv-x="237" 
d="M80 0v700h77v-700h-77zM157 848v-97h-77v97h77z" />
    <glyph glyph-name="dotlessi" unicode="&#x131;" horiz-adv-x="225" 
d="M150 516v-516h-75v516h75z" />
    <glyph glyph-name="IJ" unicode="&#x132;" horiz-adv-x="710" 
d="M80 0v700h77v-700h-77zM251 192v8h77v-8q0 -57 33.5 -91.5t83.5 -34.5t83.5 34.5t33.5 91.5v508h77v-508q0 -104 -57 -153t-137 -49t-137 49t-57 153z" />
    <glyph glyph-name="ij" unicode="&#x133;" horiz-adv-x="450" 
d="M150 700v-97h-75v97h75zM150 516v-516h-75v516h75zM375 700v-97h-75v97h75zM300 -67v583h75v-577q0 -68 -26.5 -95.5t-96.5 -27.5h-16v72h16q27 0 37.5 10t10.5 35z" />
    <glyph glyph-name="Jcircumflex" unicode="&#x134;" horiz-adv-x="473" 
d="M14 192v8h77v-8q0 -57 33.5 -91.5t83.5 -34.5t83.5 34.5t33.5 91.5v508h77v-508q0 -104 -57 -153t-137 -49t-137 49t-57 153zM422 745l-59 51l-59 -51h-99l125 109h66l125 -109h-99z" />
    <glyph glyph-name="jcircumflex" unicode="&#x135;" horiz-adv-x="225" 
d="M75 -67v583h75v-577q0 -68 -26.5 -95.5t-96.5 -27.5h-16v72h16q27 0 37.5 10t10.5 35zM145 700l125 -129h-89l-69 71l-69 -71h-89l125 129h66z" />
    <glyph glyph-name="Kcommaaccent" unicode="&#x136;" horiz-adv-x="610" 
d="M157 206v-206h-77v700h77v-380l323 380h98l-246 -288l272 -412h-91l-232 352zM278 -145v95h95v-95l-25 -84h-64l25 84h-31z" />
    <glyph glyph-name="kcommaaccent" unicode="&#x137;" horiz-adv-x="505" 
d="M150 700v-428l225 244h93l-186 -202l213 -314h-88l-176 259l-81 -88v-171h-75v700h75zM221 -145v95h95v-95l-25 -84h-64l25 84h-31z" />
    <glyph glyph-name="kgreenlandic" unicode="&#x138;" horiz-adv-x="505" 
d="M150 516v-254l227 254h91l-182 -204l209 -312h-88l-171 256l-86 -96v-160h-75v516h75z" />
    <glyph glyph-name="Lacute" unicode="&#x139;" horiz-adv-x="493" 
d="M80 0v700h77v-624h321v-76h-398zM143 854h110l-128 -109h-74z" />
    <glyph glyph-name="lacute" unicode="&#x13a;" horiz-adv-x="254" 
d="M148 117v583h-75v-577q0 -68 26.5 -95.5t96.5 -27.5h16v72h-16q-27 0 -37.5 10t-10.5 35zM126 874h108l-118 -129h-67z" />
    <glyph glyph-name="Lcommaaccent" unicode="&#x13b;" horiz-adv-x="493" 
d="M80 0v700h77v-624h321v-76h-398zM232 -145v95h95v-95l-25 -84h-64l25 84h-31z" />
    <glyph glyph-name="lcommaaccent" unicode="&#x13c;" horiz-adv-x="254" 
d="M148 700v-583q0 -25 10.5 -35t37.5 -10h16v-72h-16q-70 0 -96.5 27.5t-26.5 95.5v577h75zM95 -145v95h95v-95l-25 -84h-64l25 84h-31z" />
    <glyph glyph-name="Lcaron" unicode="&#x13d;" horiz-adv-x="493" 
d="M401 700l-64 -158h-62l28 158h98zM80 0v700h77v-624h321v-76h-398z" />
    <glyph glyph-name="lcaron" unicode="&#x13e;" horiz-adv-x="254" 
d="M302 700l-70 -158h-54l28 158h96zM148 117v583h-75v-577q0 -68 26.5 -95.5t96.5 -27.5h16v72h-16q-27 0 -37.5 10t-10.5 35z" />
    <glyph glyph-name="Ldot" unicode="&#x13f;" horiz-adv-x="493" 
d="M80 0v700h77v-624h321v-76h-398zM396 437v-97h-77v97h77z" />
    <glyph glyph-name="ldot" unicode="&#x140;" horiz-adv-x="288" 
d="M148 700v-583q0 -25 10.5 -35t37.5 -10h16v-72h-16q-70 0 -96.5 27.5t-26.5 95.5v577h75zM293 434v-97h-75v97h75z" />
    <glyph glyph-name="Lslash" unicode="&#x141;" horiz-adv-x="504" 
d="M91 0v272l-70 -39v65l70 39v363h77v-321l149 83v-65l-149 -83v-238h321v-76h-398z" />
    <glyph glyph-name="lslash" unicode="&#x142;" horiz-adv-x="274" 
d="M158 365v-248q0 -25 10.5 -35t37.5 -10h16v-72h-16q-70 0 -96.5 27.5t-26.5 95.5v200l-64 -35v60l64 35v317h75v-275l64 35v-60z" />
    <glyph glyph-name="Nacute" unicode="&#x143;" horiz-adv-x="612" 
d="M532 700v-700h-77l-298 551v-551h-77v700h77l298 -551v551h77zM331 854h110l-128 -109h-74z" />
    <glyph glyph-name="nacute" unicode="&#x144;" horiz-adv-x="547" 
d="M277 530q83 0 142.5 -48.5t59.5 -153.5v-328h-75v329q0 61 -36.5 95t-90.5 34t-90.5 -34t-36.5 -95v-329h-75v516h75v-49q19 30 54.5 46.5t72.5 16.5zM293 700h108l-118 -129h-67z" />
    <glyph glyph-name="Ncommaaccent" unicode="&#x145;" horiz-adv-x="612" 
d="M532 700v-700h-77l-298 551v-551h-77v700h77l298 -551v551h77zM259 -145v95h95v-95l-25 -84h-64l25 84h-31z" />
    <glyph glyph-name="ncommaaccent" unicode="&#x146;" horiz-adv-x="547" 
d="M277 530q83 0 142.5 -48.5t59.5 -153.5v-328h-75v329q0 61 -36.5 95t-90.5 34t-90.5 -34t-36.5 -95v-329h-75v516h75v-49q19 30 54.5 46.5t72.5 16.5zM230 -145v95h95v-95l-25 -84h-64l25 84h-31z" />
    <glyph glyph-name="Ncaron" unicode="&#x147;" horiz-adv-x="612" 
d="M532 700v-700h-77l-298 551v-551h-77v700h77l298 -551v551h77zM305 803l59 51h99l-125 -109h-66l-125 109h99z" />
    <glyph glyph-name="ncaron" unicode="&#x148;" horiz-adv-x="547" 
d="M277 530q83 0 142.5 -48.5t59.5 -153.5v-328h-75v329q0 61 -36.5 95t-90.5 34t-90.5 -34t-36.5 -95v-329h-75v516h75v-49q19 30 54.5 46.5t72.5 16.5zM435 700l-125 -129h-66l-125 129h89l69 -71l69 71h89z" />
    <glyph glyph-name="napostrophe" unicode="&#x149;" horiz-adv-x="587" 
d="M317 530q83 0 142.5 -48.5t59.5 -153.5v-328h-75v329q0 61 -36.5 95t-90.5 34t-90.5 -34t-36.5 -95v-329h-75v516h75v-49q19 30 54.5 46.5t72.5 16.5zM10 595v105h105v-105l-35 -94h-64l35 94h-41z" />
    <glyph glyph-name="Eng" unicode="&#x14a;" horiz-adv-x="612" 
d="M338 -184h-31v76h31q46 0 78.5 29.5t37.5 79.5l-297 550v-551h-77v700h77l298 -551v551h77v-682q0 -104 -57 -153t-137 -49z" />
    <glyph glyph-name="eng" unicode="&#x14b;" horiz-adv-x="547" 
d="M479 328v-389q0 -68 -26.5 -95.5t-96.5 -27.5h-16v72h16q27 0 37.5 10t10.5 35v396q0 61 -36.5 95t-90.5 34t-90.5 -34t-36.5 -95v-329h-75v516h75v-49q19 30 54.5 46.5t72.5 16.5q83 0 142.5 -48.5t59.5 -153.5z" />
    <glyph glyph-name="Omacron" unicode="&#x14c;" horiz-adv-x="570" 
d="M434 227v246q0 77 -42 119t-107 42t-107 -42t-42 -119v-246q0 -77 42 -119t107 -42t107 42t42 119zM511 473v-246q0 -109 -62 -173t-164 -64t-164 64t-62 173v246q0 109 62 173t164 64t164 -64t62 -173zM136 766v67h298v-67h-298z" />
    <glyph glyph-name="omacron" unicode="&#x14d;" horiz-adv-x="526" 
d="M390 191v138q0 61 -36.5 95t-90.5 34t-90.5 -34t-36.5 -95v-138q0 -61 36.5 -95t90.5 -34t90.5 34t36.5 95zM465 328v-136q0 -105 -59.5 -153.5t-142.5 -48.5t-142.5 48.5t-59.5 153.5v136q0 105 59.5 153.5t142.5 48.5t142.5 -48.5t59.5 -153.5zM114 603v65h298v-65
h-298z" />
    <glyph glyph-name="Obreve" unicode="&#x14e;" horiz-adv-x="570" 
d="M511 473v-246q0 -109 -62 -173t-164 -64t-164 64t-62 173v246q0 109 62 173t164 64t164 -64t62 -173zM434 227v246q0 77 -42 119t-107 42t-107 -42t-42 -119v-246q0 -77 42 -119t107 -42t107 42t42 119zM324 808q20 0 33 13t13 33h63q0 -45 -32 -77t-77 -32h-78
q-45 0 -77 32t-32 77h63q0 -20 13 -33t33 -13h78z" />
    <glyph glyph-name="obreve" unicode="&#x14f;" horiz-adv-x="526" 
d="M465 328v-136q0 -105 -59.5 -153.5t-142.5 -48.5t-142.5 48.5t-59.5 153.5v136q0 105 59.5 153.5t142.5 48.5t142.5 -48.5t59.5 -153.5zM390 191v138q0 61 -36.5 95t-90.5 34t-90.5 -34t-36.5 -95v-138q0 -61 36.5 -95t90.5 -34t90.5 34t36.5 95zM244 571q-53 0 -91 38
t-38 91h61q0 -28 20 -48t48 -20h38q28 0 48 20t20 48h61q0 -53 -38 -91t-91 -38h-38z" />
    <glyph glyph-name="Ohungarumlaut" unicode="&#x150;" horiz-adv-x="570" 
d="M434 227v246q0 77 -42 119t-107 42t-107 -42t-42 -119v-246q0 -77 42 -119t107 -42t107 42t42 119zM511 473v-246q0 -109 -62 -173t-164 -64t-164 64t-62 173v246q0 109 62 173t164 64t164 -64t62 -173zM238 854h105l-118 -109h-69zM406 854h105l-118 -109h-69z" />
    <glyph glyph-name="ohungarumlaut" unicode="&#x151;" horiz-adv-x="526" 
d="M390 191v138q0 61 -36.5 95t-90.5 34t-90.5 -34t-36.5 -95v-138q0 -61 36.5 -95t90.5 -34t90.5 34t36.5 95zM465 328v-136q0 -105 -59.5 -153.5t-142.5 -48.5t-142.5 48.5t-59.5 153.5v136q0 105 59.5 153.5t142.5 48.5t142.5 -48.5t59.5 -153.5zM194 700h103l-108 -129
h-62zM362 700h103l-108 -129h-62z" />
    <glyph glyph-name="OE" unicode="&#x152;" horiz-adv-x="896" 
d="M434 227v246q0 77 -42 119t-107 42t-107 -42t-42 -119v-246q0 -77 42 -119t107 -42t107 42t42 119zM434 0v49q-52 -59 -149 -59q-102 0 -164 64t-62 173v246q0 109 62 173t164 64q97 0 149 -59v49h398v-76h-321v-232h321v-76h-321v-240h321v-76h-398z" />
    <glyph glyph-name="oe" unicode="&#x153;" horiz-adv-x="850" 
d="M390 191v138q0 61 -36.5 95t-90.5 34t-90.5 -34t-36.5 -95v-138q0 -61 36.5 -95t90.5 -34t90.5 34t36.5 95zM592 62q47 0 81 26t43 74h77q-9 -89 -66.5 -130.5t-134.5 -41.5q-113 0 -165 83q-53 -83 -164 -83q-83 0 -142.5 48.5t-59.5 153.5v136q0 105 59.5 153.5
t142.5 48.5q111 0 164 -83q52 83 165 83q83 0 142.5 -48.5t59.5 -153.5v-87h-329v-50q0 -61 36.5 -95t90.5 -34zM719 310v19q0 61 -36.5 95t-90.5 34t-90.5 -34t-36.5 -95v-19h254z" />
    <glyph glyph-name="Racute" unicode="&#x154;" horiz-adv-x="572" 
d="M157 317h111l186 -317h89l-187 319q84 11 124 64.5t40 124.5q0 79 -49.5 135.5t-152.5 56.5h-238v-700h77v317zM442 508q0 -52 -33 -84.5t-91 -32.5h-161v233h161q58 0 91 -32t33 -84zM291 854h110l-128 -109h-74z" />
    <glyph glyph-name="racute" unicode="&#x155;" horiz-adv-x="326" 
d="M150 516v-54q19 30 54.5 46.5t72.5 16.5h33v-72h-33q-54 0 -90.5 -34t-36.5 -95v-324h-75v516h75zM208 700h108l-118 -129h-67z" />
    <glyph glyph-name="Rcommaaccent" unicode="&#x156;" horiz-adv-x="572" 
d="M268 317h-111v-317h-77v700h238q103 0 152.5 -56.5t49.5 -135.5q0 -71 -40 -124.5t-124 -64.5l187 -319h-89zM442 508q0 52 -33 84t-91 32h-161v-233h161q58 0 91 32.5t33 84.5zM248 -145v95h95v-95l-25 -84h-64l25 84h-31z" />
    <glyph glyph-name="rcommaaccent" unicode="&#x157;" horiz-adv-x="327" 
d="M150 516v-54q19 30 54.5 46.5t72.5 16.5h33v-72h-33q-54 0 -90.5 -34t-36.5 -95v-324h-75v516h75zM65 -145v95h95v-95l-25 -84h-64l25 84h-31z" />
    <glyph glyph-name="Rcaron" unicode="&#x158;" horiz-adv-x="572" 
d="M157 317h111l186 -317h89l-187 319q84 11 124 64.5t40 124.5q0 79 -49.5 135.5t-152.5 56.5h-238v-700h77v317zM442 508q0 -52 -33 -84.5t-91 -32.5h-161v233h161q58 0 91 -32t33 -84zM281 803l59 51h99l-125 -109h-66l-125 109h99z" />
    <glyph glyph-name="rcaron" unicode="&#x159;" horiz-adv-x="327" 
d="M150 516v-54q19 30 54.5 46.5t72.5 16.5h33v-72h-33q-54 0 -90.5 -34t-36.5 -95v-324h-75v516h75zM350 700l-125 -129h-66l-125 129h89l69 -71l69 71h89z" />
    <glyph glyph-name="Sacute" unicode="&#x15a;" horiz-adv-x="517" 
d="M263 -10q-96 0 -158 58.5t-69 158.5h79q9 -66 49.5 -103.5t98.5 -37.5q61 0 97.5 28.5t36.5 82.5q0 47 -27 77t-86 46l-89 25q-74 21 -110.5 75.5t-36.5 123.5q0 87 59.5 136.5t147.5 49.5q90 0 145 -48.5t66 -138.5h-79q-25 111 -132 111q-61 0 -95 -31t-34 -79
q0 -95 104 -124l82 -23q163 -46 163 -200q0 -86 -54.5 -136.5t-157.5 -50.5zM280 854h110l-128 -109h-74z" />
    <glyph glyph-name="sacute" unicode="&#x15b;" horiz-adv-x="471" 
d="M415 365h-77q-14 93 -113 93q-43 0 -70 -20t-27 -55q0 -55 71 -72l97 -24q64 -16 98 -51t34 -102q0 -73 -49.5 -108.5t-132.5 -35.5q-87 0 -144 43t-63 132h77q5 -52 40 -77.5t90 -25.5q104 0 106 74q0 58 -72 76l-101 25q-52 12 -89.5 46.5t-37.5 96.5q0 69 50 109.5
t124 40.5q82 0 132.5 -41t56.5 -124zM249 700h108l-118 -129h-67z" />
    <glyph glyph-name="Scircumflex" unicode="&#x15c;" horiz-adv-x="517" 
d="M263 -10q-96 0 -158 58.5t-69 158.5h79q9 -66 49.5 -103.5t98.5 -37.5q61 0 97.5 28.5t36.5 82.5q0 47 -27 77t-86 46l-89 25q-74 21 -110.5 75.5t-36.5 123.5q0 87 59.5 136.5t147.5 49.5q90 0 145 -48.5t66 -138.5h-79q-25 111 -132 111q-61 0 -95 -31t-34 -79
q0 -95 104 -124l82 -23q163 -46 163 -200q0 -86 -54.5 -136.5t-157.5 -50.5zM314 745l-59 51l-59 -51h-99l125 109h66l125 -109h-99z" />
    <glyph glyph-name="scircumflex" unicode="&#x15d;" horiz-adv-x="471" 
d="M415 365h-77q-14 93 -113 93q-43 0 -70 -20t-27 -55q0 -55 71 -72l97 -24q64 -16 98 -51t34 -102q0 -73 -49.5 -108.5t-132.5 -35.5q-87 0 -144 43t-63 132h77q5 -52 40 -77.5t90 -25.5q104 0 106 74q0 58 -72 76l-101 25q-52 12 -89.5 46.5t-37.5 96.5q0 69 50 109.5
t124 40.5q82 0 132.5 -41t56.5 -124zM266 700l125 -129h-89l-69 71l-69 -71h-89l125 129h66z" />
    <glyph glyph-name="Scedilla" unicode="&#x15e;" horiz-adv-x="517" 
d="M183 -158l62 149q-89 5 -145.5 63t-63.5 153h79q9 -66 49.5 -103.5t98.5 -37.5q61 0 97.5 28.5t36.5 82.5q0 47 -27 77t-86 46l-89 25q-74 21 -110.5 75.5t-36.5 123.5q0 87 59.5 136.5t147.5 49.5q90 0 145 -48.5t66 -138.5h-79q-25 111 -132 111q-61 0 -95 -31t-34 -79
q0 -95 104 -124l82 -23q163 -46 163 -200q0 -73 -40 -121t-116 -61l-36 -153h-100z" />
    <glyph glyph-name="scedilla" unicode="&#x15f;" horiz-adv-x="471" 
d="M152 -158l67 149q-77 6 -126 49t-54 125h77q5 -52 40 -77.5t90 -25.5q104 0 106 74q0 58 -72 76l-101 25q-52 12 -89.5 46.5t-37.5 96.5q0 69 50 109.5t124 40.5q82 0 132.5 -41t56.5 -124h-77q-14 93 -113 93q-43 0 -70 -20t-27 -55q0 -55 71 -72l97 -24q64 -16 98 -51
t34 -102q0 -64 -38 -99t-104 -42l-36 -151h-98z" />
    <glyph glyph-name="Scaron" unicode="&#x160;" horiz-adv-x="517" 
d="M263 -10q-96 0 -158 58.5t-69 158.5h79q9 -66 49.5 -103.5t98.5 -37.5q61 0 97.5 28.5t36.5 82.5q0 47 -27 77t-86 46l-89 25q-74 21 -110.5 75.5t-36.5 123.5q0 87 59.5 136.5t147.5 49.5q90 0 145 -48.5t66 -138.5h-79q-25 111 -132 111q-61 0 -95 -31t-34 -79
q0 -95 104 -124l82 -23q163 -46 163 -200q0 -86 -54.5 -136.5t-157.5 -50.5zM255 803l59 51h99l-125 -109h-66l-125 109h99z" />
    <glyph glyph-name="scaron" unicode="&#x161;" horiz-adv-x="471" 
d="M415 365h-77q-14 93 -113 93q-43 0 -70 -20t-27 -55q0 -55 71 -72l97 -24q64 -16 98 -51t34 -102q0 -73 -49.5 -108.5t-132.5 -35.5q-87 0 -144 43t-63 132h77q5 -52 40 -77.5t90 -25.5q104 0 106 74q0 58 -72 76l-101 25q-52 12 -89.5 46.5t-37.5 96.5q0 69 50 109.5
t124 40.5q82 0 132.5 -41t56.5 -124zM391 700l-125 -129h-66l-125 129h89l69 -71l69 71h89z" />
    <glyph glyph-name="Tcommaaccent" unicode="&#x162;" horiz-adv-x="479" 
d="M201 624h-187v76h451v-76h-187v-624h-77v624zM192 -145v95h95v-95l-25 -84h-64l25 84h-31z" />
    <glyph glyph-name="tcommaaccent" unicode="&#x163;" horiz-adv-x="341" 
d="M174 444v-327q0 -25 10.5 -35t37.5 -10h79v-72h-79q-70 0 -96.5 27.5t-26.5 95.5v321h-73v72h73v117h75v-117h127v-72h-127zM153 -145v95h95v-95l-25 -84h-64l25 84h-31z" />
    <glyph glyph-name="Tcaron" unicode="&#x164;" horiz-adv-x="479" 
d="M201 624h-187v76h451v-76h-187v-624h-77v624zM239 803l59 51h99l-125 -109h-66l-125 109h99z" />
    <glyph glyph-name="tcaron" unicode="&#x165;" horiz-adv-x="341" 
d="M348 700l-61 -129h-54l19 129h96zM174 117v327h127v72h-127v117h-75v-117h-73v-72h73v-321q0 -68 26.5 -95.5t96.5 -27.5h79v72h-79q-27 0 -37.5 10t-10.5 35z" />
    <glyph glyph-name="Tbar" unicode="&#x166;" horiz-adv-x="479" 
d="M201 624h-187v76h451v-76h-187v-246h117v-55h-117v-323h-77v323h-117v55h117v246z" />
    <glyph glyph-name="tbar" unicode="&#x167;" horiz-adv-x="341" 
d="M174 264v-147q0 -25 10.5 -35t37.5 -10h79v-72h-79q-70 0 -96.5 27.5t-26.5 95.5v141h-73v53h73v127h-73v72h73v117h75v-117h127v-72h-127v-127h127v-53h-127z" />
    <glyph glyph-name="Utilde" unicode="&#x168;" horiz-adv-x="594" 
d="M71 227v473h77v-473q0 -77 42 -119t107 -42t107 42t42 119v473h77v-473q0 -109 -62 -173t-164 -64t-164 64t-62 173zM241 852q30 0 55 -14l30 -16q16 -8 26 -8q28 0 39 36h65q-9 -45 -37.5 -73.5t-65.5 -28.5q-30 0 -55 14l-30 16q-16 8 -26 8q-28 0 -39 -36h-65
q9 45 37.5 73.5t65.5 28.5z" />
    <glyph glyph-name="utilde" unicode="&#x169;" horiz-adv-x="541" 
d="M267 -10q-35 0 -67.5 10t-63.5 31.5t-49.5 62.5t-18.5 95v327h75v-322q0 -65 36.5 -98.5t87.5 -33.5t87.5 34.5t36.5 94.5v325h75v-516h-75v53q-19 -29 -54 -46t-70 -17zM166 586h-58q9 45 37.5 73.5t65.5 28.5q30 0 55 -14l30 -17q14 -9 31 -9q13 0 25 11t16 27h58
q-9 -45 -37.5 -73.5t-65.5 -28.5q-30 0 -55 14l-30 17q-14 9 -31 9q-13 0 -25 -11t-16 -27z" />
    <glyph glyph-name="Umacron" unicode="&#x16a;" horiz-adv-x="594" 
d="M71 227v473h77v-473q0 -77 42 -119t107 -42t107 42t42 119v473h77v-473q0 -109 -62 -173t-164 -64t-164 64t-62 173zM148 766v67h298v-67h-298z" />
    <glyph glyph-name="umacron" unicode="&#x16b;" horiz-adv-x="541" 
d="M267 -10q-35 0 -67.5 10t-63.5 31.5t-49.5 62.5t-18.5 95v327h75v-322q0 -65 36.5 -98.5t87.5 -33.5t87.5 34.5t36.5 94.5v325h75v-516h-75v53q-19 -29 -54 -46t-70 -17zM118 603v65h298v-65h-298z" />
    <glyph glyph-name="Ubreve" unicode="&#x16c;" horiz-adv-x="594" 
d="M71 227v473h77v-473q0 -77 42 -119t107 -42t107 42t42 119v473h77v-473q0 -109 -62 -173t-164 -64t-164 64t-62 173zM336 808q20 0 33 13t13 33h63q0 -45 -32 -77t-77 -32h-78q-45 0 -77 32t-32 77h63q0 -20 13 -33t33 -13h78z" />
    <glyph glyph-name="ubreve" unicode="&#x16d;" horiz-adv-x="541" 
d="M267 -10q-35 0 -67.5 10t-63.5 31.5t-49.5 62.5t-18.5 95v327h75v-322q0 -65 36.5 -98.5t87.5 -33.5t87.5 34.5t36.5 94.5v325h75v-516h-75v53q-19 -29 -54 -46t-70 -17zM248 571q-53 0 -91 38t-38 91h61q0 -28 20 -48t48 -20h38q28 0 48 20t20 48h61q0 -53 -38 -91
t-91 -38h-38z" />
    <glyph glyph-name="Uring" unicode="&#x16e;" horiz-adv-x="594" 
d="M71 227v473h77v-473q0 -77 42 -119t107 -42t107 42t42 119v473h77v-473q0 -109 -62 -173t-164 -64t-164 64t-62 173zM223 799q0 31 21.5 53t52.5 22t53 -22t22 -53t-22 -52.5t-53 -21.5t-52.5 21.5t-21.5 52.5zM271 799q0 -11 7.5 -18.5t18.5 -7.5t18.5 7.5t7.5 18.5
t-7.5 18.5t-18.5 7.5t-18.5 -7.5t-7.5 -18.5z" />
    <glyph glyph-name="uring" unicode="&#x16f;" horiz-adv-x="541" 
d="M267 -10q-35 0 -67.5 10t-63.5 31.5t-49.5 62.5t-18.5 95v327h75v-322q0 -65 36.5 -98.5t87.5 -33.5t87.5 34.5t36.5 94.5v325h75v-516h-75v53q-19 -29 -54 -46t-70 -17zM239 635q0 -11 8.5 -19.5t19.5 -8.5t19.5 8.5t8.5 19.5t-8.5 19.5t-19.5 8.5t-19.5 -8.5
t-8.5 -19.5zM193 635q0 31 21.5 53t52.5 22t53 -22t22 -53t-22 -52.5t-53 -21.5t-52.5 21.5t-21.5 52.5z" />
    <glyph glyph-name="Uhungarumlaut" unicode="&#x170;" horiz-adv-x="594" 
d="M71 227v473h77v-473q0 -77 42 -119t107 -42t107 42t42 119v473h77v-473q0 -109 -62 -173t-164 -64t-164 64t-62 173zM242 854h105l-118 -109h-69zM410 854h105l-118 -109h-69z" />
    <glyph glyph-name="uhungarumlaut" unicode="&#x171;" horiz-adv-x="541" 
d="M267 -10q-35 0 -67.5 10t-63.5 31.5t-49.5 62.5t-18.5 95v327h75v-322q0 -65 36.5 -98.5t87.5 -33.5t87.5 34.5t36.5 94.5v325h75v-516h-75v53q-19 -29 -54 -46t-70 -17zM195 700h103l-108 -129h-62zM363 700h103l-108 -129h-62z" />
    <glyph glyph-name="Uogonek" unicode="&#x172;" horiz-adv-x="594" 
d="M71 227v473h77v-473q0 -77 42 -119t107 -42t107 42t42 119v473h77v-473q0 -140 -100 -204q-110 -71 -110 -120q0 -29 30 -29q24 0 52 17v-62q-27 -18 -63 -18q-45 0 -70.5 22t-25.5 64q0 54 63 93q-104 0 -166 63.5t-62 173.5z" />
    <glyph glyph-name="uogonek" unicode="&#x173;" horiz-adv-x="541" 
d="M391 0v53q-19 -29 -54 -46t-70 -17t-67.5 10t-63.5 31.5t-49.5 62.5t-18.5 95v327h75v-322q0 -65 36.5 -98.5t87.5 -33.5t87.5 34.5t36.5 94.5v325h75v-516q-26 -19 -40.5 -31t-28 -30.5t-13.5 -35.5q0 -31 30 -31q24 0 52 17v-60q-27 -18 -63 -18q-45 0 -69.5 21.5
t-24.5 64.5q0 63 82 103z" />
    <glyph glyph-name="Wcircumflex" unicode="&#x174;" horiz-adv-x="726" 
d="M496 0l-133 479l-133 -479h-74l-129 700h76l99 -546l124 446h74l124 -446l99 546h76l-129 -700h-74zM422 745l-59 51l-59 -51h-99l125 109h66l125 -109h-99z" />
    <glyph glyph-name="wcircumflex" unicode="&#x175;" horiz-adv-x="684" 
d="M379 516l114 -402l100 402h78l-136 -516h-78l-115 405l-115 -405h-78l-136 516h78l100 -402l114 402h74zM375 700l125 -129h-89l-69 71l-69 -71h-89l125 129h66z" />
    <glyph glyph-name="Ycircumflex" unicode="&#x176;" horiz-adv-x="545" 
d="M311 278v-278h-77v279l-231 421h84l186 -339l185 339h84zM331 745l-59 51l-59 -51h-99l125 109h66l125 -109h-99z" />
    <glyph glyph-name="ycircumflex" unicode="&#x177;" horiz-adv-x="468" 
d="M462 516l-234 -647q-10 -29 -36.5 -40.5t-77.5 -12.5h-29v72h38q22 0 31 7t14 23l27 74l-189 524h80l148 -419l148 419h80zM267 700l125 -129h-89l-69 71l-69 -71h-89l125 129h66z" />
    <glyph glyph-name="Ydieresis" unicode="&#x178;" horiz-adv-x="545" 
d="M311 0v278l231 422h-84l-185 -339l-186 339h-84l231 -421v-279h77zM410 848v-97h-77v97h77zM213 848v-97h-77v97h77z" />
    <glyph glyph-name="Zacute" unicode="&#x179;" horiz-adv-x="537" 
d="M496 0h-457v76l362 548h-357v76h447v-76l-362 -548h367v-76zM292 854h110l-128 -109h-74z" />
    <glyph glyph-name="zacute" unicode="&#x17a;" horiz-adv-x="466" 
d="M421 444l-291 -372h298v-72h-389v72l291 372h-284v72h375v-72zM249 700h108l-118 -129h-67z" />
    <glyph glyph-name="Zdotaccent" unicode="&#x17b;" horiz-adv-x="537" 
d="M496 0h-457v76l362 548h-357v76h447v-76l-362 -548h367v-76zM306 848v-97h-77v97h77z" />
    <glyph glyph-name="zdotaccent" unicode="&#x17c;" horiz-adv-x="466" 
d="M421 444l-291 -372h298v-72h-389v72l291 372h-284v72h375v-72zM271 684v-97h-75v97h75z" />
    <glyph glyph-name="Zcaron" unicode="&#x17d;" horiz-adv-x="537" 
d="M496 0h-457v76l362 548h-357v76h447v-76l-362 -548h367v-76zM267 803l59 51h99l-125 -109h-66l-125 109h99z" />
    <glyph glyph-name="zcaron" unicode="&#x17e;" horiz-adv-x="466" 
d="M421 444l-291 -372h298v-72h-389v72l291 372h-284v72h375v-72zM391 700l-125 -129h-66l-125 129h89l69 -71l69 71h89z" />
    <glyph glyph-name="longs" unicode="&#x17f;" horiz-adv-x="272" 
d="M277 628h-79q-27 0 -37.5 -10t-10.5 -35v-583h-75v577q0 68 26.5 95.5t96.5 27.5h79v-72z" />
    <glyph glyph-name="uni0186" unicode="&#x186;" horiz-adv-x="559" 
d="M274 710q102 0 164 -64t62 -173v-246q0 -109 -62 -173t-164 -64q-97 0 -158 58t-67 159h77q6 -68 46.5 -104.5t101.5 -36.5q65 0 107 42t42 119v246q0 77 -42 119t-107 42q-61 0 -101.5 -36.5t-46.5 -104.5h-77q6 101 67 159t158 58z" />
    <glyph glyph-name="uni018F" unicode="&#x18f;" horiz-adv-x="570" 
d="M434 392v81q0 77 -42 119t-107 42q-61 0 -101.5 -36.5t-46.5 -104.5h-77q6 101 67 159t158 58q102 0 164 -64t62 -173v-246q0 -109 -62 -173t-164 -64t-164 64t-62 173v165h375zM285 66q65 0 107 42t42 119v88h-298v-88q0 -77 42 -119t107 -42z" />
    <glyph glyph-name="uni0190" unicode="&#x190;" horiz-adv-x="509" 
d="M445 624h-179q-58 0 -91 -32t-33 -84t33 -84t91 -32h179v-76h-196q-57 0 -90.5 -32t-33.5 -88t33.5 -88t90.5 -32h196v-76h-196q-104 0 -153 57t-49 139q0 51 24 95t70 67q-35 22 -56 61t-21 89q0 79 49.5 135.5t152.5 56.5h179v-76z" />
    <glyph glyph-name="florin" unicode="&#x192;" horiz-adv-x="468" 
d="M272 463l-108 -524q-14 -67 -46 -95t-103 -28h-25l15 72h25q27 0 39.5 10t17.5 35l110 530h-73l11 53h73l12 61q13 67 45.5 95t103.5 28h79l-15 -72h-79q-27 0 -39.5 -10t-17.5 -35l-14 -67h127l-11 -53h-127z" />
    <glyph glyph-name="uni019D" unicode="&#x19d;" horiz-adv-x="612" 
d="M80 1v699h77l298 -551v551h77v-700h-77l-298 551v-533q0 -202 -193 -202h-31v76h31q53 0 84.5 29.5t31.5 79.5z" />
    <glyph glyph-name="uni019F" unicode="&#x19f;" horiz-adv-x="570" 
d="M511 473v-246q0 -109 -62 -173t-164 -64t-164 64t-62 173v246q0 109 62 173t164 64t164 -64t62 -173zM434 227v96h-298v-96q0 -77 42 -119t107 -42t107 42t42 119zM136 473v-95h298v95q0 77 -42 119t-107 42t-107 -42t-42 -119z" />
    <glyph glyph-name="Ohorn" unicode="&#x1a0;" horiz-adv-x="581" 
d="M511 473v-246q0 -109 -62 -173t-164 -64t-164 64t-62 173v246q0 109 62 173t164 64q116 0 179 -82q15 1 25 10.5t10 22.5q0 11 -7 21l68 28q15 -30 15 -55q0 -31 -21.5 -53.5t-58.5 -30.5q16 -46 16 -98zM434 227v246q0 77 -42 119t-107 42t-107 -42t-42 -119v-246
q0 -77 42 -119t107 -42t107 42t42 119z" />
    <glyph glyph-name="ohorn" unicode="&#x1a1;" horiz-adv-x="556" 
d="M465 328v-136q0 -105 -59.5 -153.5t-142.5 -48.5t-142.5 48.5t-59.5 153.5v136q0 105 59.5 153.5t142.5 48.5q118 0 171 -82q15 1 25 10.5t10 22.5q0 11 -7 21l68 28q15 -30 15 -55q0 -33 -23.5 -55.5t-63.5 -30.5q7 -31 7 -61zM390 191v138q0 61 -36.5 95t-90.5 34
t-90.5 -34t-36.5 -95v-138q0 -61 36.5 -95t90.5 -34t90.5 34t36.5 95z" />
    <glyph glyph-name="Uhorn" unicode="&#x1af;" horiz-adv-x="614" 
d="M523 567v-340q0 -109 -62 -173t-164 -64t-164 64t-62 173v473h77v-473q0 -77 42 -119t107 -42t107 42t42 119v473h77v-72q15 1 25 10.5t10 22.5q0 11 -7 21l68 28q15 -30 15 -55q0 -38 -30.5 -62t-80.5 -26z" />
    <glyph glyph-name="uhorn" unicode="&#x1b0;" horiz-adv-x="571" 
d="M466 387v-387h-75v53q-19 -29 -54 -46t-70 -17t-67.5 10t-63.5 31.5t-49.5 62.5t-18.5 95v327h75v-322q0 -65 36.5 -98.5t87.5 -33.5t87.5 34.5t36.5 94.5v325h75v-68q15 1 25 10.5t10 22.5q0 11 -7 21l68 28q15 -30 15 -55q0 -38 -30.5 -62t-80.5 -26z" />
    <glyph glyph-name="uni01C4" unicode="&#x1c4;" horiz-adv-x="1099" 
d="M80 700h226q102 0 164 -64t62 -173v-226q0 -109 -62 -173t-164 -64h-226v700zM306 624h-149v-548h149q65 0 107 42t42 119v226q0 77 -42 118.5t-107 42.5zM1058 0h-457v76l362 548h-357v76h447v-76l-362 -548h367v-76zM829 803l59 51h99l-125 -109h-66l-125 109h99z" />
    <glyph glyph-name="uni01C5" unicode="&#x1c5;" horiz-adv-x="1057" 
d="M80 700h226q102 0 164 -64t62 -173v-226q0 -109 -62 -173t-164 -64h-226v700zM306 624h-149v-548h149q65 0 107 42t42 119v226q0 77 -42 118.5t-107 42.5zM1012 444l-291 -372h298v-72h-389v72l291 372h-284v72h375v-72zM857 571l125 129h-89l-69 -71l-69 71h-89
l125 -129h66z" />
    <glyph glyph-name="uni01C6" unicode="&#x1c6;" horiz-adv-x="1006" 
d="M263 -10q-83 0 -142.5 48.5t-59.5 153.5v136q0 105 59.5 153.5t142.5 48.5q37 0 72.5 -16.5t54.5 -46.5v233h75v-700h-75v53q-19 -30 -54.5 -46.5t-72.5 -16.5zM136 329v-138q0 -61 36.5 -95t90.5 -34t90.5 34t36.5 95v138q0 61 -36.5 95t-90.5 34t-90.5 -34t-36.5 -95z
M961 444l-291 -372h298v-72h-389v72l291 372h-284v72h375v-72zM931 700l-125 -129h-66l-125 129h89l69 -71l69 71h89z" />
    <glyph glyph-name="uni01C7" unicode="&#x1c7;" horiz-adv-x="966" 
d="M80 0v700h77v-624h321v-76h-398zM507 192v8h77v-8q0 -57 33.5 -91.5t83.5 -34.5t83.5 34.5t33.5 91.5v508h77v-508q0 -104 -57 -153t-137 -49t-137 49t-57 153z" />
    <glyph glyph-name="uni01C8" unicode="&#x1c8;" horiz-adv-x="718" 
d="M80 0v700h77v-624h321v-76h-398zM643 700v-97h-75v97h75zM568 -67v583h75v-577q0 -68 -26.5 -95.5t-96.5 -27.5h-16v72h16q27 0 37.5 10t10.5 35z" />
    <glyph glyph-name="uni01C9" unicode="&#x1c9;" horiz-adv-x="479" 
d="M148 700v-583q0 -25 10.5 -35t37.5 -10h16v-72h-16q-70 0 -96.5 27.5t-26.5 95.5v577h75zM404 700v-97h-75v97h75zM329 -67v583h75v-577q0 -68 -26.5 -95.5t-96.5 -27.5h-16v72h16q27 0 37.5 10t10.5 35z" />
    <glyph glyph-name="uni01CA" unicode="&#x1ca;" horiz-adv-x="1085" 
d="M532 700v-700h-77l-298 551v-551h-77v700h77l298 -551v551h77zM626 192v8h77v-8q0 -57 33.5 -91.5t83.5 -34.5t83.5 34.5t33.5 91.5v508h77v-508q0 -104 -57 -153t-137 -49t-137 49t-57 153z" />
    <glyph glyph-name="uni01CB" unicode="&#x1cb;" horiz-adv-x="837" 
d="M532 700v-700h-77l-298 551v-551h-77v700h77l298 -551v551h77zM762 700v-97h-75v97h75zM687 -67v583h75v-577q0 -68 -26.5 -95.5t-96.5 -27.5h-16v72h16q27 0 37.5 10t10.5 35z" />
    <glyph glyph-name="uni01CC" unicode="&#x1cc;" horiz-adv-x="772" 
d="M277 530q83 0 142.5 -48.5t59.5 -153.5v-328h-75v329q0 61 -36.5 95t-90.5 34t-90.5 -34t-36.5 -95v-329h-75v516h75v-49q19 30 54.5 46.5t72.5 16.5zM697 700v-97h-75v97h75zM622 -67v583h75v-577q0 -68 -26.5 -95.5t-96.5 -27.5h-16v72h16q27 0 37.5 10t10.5 35z" />
    <glyph glyph-name="uni01F1" unicode="&#x1f1;" horiz-adv-x="1099" 
d="M80 700h226q102 0 164 -64t62 -173v-226q0 -109 -62 -173t-164 -64h-226v700zM306 624h-149v-548h149q65 0 107 42t42 119v226q0 77 -42 118.5t-107 42.5zM1058 0h-457v76l362 548h-357v76h447v-76l-362 -548h367v-76z" />
    <glyph glyph-name="uni01F2" unicode="&#x1f2;" horiz-adv-x="1057" 
d="M80 700h226q102 0 164 -64t62 -173v-226q0 -109 -62 -173t-164 -64h-226v700zM306 624h-149v-548h149q65 0 107 42t42 119v226q0 77 -42 118.5t-107 42.5zM1012 444l-291 -372h298v-72h-389v72l291 372h-284v72h375v-72z" />
    <glyph glyph-name="uni01F3" unicode="&#x1f3;" horiz-adv-x="1006" 
d="M263 -10q-83 0 -142.5 48.5t-59.5 153.5v136q0 105 59.5 153.5t142.5 48.5q37 0 72.5 -16.5t54.5 -46.5v233h75v-700h-75v53q-19 -30 -54.5 -46.5t-72.5 -16.5zM136 329v-138q0 -61 36.5 -95t90.5 -34t90.5 34t36.5 95v138q0 61 -36.5 95t-90.5 34t-90.5 -34t-36.5 -95z
M961 444l-291 -372h298v-72h-389v72l291 372h-284v72h375v-72z" />
    <glyph glyph-name="Aringacute" unicode="&#x1fa;" horiz-adv-x="566" 
d="M209 726q0 31 21.5 53t52.5 22t53 -22t22 -53q0 -32 -23 -53l217 -673h-78l-64 197h-254l-64 -197h-78l216 673q-21 23 -21 53zM387 268l-104 325l-104 -325h208zM308 925h110l-128 -109h-74zM257 726q0 -10 6.5 -17.5t16.5 -8.5h3q11 0 18.5 8t7.5 18t-7.5 18t-18.5 8
t-18.5 -8t-7.5 -18z" />
    <glyph glyph-name="aringacute" unicode="&#x1fb;" horiz-adv-x="527" 
d="M257 458q-47 0 -81 -26t-43 -74h-77q9 89 66.5 130.5t134.5 41.5q83 0 142.5 -48.5t59.5 -153.5v-328h-75v53q-48 -63 -161 -63q-72 0 -121.5 39t-49.5 114q0 48 25.5 89t86.5 59q63 18 220 29v9q0 61 -36.5 95t-90.5 34zM384 186v67q-172 -12 -212 -34q-27 -15 -36 -32
t-9 -42q0 -37 28.5 -60t83.5 -23q63 0 104 32.5t41 91.5zM232 635q0 -11 8.5 -19.5t19.5 -8.5t19.5 8.5t8.5 19.5t-8.5 19.5t-19.5 8.5t-19.5 -8.5t-8.5 -19.5zM186 635q0 31 21.5 53t52.5 22t53 -22t22 -53t-22 -52.5t-53 -21.5t-52.5 21.5t-21.5 52.5zM272 854h108
l-118 -129h-67z" />
    <glyph glyph-name="AEacute" unicode="&#x1fc;" horiz-adv-x="839" 
d="M212 268h165v359zM775 0h-398v197h-198l-90 -197h-82l322 700h446v-76h-321v-232h321v-76h-321v-240h321v-76zM577 854h110l-128 -109h-74z" />
    <glyph glyph-name="aeacute" unicode="&#x1fd;" horiz-adv-x="844" 
d="M586 62q47 0 81 26t43 74h77q-9 -89 -66.5 -130.5t-134.5 -41.5q-57 0 -106 23.5t-74 73.5q-49 -97 -183 -97q-72 0 -121.5 39t-49.5 114q0 48 25.5 89t86.5 59q63 18 220 29v15q-2 59 -38.5 91t-88.5 32q-47 0 -81 -26t-43 -74h-77q9 89 66.5 130.5t134.5 41.5
q111 0 164 -83q52 83 165 83q83 0 142.5 -48.5t59.5 -153.5v-87h-329v-50q0 -61 36.5 -95t90.5 -34zM384 186v67q-172 -12 -212 -34q-27 -15 -36 -32t-9 -42q0 -37 28.5 -60t83.5 -23q63 0 104 32.5t41 91.5zM713 310v19q0 61 -36.5 95t-90.5 34t-90.5 -34t-36.5 -95v-19
h254zM436 700h108l-118 -129h-67z" />
    <glyph glyph-name="Oslashacute" unicode="&#x1fe;" horiz-adv-x="576" 
d="M514 473v-246q0 -109 -62 -173t-164 -64q-87 0 -145 46l-33 -59l-48 27l42 74q-42 61 -42 149v246q0 109 62 173t164 64q87 0 145 -47l34 61l47 -28l-42 -75q42 -59 42 -148zM139 227q0 -39 10 -68l244 434q-41 41 -105 41q-65 0 -107 -42t-42 -119v-246zM437 227v246
q0 36 -11 67l-243 -434q42 -40 105 -40q65 0 107 42t42 119zM313 854h110l-128 -109h-74z" />
    <glyph glyph-name="oslashacute" unicode="&#x1ff;" horiz-adv-x="532" 
d="M468 328v-136q0 -105 -59.5 -153.5t-142.5 -48.5q-75 0 -125 35l-33 -49l-44 29l38 57q-38 49 -38 130v136q0 105 59.5 153.5t142.5 48.5q72 0 124 -35l33 50l45 -30l-38 -57q38 -51 38 -130zM393 191v138q0 32 -11 57l-199 -297q35 -27 83 -27q54 0 90.5 34t36.5 95z
M139 191q0 -32 11 -57l198 298q-35 26 -82 26q-54 0 -90.5 -34t-36.5 -95v-138zM282 700h108l-118 -129h-67z" />
    <glyph glyph-name="Scommaaccent" unicode="&#x218;" horiz-adv-x="517" 
d="M263 -10q-96 0 -158 58.5t-69 158.5h79q9 -66 49.5 -103.5t98.5 -37.5q61 0 97.5 28.5t36.5 82.5q0 47 -27 77t-86 46l-89 25q-74 21 -110.5 75.5t-36.5 123.5q0 87 59.5 136.5t147.5 49.5q90 0 145 -48.5t66 -138.5h-79q-25 111 -132 111q-61 0 -95 -31t-34 -79
q0 -95 104 -124l82 -23q163 -46 163 -200q0 -86 -54.5 -136.5t-157.5 -50.5zM208 -145v95h95v-95l-25 -84h-64l25 84h-31z" />
    <glyph glyph-name="scommaaccent" unicode="&#x219;" horiz-adv-x="471" 
d="M415 365h-77q-14 93 -113 93q-43 0 -70 -20t-27 -55q0 -55 71 -72l97 -24q64 -16 98 -51t34 -102q0 -73 -49.5 -108.5t-132.5 -35.5q-87 0 -144 43t-63 132h77q5 -52 40 -77.5t90 -25.5q104 0 106 74q0 58 -72 76l-101 25q-52 12 -89.5 46.5t-37.5 96.5q0 69 50 109.5
t124 40.5q82 0 132.5 -41t56.5 -124zM186 -145v95h95v-95l-25 -84h-64l25 84h-31z" />
    <glyph glyph-name="uni021C" unicode="&#x21c;" horiz-adv-x="517" 
d="M390 497q0 63 -41 100t-100 37q-61 0 -106 -37t-51 -104h-77q6 99 72 158t162 59q95 0 156.5 -58.5t61.5 -154.5q0 -74 -36 -129t-83 -79q55 -24 86 -72.5t31 -106.5q0 -129 -119 -211.5t-293 -82.5v76q134 0 234 58.5t100 151.5q0 65 -40 100t-106 35q-36 0 -66 -10v76
q215 45 215 194z" />
    <glyph glyph-name="uni021D" unicode="&#x21d;" horiz-adv-x="459" 
d="M415 354q0 -54 -28 -94.5t-68 -65.5q45 -19 70.5 -56t25.5 -87q0 -112 -102 -173.5t-263 -61.5v72q123 0 206.5 43.5t83.5 114.5q0 51 -39.5 76t-94.5 25q-29 0 -49 -8v73q183 31 183 142q0 44 -29 74t-85 30q-50 0 -91 -28.5t-47 -76.5h-76q7 82 66 129.5t148 47.5
q96 0 142.5 -51t46.5 -125z" />
    <glyph glyph-name="uni0226" unicode="&#x226;" horiz-adv-x="566" 
d="M474 0l-64 197h-254l-64 -197h-78l225 700h88l225 -700h-78zM387 268l-104 325l-104 -325h208zM322 848v-97h-77v97h77z" />
    <glyph glyph-name="uni0227" unicode="&#x227;" horiz-adv-x="527" 
d="M257 458q-47 0 -81 -26t-43 -74h-77q9 89 66.5 130.5t134.5 41.5q83 0 142.5 -48.5t59.5 -153.5v-328h-75v53q-48 -63 -161 -63q-72 0 -121.5 39t-49.5 114q0 48 25.5 89t86.5 59q63 18 220 29v9q0 61 -36.5 95t-90.5 34zM384 186v67q-172 -12 -212 -34q-27 -15 -36 -32
t-9 -42q0 -37 28.5 -60t83.5 -23q63 0 104 32.5t41 91.5zM298 684v-97h-75v97h75z" />
    <glyph glyph-name="uni0232" unicode="&#x232;" horiz-adv-x="545" 
d="M311 0v278l231 422h-84l-185 -339l-186 339h-84l231 -421v-279h77zM123 766v67h298v-67h-298z" />
    <glyph glyph-name="uni0233" unicode="&#x233;" horiz-adv-x="468" 
d="M462 516l-234 -647q-10 -29 -36.5 -40.5t-77.5 -12.5h-29v72h38q22 0 31 7t14 23l27 74l-189 524h80l148 -419l148 419h80zM85 603v65h298v-65h-298z" />
    <glyph glyph-name="dotlessj" unicode="&#x237;" horiz-adv-x="225" 
d="M75 -67v583h75v-577q0 -68 -26.5 -95.5t-96.5 -27.5h-16v72h16q27 0 37.5 10t10.5 35z" />
    <glyph glyph-name="uni0254" unicode="&#x254;" horiz-adv-x="515" 
d="M252 530q83 0 142.5 -48.5t59.5 -153.5v-136q0 -105 -59.5 -153.5t-142.5 -48.5q-78 0 -135.5 42.5t-65.5 134.5h76q7 -50 42 -77.5t83 -27.5q54 0 90.5 34t36.5 95v138q0 61 -36.5 95t-90.5 34q-48 0 -83 -27.5t-42 -77.5h-76q8 92 65.5 134.5t135.5 42.5z" />
    <glyph glyph-name="uni0259" unicode="&#x259;" horiz-adv-x="521" 
d="M258 458q-47 0 -81 -26t-43 -74h-77q9 89 66.5 130.5t134.5 41.5q83 0 142.5 -48.5t59.5 -153.5v-136q0 -105 -59.5 -153.5t-142.5 -48.5t-142.5 48.5t-59.5 153.5v87h329v50q0 61 -36.5 95t-90.5 34zM131 210v-19q0 -61 36.5 -95t90.5 -34t90.5 34t36.5 95v19h-254z" />
    <glyph glyph-name="uni025B" unicode="&#x25b;" horiz-adv-x="449" 
d="M394 444h-183q-37 0 -57.5 -21t-20.5 -53t20.5 -52.5t57.5 -20.5h183v-72h-196q-36 0 -57 -20.5t-21 -55.5q0 -36 21 -56.5t57 -20.5h196v-72h-196q-79 0 -116 43t-37 106q0 78 59 115q-46 38 -46 106q0 61 37.5 103.5t115.5 42.5h183v-72z" />
    <glyph glyph-name="uni0272" unicode="&#x272;" horiz-adv-x="547" 
d="M75 -67v583h75v-49q19 30 54.5 46.5t72.5 16.5q83 0 142.5 -48.5t59.5 -153.5v-328h-75v329q0 61 -36.5 95t-90.5 34t-90.5 -34t-36.5 -95v-390q0 -68 -26.5 -95.5t-96.5 -27.5h-16v72h16q27 0 37.5 10t10.5 35z" />
    <glyph glyph-name="uni0275" unicode="&#x275;" horiz-adv-x="526" 
d="M465 328v-136q0 -105 -59.5 -153.5t-142.5 -48.5t-142.5 48.5t-59.5 153.5v136q0 105 59.5 153.5t142.5 48.5t142.5 -48.5t59.5 -153.5zM390 191v43h-254v-43q0 -61 36.5 -95t90.5 -34t90.5 34t36.5 95zM136 329v-42h254v42q0 61 -36.5 95t-90.5 34t-90.5 -34t-36.5 -95z
" />
    <glyph glyph-name="circumflex" unicode="&#x2c6;" horiz-adv-x="432" 
d="M249 700l125 -129h-89l-69 71l-69 -71h-89l125 129h66z" />
    <glyph glyph-name="caron" unicode="&#x2c7;" horiz-adv-x="432" 
d="M374 700l-125 -129h-66l-125 129h89l69 -71l69 71h89z" />
    <glyph glyph-name="breve" unicode="&#x2d8;" horiz-adv-x="394" 
d="M178 571q-53 0 -91 38t-38 91h61q0 -28 20 -48t48 -20h38q28 0 48 20t20 48h61q0 -53 -38 -91t-91 -38h-38z" />
    <glyph glyph-name="dotaccent" unicode="&#x2d9;" horiz-adv-x="183" 
d="M129 684v-97h-75v97h75z" />
    <glyph glyph-name="ring" unicode="&#x2da;" horiz-adv-x="245" 
d="M94 635q0 -11 8.5 -19.5t19.5 -8.5t19.5 8.5t8.5 19.5t-8.5 19.5t-19.5 8.5t-19.5 -8.5t-8.5 -19.5zM48 635q0 31 21.5 53t52.5 22t53 -22t22 -53t-22 -52.5t-53 -21.5t-52.5 21.5t-21.5 52.5z" />
    <glyph glyph-name="ogonek" unicode="&#x2db;" horiz-adv-x="242" 
d="M202 0q-26 -19 -40.5 -31t-28 -30.5t-13.5 -35.5q0 -31 30 -31q24 0 52 17v-60q-27 -18 -63 -18q-45 0 -69.5 21.5t-24.5 64.5q0 63 82 103h75z" />
    <glyph glyph-name="tilde" unicode="&#x2dc;" horiz-adv-x="440" 
d="M119 586h-58q9 45 37.5 73.5t65.5 28.5q30 0 55 -14l30 -17q14 -9 31 -9q13 0 25 11t16 27h58q-9 -45 -37.5 -73.5t-65.5 -28.5q-30 0 -55 14l-30 17q-14 9 -31 9q-13 0 -25 -11t-16 -27z" />
    <glyph glyph-name="hungarumlaut" unicode="&#x2dd;" horiz-adv-x="457" 
d="M133 700h103l-108 -129h-62zM301 700h103l-108 -129h-62z" />
    <glyph glyph-name="uni032C" unicode="&#x32c;" horiz-adv-x="432" 
d="M374 0l-125 -129h-66l-125 129h89l69 -71l69 71h89z" />
    <glyph glyph-name="pi" unicode="&#x3c0;" horiz-adv-x="606" 
d="M101 444h-73v72h550v-72h-73v-444h-75v444h-254v-444h-75v444z" />
    <glyph glyph-name="Wgrave" unicode="&#x1e80;" horiz-adv-x="726" 
d="M496 0l-133 479l-133 -479h-74l-129 700h76l99 -546l124 446h74l124 -446l99 546h76l-129 -700h-74zM228 854h110l92 -109h-74z" />
    <glyph glyph-name="wgrave" unicode="&#x1e81;" horiz-adv-x="684" 
d="M379 516l114 -402l100 402h78l-136 -516h-78l-115 405l-115 -405h-78l-136 516h78l100 -402l114 402h74zM218 700h108l77 -129h-67z" />
    <glyph glyph-name="Wacute" unicode="&#x1e82;" horiz-adv-x="726" 
d="M363 479l133 -479h74l129 700h-76l-99 -546l-124 446h-74l-124 -446l-99 546h-76l129 -700h74zM388 854h110l-128 -109h-74z" />
    <glyph glyph-name="wacute" unicode="&#x1e83;" horiz-adv-x="684" 
d="M379 516l114 -402l100 402h78l-136 -516h-78l-115 405l-115 -405h-78l-136 516h78l100 -402l114 402h74zM358 700h108l-118 -129h-67z" />
    <glyph glyph-name="Wdieresis" unicode="&#x1e84;" horiz-adv-x="726" 
d="M363 479l133 -479h74l129 700h-76l-99 -546l-124 446h-74l-124 -446l-99 546h-76l129 -700h74zM500 848v-97h-77v97h77zM303 848v-97h-77v97h77z" />
    <glyph glyph-name="wdieresis" unicode="&#x1e85;" horiz-adv-x="684" 
d="M379 516l114 -402l100 402h78l-136 -516h-78l-115 405l-115 -405h-78l-136 516h78l100 -402l114 402h74zM280 684v-97h-75v97h75zM479 684v-97h-75v97h75z" />
    <glyph glyph-name="uni1EA0" unicode="&#x1ea0;" horiz-adv-x="566" 
d="M474 0l-64 197h-254l-64 -197h-78l225 700h88l225 -700h-78zM387 268l-104 325l-104 -325h208zM322 -50v-97h-77v97h77z" />
    <glyph glyph-name="uni1EA1" unicode="&#x1ea1;" horiz-adv-x="527" 
d="M257 458q-47 0 -81 -26t-43 -74h-77q9 89 66.5 130.5t134.5 41.5q83 0 142.5 -48.5t59.5 -153.5v-328h-75v53q-48 -63 -161 -63q-72 0 -121.5 39t-49.5 114q0 48 25.5 89t86.5 59q63 18 220 29v9q0 61 -36.5 95t-90.5 34zM384 186v67q-172 -12 -212 -34q-27 -15 -36 -32
t-9 -42q0 -37 28.5 -60t83.5 -23q63 0 104 32.5t41 91.5zM293 -50v-97h-75v97h75z" />
    <glyph glyph-name="uni1EB8" unicode="&#x1eb8;" horiz-adv-x="542" 
d="M157 316v-240h321v-76h-398v700h398v-76h-321v-232h321v-76h-321zM318 -50v-97h-77v97h77z" />
    <glyph glyph-name="uni1EB9" unicode="&#x1eb9;" horiz-adv-x="521" 
d="M263 62q47 0 81 26t43 74h77q-9 -89 -66.5 -130.5t-134.5 -41.5q-83 0 -142.5 48.5t-59.5 153.5v136q0 105 59.5 153.5t142.5 48.5t142.5 -48.5t59.5 -153.5v-87h-329v-50q0 -61 36.5 -95t90.5 -34zM390 310v19q0 61 -36.5 95t-90.5 34t-90.5 -34t-36.5 -95v-19h254z
M301 -50v-97h-75v97h75z" />
    <glyph glyph-name="uni1ECA" unicode="&#x1eca;" horiz-adv-x="237" 
d="M80 0v700h77v-700h-77zM157 -50v-97h-77v97h77z" />
    <glyph glyph-name="uni1ECB" unicode="&#x1ecb;" horiz-adv-x="225" 
d="M150 700v-97h-75v97h75zM150 516v-516h-75v516h75zM150 -50v-97h-75v97h75z" />
    <glyph glyph-name="uni1ECC" unicode="&#x1ecc;" horiz-adv-x="570" 
d="M434 227v246q0 77 -42 119t-107 42t-107 -42t-42 -119v-246q0 -77 42 -119t107 -42t107 42t42 119zM511 473v-246q0 -109 -62 -173t-164 -64t-164 64t-62 173v246q0 109 62 173t164 64t164 -64t62 -173zM324 -50v-97h-77v97h77z" />
    <glyph glyph-name="uni1ECD" unicode="&#x1ecd;" horiz-adv-x="526" 
d="M390 191v138q0 61 -36.5 95t-90.5 34t-90.5 -34t-36.5 -95v-138q0 -61 36.5 -95t90.5 -34t90.5 34t36.5 95zM465 328v-136q0 -105 -59.5 -153.5t-142.5 -48.5t-142.5 48.5t-59.5 153.5v136q0 105 59.5 153.5t142.5 48.5t142.5 -48.5t59.5 -153.5zM301 -50v-97h-75v97h75z
" />
    <glyph glyph-name="uni1EE4" unicode="&#x1ee4;" horiz-adv-x="594" 
d="M71 227v473h77v-473q0 -77 42 -119t107 -42t107 42t42 119v473h77v-473q0 -109 -62 -173t-164 -64t-164 64t-62 173zM336 -50v-97h-77v97h77z" />
    <glyph glyph-name="uni1EE5" unicode="&#x1ee5;" horiz-adv-x="541" 
d="M267 -10q-35 0 -67.5 10t-63.5 31.5t-49.5 62.5t-18.5 95v327h75v-322q0 -65 36.5 -98.5t87.5 -33.5t87.5 34.5t36.5 94.5v325h75v-516h-75v53q-19 -29 -54 -46t-70 -17zM305 -50v-97h-75v97h75z" />
    <glyph glyph-name="Ygrave" unicode="&#x1ef2;" horiz-adv-x="545" 
d="M311 278v-278h-77v279l-231 421h84l186 -339l185 339h84zM137 854h110l92 -109h-74z" />
    <glyph glyph-name="ygrave" unicode="&#x1ef3;" horiz-adv-x="468" 
d="M462 516l-234 -647q-10 -29 -36.5 -40.5t-77.5 -12.5h-29v72h38q22 0 31 7t14 23l27 74l-189 524h80l148 -419l148 419h80zM110 700h108l77 -129h-67z" />
    <glyph glyph-name="endash" unicode="&#x2013;" horiz-adv-x="514" 
d="M459 248h-404v65h404v-65z" />
    <glyph glyph-name="emdash" unicode="&#x2014;" horiz-adv-x="813" 
d="M758 248h-703v65h703v-65z" />
    <glyph glyph-name="quoteleft" unicode="&#x2018;" horiz-adv-x="241" 
d="M173 606v-105h-105v105l35 94h64l-35 -94h41z" />
    <glyph glyph-name="quoteright" unicode="&#x2019;" horiz-adv-x="241" 
d="M68 595v105h105v-105l-35 -94h-64l35 94h-41z" />
    <glyph glyph-name="quotesinglbase" unicode="&#x201a;" horiz-adv-x="241" 
d="M68 0v105h105v-105l-35 -94h-64l35 94h-41z" />
    <glyph glyph-name="quotedblleft" unicode="&#x201c;" horiz-adv-x="424" 
d="M173 606v-105h-105v105l35 94h64l-35 -94h41zM356 606v-105h-105v105l35 94h64l-35 -94h41z" />
    <glyph glyph-name="quotedblright" unicode="&#x201d;" horiz-adv-x="424" 
d="M68 595v105h105v-105l-35 -94h-64l35 94h-41zM251 595v105h105v-105l-35 -94h-64l35 94h-41z" />
    <glyph glyph-name="quotedblbase" unicode="&#x201e;" horiz-adv-x="424" 
d="M68 0v105h105v-105l-35 -94h-64l35 94h-41zM251 0v105h105v-105l-35 -94h-64l35 94h-41z" />
    <glyph glyph-name="dagger" unicode="&#x2020;" horiz-adv-x="583" 
d="M493 451h-169v-538h-65v538h-169v65h169v184h65v-184h169v-65z" />
    <glyph glyph-name="daggerdbl" unicode="&#x2021;" horiz-adv-x="583" 
d="M493 97h-169v-184h-65v184h-169v65h169v289h-169v65h169v184h65v-184h169v-65h-169v-289h169v-65z" />
    <glyph glyph-name="bullet" unicode="&#x2022;" horiz-adv-x="800" 
d="M232 348q0 70 49 119t119 49t119 -49t49 -119t-49 -119t-119 -49t-119 49t-49 119z" />
    <glyph glyph-name="ellipsis" unicode="&#x2026;" horiz-adv-x="783" 
d="M339 0v105h105v-105h-105zM600 0v105h105v-105h-105zM78 0v105h105v-105h-105z" />
    <glyph glyph-name="perthousand" unicode="&#x2030;" horiz-adv-x="1149" 
d="M194 351q62 0 62 65v162q0 65 -62 65q-61 0 -61 -65v-162q0 -65 61 -65zM194 288q-49 0 -87.5 29t-38.5 97v166q0 68 38.5 97t87.5 29t88 -29t39 -97v-166q0 -68 -39 -97t-88 -29zM625 700h71l-481 -700h-71zM645 57q62 0 62 65v162q0 65 -62 65q-61 0 -61 -65v-162
q0 -65 61 -65zM645 -6q-49 0 -87.5 29t-38.5 97v166q0 68 38.5 97t87.5 29t88 -29t39 -97v-166q0 -68 -39 -97t-88 -29zM954 57q62 0 62 65v162q0 65 -62 65q-61 0 -61 -65v-162q0 -65 61 -65zM954 -6q-49 0 -87.5 29t-38.5 97v166q0 68 38.5 97t87.5 29t88 -29t39 -97v-166
q0 -68 -39 -97t-88 -29z" />
    <glyph glyph-name="guilsinglleft" unicode="&#x2039;" horiz-adv-x="289" 
d="M224 89l-167 147v74l167 147v-87l-110 -97l110 -97v-87z" />
    <glyph glyph-name="guilsinglright" unicode="&#x203a;" horiz-adv-x="289" 
d="M232 236l-167 -147v87l110 97l-110 97v87l167 -147v-74z" />
    <glyph glyph-name="fraction" unicode="&#x2044;" horiz-adv-x="62" 
d="M236 700h71l-481 -700h-71z" />
    <glyph glyph-name="zero.superior" unicode="&#x2070;" horiz-adv-x="325" 
d="M162 458q62 0 62 65v162q0 65 -62 65q-61 0 -61 -65v-162q0 -65 61 -65zM162 395q-49 0 -87.5 29t-38.5 97v166q0 68 38.5 97t87.5 29t88 -29t39 -97v-166q0 -68 -39 -97t-88 -29z" />
    <glyph glyph-name="four.superior" unicode="&#x2074;" horiz-adv-x="309" 
d="M186 401v98h-179v63l179 245h65v-245h43v-63h-43v-98h-65zM86 562h100v138z" />
    <glyph glyph-name="five.superior" unicode="&#x2075;" horiz-adv-x="313" 
d="M167 395q-31 0 -58 9t-49.5 38t-23.5 75h65q1 -29 18.5 -44t45.5 -15q59 0 59 55v23q0 65 -62 65q-42 0 -56 -34h-65v240h232v-63h-167v-101q21 21 64 21q27 0 52 -9.5t46 -39.5t21 -77v-25q0 -60 -36 -89t-86 -29z" />
    <glyph glyph-name="six.superior" unicode="&#x2076;" horiz-adv-x="321" 
d="M162 395q-49 0 -87.5 29t-38.5 97v166q0 68 38.5 97t87.5 29q48 0 87 -28t40 -94h-65q-3 59 -62 59q-61 0 -61 -65v-45q24 19 66 19q45 0 83.5 -29t38.5 -96v-13q0 -68 -39 -97t-88 -29zM162 458q62 0 62 65v9q0 65 -62 65q-61 0 -61 -65v-9q0 -65 61 -65z" />
    <glyph glyph-name="seven.superior" unicode="&#x2077;" horiz-adv-x="271" 
d="M67 401l125 343h-183v63h250v-63l-125 -343h-67z" />
    <glyph glyph-name="eight.superior" unicode="&#x2078;" horiz-adv-x="320" 
d="M160 395q-47 0 -87 29t-40 92q0 53 42 89q-37 34 -37 89q0 62 37.5 90.5t84.5 28.5t84.5 -28.5t37.5 -90.5q0 -55 -37 -89q41 -35 41 -89q0 -63 -39.5 -92t-86.5 -29zM160 458q61 0 61 60q0 27 -17 43t-44 16q-28 0 -44.5 -15.5t-16.5 -43.5q0 -60 61 -60zM159 634
q25 0 41.5 15.5t16.5 42.5t-16.5 42.5t-41.5 15.5t-40.5 -15t-15.5 -43q0 -27 15.5 -42.5t40.5 -15.5z" />
    <glyph glyph-name="nine.superior" unicode="&#x2079;" horiz-adv-x="321" 
d="M159 395q-48 0 -87 28t-40 94h65q3 -59 62 -59q61 0 61 65v45q-24 -19 -66 -19q-44 0 -83 29t-39 96v13q0 68 39 97t88 29t87.5 -29t38.5 -97v-166q0 -68 -38.5 -97t-87.5 -29zM159 611q61 0 61 65v9q0 65 -61 65q-62 0 -62 -65v-9q0 -65 62 -65z" />
    <glyph glyph-name="plus.superior" unicode="&#x207a;" horiz-adv-x="330" 
d="M38 536v56h99v98h56v-98h98v-56h-98v-99h-56v99h-99z" />
    <glyph glyph-name="minus.superior" unicode="&#x207b;" horiz-adv-x="330" 
d="M38 536v56h253v-56h-253z" />
    <glyph glyph-name="equal.superior" unicode="&#x207c;" horiz-adv-x="330" 
d="M38 467v56h253v-56h-253zM38 598v56h253v-56h-253z" />
    <glyph glyph-name="parenleft.superior" unicode="&#x207d;" horiz-adv-x="178" 
d="M157 313h-31q-72 0 -72 72v351q0 71 72 71h31v-59h-15q-17 0 -22.5 -6t-5.5 -23v-317q0 -17 5.5 -23.5t22.5 -6.5h15v-59z" />
    <glyph glyph-name="parenright.superior" unicode="&#x207e;" horiz-adv-x="178" 
d="M21 313v59h15q17 0 22.5 6.5t5.5 23.5v317q0 17 -5.5 23t-22.5 6h-15v59h31q71 0 71 -71v-351q0 -72 -71 -72h-31z" />
    <glyph glyph-name="n.superior" unicode="&#x207f;" horiz-adv-x="333" 
d="M42 401v299h65v-25q6 12 26 22.5t43 10.5q46 0 82.5 -31t36.5 -94v-182h-65v180q0 64 -61 64q-62 0 -62 -64v-180h-65z" />
    <glyph glyph-name="zero.inferior" unicode="&#x2080;" horiz-adv-x="325" 
d="M162 -40q62 0 62 65v162q0 65 -62 65q-61 0 -61 -65v-162q0 -65 61 -65zM162 -103q-49 0 -87.5 29t-38.5 97v166q0 68 38.5 97t87.5 29t88 -29t39 -97v-166q0 -68 -39 -97t-88 -29z" />
    <glyph glyph-name="one.inferior" unicode="&#x2081;" horiz-adv-x="217" 
d="M104 -97v322l-78 -67v84l78 67h65v-406h-65z" />
    <glyph glyph-name="two.inferior" unicode="&#x2082;" horiz-adv-x="309" 
d="M27 -97v63l148 152q39 40 39 69q0 65 -61 65t-61 -64v-4h-65v5q0 68 38.5 97t87.5 29t87.5 -29t38.5 -97q0 -32 -12 -56t-43 -56l-108 -111h163v-63h-252z" />
    <glyph glyph-name="three.inferior" unicode="&#x2083;" horiz-adv-x="312" 
d="M157 -103q-51 0 -90.5 28t-40.5 94h65q1 -29 18.5 -44t45.5 -15q59 0 59 56q0 28 -17.5 44t-44.5 16h-35v59h35q29 0 45.5 15.5t16.5 40.5q0 27 -17 44t-45 17t-44 -15t-17 -44h-65q1 45 23 74t48 38.5t55 9.5q47 0 87 -30.5t40 -93.5q0 -60 -48 -85q22 -12 35 -37
t13 -53q0 -61 -36 -90t-86 -29z" />
    <glyph glyph-name="four.inferior" unicode="&#x2084;" horiz-adv-x="309" 
d="M186 -97v98h-179v63l179 245h65v-245h43v-63h-43v-98h-65zM86 64h100v138z" />
    <glyph glyph-name="five.inferior" unicode="&#x2085;" horiz-adv-x="313" 
d="M167 -103q-31 0 -58 9t-49.5 38t-23.5 75h65q1 -29 18.5 -44t45.5 -15q59 0 59 55v23q0 65 -62 65q-42 0 -56 -34h-65v240h232v-63h-167v-101q21 21 64 21q27 0 52 -9.5t46 -39.5t21 -77v-25q0 -60 -36 -89t-86 -29z" />
    <glyph glyph-name="six.inferior" unicode="&#x2086;" horiz-adv-x="321" 
d="M162 -103q-49 0 -87.5 29t-38.5 97v166q0 68 38.5 97t87.5 29q48 0 87 -28t40 -94h-65q-3 59 -62 59q-61 0 -61 -65v-45q24 19 66 19q45 0 83.5 -29t38.5 -96v-13q0 -68 -39 -97t-88 -29zM162 -40q62 0 62 65v9q0 65 -62 65q-61 0 -61 -65v-9q0 -65 61 -65z" />
    <glyph glyph-name="seven.inferior" unicode="&#x2087;" horiz-adv-x="271" 
d="M67 -97l125 343h-183v63h250v-63l-125 -343h-67z" />
    <glyph glyph-name="eight.inferior" unicode="&#x2088;" horiz-adv-x="320" 
d="M160 -103q-47 0 -87 29t-40 92q0 53 42 89q-37 34 -37 89q0 62 37.5 90.5t84.5 28.5t84.5 -28.5t37.5 -90.5q0 -55 -37 -89q41 -35 41 -89q0 -63 -39.5 -92t-86.5 -29zM160 -40q61 0 61 60q0 27 -17 43t-44 16q-28 0 -44.5 -15.5t-16.5 -43.5q0 -60 61 -60zM159 136
q25 0 41.5 15.5t16.5 42.5t-16.5 42.5t-41.5 15.5t-40.5 -15t-15.5 -43q0 -27 15.5 -42.5t40.5 -15.5z" />
    <glyph glyph-name="nine.inferior" unicode="&#x2089;" horiz-adv-x="321" 
d="M159 -103q-48 0 -87 28t-40 94h65q3 -59 62 -59q61 0 61 65v45q-24 -19 -66 -19q-44 0 -83 29t-39 96v13q0 68 39 97t88 29t87.5 -29t38.5 -97v-166q0 -68 -38.5 -97t-87.5 -29zM159 113q61 0 61 65v9q0 65 -61 65q-62 0 -62 -65v-9q0 -65 62 -65z" />
    <glyph glyph-name="parenleft.inferior" unicode="&#x208d;" horiz-adv-x="178" 
d="M157 -185h-31q-72 0 -72 72v351q0 71 72 71h31v-59h-15q-17 0 -22.5 -6t-5.5 -23v-317q0 -17 5.5 -23.5t22.5 -6.5h15v-59z" />
    <glyph glyph-name="parenright.inferior" unicode="&#x208e;" horiz-adv-x="178" 
d="M21 -185v59h15q17 0 22.5 6.5t5.5 23.5v317q0 17 -5.5 23t-22.5 6h-15v59h31q71 0 71 -71v-351q0 -72 -71 -72h-31z" />
    <glyph glyph-name="Euro" unicode="&#x20ac;" horiz-adv-x="583" 
d="M196 436h276l-13 -53h-263v-65h246l-14 -53h-232v-38q0 -78 43 -121.5t108 -43.5q77 0 119 57l61 -46q-63 -83 -180 -83q-102 0 -164 64t-62 173v38h-77l14 53h63v65h-77l13 53h64v37q0 109 62 173t164 64q117 0 180 -83l-61 -46q-42 57 -119 57q-65 0 -108 -43.5
t-43 -121.5v-37z" />
    <glyph glyph-name="afii61289" unicode="&#x2113;" horiz-adv-x="329" 
d="M76 138v59l-48 -38l-22 28l70 56v304q0 163 111 163q106 0 106 -150q0 -74 -39.5 -160t-102.5 -142v-126q0 -48 17.5 -68t52.5 -20q22 0 63 9l9 -31q-58 -32 -106 -32q-59 0 -85 35.5t-26 112.5zM151 558v-251q46 49 77 119t31 131q0 98 -56 98q-52 0 -52 -97z" />
    <glyph glyph-name="afii61352" unicode="&#x2116;" horiz-adv-x="879" 
d="M532 700v-700h-77l-298 551v-551h-77v700h77l298 -551v551h77zM845 310h-253v55h253v-55zM719 458q61 0 61 65v58q0 65 -61 65q-62 0 -62 -65v-58q0 -65 62 -65zM719 395q-49 0 -88 29t-39 97v62q0 36 12 62t32 39t40.5 18.5t42.5 5.5q49 0 87.5 -28.5t38.5 -96.5v-62
q0 -68 -38.5 -97t-87.5 -29z" />
    <glyph glyph-name="trademark" unicode="&#x2122;" horiz-adv-x="745" 
d="M122 294v342h-115v64h295v-64h-115v-342h-65zM355 294v406h65l107 -221l107 221h65v-406h-64v277l-81 -168h-53l-81 168v-277h-65z" />
    <glyph glyph-name="Omega" unicode="&#x2126;" horiz-adv-x="562" 
d="M70 0v76h85v39q-100 63 -100 204v154q0 109 62 173t164 64t164 -64t62 -173v-154q0 -141 -100 -204v-39h85v-76h-161v165q45 14 72 54t27 100v154q0 77 -42 119t-107 42t-107 -42t-42 -119v-154q0 -61 27 -100.5t72 -53.5v-165h-161z" />
    <glyph glyph-name="estimated" unicode="&#x212e;" horiz-adv-x="814" 
d="M177 290v-173q0 -15 12 -25q35 -29 78 -46q58 -22 140 -22t140 22q57 23 98 64h50q-54 -65 -131 -95q-63 -25 -157 -25t-157 25q-91 37 -148 117t-57 185t57 185t148 117q63 25 157 25t157 -25q91 -37 148 -117t57 -185v-17h-582q-10 0 -10 -10zM637 344v173q0 15 -12 25
q-35 29 -78 46q-58 22 -140 22t-140 -22q-43 -17 -78 -46q-12 -10 -12 -25v-173q0 -10 10 -10h440q10 0 10 10z" />
    <glyph glyph-name="onethird" unicode="&#x2153;" horiz-adv-x="840" 
d="M201 294v322l-78 -67v84l78 67h65v-406h-65zM625 700h71l-481 -700h-71zM650 -6q50 0 86 29t36 90q0 28 -13 53t-35 37q48 25 48 85q0 63 -40 93.5t-87 30.5q-29 0 -55 -9.5t-48 -38.5t-23 -74h65q1 29 17 44t44 15t45 -17t17 -44q0 -25 -16.5 -40.5t-45.5 -15.5h-35v-59
h35q27 0 44.5 -16t17.5 -44q0 -56 -59 -56q-28 0 -45.5 15t-18.5 44h-65q1 -66 40.5 -94t90.5 -28z" />
    <glyph glyph-name="twothirds" unicode="&#x2154;" horiz-adv-x="840" 
d="M68 294v63l148 152q39 40 39 69q0 65 -61 65t-61 -64v-4h-65v5q0 68 38.5 97t87.5 29t87.5 -29t38.5 -97q0 -32 -12 -56t-43 -56l-108 -111h163v-63h-252zM625 700h71l-481 -700h-71zM650 -6q50 0 86 29t36 90q0 28 -13 53t-35 37q48 25 48 85q0 63 -40 93.5t-87 30.5
q-29 0 -55 -9.5t-48 -38.5t-23 -74h65q1 29 17 44t44 15t45 -17t17 -44q0 -25 -16.5 -40.5t-45.5 -15.5h-35v-59h35q27 0 44.5 -16t17.5 -44q0 -56 -59 -56q-28 0 -45.5 15t-18.5 44h-65q1 -66 40.5 -94t90.5 -28z" />
    <glyph glyph-name="uni2155" unicode="&#x2155;" horiz-adv-x="840" 
d="M201 294v322l-78 -67v84l78 67h65v-406h-65zM625 700h71l-481 -700h-71zM650 -6q-31 0 -58 9t-49.5 38t-23.5 75h65q1 -29 18.5 -44t45.5 -15q59 0 59 55v23q0 65 -62 65q-42 0 -56 -34h-65v240h232v-63h-167v-101q21 21 64 21q27 0 52 -9.5t46 -39.5t21 -77v-25
q0 -60 -36 -89t-86 -29z" />
    <glyph glyph-name="uni2156" unicode="&#x2156;" horiz-adv-x="840" 
d="M68 294v63l148 152q39 40 39 69q0 65 -61 65t-61 -64v-4h-65v5q0 68 38.5 97t87.5 29t87.5 -29t38.5 -97q0 -32 -12 -56t-43 -56l-108 -111h163v-63h-252zM625 700h71l-481 -700h-71zM650 -6q-31 0 -58 9t-49.5 38t-23.5 75h65q1 -29 18.5 -44t45.5 -15q59 0 59 55v23
q0 65 -62 65q-42 0 -56 -34h-65v240h232v-63h-167v-101q21 21 64 21q27 0 52 -9.5t46 -39.5t21 -77v-25q0 -60 -36 -89t-86 -29z" />
    <glyph glyph-name="uni2157" unicode="&#x2157;" horiz-adv-x="840" 
d="M199 288q-51 0 -90.5 28t-40.5 94h65q1 -29 18.5 -44t45.5 -15q59 0 59 56q0 28 -17.5 44t-44.5 16h-35v59h35q29 0 45.5 15.5t16.5 40.5q0 27 -17 44t-45 17t-44 -15t-17 -44h-65q1 45 23 74t48 38.5t55 9.5q47 0 87 -30.5t40 -93.5q0 -60 -48 -85q22 -12 35 -37t13 -53
q0 -61 -36 -90t-86 -29zM625 700h71l-481 -700h-71zM650 -6q-31 0 -58 9t-49.5 38t-23.5 75h65q1 -29 18.5 -44t45.5 -15q59 0 59 55v23q0 65 -62 65q-42 0 -56 -34h-65v240h232v-63h-167v-101q21 21 64 21q27 0 52 -9.5t46 -39.5t21 -77v-25q0 -60 -36 -89t-86 -29z" />
    <glyph glyph-name="uni2158" unicode="&#x2158;" horiz-adv-x="840" 
d="M230 294v98h-179v63l179 245h65v-245h43v-63h-43v-98h-65zM130 455h100v138zM625 700h71l-481 -700h-71zM650 -6q-31 0 -58 9t-49.5 38t-23.5 75h65q1 -29 18.5 -44t45.5 -15q59 0 59 55v23q0 65 -62 65q-42 0 -56 -34h-65v240h232v-63h-167v-101q21 21 64 21
q27 0 52 -9.5t46 -39.5t21 -77v-25q0 -60 -36 -89t-86 -29z" />
    <glyph glyph-name="uni2159" unicode="&#x2159;" horiz-adv-x="840" 
d="M201 294v322l-78 -67v84l78 67h65v-406h-65zM625 700h71l-481 -700h-71zM645 -6q-49 0 -87.5 29t-38.5 97v166q0 68 38.5 97t87.5 29q48 0 87 -28t40 -94h-65q-3 59 -62 59q-61 0 -61 -65v-45q24 19 66 19q45 0 83.5 -29t38.5 -96v-13q0 -68 -39 -97t-88 -29zM645 57
q62 0 62 65v9q0 65 -62 65q-61 0 -61 -65v-9q0 -65 61 -65z" />
    <glyph glyph-name="uni215A" unicode="&#x215a;" horiz-adv-x="840" 
d="M199 288q-31 0 -58 9t-49.5 38t-23.5 75h65q1 -29 18.5 -44t45.5 -15q59 0 59 55v23q0 65 -62 65q-42 0 -56 -34h-65v240h232v-63h-167v-101q21 21 64 21q27 0 52 -9.5t46 -39.5t21 -77v-25q0 -60 -36 -89t-86 -29zM625 700h71l-481 -700h-71zM645 -6q-49 0 -87.5 29
t-38.5 97v166q0 68 38.5 97t87.5 29q48 0 87 -28t40 -94h-65q-3 59 -62 59q-61 0 -61 -65v-45q24 19 66 19q45 0 83.5 -29t38.5 -96v-13q0 -68 -39 -97t-88 -29zM645 57q62 0 62 65v9q0 65 -62 65q-61 0 -61 -65v-9q0 -65 61 -65z" />
    <glyph glyph-name="oneeighth" unicode="&#x215b;" horiz-adv-x="840" 
d="M201 294v322l-78 -67v84l78 67h65v-406h-65zM625 700h71l-481 -700h-71zM646 -6q47 0 86.5 29t39.5 92q0 54 -41 89q37 34 37 89q0 62 -37.5 90.5t-84.5 28.5t-84.5 -28.5t-37.5 -90.5q0 -55 37 -89q-42 -36 -42 -89q0 -63 40 -92t87 -29zM646 57q-61 0 -61 60
q0 28 16.5 43.5t44.5 15.5q27 0 44 -16t17 -43q0 -60 -61 -60zM645 233q-25 0 -40.5 15.5t-15.5 42.5q0 28 15.5 43t40.5 15t41.5 -15.5t16.5 -42.5t-16.5 -42.5t-41.5 -15.5z" />
    <glyph glyph-name="threeeighths" unicode="&#x215c;" horiz-adv-x="840" 
d="M199 288q-51 0 -90.5 28t-40.5 94h65q1 -29 18.5 -44t45.5 -15q59 0 59 56q0 28 -17.5 44t-44.5 16h-35v59h35q29 0 45.5 15.5t16.5 40.5q0 27 -17 44t-45 17t-44 -15t-17 -44h-65q1 45 23 74t48 38.5t55 9.5q47 0 87 -30.5t40 -93.5q0 -60 -48 -85q22 -12 35 -37t13 -53
q0 -61 -36 -90t-86 -29zM625 700h71l-481 -700h-71zM646 -6q-47 0 -87 29t-40 92q0 53 42 89q-37 34 -37 89q0 62 37.5 90.5t84.5 28.5t84.5 -28.5t37.5 -90.5q0 -55 -37 -89q41 -35 41 -89q0 -63 -39.5 -92t-86.5 -29zM646 57q61 0 61 60q0 27 -17 43t-44 16
q-28 0 -44.5 -15.5t-16.5 -43.5q0 -60 61 -60zM645 233q25 0 41.5 15.5t16.5 42.5t-16.5 42.5t-41.5 15.5t-40.5 -15t-15.5 -43q0 -27 15.5 -42.5t40.5 -15.5z" />
    <glyph glyph-name="fiveeighths" unicode="&#x215d;" horiz-adv-x="840" 
d="M199 288q-31 0 -58 9t-49.5 38t-23.5 75h65q1 -29 18.5 -44t45.5 -15q59 0 59 55v23q0 65 -62 65q-42 0 -56 -34h-65v240h232v-63h-167v-101q21 21 64 21q27 0 52 -9.5t46 -39.5t21 -77v-25q0 -60 -36 -89t-86 -29zM625 700h71l-481 -700h-71zM646 -6q47 0 86.5 29
t39.5 92q0 54 -41 89q37 34 37 89q0 62 -37.5 90.5t-84.5 28.5t-84.5 -28.5t-37.5 -90.5q0 -55 37 -89q-42 -36 -42 -89q0 -63 40 -92t87 -29zM646 57q-61 0 -61 60q0 28 16.5 43.5t44.5 15.5q27 0 44 -16t17 -43q0 -60 -61 -60zM645 233q-25 0 -40.5 15.5t-15.5 42.5
q0 28 15.5 43t40.5 15t41.5 -15.5t16.5 -42.5t-16.5 -42.5t-41.5 -15.5z" />
    <glyph glyph-name="seveneighths" unicode="&#x215e;" horiz-adv-x="840" 
d="M127 294l125 343h-183v63h250v-63l-125 -343h-67zM625 700h71l-481 -700h-71zM646 -6q47 0 86.5 29t39.5 92q0 54 -41 89q37 34 37 89q0 62 -37.5 90.5t-84.5 28.5t-84.5 -28.5t-37.5 -90.5q0 -55 37 -89q-42 -36 -42 -89q0 -63 40 -92t87 -29zM646 57q-61 0 -61 60
q0 28 16.5 43.5t44.5 15.5q27 0 44 -16t17 -43q0 -60 -61 -60zM645 233q-25 0 -40.5 15.5t-15.5 42.5q0 28 15.5 43t40.5 15t41.5 -15.5t16.5 -42.5t-16.5 -42.5t-41.5 -15.5z" />
    <glyph glyph-name="uni215F" unicode="&#x215f;" horiz-adv-x="451" 
d="M201 294v322l-78 -67v84l78 67h65v-406h-65zM625 700h71l-481 -700h-71z" />
    <glyph glyph-name="uni2190" unicode="&#x2190;" horiz-adv-x="800" 
d="M167 243l208 -208l-45 -45l-285 285l285 285l45 -45l-208 -208h588v-64h-588z" />
    <glyph glyph-name="uni2191" unicode="&#x2191;" horiz-adv-x="800" 
d="M368 588l-208 -208l-45 45l285 285l285 -285l-45 -45l-208 208v-588h-64v588z" />
    <glyph glyph-name="uni2192" unicode="&#x2192;" horiz-adv-x="800" 
d="M425 35l208 208h-588v64h588l-208 208l45 45l285 -285l-285 -285z" />
    <glyph glyph-name="uni2193" unicode="&#x2193;" horiz-adv-x="800" 
d="M160 320l208 -208v588h64v-588l208 208l45 -45l-285 -285l-285 285z" />
    <glyph glyph-name="uni2196" unicode="&#x2196;" horiz-adv-x="800" 
d="M195 463v-294h-64v403h403v-63h-294l470 -469l-45 -45z" />
    <glyph glyph-name="uni2197" unicode="&#x2197;" horiz-adv-x="800" 
d="M605 169v294l-470 -468l-45 45l470 469h-294v63h403v-403h-64z" />
    <glyph glyph-name="uni2198" unicode="&#x2198;" horiz-adv-x="800" 
d="M605 109v294h64v-403h-403v63h294l-470 469l45 45z" />
    <glyph glyph-name="uni2199" unicode="&#x2199;" horiz-adv-x="800" 
d="M195 403v-294l470 468l45 -45l-470 -469h294v-63h-403v403h64z" />
    <glyph glyph-name="partialdiff" unicode="&#x2202;" horiz-adv-x="566" 
d="M385 200q9 43 9 57q0 51 -31 84t-81 33q-136 0 -164 -147q-8 -40 -8 -57q0 -51 31 -84t81 -33q132 0 163 147zM504 474l-53 -274q-41 -210 -235 -210q-79 0 -125 51t-46 128q0 25 7 58q45 210 236 210q42 0 78 -18.5t52 -47.5l24 128q3 16 3 31q0 51 -31 84t-81 33
q-135 0 -162 -147h-66q39 210 234 210q79 0 125 -51t46 -128q0 -29 -6 -57z" />
    <glyph glyph-name="Delta" unicode="&#x2206;" horiz-adv-x="566" 
d="M552 0h-538l225 700h88zM449 76l-166 517l-167 -517h333z" />
    <glyph glyph-name="product" unicode="&#x220f;" horiz-adv-x="612" 
d="M80 0v700h452v-700h-77v624h-298v-624h-77z" />
    <glyph glyph-name="summation" unicode="&#x2211;" horiz-adv-x="702" 
d="M391 258l-306 378v64h522v-64h-435l306 -378l-306 -378h435v-64h-522v64z" />
    <glyph glyph-name="minus" unicode="&#x2212;" 
d="M481 248h-404v65h404v-65z" />
    <glyph glyph-name="radical" unicode="&#x221a;" horiz-adv-x="502" 
d="M457 700l-209 -700h-64l-71 236h-68v64h116l55 -184l175 584h66z" />
    <glyph glyph-name="infinity" unicode="&#x221e;" 
d="M56 336q0 53 36.5 89.5t88.5 36.5q61 0 98 -47q37 47 98 47q53 0 89.5 -37t36.5 -89t-36.5 -88.5t-89.5 -36.5q-60 0 -98 46q-36 -46 -98 -46q-53 0 -89 36.5t-36 88.5zM317 336q0 -26 17 -43.5t43 -17.5t43.5 17.5t17.5 43.5t-17.5 44t-43.5 18t-43 -18t-17 -44z
M121 336q0 -26 17 -43.5t43 -17.5t43.5 17.5t17.5 43.5t-17.5 44t-43.5 18t-43 -18t-17 -44z" />
    <glyph glyph-name="integral" unicode="&#x222b;" horiz-adv-x="301" 
d="M183 585v-646q0 -68 -26.5 -95.5t-96.5 -27.5v64h6q30 0 41 12t11 39v646q0 68 26.5 95.5t96.5 27.5v-64h-6q-30 0 -41 -12t-11 -39z" />
    <glyph glyph-name="approxequal" unicode="&#x2248;" 
d="M119 117l-42 46q58 65 132 65q37 0 80.5 -23t65.5 -23q34 0 84 46l42 -46q-58 -65 -132 -65q-37 0 -80.5 23t-65.5 23q-34 0 -84 -46zM119 322l-42 46q58 65 132 65q37 0 80.5 -23t65.5 -23q34 0 84 46l42 -46q-58 -65 -132 -65q-37 0 -80.5 23t-65.5 23q-34 0 -84 -46z
" />
    <glyph glyph-name="notequal" unicode="&#x2260;" 
d="M481 140h-280l-77 -86l-47 42l39 44h-39v65h97l126 140h-223v65h281l76 85l47 -42l-39 -43h39v-65h-97l-125 -140h222v-65z" />
    <glyph glyph-name="lessequal" unicode="&#x2264;" 
d="M160 326l321 -127v-70l-404 160v74l404 160v-70zM481 0h-404v65h404v-65z" />
    <glyph glyph-name="greaterequal" unicode="&#x2265;" 
d="M77 199l321 127l-321 127v70l404 -160v-74l-404 -160v70zM481 0h-404v65h404v-65z" />
    <glyph glyph-name="uni25A0" unicode="&#x25a0;" horiz-adv-x="800" 
d="M142 0v516h516v-516h-516z" />
    <glyph glyph-name="uni25A1" unicode="&#x25a1;" horiz-adv-x="800" 
d="M142 0v516h516v-516h-516zM206 452v-388h388v388h-388z" />
    <glyph glyph-name="lozenge" unicode="&#x25ca;" 
d="M513 350l-203 -350h-62l-203 350l203 350h62zM121 350l158 -272l158 272l-158 272z" />
    <glyph glyph-name="uni25CB" unicode="&#x25cb;" horiz-adv-x="800" 
d="M130 260q0 112 79 191t191 79t191 -79t79 -191t-79 -191t-191 -79t-191 79t-79 191zM194 260q0 -86 60 -146t146 -60t146 60t60 146t-60 146t-146 60t-146 -60t-60 -146z" />
    <glyph glyph-name="uni25CF" unicode="&#x25cf;" horiz-adv-x="800" 
d="M130 260q0 112 79 191t191 79t191 -79t79 -191t-79 -191t-191 -79t-191 79t-79 191z" />
    <glyph glyph-name="apple" horiz-adv-x="629" 
d="M165 26q-27 6 -38 24.5t-11 53.5v256q-27 0 -37 24q-24 10 -24 37q0 17 11 28q-36 18 -36 59t36 59q-11 11 -11 28q0 15 9 26.5t23 13.5q6 21 23.5 34.5t39.5 13.5q24 0 44 -17q7 19 23.5 31.5t37.5 12.5q34 0 55 -31q14 7 29 7q41 0 59 -37q12 12 28 12q27 0 37 -24
q22 -5 36.5 -23.5t14.5 -40.5q0 -38 -34 -57v-38h4q46 0 63 -18t17 -62v-215q0 -44 -17 -62t-63 -18h-4q0 -35 -11 -53t-38 -24v-26h-266v26zM431 104v406q-17 4 -29 17h-83q-19 -19 -46 -19q-34 0 -53 27q-8 -3 -16 -3q-18 0 -29 11q-6 -10 -10 -15v-424q0 -19 7 -26.5
t25 -7.5h202q18 0 25 7.5t7 26.5zM95 462v-19q-9 0 -15 -6.5t-6 -15.5t6 -15t15 -6q0 -9 6 -15t15 -6v147q19 0 32 12t15 30v4h19q0 -21 22 -21q9 0 15 6t6 15h19q0 -13 -9 -26q13 -19 38 -19q20 0 33.5 13.5t13.5 32.5h82q0 -19 13 -32.5t33 -13.5t33.5 13.5t13.5 32.5
t-13.5 33t-33.5 14q0 9 -6.5 15.5t-15.5 6.5t-15 -6t-6 -16h-19q0 20 -14 33.5t-33 13.5q-32 0 -43 -30q28 -9 28 -38h-19q0 9 -6.5 15t-15.5 6t-15 -6t-6 -15h-19q0 15 9.5 26t23.5 13q6 19 19 30q-13 23 -40 23q-19 0 -32 -13t-14 -32q7 -16 7 -29h-19q0 19 -13.5 33
t-33.5 14q-33 0 -43 -30q29 -9 29 -39h-19q0 9 -6.5 15.5t-15.5 6.5t-15 -6.5t-6 -15.5q0 -19 17 -21h4v-19h-4q-18 -2 -30 -15t-12 -32t12 -32t30 -14h4zM515 183v215q0 19 -7 26.5t-24 7.5h-4v-283h4q17 0 24 7.5t7 26.5zM206 103v375h15v-375h-15zM374 103v375h15v-375
h-15zM318 103v375h15v-375h-15zM262 103v375h15v-375h-15z" />
    <glyph glyph-name="horn" horiz-adv-x="196" 
d="M40 387v61q15 1 25 10.5t10 22.5q0 11 -7 21l68 28q15 -30 15 -55q0 -38 -30.5 -62t-80.5 -26z" />
    <glyph glyph-name="commaaccent" horiz-adv-x="265" 
d="M85 -145v95h95v-95l-25 -84h-64l25 84h-31z" />
    <glyph glyph-name="circumflex.case" horiz-adv-x="432" 
d="M275 745l-59 51l-59 -51h-99l125 109h66l125 -109h-99z" />
    <glyph glyph-name="tilde.case" horiz-adv-x="440" 
d="M164 852q30 0 55 -14l30 -16q16 -8 26 -8q29 0 39 36h65q-9 -45 -37.5 -73.5t-65.5 -28.5q-30 0 -55 14l-30 16q-16 8 -26 8q-29 0 -39 -36h-65q9 45 37.5 73.5t65.5 28.5z" />
    <glyph glyph-name="macron.case" horiz-adv-x="426" 
d="M64 766v67h298v-67h-298z" />
    <glyph glyph-name="breve.case" horiz-adv-x="394" 
d="M236 808q20 0 33 13t13 33h63q0 -45 -32 -77t-77 -32h-78q-45 0 -77 32t-32 77h63q0 -20 13 -33t33 -13h78z" />
    <glyph glyph-name="dotaccent.case" horiz-adv-x="185" 
d="M131 848v-97h-77v97h77z" />
    <glyph glyph-name="ring.case" horiz-adv-x="245" 
d="M48 799q0 31 21.5 53t52.5 22t53 -22t22 -53t-22 -52.5t-53 -21.5t-52.5 21.5t-21.5 52.5zM96 799q0 -11 8 -18.5t18 -7.5t18 7.5t8 18.5t-8 18.5t-18 7.5t-18 -7.5t-8 -18.5z" />
    <glyph glyph-name="cedilla.case" horiz-adv-x="270" 
d="M55 -158l66 158h72l-38 -158h-100z" />
    <glyph glyph-name="hungarumlaut.case" horiz-adv-x="474" 
d="M148 854h105l-118 -109h-69zM316 854h105l-118 -109h-69z" />
    <glyph glyph-name="ogonek.case" horiz-adv-x="244" 
d="M204 0q-26 -19 -40.5 -31t-28 -30.5t-13.5 -35.5q0 -29 30 -29q24 0 52 17v-62q-27 -18 -63 -18q-45 0 -70.5 22t-25.5 64q0 63 82 103h77z" />
    <glyph glyph-name="caron.case" horiz-adv-x="432" 
d="M216 803l59 51h99l-125 -109h-66l-125 109h99z" />
    <glyph glyph-name="grave.case" horiz-adv-x="321" 
d="M53 854h110l92 -109h-74z" />
    <glyph glyph-name="acute.case" horiz-adv-x="321" 
d="M158 854h110l-128 -109h-74z" />
    <glyph glyph-name="dieresis.case" horiz-adv-x="408" 
d="M341 848v-97h-77v97h77zM144 848v-97h-77v97h77z" />
    <glyph glyph-name="a.alt" horiz-adv-x="540" 
d="M263 -10q-83 0 -142.5 48.5t-59.5 153.5v136q0 105 59.5 153.5t142.5 48.5q37 0 72.5 -16.5t54.5 -46.5v49h75v-516h-75v53q-19 -30 -54.5 -46.5t-72.5 -16.5zM136 329v-138q0 -61 36.5 -95t90.5 -34t90.5 34t36.5 95v138q0 61 -36.5 95t-90.5 34t-90.5 -34t-36.5 -95z
" />
    <glyph glyph-name="aacute.alt" horiz-adv-x="540" 
d="M263 -10q37 0 72.5 16.5t54.5 46.5v-53h75v516h-75v-49q-19 30 -54.5 46.5t-72.5 16.5q-83 0 -142.5 -48.5t-59.5 -153.5v-136q0 -105 59.5 -153.5t142.5 -48.5zM136 191v138q0 61 36.5 95t90.5 34t90.5 -34t36.5 -95v-138q0 -61 -36.5 -95t-90.5 -34t-90.5 34t-36.5 95z
M279 700h108l-118 -129h-67z" />
    <glyph glyph-name="abreve.alt" horiz-adv-x="540" 
d="M263 -10q37 0 72.5 16.5t54.5 46.5v-53h75v516h-75v-49q-19 30 -54.5 46.5t-72.5 16.5q-83 0 -142.5 -48.5t-59.5 -153.5v-136q0 -105 59.5 -153.5t142.5 -48.5zM136 191v138q0 61 36.5 95t90.5 34t90.5 -34t36.5 -95v-138q0 -61 -36.5 -95t-90.5 -34t-90.5 34t-36.5 95z
M254 571q-53 0 -91 38t-38 91h61q0 -28 20 -48t48 -20h38q28 0 48 20t20 48h61q0 -53 -38 -91t-91 -38h-38z" />
    <glyph glyph-name="acircumflex.alt" horiz-adv-x="540" 
d="M263 -10q37 0 72.5 16.5t54.5 46.5v-53h75v516h-75v-49q-19 30 -54.5 46.5t-72.5 16.5q-83 0 -142.5 -48.5t-59.5 -153.5v-136q0 -105 59.5 -153.5t142.5 -48.5zM136 191v138q0 61 36.5 95t90.5 34t90.5 -34t36.5 -95v-138q0 -61 -36.5 -95t-90.5 -34t-90.5 34t-36.5 95z
M296 700l125 -129h-89l-69 71l-69 -71h-89l125 129h66z" />
    <glyph glyph-name="adieresis.alt" horiz-adv-x="540" 
d="M263 -10q37 0 72.5 16.5t54.5 46.5v-53h75v516h-75v-49q-19 30 -54.5 46.5t-72.5 16.5q-83 0 -142.5 -48.5t-59.5 -153.5v-136q0 -105 59.5 -153.5t142.5 -48.5zM136 191v138q0 61 36.5 95t90.5 34t90.5 -34t36.5 -95v-138q0 -61 -36.5 -95t-90.5 -34t-90.5 34t-36.5 95z
M201 684v-97h-75v97h75zM400 684v-97h-75v97h75z" />
    <glyph glyph-name="agrave.alt" horiz-adv-x="540" 
d="M263 -10q-83 0 -142.5 48.5t-59.5 153.5v136q0 105 59.5 153.5t142.5 48.5q37 0 72.5 -16.5t54.5 -46.5v49h75v-516h-75v53q-19 -30 -54.5 -46.5t-72.5 -16.5zM136 329v-138q0 -61 36.5 -95t90.5 -34t90.5 34t36.5 95v138q0 61 -36.5 95t-90.5 34t-90.5 -34t-36.5 -95z
M139 700h108l77 -129h-67z" />
    <glyph glyph-name="amacron.alt" horiz-adv-x="540" 
d="M263 -10q37 0 72.5 16.5t54.5 46.5v-53h75v516h-75v-49q-19 30 -54.5 46.5t-72.5 16.5q-83 0 -142.5 -48.5t-59.5 -153.5v-136q0 -105 59.5 -153.5t142.5 -48.5zM136 191v138q0 61 36.5 95t90.5 34t90.5 -34t36.5 -95v-138q0 -61 -36.5 -95t-90.5 -34t-90.5 34t-36.5 95z
M114 603v65h298v-65h-298z" />
    <glyph glyph-name="aogonek.alt" horiz-adv-x="540" 
d="M465 516v-516h-75v53q-19 -30 -54.5 -46.5t-72.5 -16.5q-83 0 -142.5 48.5t-59.5 153.5v136q0 105 59.5 153.5t142.5 48.5q37 0 72.5 -16.5t54.5 -46.5v49h75zM136 329v-138q0 -61 36.5 -95t90.5 -34t90.5 34t36.5 95v138q0 61 -36.5 95t-90.5 34t-90.5 -34t-36.5 -95z
M465 0q-26 -19 -40.5 -31t-28 -30.5t-13.5 -35.5q0 -31 30 -31q24 0 52 17v-60q-27 -18 -63 -18q-45 0 -69.5 21.5t-24.5 64.5q0 63 82 103h75z" />
    <glyph glyph-name="aring.alt" horiz-adv-x="540" 
d="M263 -10q37 0 72.5 16.5t54.5 46.5v-53h75v516h-75v-49q-19 30 -54.5 46.5t-72.5 16.5q-83 0 -142.5 -48.5t-59.5 -153.5v-136q0 -105 59.5 -153.5t142.5 -48.5zM136 191v138q0 61 36.5 95t90.5 34t90.5 -34t36.5 -95v-138q0 -61 -36.5 -95t-90.5 -34t-90.5 34t-36.5 95z
M235 635q0 -11 8.5 -19.5t19.5 -8.5t19.5 8.5t8.5 19.5t-8.5 19.5t-19.5 8.5t-19.5 -8.5t-8.5 -19.5zM189 635q0 31 21.5 53t52.5 22t53 -22t22 -53t-22 -52.5t-53 -21.5t-52.5 21.5t-21.5 52.5z" />
    <glyph glyph-name="aringacute.alt" horiz-adv-x="540" 
d="M263 -10q37 0 72.5 16.5t54.5 46.5v-53h75v516h-75v-49q-19 30 -54.5 46.5t-72.5 16.5q-83 0 -142.5 -48.5t-59.5 -153.5v-136q0 -105 59.5 -153.5t142.5 -48.5zM136 191v138q0 61 36.5 95t90.5 34t90.5 -34t36.5 -95v-138q0 -61 -36.5 -95t-90.5 -34t-90.5 34t-36.5 95z
M235 635q0 -11 8.5 -19.5t19.5 -8.5t19.5 8.5t8.5 19.5t-8.5 19.5t-19.5 8.5t-19.5 -8.5t-8.5 -19.5zM189 635q0 31 21.5 53t52.5 22t53 -22t22 -53t-22 -52.5t-53 -21.5t-52.5 21.5t-21.5 52.5zM275 854h108l-118 -129h-67z" />
    <glyph glyph-name="atilde.alt" horiz-adv-x="540" 
d="M263 -10q37 0 72.5 16.5t54.5 46.5v-53h75v516h-75v-49q-19 30 -54.5 46.5t-72.5 16.5q-83 0 -142.5 -48.5t-59.5 -153.5v-136q0 -105 59.5 -153.5t142.5 -48.5zM136 191v138q0 61 36.5 95t90.5 34t90.5 -34t36.5 -95v-138q0 -61 -36.5 -95t-90.5 -34t-90.5 34t-36.5 95z
M162 586h-58q9 45 37.5 73.5t65.5 28.5q30 0 55 -14l30 -17q14 -9 31 -9q13 0 25 11t16 27h58q-9 -45 -37.5 -73.5t-65.5 -28.5q-30 0 -55 14l-30 17q-14 9 -31 9q-13 0 -25 -11t-16 -27z" />
    <glyph glyph-name="uni0227.alt" horiz-adv-x="540" 
d="M263 -10q37 0 72.5 16.5t54.5 46.5v-53h75v516h-75v-49q-19 30 -54.5 46.5t-72.5 16.5q-83 0 -142.5 -48.5t-59.5 -153.5v-136q0 -105 59.5 -153.5t142.5 -48.5zM136 191v138q0 61 36.5 95t90.5 34t90.5 -34t36.5 -95v-138q0 -61 -36.5 -95t-90.5 -34t-90.5 34t-36.5 95z
M301 684v-97h-75v97h75z" />
    <glyph glyph-name="uni1EA1.alt" horiz-adv-x="540" 
d="M263 -10q-83 0 -142.5 48.5t-59.5 153.5v136q0 105 59.5 153.5t142.5 48.5q37 0 72.5 -16.5t54.5 -46.5v49h75v-516h-75v53q-19 -30 -54.5 -46.5t-72.5 -16.5zM136 329v-138q0 -61 36.5 -95t90.5 -34t90.5 34t36.5 95v138q0 61 -36.5 95t-90.5 34t-90.5 -34t-36.5 -95z
M301 -50v-97h-75v97h75z" />
    <glyph glyph-name="l.alt" horiz-adv-x="225" 
d="M150 700v-700h-75v700h75z" />
    <glyph glyph-name="lacute.alt" horiz-adv-x="225" 
d="M150 0v700h-75v-700h75zM128 874h108l-118 -129h-67z" />
    <glyph glyph-name="lcaron.alt" horiz-adv-x="225" 
d="M304 700l-70 -158h-54l28 158h96zM150 0v700h-75v-700h75z" />
    <glyph glyph-name="lcommaaccent.alt" horiz-adv-x="225" 
d="M150 700v-700h-75v700h75zM65 -145v95h95v-95l-25 -84h-64l25 84h-31z" />
    <glyph glyph-name="ldot.alt" horiz-adv-x="290" 
d="M150 700v-700h-75v700h75zM295 397v-97h-75v97h75z" />
    <glyph glyph-name="lslash.alt" horiz-adv-x="241" 
d="M158 365v-365h-75v323l-64 -35v60l64 35v317h75v-275l64 35v-60z" />
    <glyph glyph-name="zero.plf" horiz-adv-x="532" 
d="M393 191v318q0 61 -36.5 95t-90.5 34t-90.5 -34t-36.5 -95v-318q0 -61 36.5 -95t90.5 -34t90.5 34t36.5 95zM468 508v-316q0 -105 -59.5 -153.5t-142.5 -48.5t-142.5 48.5t-59.5 153.5v316q0 105 59.5 153.5t142.5 48.5t142.5 -48.5t59.5 -153.5z" />
    <glyph glyph-name="zeroslashed.plf" horiz-adv-x="532" 
d="M468 508v-316q0 -105 -59.5 -153.5t-142.5 -48.5t-142.5 48.5t-59.5 153.5v316q0 105 59.5 153.5t142.5 48.5t142.5 -48.5t59.5 -153.5zM393 191v249l-254 -254q1 -59 37.5 -91.5t89.5 -32.5q54 0 90.5 34t36.5 95zM139 509v-248l254 254q-2 59 -38.5 91t-88.5 32
q-54 0 -90.5 -34t-36.5 -95z" />
    <glyph glyph-name="one.plf" horiz-adv-x="341" 
d="M181 700h75v-700h-75v605l-134 -115v95z" />
    <glyph glyph-name="two.plf" horiz-adv-x="505" 
d="M48 508q0 105 59.5 153.5t142.5 48.5t142.5 -48.5t59.5 -150.5q0 -59 -25.5 -108t-76.5 -105l-205 -226h307v-72h-404v72l249 274q80 87 80 166q0 59 -37 92.5t-90 33.5q-54 0 -90.5 -34t-36.5 -95v-19h-75v18z" />
    <glyph glyph-name="three.plf" horiz-adv-x="511" 
d="M47 192v8h75v-9q0 -62 38 -95.5t94 -33.5q55 0 88.5 33t33.5 91q0 53 -33.5 91.5t-88.5 38.5h-50v72h50q53 0 87.5 33.5t34.5 92.5q0 57 -36.5 90.5t-90.5 33.5t-90.5 -34t-36.5 -95v-9h-75v8q0 105 59.5 153.5t142.5 48.5q84 0 143 -49.5t59 -146.5q0 -56 -24 -99.5
t-61 -62.5q37 -21 61 -64.5t24 -101.5q0 -98 -58 -147t-139 -49q-39 0 -74.5 10.5t-66 33t-48.5 63t-18 95.5z" />
    <glyph glyph-name="four.plf" horiz-adv-x="512" 
d="M484 189h-73v-189h-75v189h-321v70l321 441h75v-441h73v-70zM101 259h235v322z" />
    <glyph glyph-name="five.plf" horiz-adv-x="512" 
d="M148 296h-75v404h368v-72h-293v-224q46 40 118 40q83 0 142.5 -48.5t59.5 -153.5v-50q0 -105 -59.5 -153.5t-142.5 -48.5t-142.5 48.5t-59.5 153.5v8h75v-9q0 -61 36.5 -95t90.5 -34t90.5 34t36.5 95v52q0 61 -36.5 95t-90.5 34q-40 0 -72 -19.5t-46 -56.5z" />
    <glyph glyph-name="six.plf" horiz-adv-x="526" 
d="M64 508q0 105 59.5 153.5t142.5 48.5t142.5 -48.5t59.5 -153.5v-8h-75v9q0 61 -36.5 95t-90.5 34t-90.5 -34t-36.5 -95v-121q19 22 55 35.5t72 13.5q83 0 142.5 -48.5t59.5 -153.5v-43q0 -105 -59.5 -153.5t-142.5 -48.5t-142.5 48.5t-59.5 153.5v316zM139 236v-45
q0 -61 36.5 -95t90.5 -34t90.5 34t36.5 95v45q0 61 -36.5 95t-90.5 34t-90.5 -34t-36.5 -95z" />
    <glyph glyph-name="seven.plf" horiz-adv-x="440" 
d="M416 628l-221 -628h-79l221 628h-319v72h398v-72z" />
    <glyph glyph-name="eight.plf" horiz-adv-x="524" 
d="M262 317q-52 0 -89.5 -35.5t-37.5 -92.5t37.5 -92t89.5 -35t89.5 35t37.5 92t-37.5 92.5t-89.5 35.5zM262 -10q-84 0 -143 51t-59 148q0 111 82 163q-75 60 -75 161q0 97 57 147t138 50t138 -50t57 -147q0 -101 -75 -161q82 -52 82 -163q0 -97 -59 -148t-143 -51z
M262 638q-56 0 -88 -34.5t-32 -90.5q0 -60 34 -92.5t86 -32.5t86 32.5t34 92.5q0 56 -32 90.5t-88 34.5z" />
    <glyph glyph-name="nine.plf" horiz-adv-x="526" 
d="M462 508v-316q0 -105 -59.5 -153.5t-142.5 -48.5t-142.5 48.5t-59.5 153.5v8h75v-9q0 -61 36.5 -95t90.5 -34t90.5 34t36.5 95v121q-19 -22 -55 -35.5t-72 -13.5q-83 0 -142.5 48.5t-59.5 153.5v43q0 105 59.5 153.5t142.5 48.5t142.5 -48.5t59.5 -153.5zM387 464v45
q0 61 -36.5 95t-90.5 34t-90.5 -34t-36.5 -95v-45q0 -61 36.5 -95t90.5 -34t90.5 34t36.5 95z" />
    <glyph glyph-name="zero.tlf" 
d="M406 191v318q0 61 -36.5 95t-90.5 34t-90.5 -34t-36.5 -95v-318q0 -61 36.5 -95t90.5 -34t90.5 34t36.5 95zM481 508v-316q0 -105 -59.5 -153.5t-142.5 -48.5t-142.5 48.5t-59.5 153.5v316q0 105 59.5 153.5t142.5 48.5t142.5 -48.5t59.5 -153.5z" />
    <glyph glyph-name="zeroslashed.tlf" 
d="M481 508v-316q0 -105 -59.5 -153.5t-142.5 -48.5t-142.5 48.5t-59.5 153.5v316q0 105 59.5 153.5t142.5 48.5t142.5 -48.5t59.5 -153.5zM406 191v249l-254 -254q1 -59 37.5 -91.5t89.5 -32.5q54 0 90.5 34t36.5 95zM152 509v-248l254 254q-2 59 -38.5 91t-88.5 32
q-54 0 -90.5 -34t-36.5 -95z" />
    <glyph glyph-name="one.tlf" 
d="M339 72h164v-72h-404v72h165v533l-134 -115v95l134 115h75v-628z" />
    <glyph glyph-name="two.tlf" 
d="M75 508q0 105 59.5 153.5t142.5 48.5t142.5 -48.5t59.5 -150.5q0 -59 -25.5 -108t-76.5 -105l-205 -226h307v-72h-404v72l249 274q80 87 80 166q0 59 -37 92.5t-90 33.5q-54 0 -90.5 -34t-36.5 -95v-19h-75v18z" />
    <glyph glyph-name="three.tlf" 
d="M71 192v8h75v-9q0 -62 38 -95.5t94 -33.5q55 0 88.5 33t33.5 91q0 53 -33.5 91.5t-88.5 38.5h-50v72h50q53 0 87.5 33.5t34.5 92.5q0 57 -36.5 90.5t-90.5 33.5t-90.5 -34t-36.5 -95v-9h-75v8q0 105 59.5 153.5t142.5 48.5q84 0 143 -49.5t59 -146.5q0 -56 -24 -99.5
t-61 -62.5q37 -21 61 -64.5t24 -101.5q0 -98 -58 -147t-139 -49q-39 0 -74.5 10.5t-66 33t-48.5 63t-18 95.5z" />
    <glyph glyph-name="four.tlf" 
d="M502 189h-73v-189h-75v189h-321v70l321 441h75v-441h73v-70zM119 259h235v322z" />
    <glyph glyph-name="five.tlf" 
d="M175 296h-75v404h368v-72h-293v-224q46 40 118 40q83 0 142.5 -48.5t59.5 -153.5v-50q0 -105 -59.5 -153.5t-142.5 -48.5t-142.5 48.5t-59.5 153.5v8h75v-9q0 -61 36.5 -95t90.5 -34t90.5 34t36.5 95v52q0 61 -36.5 95t-90.5 34q-40 0 -72 -19.5t-46 -56.5z" />
    <glyph glyph-name="six.tlf" 
d="M80 508q0 105 59.5 153.5t142.5 48.5t142.5 -48.5t59.5 -153.5v-8h-75v9q0 61 -36.5 95t-90.5 34t-90.5 -34t-36.5 -95v-121q19 22 55 35.5t72 13.5q83 0 142.5 -48.5t59.5 -153.5v-43q0 -105 -59.5 -153.5t-142.5 -48.5t-142.5 48.5t-59.5 153.5v316zM155 236v-45
q0 -61 36.5 -95t90.5 -34t90.5 34t36.5 95v45q0 61 -36.5 95t-90.5 34t-90.5 -34t-36.5 -95z" />
    <glyph glyph-name="seven.tlf" 
d="M470 628l-221 -628h-79l221 628h-319v72h398v-72z" />
    <glyph glyph-name="eight.tlf" 
d="M279 317q-52 0 -89.5 -35.5t-37.5 -92.5t37.5 -92t89.5 -35t89.5 35t37.5 92t-37.5 92.5t-89.5 35.5zM279 -10q-84 0 -143 51t-59 148q0 111 82 163q-75 60 -75 161q0 97 57 147t138 50t138 -50t57 -147q0 -101 -75 -161q82 -52 82 -163q0 -97 -59 -148t-143 -51z
M279 638q-56 0 -88 -34.5t-32 -90.5q0 -60 34 -92.5t86 -32.5t86 32.5t34 92.5q0 56 -32 90.5t-88 34.5z" />
    <glyph glyph-name="nine.tlf" 
d="M478 508v-316q0 -105 -59.5 -153.5t-142.5 -48.5t-142.5 48.5t-59.5 153.5v8h75v-9q0 -61 36.5 -95t90.5 -34t90.5 34t36.5 95v121q-19 -22 -55 -35.5t-72 -13.5q-83 0 -142.5 48.5t-59.5 153.5v43q0 105 59.5 153.5t142.5 48.5t142.5 -48.5t59.5 -153.5zM403 464v45
q0 61 -36.5 95t-90.5 34t-90.5 -34t-36.5 -95v-45q0 -61 36.5 -95t90.5 -34t90.5 34t36.5 95z" />
    <glyph glyph-name="slashedzero" horiz-adv-x="532" 
d="M468 508v-316q0 -105 -59.5 -153.5t-142.5 -48.5t-142.5 48.5t-59.5 153.5v316q0 105 59.5 153.5t142.5 48.5t142.5 -48.5t59.5 -153.5zM393 191v249l-254 -254q1 -59 37.5 -91.5t89.5 -32.5q54 0 90.5 34t36.5 95zM139 509v-248l254 254q-2 59 -38.5 91t-88.5 32
q-54 0 -90.5 -34t-36.5 -95z" />
    <glyph glyph-name="zeroslashed.superior" horiz-adv-x="325" 
d="M162 395q-49 0 -87.5 29t-38.5 97v166q0 68 38.5 97t87.5 29t88 -29t39 -97v-166q0 -68 -39 -97t-88 -29zM162 458q62 0 62 65v115l-123 -123q3 -57 61 -57zM101 685v-113l123 122q-4 56 -62 56q-61 0 -61 -65z" />
    <glyph glyph-name="zeroslashed.inferior" horiz-adv-x="325" 
d="M162 -103q-49 0 -87.5 29t-38.5 97v166q0 68 38.5 97t87.5 29t88 -29t39 -97v-166q0 -68 -39 -97t-88 -29zM162 -40q62 0 62 65v115l-123 -123q3 -57 61 -57zM101 187v-113l123 122q-4 56 -62 56q-61 0 -61 -65z" />
    <glyph glyph-name="zero.denominator" horiz-adv-x="325" 
d="M162 57q62 0 62 65v162q0 65 -62 65q-61 0 -61 -65v-162q0 -65 61 -65zM162 -6q-49 0 -87.5 29t-38.5 97v166q0 68 38.5 97t87.5 29t88 -29t39 -97v-166q0 -68 -39 -97t-88 -29z" />
    <glyph glyph-name="zeroslashed.denominator" horiz-adv-x="325" 
d="M162 -6q-49 0 -87.5 29t-38.5 97v166q0 68 38.5 97t87.5 29t88 -29t39 -97v-166q0 -68 -39 -97t-88 -29zM162 57q62 0 62 65v115l-123 -123q3 -57 61 -57zM101 284v-113l123 122q-4 56 -62 56q-61 0 -61 -65z" />
    <glyph glyph-name="one.denominator" horiz-adv-x="217" 
d="M104 0v322l-78 -67v84l78 67h65v-406h-65z" />
    <glyph glyph-name="two.denominator" horiz-adv-x="309" 
d="M27 0v63l148 152q39 40 39 69q0 65 -61 65t-61 -64v-4h-65v5q0 68 38.5 97t87.5 29t87.5 -29t38.5 -97q0 -32 -12 -56t-43 -56l-108 -111h163v-63h-252z" />
    <glyph glyph-name="three.denominator" horiz-adv-x="312" 
d="M157 -6q-51 0 -90.5 28t-40.5 94h65q1 -29 18.5 -44t45.5 -15q59 0 59 56q0 28 -17.5 44t-44.5 16h-35v59h35q29 0 45.5 15.5t16.5 40.5q0 27 -17 44t-45 17t-44 -15t-17 -44h-65q1 45 23 74t48 38.5t55 9.5q47 0 87 -30.5t40 -93.5q0 -60 -48 -85q22 -12 35 -37t13 -53
q0 -61 -36 -90t-86 -29z" />
    <glyph glyph-name="four.denominator" horiz-adv-x="309" 
d="M186 0v98h-179v63l179 245h65v-245h43v-63h-43v-98h-65zM86 161h100v138z" />
    <glyph glyph-name="five.denominator" horiz-adv-x="313" 
d="M167 -6q-31 0 -58 9t-49.5 38t-23.5 75h65q1 -29 18.5 -44t45.5 -15q59 0 59 55v23q0 65 -62 65q-42 0 -56 -34h-65v240h232v-63h-167v-101q21 21 64 21q27 0 52 -9.5t46 -39.5t21 -77v-25q0 -60 -36 -89t-86 -29z" />
    <glyph glyph-name="six.denominator" horiz-adv-x="321" 
d="M162 -6q-49 0 -87.5 29t-38.5 97v166q0 68 38.5 97t87.5 29q48 0 87 -28t40 -94h-65q-3 59 -62 59q-61 0 -61 -65v-45q24 19 66 19q45 0 83.5 -29t38.5 -96v-13q0 -68 -39 -97t-88 -29zM162 57q62 0 62 65v9q0 65 -62 65q-61 0 -61 -65v-9q0 -65 61 -65z" />
    <glyph glyph-name="seven.denominator" horiz-adv-x="271" 
d="M67 0l125 343h-183v63h250v-63l-125 -343h-67z" />
    <glyph glyph-name="eight.denominator" horiz-adv-x="320" 
d="M160 -6q-47 0 -87 29t-40 92q0 53 42 89q-37 34 -37 89q0 62 37.5 90.5t84.5 28.5t84.5 -28.5t37.5 -90.5q0 -55 -37 -89q41 -35 41 -89q0 -63 -39.5 -92t-86.5 -29zM160 57q61 0 61 60q0 27 -17 43t-44 16q-28 0 -44.5 -15.5t-16.5 -43.5q0 -60 61 -60zM159 233
q25 0 41.5 15.5t16.5 42.5t-16.5 42.5t-41.5 15.5t-40.5 -15t-15.5 -43q0 -27 15.5 -42.5t40.5 -15.5z" />
    <glyph glyph-name="nine.denominator" horiz-adv-x="321" 
d="M159 -6q-48 0 -87 28t-40 94h65q3 -59 62 -59q61 0 61 65v45q-24 -19 -66 -19q-44 0 -83 29t-39 96v13q0 68 39 97t88 29t87.5 -29t38.5 -97v-166q0 -68 -38.5 -97t-87.5 -29zM159 210q61 0 61 65v9q0 65 -61 65q-62 0 -62 -65v-9q0 -65 62 -65z" />
    <glyph glyph-name="zero.numerator" horiz-adv-x="325" 
d="M162 351q62 0 62 65v162q0 65 -62 65q-61 0 -61 -65v-162q0 -65 61 -65zM162 288q-49 0 -87.5 29t-38.5 97v166q0 68 38.5 97t87.5 29t88 -29t39 -97v-166q0 -68 -39 -97t-88 -29z" />
    <glyph glyph-name="zeroslashed.numerator" horiz-adv-x="325" 
d="M162 288q-49 0 -87.5 29t-38.5 97v166q0 68 38.5 97t87.5 29t88 -29t39 -97v-166q0 -68 -39 -97t-88 -29zM162 351q62 0 62 65v115l-123 -123q3 -57 61 -57zM101 578v-113l123 122q-4 56 -62 56q-61 0 -61 -65z" />
    <glyph glyph-name="one.numerator" horiz-adv-x="217" 
d="M104 294v322l-78 -67v84l78 67h65v-406h-65z" />
    <glyph glyph-name="two.numerator" horiz-adv-x="309" 
d="M27 294v63l148 152q39 40 39 69q0 65 -61 65t-61 -64v-4h-65v5q0 68 38.5 97t87.5 29t87.5 -29t38.5 -97q0 -32 -12 -56t-43 -56l-108 -111h163v-63h-252z" />
    <glyph glyph-name="three.numerator" horiz-adv-x="312" 
d="M157 288q-51 0 -90.5 28t-40.5 94h65q1 -29 18.5 -44t45.5 -15q59 0 59 56q0 28 -17.5 44t-44.5 16h-35v59h35q29 0 45.5 15.5t16.5 40.5q0 27 -17 44t-45 17t-44 -15t-17 -44h-65q1 45 23 74t48 38.5t55 9.5q47 0 87 -30.5t40 -93.5q0 -60 -48 -85q22 -12 35 -37t13 -53
q0 -61 -36 -90t-86 -29z" />
    <glyph glyph-name="four.numerator" horiz-adv-x="309" 
d="M186 294v98h-179v63l179 245h65v-245h43v-63h-43v-98h-65zM86 455h100v138z" />
    <glyph glyph-name="five.numerator" horiz-adv-x="313" 
d="M167 288q-31 0 -58 9t-49.5 38t-23.5 75h65q1 -29 18.5 -44t45.5 -15q59 0 59 55v23q0 65 -62 65q-42 0 -56 -34h-65v240h232v-63h-167v-101q21 21 64 21q27 0 52 -9.5t46 -39.5t21 -77v-25q0 -60 -36 -89t-86 -29z" />
    <glyph glyph-name="six.numerator" horiz-adv-x="321" 
d="M162 288q-49 0 -87.5 29t-38.5 97v166q0 68 38.5 97t87.5 29q48 0 87 -28t40 -94h-65q-3 59 -62 59q-61 0 -61 -65v-45q24 19 66 19q45 0 83.5 -29t38.5 -96v-13q0 -68 -39 -97t-88 -29zM162 351q62 0 62 65v9q0 65 -62 65q-61 0 -61 -65v-9q0 -65 61 -65z" />
    <glyph glyph-name="seven.numerator" horiz-adv-x="271" 
d="M67 294l125 343h-183v63h250v-63l-125 -343h-67z" />
    <glyph glyph-name="eight.numerator" horiz-adv-x="320" 
d="M160 288q-47 0 -87 29t-40 92q0 53 42 89q-37 34 -37 89q0 62 37.5 90.5t84.5 28.5t84.5 -28.5t37.5 -90.5q0 -55 -37 -89q41 -35 41 -89q0 -63 -39.5 -92t-86.5 -29zM160 351q61 0 61 60q0 27 -17 43t-44 16q-28 0 -44.5 -15.5t-16.5 -43.5q0 -60 61 -60zM159 527
q25 0 41.5 15.5t16.5 42.5t-16.5 42.5t-41.5 15.5t-40.5 -15t-15.5 -43q0 -27 15.5 -42.5t40.5 -15.5z" />
    <glyph glyph-name="nine.numerator" horiz-adv-x="321" 
d="M159 288q-48 0 -87 28t-40 94h65q3 -59 62 -59q61 0 61 65v45q-24 -19 -66 -19q-44 0 -83 29t-39 96v13q0 68 39 97t88 29t87.5 -29t38.5 -97v-166q0 -68 -38.5 -97t-87.5 -29zM159 504q61 0 61 65v9q0 65 -61 65q-62 0 -62 -65v-9q0 -65 62 -65z" />
    <glyph glyph-name="a.superior" horiz-adv-x="323" 
d="M132 395q-45 0 -74 22.5t-29 66.5q0 70 65 91q39 12 125 17q-5 54 -60 54q-45 0 -59 -39h-66q5 38 27 62t46 31.5t52 7.5q49 0 87.5 -28.5t38.5 -96.5v-182h-65v28q-28 -34 -88 -34zM142 458q78 0 78 65v12q-89 -5 -114 -21q-12 -6 -12 -24q0 -32 48 -32z" />
    <glyph glyph-name="b.superior" horiz-adv-x="329" 
d="M176 395q-23 0 -43 10.5t-26 23.5v-28h-65v406h65v-132q6 12 26 22.5t43 10.5q46 0 82.5 -31t36.5 -94v-62q0 -64 -36.5 -95t-82.5 -31zM169 458q61 0 61 65v58q0 64 -61 64q-62 0 -62 -64v-58q0 -65 62 -65z" />
    <glyph glyph-name="c.superior" horiz-adv-x="315" 
d="M161 395q-49 0 -88 29t-39 97v62q0 36 12 62t32 39t40.5 18.5t42.5 5.5q45 0 82.5 -25t42.5 -84h-66q-9 47 -59 47q-62 0 -62 -65v-58q0 -65 62 -65q51 0 60 46h65q-5 -59 -42.5 -84t-82.5 -25z" />
    <glyph glyph-name="d.superior" horiz-adv-x="329" 
d="M153 395q-45 0 -82 31.5t-37 94.5v62q0 63 37 94t82 31q23 0 43 -10.5t26 -22.5v132h65v-406h-65v28q-6 -13 -25.5 -23.5t-43.5 -10.5zM156 458q29 0 47.5 16.5t18.5 48.5v58q0 64 -61 64q-62 0 -62 -64v-58q0 -32 15.5 -48.5t41.5 -16.5z" />
    <glyph glyph-name="e.superior" horiz-adv-x="318" 
d="M161 395q-49 0 -88 29t-39 97v62q0 36 12 62t32 39t40.5 18.5t42.5 5.5q49 0 87.5 -28.5t38.5 -96.5v-55h-188v-5q0 -65 62 -65q45 0 58 38h66q-7 -54 -43.5 -77.5t-80.5 -23.5zM99 585h123q-1 29 -17 45t-44 16q-29 0 -45.5 -15.5t-16.5 -45.5z" />
    <glyph glyph-name="f.superior" horiz-adv-x="203" 
d="M57 401v237h-42v62h42v36q0 71 72 71h67v-63h-46q-18 0 -23 -5.5t-5 -23.5v-15h74v-62h-74v-237h-65z" />
    <glyph glyph-name="g.superior" horiz-adv-x="328" 
d="M159 288q-45 0 -82 25t-43 83h66q9 -45 59 -45q62 0 62 65v32q-6 -13 -26 -23.5t-43 -10.5q-46 0 -82.5 31t-36.5 95v43q0 63 36.5 94t82.5 31q23 0 43 -10.5t26 -22.5v25h65v-286q0 -68 -39 -97t-88 -29zM159 477q62 0 62 64v40q0 64 -62 64q-61 0 -61 -64v-40
q0 -64 61 -64z" />
    <glyph glyph-name="h.superior" horiz-adv-x="333" 
d="M42 401v406h65v-132q6 12 26 22.5t43 10.5q46 0 82.5 -31t36.5 -94v-182h-65v180q0 64 -61 64q-62 0 -62 -64v-180h-65z" />
    <glyph glyph-name="i.superior" horiz-adv-x="149" 
d="M42 401v299h65v-299h-65zM42 744v63h65v-63h-65z" />
    <glyph glyph-name="j.superior" horiz-adv-x="149" 
d="M5 294v63h9q18 0 23 5.5t5 23.5v314h65v-334q0 -72 -71 -72h-31zM42 744v63h65v-63h-65z" />
    <glyph glyph-name="k.superior" horiz-adv-x="314" 
d="M107 807v-224l108 117h78l-108 -117l124 -182h-75l-92 135l-35 -38v-97h-65v406h65z" />
    <glyph glyph-name="l.superior" horiz-adv-x="166" 
d="M143 401h-31q-71 0 -71 71v335h65v-314q0 -18 5 -23.5t23 -5.5h9v-63z" />
    <glyph glyph-name="m.superior" horiz-adv-x="511" 
d="M42 401v299h65v-25q5 11 25 22t41 11q22 0 46.5 -10.5t38.5 -30.5q14 20 40 30.5t51 10.5q49 0 86.5 -30.5t37.5 -94.5v-182h-65v179q0 33 -16.5 49t-42.5 16t-42.5 -16t-16.5 -48v-180h-65v179q0 65 -59 65q-26 0 -42.5 -16t-16.5 -48v-180h-65z" />
    <glyph glyph-name="o.superior" horiz-adv-x="321" 
d="M161 458q61 0 61 65v58q0 65 -61 65q-62 0 -62 -65v-58q0 -65 62 -65zM161 395q-49 0 -88 29t-39 97v62q0 36 12 62t32 39t40.5 18.5t42.5 5.5q49 0 87.5 -28.5t38.5 -96.5v-62q0 -68 -38.5 -97t-87.5 -29z" />
    <glyph glyph-name="p.superior" horiz-adv-x="329" 
d="M42 294v406h65v-25q6 12 26 22.5t43 10.5q46 0 82.5 -31t36.5 -94v-62q0 -64 -36.5 -95t-82.5 -31q-23 0 -43 10.5t-26 23.5v-135h-65zM169 458q61 0 61 65v58q0 64 -61 64q-62 0 -62 -64v-58q0 -65 62 -65z" />
    <glyph glyph-name="q.superior" horiz-adv-x="329" 
d="M222 294v135q-6 -13 -25.5 -23.5t-43.5 -10.5q-45 0 -82 31.5t-37 94.5v62q0 63 37 94t82 31q23 0 43 -10.5t26 -22.5v25h65v-406h-65zM156 458q29 0 47.5 16.5t18.5 48.5v58q0 64 -61 64q-62 0 -62 -64v-58q0 -32 15.5 -48.5t41.5 -16.5z" />
    <glyph glyph-name="r.superior" horiz-adv-x="209" 
d="M42 401v299h65v-28q6 13 26 23.5t43 10.5h24v-64h-31q-62 0 -62 -64v-177h-65z" />
    <glyph glyph-name="s.superior" horiz-adv-x="287" 
d="M151 395q-55 0 -91 26.5t-39 75.5h67q7 -39 63 -39q47 0 47 28q0 20 -37 29l-56 14q-77 21 -77 91q0 43 30.5 65.5t79.5 22.5q107 0 116 -95h-68q-6 33 -52 33q-40 0 -40 -28q0 -18 32 -24l54 -14q44 -12 63.5 -33t19.5 -63q0 -43 -30.5 -66t-81.5 -23z" />
    <glyph glyph-name="t.superior" horiz-adv-x="217" 
d="M195 401h-68q-71 0 -71 71v166h-42v62h42v68h65v-68h74v-62h-74v-145q0 -18 5 -23.5t23 -5.5h46v-63z" />
    <glyph glyph-name="u.superior" horiz-adv-x="330" 
d="M154 395q-45 0 -80.5 32.5t-35.5 93.5v179h65v-178q0 -31 16 -47.5t44 -16.5q60 0 60 65v177h65v-299h-65v28q-6 -13 -26 -23.5t-43 -10.5z" />
    <glyph glyph-name="v.superior" horiz-adv-x="283" 
d="M110 401l-108 299h68l72 -205l71 205h68l-108 -299h-63z" />
    <glyph glyph-name="w.superior" horiz-adv-x="406" 
d="M85 401l-79 299h67l47 -196l48 196h70l47 -196l48 196h66l-79 -299h-65l-52 216l-53 -216h-65z" />
    <glyph glyph-name="x.superior" horiz-adv-x="294" 
d="M7 401l102 154l-97 145h71l64 -97l64 97h71l-97 -145l101 -154h-71l-68 104l-68 -104h-72z" />
    <glyph glyph-name="y.superior" horiz-adv-x="283" 
d="M48 294v63h10q23 0 29 5t15 28l6 17l-106 293h68l72 -205l71 205h68l-132 -366q-14 -40 -66 -40h-35z" />
    <glyph glyph-name="z.superior" horiz-adv-x="265" 
d="M240 638l-137 -174h141v-63h-223v63l137 174h-133v62h215v-62z" />
    <glyph glyph-name="a.inferior" horiz-adv-x="323" 
d="M132 -103q-45 0 -74 22.5t-29 66.5q0 70 65 91q39 12 125 17q-5 54 -60 54q-45 0 -59 -39h-66q5 38 27 62t46 31.5t52 7.5q49 0 87.5 -28.5t38.5 -96.5v-182h-65v28q-28 -34 -88 -34zM142 -40q78 0 78 65v12q-89 -5 -114 -21q-12 -6 -12 -24q0 -32 48 -32z" />
    <glyph glyph-name="b.inferior" horiz-adv-x="329" 
d="M176 -103q-23 0 -43 10.5t-26 23.5v-28h-65v406h65v-132q6 12 26 22.5t43 10.5q46 0 82.5 -31t36.5 -94v-62q0 -64 -36.5 -95t-82.5 -31zM169 -40q61 0 61 65v58q0 64 -61 64q-62 0 -62 -64v-58q0 -65 62 -65z" />
    <glyph glyph-name="c.inferior" horiz-adv-x="315" 
d="M161 -103q-49 0 -88 29t-39 97v62q0 36 12 62t32 39t40.5 18.5t42.5 5.5q45 0 82.5 -25t42.5 -84h-66q-9 47 -59 47q-62 0 -62 -65v-58q0 -65 62 -65q51 0 60 46h65q-5 -59 -42.5 -84t-82.5 -25z" />
    <glyph glyph-name="d.inferior" horiz-adv-x="329" 
d="M153 -103q-45 0 -82 31.5t-37 94.5v62q0 63 37 94t82 31q23 0 43 -10.5t26 -22.5v132h65v-406h-65v28q-6 -13 -25.5 -23.5t-43.5 -10.5zM156 -40q29 0 47.5 16.5t18.5 48.5v58q0 64 -61 64q-62 0 -62 -64v-58q0 -32 15.5 -48.5t41.5 -16.5z" />
    <glyph glyph-name="e.inferior" horiz-adv-x="318" 
d="M161 -103q-49 0 -88 29t-39 97v62q0 36 12 62t32 39t40.5 18.5t42.5 5.5q49 0 87.5 -28.5t38.5 -96.5v-55h-188v-5q0 -65 62 -65q45 0 58 38h66q-7 -54 -43.5 -77.5t-80.5 -23.5zM99 87h123q-1 29 -17 45t-44 16q-29 0 -45.5 -15.5t-16.5 -45.5z" />
    <glyph glyph-name="f.inferior" horiz-adv-x="203" 
d="M57 -97v237h-42v62h42v36q0 71 72 71h67v-63h-46q-18 0 -23 -5.5t-5 -23.5v-15h74v-62h-74v-237h-65z" />
    <glyph glyph-name="g.inferior" horiz-adv-x="328" 
d="M159 -210q-45 0 -82 25t-43 83h66q9 -45 59 -45q62 0 62 65v32q-6 -13 -26 -23.5t-43 -10.5q-46 0 -82.5 31t-36.5 95v43q0 63 36.5 94t82.5 31q23 0 43 -10.5t26 -22.5v25h65v-286q0 -68 -39 -97t-88 -29zM159 -21q62 0 62 64v40q0 64 -62 64q-61 0 -61 -64v-40
q0 -64 61 -64z" />
    <glyph glyph-name="h.inferior" horiz-adv-x="333" 
d="M42 -97v406h65v-132q6 12 26 22.5t43 10.5q46 0 82.5 -31t36.5 -94v-182h-65v180q0 64 -61 64q-62 0 -62 -64v-180h-65z" />
    <glyph glyph-name="i.inferior" horiz-adv-x="149" 
d="M42 -97v299h65v-299h-65zM42 246v63h65v-63h-65z" />
    <glyph glyph-name="j.inferior" horiz-adv-x="149" 
d="M5 -204v63h9q18 0 23 5.5t5 23.5v314h65v-334q0 -72 -71 -72h-31zM42 246v63h65v-63h-65z" />
    <glyph glyph-name="k.inferior" horiz-adv-x="314" 
d="M107 309v-224l108 117h78l-108 -117l124 -182h-75l-92 135l-35 -38v-97h-65v406h65z" />
    <glyph glyph-name="l.inferior" horiz-adv-x="166" 
d="M143 -97h-31q-71 0 -71 71v335h65v-314q0 -18 5 -23.5t23 -5.5h9v-63z" />
    <glyph glyph-name="m.inferior" horiz-adv-x="511" 
d="M42 -97v299h65v-25q5 11 25 22t41 11q22 0 46.5 -10.5t38.5 -30.5q14 20 40 30.5t51 10.5q49 0 86.5 -30.5t37.5 -94.5v-182h-65v179q0 33 -16.5 49t-42.5 16t-42.5 -16t-16.5 -48v-180h-65v179q0 65 -59 65q-26 0 -42.5 -16t-16.5 -48v-180h-65z" />
    <glyph glyph-name="n.inferior" horiz-adv-x="333" 
d="M42 -97v299h65v-25q6 12 26 22.5t43 10.5q46 0 82.5 -31t36.5 -94v-182h-65v180q0 64 -61 64q-62 0 -62 -64v-180h-65z" />
    <glyph glyph-name="o.inferior" horiz-adv-x="321" 
d="M161 -40q61 0 61 65v58q0 65 -61 65q-62 0 -62 -65v-58q0 -65 62 -65zM161 -103q-49 0 -88 29t-39 97v62q0 36 12 62t32 39t40.5 18.5t42.5 5.5q49 0 87.5 -28.5t38.5 -96.5v-62q0 -68 -38.5 -97t-87.5 -29z" />
    <glyph glyph-name="p.inferior" horiz-adv-x="329" 
d="M42 -204v406h65v-25q6 12 26 22.5t43 10.5q46 0 82.5 -31t36.5 -94v-62q0 -64 -36.5 -95t-82.5 -31q-23 0 -43 10.5t-26 23.5v-135h-65zM169 -40q61 0 61 65v58q0 64 -61 64q-62 0 -62 -64v-58q0 -65 62 -65z" />
    <glyph glyph-name="q.inferior" horiz-adv-x="329" 
d="M222 -204v135q-6 -13 -25.5 -23.5t-43.5 -10.5q-45 0 -82 31.5t-37 94.5v62q0 63 37 94t82 31q23 0 43 -10.5t26 -22.5v25h65v-406h-65zM156 -40q29 0 47.5 16.5t18.5 48.5v58q0 64 -61 64q-62 0 -62 -64v-58q0 -32 15.5 -48.5t41.5 -16.5z" />
    <glyph glyph-name="r.inferior" horiz-adv-x="209" 
d="M42 -97v299h65v-28q6 13 26 23.5t43 10.5h24v-64h-31q-62 0 -62 -64v-177h-65z" />
    <glyph glyph-name="s.inferior" horiz-adv-x="287" 
d="M151 -103q-55 0 -91 26.5t-39 75.5h67q7 -39 63 -39q47 0 47 28q0 20 -37 29l-56 14q-77 21 -77 91q0 43 30.5 65.5t79.5 22.5q107 0 116 -95h-68q-6 33 -52 33q-40 0 -40 -28q0 -18 32 -24l54 -14q44 -12 63.5 -33t19.5 -63q0 -43 -30.5 -66t-81.5 -23z" />
    <glyph glyph-name="t.inferior" horiz-adv-x="217" 
d="M195 -97h-68q-71 0 -71 71v166h-42v62h42v68h65v-68h74v-62h-74v-145q0 -18 5 -23.5t23 -5.5h46v-63z" />
    <glyph glyph-name="u.inferior" horiz-adv-x="330" 
d="M154 -103q-45 0 -80.5 32.5t-35.5 93.5v179h65v-178q0 -31 16 -47.5t44 -16.5q60 0 60 65v177h65v-299h-65v28q-6 -13 -26 -23.5t-43 -10.5z" />
    <glyph glyph-name="v.inferior" horiz-adv-x="283" 
d="M110 -97l-108 299h68l72 -205l71 205h68l-108 -299h-63z" />
    <glyph glyph-name="w.inferior" horiz-adv-x="406" 
d="M85 -97l-79 299h67l47 -196l48 196h70l47 -196l48 196h66l-79 -299h-65l-52 216l-53 -216h-65z" />
    <glyph glyph-name="x.inferior" horiz-adv-x="294" 
d="M7 -97l102 154l-97 145h71l64 -97l64 97h71l-97 -145l101 -154h-71l-68 104l-68 -104h-72z" />
    <glyph glyph-name="y.inferior" horiz-adv-x="283" 
d="M48 -204v63h10q23 0 29 5t15 28l6 17l-106 293h68l72 -205l71 205h68l-132 -366q-14 -40 -66 -40h-35z" />
    <glyph glyph-name="z.inferior" horiz-adv-x="265" 
d="M240 140l-137 -174h141v-63h-223v63l137 174h-133v62h215v-62z" />
    <glyph glyph-name="a.denominator" horiz-adv-x="323" 
d="M132 -6q-45 0 -74 22.5t-29 66.5q0 70 65 91q39 12 125 17q-5 54 -60 54q-45 0 -59 -39h-66q5 38 27 62t46 31.5t52 7.5q49 0 87.5 -28.5t38.5 -96.5v-182h-65v28q-28 -34 -88 -34zM142 57q78 0 78 65v12q-89 -5 -114 -21q-12 -6 -12 -24q0 -32 48 -32z" />
    <glyph glyph-name="b.denominator" horiz-adv-x="329" 
d="M176 -6q-23 0 -43 10.5t-26 23.5v-28h-65v406h65v-132q6 12 26 22.5t43 10.5q46 0 82.5 -31t36.5 -94v-62q0 -64 -36.5 -95t-82.5 -31zM169 57q61 0 61 65v58q0 64 -61 64q-62 0 -62 -64v-58q0 -65 62 -65z" />
    <glyph glyph-name="c.denominator" horiz-adv-x="315" 
d="M161 -6q-49 0 -88 29t-39 97v62q0 36 12 62t32 39t40.5 18.5t42.5 5.5q45 0 82.5 -25t42.5 -84h-66q-9 47 -59 47q-62 0 -62 -65v-58q0 -65 62 -65q51 0 60 46h65q-5 -59 -42.5 -84t-82.5 -25z" />
    <glyph glyph-name="d.denominator" horiz-adv-x="329" 
d="M153 -6q-45 0 -82 31.5t-37 94.5v62q0 63 37 94t82 31q23 0 43 -10.5t26 -22.5v132h65v-406h-65v28q-6 -13 -25.5 -23.5t-43.5 -10.5zM156 57q29 0 47.5 16.5t18.5 48.5v58q0 64 -61 64q-62 0 -62 -64v-58q0 -32 15.5 -48.5t41.5 -16.5z" />
    <glyph glyph-name="e.denominator" horiz-adv-x="318" 
d="M161 -6q-49 0 -88 29t-39 97v62q0 36 12 62t32 39t40.5 18.5t42.5 5.5q49 0 87.5 -28.5t38.5 -96.5v-55h-188v-5q0 -65 62 -65q45 0 58 38h66q-7 -54 -43.5 -77.5t-80.5 -23.5zM99 184h123q-1 29 -17 45t-44 16q-29 0 -45.5 -15.5t-16.5 -45.5z" />
    <glyph glyph-name="f.denominator" horiz-adv-x="203" 
d="M57 0v237h-42v62h42v36q0 71 72 71h67v-63h-46q-18 0 -23 -5.5t-5 -23.5v-15h74v-62h-74v-237h-65z" />
    <glyph glyph-name="g.denominator" horiz-adv-x="328" 
d="M159 -113q-45 0 -82 25t-43 83h66q9 -45 59 -45q62 0 62 65v32q-6 -13 -26 -23.5t-43 -10.5q-46 0 -82.5 31t-36.5 95v43q0 63 36.5 94t82.5 31q23 0 43 -10.5t26 -22.5v25h65v-286q0 -68 -39 -97t-88 -29zM159 76q62 0 62 64v40q0 64 -62 64q-61 0 -61 -64v-40
q0 -64 61 -64z" />
    <glyph glyph-name="h.denominator" horiz-adv-x="333" 
d="M42 0v406h65v-132q6 12 26 22.5t43 10.5q46 0 82.5 -31t36.5 -94v-182h-65v180q0 64 -61 64q-62 0 -62 -64v-180h-65z" />
    <glyph glyph-name="i.denominator" horiz-adv-x="149" 
d="M42 0v299h65v-299h-65zM42 343v63h65v-63h-65z" />
    <glyph glyph-name="j.denominator" horiz-adv-x="149" 
d="M5 -107v63h9q18 0 23 5.5t5 23.5v314h65v-334q0 -72 -71 -72h-31zM42 343v63h65v-63h-65z" />
    <glyph glyph-name="k.denominator" horiz-adv-x="314" 
d="M107 406v-224l108 117h78l-108 -117l124 -182h-75l-92 135l-35 -38v-97h-65v406h65z" />
    <glyph glyph-name="l.denominator" horiz-adv-x="166" 
d="M143 0h-31q-71 0 -71 71v335h65v-314q0 -18 5 -23.5t23 -5.5h9v-63z" />
    <glyph glyph-name="m.denominator" horiz-adv-x="511" 
d="M42 0v299h65v-25q5 11 25 22t41 11q22 0 46.5 -10.5t38.5 -30.5q14 20 40 30.5t51 10.5q49 0 86.5 -30.5t37.5 -94.5v-182h-65v179q0 33 -16.5 49t-42.5 16t-42.5 -16t-16.5 -48v-180h-65v179q0 65 -59 65q-26 0 -42.5 -16t-16.5 -48v-180h-65z" />
    <glyph glyph-name="n.denominator" horiz-adv-x="333" 
d="M42 0v299h65v-25q6 12 26 22.5t43 10.5q46 0 82.5 -31t36.5 -94v-182h-65v180q0 64 -61 64q-62 0 -62 -64v-180h-65z" />
    <glyph glyph-name="o.denominator" horiz-adv-x="321" 
d="M161 57q61 0 61 65v58q0 65 -61 65q-62 0 -62 -65v-58q0 -65 62 -65zM161 -6q-49 0 -88 29t-39 97v62q0 36 12 62t32 39t40.5 18.5t42.5 5.5q49 0 87.5 -28.5t38.5 -96.5v-62q0 -68 -38.5 -97t-87.5 -29z" />
    <glyph glyph-name="p.denominator" horiz-adv-x="329" 
d="M42 -107v406h65v-25q6 12 26 22.5t43 10.5q46 0 82.5 -31t36.5 -94v-62q0 -64 -36.5 -95t-82.5 -31q-23 0 -43 10.5t-26 23.5v-135h-65zM169 57q61 0 61 65v58q0 64 -61 64q-62 0 -62 -64v-58q0 -65 62 -65z" />
    <glyph glyph-name="q.denominator" horiz-adv-x="329" 
d="M222 -107v135q-6 -13 -25.5 -23.5t-43.5 -10.5q-45 0 -82 31.5t-37 94.5v62q0 63 37 94t82 31q23 0 43 -10.5t26 -22.5v25h65v-406h-65zM156 57q29 0 47.5 16.5t18.5 48.5v58q0 64 -61 64q-62 0 -62 -64v-58q0 -32 15.5 -48.5t41.5 -16.5z" />
    <glyph glyph-name="r.denominator" horiz-adv-x="209" 
d="M42 0v299h65v-28q6 13 26 23.5t43 10.5h24v-64h-31q-62 0 -62 -64v-177h-65z" />
    <glyph glyph-name="s.denominator" horiz-adv-x="287" 
d="M151 -6q-55 0 -91 26.5t-39 75.5h67q7 -39 63 -39q47 0 47 28q0 20 -37 29l-56 14q-77 21 -77 91q0 43 30.5 65.5t79.5 22.5q107 0 116 -95h-68q-6 33 -52 33q-40 0 -40 -28q0 -18 32 -24l54 -14q44 -12 63.5 -33t19.5 -63q0 -43 -30.5 -66t-81.5 -23z" />
    <glyph glyph-name="t.denominator" horiz-adv-x="217" 
d="M195 0h-68q-71 0 -71 71v166h-42v62h42v68h65v-68h74v-62h-74v-145q0 -18 5 -23.5t23 -5.5h46v-63z" />
    <glyph glyph-name="u.denominator" horiz-adv-x="330" 
d="M154 -6q-45 0 -80.5 32.5t-35.5 93.5v179h65v-178q0 -31 16 -47.5t44 -16.5q60 0 60 65v177h65v-299h-65v28q-6 -13 -26 -23.5t-43 -10.5z" />
    <glyph glyph-name="v.denominator" horiz-adv-x="283" 
d="M110 0l-108 299h68l72 -205l71 205h68l-108 -299h-63z" />
    <glyph glyph-name="w.denominator" horiz-adv-x="406" 
d="M85 0l-79 299h67l47 -196l48 196h70l47 -196l48 196h66l-79 -299h-65l-52 216l-53 -216h-65z" />
    <glyph glyph-name="x.denominator" horiz-adv-x="294" 
d="M7 0l102 154l-97 145h71l64 -97l64 97h71l-97 -145l101 -154h-71l-68 104l-68 -104h-72z" />
    <glyph glyph-name="y.denominator" horiz-adv-x="283" 
d="M48 -107v63h10q23 0 29 5t15 28l6 17l-106 293h68l72 -205l71 205h68l-132 -366q-14 -40 -66 -40h-35z" />
    <glyph glyph-name="z.denominator" horiz-adv-x="265" 
d="M240 237l-137 -174h141v-63h-223v63l137 174h-133v62h215v-62z" />
    <glyph glyph-name="a.numerator" horiz-adv-x="323" 
d="M132 288q-45 0 -74 22.5t-29 66.5q0 70 65 91q39 12 125 17q-5 54 -60 54q-45 0 -59 -39h-66q5 38 27 62t46 31.5t52 7.5q49 0 87.5 -28.5t38.5 -96.5v-182h-65v28q-28 -34 -88 -34zM142 351q78 0 78 65v12q-89 -5 -114 -21q-12 -6 -12 -24q0 -32 48 -32z" />
    <glyph glyph-name="b.numerator" horiz-adv-x="329" 
d="M176 288q-23 0 -43 10.5t-26 23.5v-28h-65v406h65v-132q6 12 26 22.5t43 10.5q46 0 82.5 -31t36.5 -94v-62q0 -64 -36.5 -95t-82.5 -31zM169 351q61 0 61 65v58q0 64 -61 64q-62 0 -62 -64v-58q0 -65 62 -65z" />
    <glyph glyph-name="c.numerator" horiz-adv-x="315" 
d="M161 288q-49 0 -88 29t-39 97v62q0 36 12 62t32 39t40.5 18.5t42.5 5.5q45 0 82.5 -25t42.5 -84h-66q-9 47 -59 47q-62 0 -62 -65v-58q0 -65 62 -65q51 0 60 46h65q-5 -59 -42.5 -84t-82.5 -25z" />
    <glyph glyph-name="d.numerator" horiz-adv-x="329" 
d="M153 288q-45 0 -82 31.5t-37 94.5v62q0 63 37 94t82 31q23 0 43 -10.5t26 -22.5v132h65v-406h-65v28q-6 -13 -25.5 -23.5t-43.5 -10.5zM156 351q29 0 47.5 16.5t18.5 48.5v58q0 64 -61 64q-62 0 -62 -64v-58q0 -32 15.5 -48.5t41.5 -16.5z" />
    <glyph glyph-name="e.numerator" horiz-adv-x="318" 
d="M161 288q-49 0 -88 29t-39 97v62q0 36 12 62t32 39t40.5 18.5t42.5 5.5q49 0 87.5 -28.5t38.5 -96.5v-55h-188v-5q0 -65 62 -65q45 0 58 38h66q-7 -54 -43.5 -77.5t-80.5 -23.5zM99 478h123q-1 29 -17 45t-44 16q-29 0 -45.5 -15.5t-16.5 -45.5z" />
    <glyph glyph-name="f.numerator" horiz-adv-x="203" 
d="M57 294v237h-42v62h42v36q0 71 72 71h67v-63h-46q-18 0 -23 -5.5t-5 -23.5v-15h74v-62h-74v-237h-65z" />
    <glyph glyph-name="g.numerator" horiz-adv-x="328" 
d="M159 181q-45 0 -82 25t-43 83h66q9 -45 59 -45q62 0 62 65v32q-6 -13 -26 -23.5t-43 -10.5q-46 0 -82.5 31t-36.5 95v43q0 63 36.5 94t82.5 31q23 0 43 -10.5t26 -22.5v25h65v-286q0 -68 -39 -97t-88 -29zM159 370q62 0 62 64v40q0 64 -62 64q-61 0 -61 -64v-40
q0 -64 61 -64z" />
    <glyph glyph-name="h.numerator" horiz-adv-x="333" 
d="M42 294v406h65v-132q6 12 26 22.5t43 10.5q46 0 82.5 -31t36.5 -94v-182h-65v180q0 64 -61 64q-62 0 -62 -64v-180h-65z" />
    <glyph glyph-name="i.numerator" horiz-adv-x="149" 
d="M42 294v299h65v-299h-65zM42 637v63h65v-63h-65z" />
    <glyph glyph-name="j.numerator" horiz-adv-x="149" 
d="M5 187v63h9q18 0 23 5.5t5 23.5v314h65v-334q0 -72 -71 -72h-31zM42 637v63h65v-63h-65z" />
    <glyph glyph-name="k.numerator" horiz-adv-x="314" 
d="M107 700v-224l108 117h78l-108 -117l124 -182h-75l-92 135l-35 -38v-97h-65v406h65z" />
    <glyph glyph-name="l.numerator" horiz-adv-x="166" 
d="M143 294h-31q-71 0 -71 71v335h65v-314q0 -18 5 -23.5t23 -5.5h9v-63z" />
    <glyph glyph-name="m.numerator" horiz-adv-x="511" 
d="M42 294v299h65v-25q5 11 25 22t41 11q22 0 46.5 -10.5t38.5 -30.5q14 20 40 30.5t51 10.5q49 0 86.5 -30.5t37.5 -94.5v-182h-65v179q0 33 -16.5 49t-42.5 16t-42.5 -16t-16.5 -48v-180h-65v179q0 65 -59 65q-26 0 -42.5 -16t-16.5 -48v-180h-65z" />
    <glyph glyph-name="n.numerator" horiz-adv-x="333" 
d="M42 294v299h65v-25q6 12 26 22.5t43 10.5q46 0 82.5 -31t36.5 -94v-182h-65v180q0 64 -61 64q-62 0 -62 -64v-180h-65z" />
    <glyph glyph-name="o.numerator" horiz-adv-x="321" 
d="M161 351q61 0 61 65v58q0 65 -61 65q-62 0 -62 -65v-58q0 -65 62 -65zM161 288q-49 0 -88 29t-39 97v62q0 36 12 62t32 39t40.5 18.5t42.5 5.5q49 0 87.5 -28.5t38.5 -96.5v-62q0 -68 -38.5 -97t-87.5 -29z" />
    <glyph glyph-name="p.numerator" horiz-adv-x="329" 
d="M42 187v406h65v-25q6 12 26 22.5t43 10.5q46 0 82.5 -31t36.5 -94v-62q0 -64 -36.5 -95t-82.5 -31q-23 0 -43 10.5t-26 23.5v-135h-65zM169 351q61 0 61 65v58q0 64 -61 64q-62 0 -62 -64v-58q0 -65 62 -65z" />
    <glyph glyph-name="q.numerator" horiz-adv-x="329" 
d="M222 187v135q-6 -13 -25.5 -23.5t-43.5 -10.5q-45 0 -82 31.5t-37 94.5v62q0 63 37 94t82 31q23 0 43 -10.5t26 -22.5v25h65v-406h-65zM156 351q29 0 47.5 16.5t18.5 48.5v58q0 64 -61 64q-62 0 -62 -64v-58q0 -32 15.5 -48.5t41.5 -16.5z" />
    <glyph glyph-name="r.numerator" horiz-adv-x="209" 
d="M42 294v299h65v-28q6 13 26 23.5t43 10.5h24v-64h-31q-62 0 -62 -64v-177h-65z" />
    <glyph glyph-name="s.numerator" horiz-adv-x="287" 
d="M151 288q-55 0 -91 26.5t-39 75.5h67q7 -39 63 -39q47 0 47 28q0 20 -37 29l-56 14q-77 21 -77 91q0 43 30.5 65.5t79.5 22.5q107 0 116 -95h-68q-6 33 -52 33q-40 0 -40 -28q0 -18 32 -24l54 -14q44 -12 63.5 -33t19.5 -63q0 -43 -30.5 -66t-81.5 -23z" />
    <glyph glyph-name="t.numerator" horiz-adv-x="217" 
d="M195 294h-68q-71 0 -71 71v166h-42v62h42v68h65v-68h74v-62h-74v-145q0 -18 5 -23.5t23 -5.5h46v-63z" />
    <glyph glyph-name="u.numerator" horiz-adv-x="330" 
d="M154 288q-45 0 -80.5 32.5t-35.5 93.5v179h65v-178q0 -31 16 -47.5t44 -16.5q60 0 60 65v177h65v-299h-65v28q-6 -13 -26 -23.5t-43 -10.5z" />
    <glyph glyph-name="v.numerator" horiz-adv-x="283" 
d="M110 294l-108 299h68l72 -205l71 205h68l-108 -299h-63z" />
    <glyph glyph-name="w.numerator" horiz-adv-x="406" 
d="M85 294l-79 299h67l47 -196l48 196h70l47 -196l48 196h66l-79 -299h-65l-52 216l-53 -216h-65z" />
    <glyph glyph-name="x.numerator" horiz-adv-x="294" 
d="M7 294l102 154l-97 145h71l64 -97l64 97h71l-97 -145l101 -154h-71l-68 104l-68 -104h-72z" />
    <glyph glyph-name="y.numerator" horiz-adv-x="283" 
d="M48 187v63h10q23 0 29 5t15 28l6 17l-106 293h68l72 -205l71 205h68l-132 -366q-14 -40 -66 -40h-35z" />
    <glyph glyph-name="z.numerator" horiz-adv-x="265" 
d="M240 531l-137 -174h141v-63h-223v63l137 174h-133v62h215v-62z" />
    <glyph glyph-name="zero.fractioninf" horiz-adv-x="389" 
d="M194 57q62 0 62 65v162q0 65 -62 65q-61 0 -61 -65v-162q0 -65 61 -65zM194 -6q-49 0 -87.5 29t-38.5 97v166q0 68 38.5 97t87.5 29t88 -29t39 -97v-166q0 -68 -39 -97t-88 -29z" />
    <glyph glyph-name="one.fractioninf" horiz-adv-x="389" 
d="M201 0v322l-78 -67v84l78 67h65v-406h-65z" />
    <glyph glyph-name="two.fractioninf" horiz-adv-x="389" 
d="M68 0v63l148 152q39 40 39 69q0 65 -61 65t-61 -64v-4h-65v5q0 68 38.5 97t87.5 29t87.5 -29t38.5 -97q0 -32 -12 -56t-43 -56l-108 -111h163v-63h-252z" />
    <glyph glyph-name="three.fractioninf" horiz-adv-x="389" 
d="M199 -6q-51 0 -90.5 28t-40.5 94h65q1 -29 18.5 -44t45.5 -15q59 0 59 56q0 28 -17.5 44t-44.5 16h-35v59h35q29 0 45.5 15.5t16.5 40.5q0 27 -17 44t-45 17t-44 -15t-17 -44h-65q1 45 23 74t48 38.5t55 9.5q47 0 87 -30.5t40 -93.5q0 -60 -48 -85q22 -12 35 -37t13 -53
q0 -61 -36 -90t-86 -29z" />
    <glyph glyph-name="four.fractioninf" horiz-adv-x="389" 
d="M230 0v98h-179v63l179 245h65v-245h43v-63h-43v-98h-65zM130 161h100v138z" />
    <glyph glyph-name="five.fractioninf" horiz-adv-x="389" 
d="M199 -6q-31 0 -58 9t-49.5 38t-23.5 75h65q1 -29 18.5 -44t45.5 -15q59 0 59 55v23q0 65 -62 65q-42 0 -56 -34h-65v240h232v-63h-167v-101q21 21 64 21q27 0 52 -9.5t46 -39.5t21 -77v-25q0 -60 -36 -89t-86 -29z" />
    <glyph glyph-name="six.fractioninf" horiz-adv-x="389" 
d="M194 -6q-49 0 -87.5 29t-38.5 97v166q0 68 38.5 97t87.5 29q48 0 87 -28t40 -94h-65q-3 59 -62 59q-61 0 -61 -65v-45q24 19 66 19q45 0 83.5 -29t38.5 -96v-13q0 -68 -39 -97t-88 -29zM194 57q62 0 62 65v9q0 65 -62 65q-61 0 -61 -65v-9q0 -65 61 -65z" />
    <glyph glyph-name="seven.fractioninf" horiz-adv-x="389" 
d="M127 0l125 343h-183v63h250v-63l-125 -343h-67z" />
    <glyph glyph-name="eight.fractioninf" horiz-adv-x="389" 
d="M195 -6q-47 0 -87 29t-40 92q0 53 42 89q-37 34 -37 89q0 62 37.5 90.5t84.5 28.5t84.5 -28.5t37.5 -90.5q0 -55 -37 -89q41 -35 41 -89q0 -63 -39.5 -92t-86.5 -29zM195 57q61 0 61 60q0 27 -17 43t-44 16q-28 0 -44.5 -15.5t-16.5 -43.5q0 -60 61 -60zM194 233
q25 0 41.5 15.5t16.5 42.5t-16.5 42.5t-41.5 15.5t-40.5 -15t-15.5 -43q0 -27 15.5 -42.5t40.5 -15.5z" />
    <glyph glyph-name="nine.fractioninf" horiz-adv-x="389" 
d="M195 -6q-48 0 -87 28t-40 94h65q3 -59 62 -59q61 0 61 65v45q-24 -19 -66 -19q-44 0 -83 29t-39 96v13q0 68 39 97t88 29t87.5 -29t38.5 -97v-166q0 -68 -38.5 -97t-87.5 -29zM195 210q61 0 61 65v9q0 65 -61 65q-62 0 -62 -65v-9q0 -65 62 -65z" />
    <glyph glyph-name="zero.fractionsup" horiz-adv-x="389" 
d="M194 351q62 0 62 65v162q0 65 -62 65q-61 0 -61 -65v-162q0 -65 61 -65zM194 288q-49 0 -87.5 29t-38.5 97v166q0 68 38.5 97t87.5 29t88 -29t39 -97v-166q0 -68 -39 -97t-88 -29z" />
    <glyph glyph-name="one.fractionsup" horiz-adv-x="389" 
d="M201 294v322l-78 -67v84l78 67h65v-406h-65z" />
    <glyph glyph-name="two.fractionsup" horiz-adv-x="389" 
d="M68 294v63l148 152q39 40 39 69q0 65 -61 65t-61 -64v-4h-65v5q0 68 38.5 97t87.5 29t87.5 -29t38.5 -97q0 -32 -12 -56t-43 -56l-108 -111h163v-63h-252z" />
    <glyph glyph-name="three.fractionsup" horiz-adv-x="389" 
d="M199 288q-51 0 -90.5 28t-40.5 94h65q1 -29 18.5 -44t45.5 -15q59 0 59 56q0 28 -17.5 44t-44.5 16h-35v59h35q29 0 45.5 15.5t16.5 40.5q0 27 -17 44t-45 17t-44 -15t-17 -44h-65q1 45 23 74t48 38.5t55 9.5q47 0 87 -30.5t40 -93.5q0 -60 -48 -85q22 -12 35 -37t13 -53
q0 -61 -36 -90t-86 -29z" />
    <glyph glyph-name="four.fractionsup" horiz-adv-x="389" 
d="M230 294v98h-179v63l179 245h65v-245h43v-63h-43v-98h-65zM130 455h100v138z" />
    <glyph glyph-name="five.fractionsup" horiz-adv-x="389" 
d="M199 288q-31 0 -58 9t-49.5 38t-23.5 75h65q1 -29 18.5 -44t45.5 -15q59 0 59 55v23q0 65 -62 65q-42 0 -56 -34h-65v240h232v-63h-167v-101q21 21 64 21q27 0 52 -9.5t46 -39.5t21 -77v-25q0 -60 -36 -89t-86 -29z" />
    <glyph glyph-name="six.fractionsup" horiz-adv-x="389" 
d="M194 288q-49 0 -87.5 29t-38.5 97v166q0 68 38.5 97t87.5 29q48 0 87 -28t40 -94h-65q-3 59 -62 59q-61 0 -61 -65v-45q24 19 66 19q45 0 83.5 -29t38.5 -96v-13q0 -68 -39 -97t-88 -29zM194 351q62 0 62 65v9q0 65 -62 65q-61 0 -61 -65v-9q0 -65 61 -65z" />
    <glyph glyph-name="seven.fractionsup" horiz-adv-x="389" 
d="M127 294l125 343h-183v63h250v-63l-125 -343h-67z" />
    <glyph glyph-name="eight.fractionsup" horiz-adv-x="389" 
d="M195 288q-47 0 -87 29t-40 92q0 53 42 89q-37 34 -37 89q0 62 37.5 90.5t84.5 28.5t84.5 -28.5t37.5 -90.5q0 -55 -37 -89q41 -35 41 -89q0 -63 -39.5 -92t-86.5 -29zM195 351q61 0 61 60q0 27 -17 43t-44 16q-28 0 -44.5 -15.5t-16.5 -43.5q0 -60 61 -60zM194 527
q25 0 41.5 15.5t16.5 42.5t-16.5 42.5t-41.5 15.5t-40.5 -15t-15.5 -43q0 -27 15.5 -42.5t40.5 -15.5z" />
    <glyph glyph-name="nine.fractionsup" horiz-adv-x="389" 
d="M195 288q-48 0 -87 28t-40 94h65q3 -59 62 -59q61 0 61 65v45q-24 -19 -66 -19q-44 0 -83 29t-39 96v13q0 68 39 97t88 29t87.5 -29t38.5 -97v-166q0 -68 -38.5 -97t-87.5 -29zM195 504q61 0 61 65v9q0 65 -61 65q-62 0 -62 -65v-9q0 -65 62 -65z" />
    <glyph glyph-name="comma.superior" horiz-adv-x="178" 
d="M48 401v82h82v-82l-23 -62h-48l23 62h-34z" />
    <glyph glyph-name="period.superior" horiz-adv-x="178" 
d="M48 401v82h82v-82h-82z" />
    <glyph glyph-name="hyphen.superior" horiz-adv-x="229" 
d="M31 536v56h168v-56h-168z" />
    <glyph glyph-name="plus.inferior" horiz-adv-x="330" 
d="M38 38v56h99v98h56v-98h98v-56h-98v-99h-56v99h-99z" />
    <glyph glyph-name="minus.inferior" horiz-adv-x="330" 
d="M38 38v56h253v-56h-253z" />
    <glyph glyph-name="equal.inferior" horiz-adv-x="330" 
d="M38 -31v56h253v-56h-253zM38 100v56h253v-56h-253z" />
    <glyph glyph-name="comma.inferior" horiz-adv-x="178" 
d="M48 -97v82h82v-82l-23 -62h-48l23 62h-34z" />
    <glyph glyph-name="period.inferior" horiz-adv-x="178" 
d="M48 -97v82h82v-82h-82z" />
    <glyph glyph-name="hyphen.inferior" horiz-adv-x="229" 
d="M31 38v56h168v-56h-168z" />
    <glyph glyph-name="parenleft.denominator" horiz-adv-x="178" 
d="M157 -88h-31q-72 0 -72 72v351q0 71 72 71h31v-59h-15q-17 0 -22.5 -6t-5.5 -23v-317q0 -17 5.5 -23.5t22.5 -6.5h15v-59z" />
    <glyph glyph-name="parenright.denominator" horiz-adv-x="178" 
d="M21 -88v59h15q17 0 22.5 6.5t5.5 23.5v317q0 17 -5.5 23t-22.5 6h-15v59h31q71 0 71 -71v-351q0 -72 -71 -72h-31z" />
    <glyph glyph-name="plus.denominator" horiz-adv-x="330" 
d="M38 135v56h99v98h56v-98h98v-56h-98v-99h-56v99h-99z" />
    <glyph glyph-name="minus.denominator" horiz-adv-x="330" 
d="M38 135v56h253v-56h-253z" />
    <glyph glyph-name="equal.denominator" horiz-adv-x="330" 
d="M38 66v56h253v-56h-253zM38 197v56h253v-56h-253z" />
    <glyph glyph-name="comma.denominator" horiz-adv-x="178" 
d="M48 0v82h82v-82l-23 -62h-48l23 62h-34z" />
    <glyph glyph-name="period.denominator" horiz-adv-x="178" 
d="M48 0v82h82v-82h-82z" />
    <glyph glyph-name="hyphen.denominator" horiz-adv-x="229" 
d="M31 135v56h168v-56h-168z" />
    <glyph glyph-name="parenleft.numerator" horiz-adv-x="178" 
d="M157 206h-31q-72 0 -72 72v351q0 71 72 71h31v-59h-15q-17 0 -22.5 -6t-5.5 -23v-317q0 -17 5.5 -23.5t22.5 -6.5h15v-59z" />
    <glyph glyph-name="parenright.numerator" horiz-adv-x="178" 
d="M21 206v59h15q17 0 22.5 6.5t5.5 23.5v317q0 17 -5.5 23t-22.5 6h-15v59h31q71 0 71 -71v-351q0 -72 -71 -72h-31z" />
    <glyph glyph-name="plus.numerator" horiz-adv-x="330" 
d="M38 429v56h99v98h56v-98h98v-56h-98v-99h-56v99h-99z" />
    <glyph glyph-name="minus.numerator" horiz-adv-x="330" 
d="M38 429v56h253v-56h-253z" />
    <glyph glyph-name="equal.numerator" horiz-adv-x="330" 
d="M38 360v56h253v-56h-253zM38 491v56h253v-56h-253z" />
    <glyph glyph-name="comma.numerator" horiz-adv-x="178" 
d="M48 294v82h82v-82l-23 -62h-48l23 62h-34z" />
    <glyph glyph-name="period.numerator" horiz-adv-x="178" 
d="M48 294v82h82v-82h-82z" />
    <glyph glyph-name="hyphen.numerator" horiz-adv-x="229" 
d="M31 429v56h168v-56h-168z" />
    <glyph glyph-name="Gtilde" horiz-adv-x="566" 
d="M285 710q97 0 158 -58t67 -159h-77q-6 68 -46.5 104.5t-101.5 36.5q-65 0 -107 -42t-42 -119v-246q0 -77 42 -119t107 -42t107 42t42 119v69h-149v76h226v-145q0 -109 -62 -173t-164 -64t-164 64t-62 173v246q0 109 62 173t164 64zM229 852q30 0 55 -14l30 -16
q16 -8 26 -8q28 0 39 36h65q-9 -45 -37.5 -73.5t-65.5 -28.5q-30 0 -55 14l-30 16q-16 8 -26 8q-28 0 -39 -36h-65q9 45 37.5 73.5t65.5 28.5z" />
    <glyph glyph-name="gtilde" horiz-adv-x="539" 
d="M262 -122q54 0 90.5 34t36.5 95v66q-19 -30 -54.5 -46.5t-72.5 -16.5q-83 0 -142.5 48.5t-59.5 153.5v116q0 105 59.5 153.5t142.5 48.5q37 0 72.5 -16.5t54.5 -46.5v49h75v-508q0 -105 -59.5 -153.5t-142.5 -48.5q-78 0 -135.5 42.5t-65.5 134.5h76q7 -50 42 -77.5
t83 -27.5zM135 329v-118q0 -61 36.5 -95t90.5 -34t90.5 34t36.5 95v118q0 61 -36.5 95t-90.5 34t-90.5 -34t-36.5 -95zM161 586h-58q9 45 37.5 73.5t65.5 28.5q30 0 55 -14l30 -17q14 -9 31 -9q13 0 25 11t16 27h58q-9 -45 -37.5 -73.5t-65.5 -28.5q-30 0 -55 14l-30 17
q-14 9 -31 9q-13 0 -25 -11t-16 -27z" />
    <glyph glyph-name="Mcircumflex" horiz-adv-x="718" 
d="M359 276l202 424h77v-700h-76v538l-167 -350h-72l-167 350v-538h-76v700h77zM418 745l-59 51l-59 -51h-99l125 109h66l125 -109h-99z" />
    <glyph glyph-name="mcircumflex" horiz-adv-x="846" 
d="M778 0h-75v335q0 55 -36 89t-83 34q-49 0 -84.5 -35t-35.5 -94v-329h-75v335q0 55 -36 89t-83 34q-49 0 -84.5 -35t-35.5 -94v-329h-75v516h75v-49q17 29 52.5 46t67.5 17q47 0 89 -20t67 -61q25 40 67.5 60.5t89.5 20.5q79 0 137 -50.5t58 -151.5v-328zM459 700
l125 -129h-89l-69 71l-69 -71h-89l125 129h66z" />
    <glyph glyph-name="Mmacron" horiz-adv-x="718" 
d="M359 276l202 424h77v-700h-76v538l-167 -350h-72l-167 350v-538h-76v700h77zM210 766v67h298v-67h-298z" />
    <glyph glyph-name="mmacron" horiz-adv-x="846" 
d="M778 0h-75v335q0 55 -36 89t-83 34q-49 0 -84.5 -35t-35.5 -94v-329h-75v335q0 55 -36 89t-83 34q-49 0 -84.5 -35t-35.5 -94v-329h-75v516h75v-49q17 29 52.5 46t67.5 17q47 0 89 -20t67 -61q25 40 67.5 60.5t89.5 20.5q79 0 137 -50.5t58 -151.5v-328zM277 603v65h298
v-65h-298z" />
    <glyph glyph-name="Ncircumflex" horiz-adv-x="612" 
d="M532 700v-700h-77l-298 551v-551h-77v700h77l298 -551v551h77zM364 745l-59 51l-59 -51h-99l125 109h66l125 -109h-99z" />
    <glyph glyph-name="ncircumflex" horiz-adv-x="547" 
d="M277 530q83 0 142.5 -48.5t59.5 -153.5v-328h-75v329q0 61 -36.5 95t-90.5 34t-90.5 -34t-36.5 -95v-329h-75v516h75v-49q19 30 54.5 46.5t72.5 16.5zM310 700l125 -129h-89l-69 71l-69 -71h-89l125 129h66z" />
    <glyph glyph-name="Ndieresis" horiz-adv-x="612" 
d="M532 700v-700h-77l-298 551v-551h-77v700h77l298 -551v551h77zM443 848v-97h-77v97h77zM246 848v-97h-77v97h77z" />
    <glyph glyph-name="ndieresis" horiz-adv-x="547" 
d="M277 530q83 0 142.5 -48.5t59.5 -153.5v-328h-75v329q0 61 -36.5 95t-90.5 34t-90.5 -34t-36.5 -95v-329h-75v516h75v-49q19 30 54.5 46.5t72.5 16.5zM215 684v-97h-75v97h75zM414 684v-97h-75v97h75z" />
    <glyph glyph-name="Nmacron" horiz-adv-x="612" 
d="M532 700v-700h-77l-298 551v-551h-77v700h77l298 -551v551h77zM157 766v67h298v-67h-298z" />
    <glyph glyph-name="nmacron" horiz-adv-x="547" 
d="M277 530q83 0 142.5 -48.5t59.5 -153.5v-328h-75v329q0 61 -36.5 95t-90.5 34t-90.5 -34t-36.5 -95v-329h-75v516h75v-49q19 30 54.5 46.5t72.5 16.5zM128 603v65h298v-65h-298z" />
    <glyph glyph-name="Pmacron" horiz-adv-x="561" 
d="M532 486q0 -99 -55 -156.5t-171 -57.5h-149v-272h-77v700h226q116 0 171 -57.5t55 -156.5zM453 486q0 62 -35.5 100t-111.5 38h-149v-276h149q76 0 111.5 38t35.5 100zM137 766v67h298v-67h-298z" />
    <glyph glyph-name="pmacron" horiz-adv-x="540" 
d="M277 -10q-37 0 -72.5 16.5t-54.5 46.5v-237h-75v700h75v-49q19 30 54.5 46.5t72.5 16.5q83 0 142.5 -48.5t59.5 -153.5v-136q0 -105 -59.5 -153.5t-142.5 -48.5zM404 191v138q0 61 -36.5 95t-90.5 34t-90.5 -34t-36.5 -95v-138q0 -61 36.5 -95t90.5 -34t90.5 34t36.5 95z
M128 603v65h298v-65h-298z" />
    <glyph glyph-name="zero.case" horiz-adv-x="543" 
d="M271 66q54 0 90 33t36 94v314q0 61 -36 94t-90 33q-53 0 -89 -33t-36 -94v-314q0 -61 36 -94t89 -33zM271 -10q-38 0 -72 10.5t-64 33t-48 63.5t-18 97v312q0 56 18 97t48 63.5t64 33t72 10.5t72.5 -10.5t64.5 -33t48 -63.5t18 -97v-312q0 -56 -18 -97t-48 -63.5
t-64.5 -33t-72.5 -10.5z" />
    <glyph glyph-name="one.case" horiz-adv-x="353" 
d="M186 0v596l-134 -115v104l134 115h77v-700h-77z" />
    <glyph glyph-name="two.case" horiz-adv-x="516" 
d="M53 0v76l264 290q64 69 64 144q0 58 -36.5 91t-89.5 33t-89 -33t-36 -94v-18h-77v17q0 56 18 97t48 63.5t64 33t72 10.5q83 0 143 -48.5t60 -152.5q0 -57 -20.5 -99.5t-66.5 -93.5l-218 -240h305v-76h-405z" />
    <glyph glyph-name="three.case" horiz-adv-x="522" 
d="M260 -10q-86 0 -147 48.5t-61 154.5v7h77v-8q0 -60 37.5 -93t92.5 -33t88 32t33 89q0 52 -33.5 89.5t-87.5 37.5h-50v75h50q53 0 87 33t34 90q0 55 -36.5 88.5t-89.5 33.5t-89 -33t-36 -93v-8h-77v7q0 55 18 96t48 63.5t64 33t72 10.5q84 0 143.5 -49.5t59.5 -148.5
q0 -55 -24 -98t-61 -62q37 -20 61 -64t24 -101q0 -98 -58 -147.5t-139 -49.5z" />
    <glyph glyph-name="four.case" horiz-adv-x="523" 
d="M340 0v187h-320v76l320 437h77v-437h73v-76h-73v-187h-77zM111 263h229v308z" />
    <glyph glyph-name="five.case" horiz-adv-x="523" 
d="M272 -10q-38 0 -72.5 10.5t-64.5 33t-48 63.5t-18 96v7h77v-8q0 -60 36.5 -93t89.5 -33t89 33t36 92v51q0 61 -36 94t-90 33q-39 0 -71 -19t-45 -55h-77v405h369v-76h-292v-218q45 39 117 39q38 0 72 -10.5t64 -33t48 -63.5t18 -97v-49q0 -104 -59.5 -153t-142.5 -49z
" />
    <glyph glyph-name="six.case" horiz-adv-x="537" 
d="M271 -10q-38 0 -72 10.5t-64 33t-48 63.5t-18 97v312q0 56 18 97t48 63.5t64 33t72 10.5t72.5 -10.5t64.5 -33t48 -63.5t18 -96v-7h-77v8q0 60 -36.5 93t-89.5 33t-89 -33t-36 -94v-116q19 21 54.5 34t71.5 13q38 0 72 -10.5t64 -33t48 -63.5t18 -97v-40q0 -56 -18 -97
t-48 -63.5t-64.5 -33t-72.5 -10.5zM271 66q54 0 90 33t36 94v42q0 61 -36 94t-90 33q-53 0 -89 -33t-36 -94v-42q0 -61 36 -94t89 -33z" />
    <glyph glyph-name="seven.case" horiz-adv-x="451" 
d="M122 0l220 624h-319v76h399v-76l-220 -624h-80z" />
    <glyph glyph-name="eight.case" horiz-adv-x="535" 
d="M267 -10q-84 0 -143 51t-59 149q0 109 81 162q-74 61 -74 160q0 98 57 148t138 50t138.5 -50t57.5 -148q0 -99 -74 -160q81 -53 81 -162q0 -99 -59 -149.5t-144 -50.5zM267 66q52 0 89 34t37 90t-37 90.5t-89 34.5q-51 0 -88 -34.5t-37 -90.5t36.5 -90t88.5 -34zM267 390
q52 0 85.5 32t33.5 90q0 55 -32 88.5t-87 33.5t-86.5 -33.5t-31.5 -88.5q0 -58 33.5 -90t84.5 -32z" />
    <glyph glyph-name="nine.case" horiz-adv-x="537" 
d="M265 -10q-38 0 -72 10.5t-64 33t-48 63.5t-18 96v7h77v-8q0 -60 36 -93t89 -33q54 0 90 33t36 94v116q-19 -21 -54.5 -34t-71.5 -13q-38 0 -72 10.5t-64 33t-48 63.5t-18 97v40q0 56 18 97t48 63.5t64 33t72 10.5t72.5 -10.5t64.5 -33t48 -63.5t18 -97v-312
q0 -56 -18 -97t-48 -63.5t-64.5 -33t-72.5 -10.5zM265 338q54 0 90 33t36 94v42q0 61 -36 94t-90 33q-53 0 -89 -33t-36 -94v-42q0 -61 36 -94t89 -33z" />
    <glyph glyph-name="emdash.case" horiz-adv-x="823" 
d="M763 305h-703v65h703v-65z" />
    <glyph glyph-name="endash.case" horiz-adv-x="524" 
d="M464 305h-404v65h404v-65z" />
    <glyph glyph-name="guillemotleft.case" horiz-adv-x="478" 
d="M229 146l-167 147v74l167 147v-87l-110 -97l110 -97v-87zM408 146l-167 147v74l167 147v-87l-110 -97l110 -97v-87z" />
    <glyph glyph-name="guillemotright.case" horiz-adv-x="478" 
d="M416 293l-167 -147v87l110 97l-110 97v87l167 -147v-74zM237 293l-167 -147v87l110 97l-110 97v87l167 -147v-74z" />
    <glyph glyph-name="guilsinglleft.case" horiz-adv-x="299" 
d="M229 146l-167 147v74l167 147v-87l-110 -97l110 -97v-87z" />
    <glyph glyph-name="guilsinglright.case" horiz-adv-x="299" 
d="M237 293l-167 -147v87l110 97l-110 97v87l167 -147v-74z" />
    <glyph glyph-name="hyphen.case" horiz-adv-x="410" 
d="M350 305h-290v65h290v-65z" />
    <glyph glyph-name="braceleft.case" horiz-adv-x="316" 
d="M133 123v144q0 27 -11 39t-41 12h-22v64h22q30 0 41 12t11 39v144q0 68 26.5 95.5t96.5 27.5h16v-64h-22q-30 0 -41 -12t-11 -39v-144q0 -71 -33 -91q33 -20 33 -91v-144q0 -27 11 -39t41 -12h22v-64h-16q-70 0 -96.5 27.5t-26.5 95.5z" />
    <glyph glyph-name="braceright.case" horiz-adv-x="316" 
d="M183 267v-144q0 -68 -26.5 -95.5t-96.5 -27.5h-16v64h22q30 0 41 12t11 39v144q0 71 33 91q-33 20 -33 91v144q0 27 -11 39t-41 12h-22v64h16q70 0 96.5 -27.5t26.5 -95.5v-144q0 -27 11 -39t41 -12h22v-64h-22q-30 0 -41 -12t-11 -39z" />
    <glyph glyph-name="bracketleft.case" horiz-adv-x="284" 
d="M101 0v700h139v-64h-74v-572h74v-64h-139z" />
    <glyph glyph-name="bracketright.case" horiz-adv-x="284" 
d="M183 700v-700h-139v64h74v572h-74v64h139z" />
    <glyph glyph-name="parenleft.case" horiz-adv-x="284" 
d="M101 123v454q0 68 26.5 95.5t96.5 27.5h16v-64h-22q-30 0 -41 -12t-11 -39v-470q0 -27 11 -39t41 -12h22v-64h-16q-70 0 -96.5 27.5t-26.5 95.5z" />
    <glyph glyph-name="parenright.case" horiz-adv-x="284" 
d="M183 577v-454q0 -68 -26.5 -95.5t-96.5 -27.5h-16v64h22q30 0 41 12t11 39v470q0 27 -11 39t-41 12h-22v64h16q70 0 96.5 -27.5t26.5 -95.5z" />
    <glyph glyph-name="periodcentered.case" horiz-adv-x="295" 
d="M95 295v105h105v-105h-105z" />
    <glyph glyph-name="less.case" 
d="M145 316l336 -189v-75l-404 227v74l404 227v-75z" />
    <glyph glyph-name="greater.case" 
d="M77 127l336 189l-336 189v75l404 -227v-74l-404 -227v75z" />
    <glyph glyph-name="plus.case" 
d="M249 135v170h-172v65h172v169h65v-169h167v-65h-167v-170h-65z" />
    <glyph glyph-name="equal.case" 
d="M481 197h-404v65h404v-65zM481 402h-404v65h404v-65z" />
    <glyph glyph-name="notequal.case" 
d="M481 197h-280l-77 -86l-47 42l39 44h-39v65h97l126 140h-223v65h281l76 85l47 -42l-39 -43h39v-65h-97l-125 -140h222v-65z" />
    <glyph glyph-name="lessequal.case" 
d="M160 383l321 -127v-70l-404 160v74l404 160v-70zM481 57h-404v65h404v-65z" />
    <glyph glyph-name="greaterequal.case" 
d="M77 256l321 127l-321 127v70l404 -160v-74l-404 -160v70zM481 57h-404v65h404v-65z" />
    <glyph glyph-name="divide.case" 
d="M227 525q0 22 15 37.5t37 15.5t37.5 -15.5t15.5 -37.5t-15.5 -37t-37.5 -15t-37 15t-15 37zM227 149q0 22 15 37.5t37 15.5t37.5 -15.5t15.5 -37.5t-15.5 -37t-37.5 -15t-37 15t-15 37zM481 305h-404v65h404v-65z" />
    <glyph glyph-name="plusminus.case" 
d="M481 364h-167v-144h-65v144h-172v65h172v144h65v-144h167v-65zM481 57h-404v65h404v-65z" />
    <glyph glyph-name="question.case" horiz-adv-x="513" 
d="M210 210v22q0 39 13 64t45 54l60 54q47 47 47 103q0 61 -36 94t-90 33q-53 0 -89 -33t-36 -93v-8h-77v7q0 55 18 96t48 63.5t64 33t72 10.5t72.5 -10.5t64.5 -33t48 -63.5t18 -97q0 -42 -20.5 -83.5t-49.5 -69.5l-59 -54q-21 -19 -28.5 -33t-7.5 -35v-21h-77zM197 0v105
h105v-105h-105z" />
    <glyph glyph-name="exclam.case" horiz-adv-x="285" 
d="M181 700v-490h-77v490h77zM90 0v105h105v-105h-105z" />
    <glyph glyph-name="questiondown.case" horiz-adv-x="513" 
d="M303 490v-22q0 -39 -13 -64t-45 -54l-60 -54q-47 -47 -47 -103q0 -61 36 -94t90 -33q53 0 89 33t36 93v8h77v-7q0 -55 -18 -96t-48 -63.5t-64 -33t-72 -10.5t-72.5 10.5t-64.5 33t-48 63.5t-18 97q0 42 20.5 83.5t49.5 69.5l59 54q21 19 28.5 33t7.5 35v21h77zM316 700
v-105h-105v105h105z" />
    <glyph glyph-name="exclamdown.case" horiz-adv-x="285" 
d="M181 490v-490h-77v490h77zM90 595v105h105v-105h-105z" />
    <glyph glyph-name="arrow90topleft" horiz-adv-x="800" 
d="M167 243l208 -208l-45 -45l-285 285l285 285l45 -45l-208 -208h588v-491h-64v427h-524z" />
    <glyph glyph-name="arrow90topright" horiz-adv-x="800" 
d="M109 243v-427h-64v491h588l-208 208l45 45l285 -285l-285 -285l-45 45l208 208h-524z" />
    <glyph glyph-name="arrow90downright" horiz-adv-x="800" 
d="M425 35l208 208h-588v457h64v-393h524l-208 208l45 45l285 -285l-285 -285z" />
    <glyph glyph-name="arrow90downleft" horiz-adv-x="800" 
d="M167 243l208 -208l-45 -45l-285 285l285 285l45 -45l-208 -208h524v393h64v-457h-588z" />
    <glyph glyph-name="f_l.alt" horiz-adv-x="542" 
d="M303 628h-79q-27 0 -37.5 -10t-10.5 -35v-67h127v-72h-127v-444h-75v444h-73v72h73v61q0 68 26.5 95.5t96.5 27.5h79v-72zM467 0v700h-75v-700h75z" />
    <glyph glyph-name="f_f_l.alt" horiz-adv-x="859" 
d="M303 628h-79q-27 0 -37.5 -10t-10.5 -35v-67h127v-72h-127v-444h-75v444h-73v72h73v61q0 68 26.5 95.5t96.5 27.5h79v-72zM620 628h-79q-27 0 -37.5 -10t-10.5 -35v-67h127v-72h-127v-444h-75v444h-73v72h73v61q0 68 26.5 95.5t96.5 27.5h79v-72zM784 0v700h-75v-700h75z
" />
    <glyph glyph-name="uni01C9.alt" horiz-adv-x="450" 
d="M150 700v-700h-75v700h75zM375 700v-97h-75v97h75zM300 -67v583h75v-577q0 -68 -26.5 -95.5t-96.5 -27.5h-16v72h16q27 0 37.5 10t10.5 35z" />
    <glyph glyph-name="published" horiz-adv-x="810" 
d="M45 350q0 149 105.5 254.5t254.5 105.5t254.5 -105.5t105.5 -254.5t-105.5 -254.5t-254.5 -105.5t-254.5 105.5t-105.5 254.5zM110 350q0 -123 86 -209.5t209 -86.5t209 86.5t86 209.5t-86 209.5t-209 86.5t-209 -86.5t-86 -209.5zM276 141v418h165q69 0 105.5 -40
t36.5 -99t-36.5 -99t-105.5 -40h-97v-140h-68zM344 349h97q36 0 54.5 20.5t18.5 51.5t-18.5 51.5t-54.5 20.5h-97v-144z" />
    <glyph glyph-name="brokenbar.case" horiz-adv-x="235" 
d="M150 700v-289h-65v289h65zM85 0v289h65v-289h-65z" />
    <glyph glyph-name="ampersand.case" horiz-adv-x="604" 
d="M257 0q-84 0 -141 48t-57 146q0 52 23.5 95t60.5 63q-37 19 -60.5 60t-23.5 95q0 98 57 145.5t141 47.5h130v-76h-130q-53 0 -87 -31t-34 -86t34 -86t87 -31h130v80h77v-80h127v-76h-127v-314h-207zM257 76h130v238h-130q-57 0 -89 -32t-32 -87q0 -56 32 -87.5t89 -31.5z
" />
    <glyph glyph-name="bar.case" horiz-adv-x="235" 
d="M85 0v700h65v-700h-65z" />
    <glyph glyph-name="zeroslashed.case" horiz-adv-x="543" 
d="M271 -10q-38 0 -72 10.5t-64 33t-48 63.5t-18 97v312q0 56 18 97t48 63.5t64 33t72 10.5t72.5 -10.5t64.5 -33t48 -63.5t18 -97v-312q0 -56 -18 -97t-48 -63.5t-64.5 -33t-72.5 -10.5zM271 66q54 0 90 33t36 94v246l-251 -251q1 -59 37 -90.5t88 -31.5zM146 507v-244
l251 251q-2 57 -38 88.5t-88 31.5q-53 0 -89 -33t-36 -94z" />
    <glyph glyph-name="at.case" horiz-adv-x="898" 
d="M576 276v67q-172 -12 -212 -34q-27 -15 -36 -32t-9 -42q0 -37 28.5 -60t83.5 -23q63 0 104 32.5t41 91.5zM449 548q-47 0 -81 -26t-43 -74h-77q9 89 66.5 130.5t134.5 41.5q83 0 142.5 -48.5t59.5 -153.5v-217q0 -26 15 -41.5t39 -15.5t38.5 15.5t14.5 41.5v257
q0 120 -91 199t-218 79t-218 -79t-91 -199v-220q0 -120 91 -199t218 -79q108 0 191 57l35 -56q-98 -65 -226 -65q-159 0 -266.5 96.5t-107.5 245.5v220q0 149 107.5 245.5t266.5 96.5t266.5 -96.5t107.5 -245.5v-262q0 -57 -31 -86.5t-87 -29.5q-93 0 -129 63
q-48 -63 -161 -63q-72 0 -121.5 39t-49.5 114q0 48 25.5 89t86.5 59q63 18 220 29v9q0 61 -36.5 95t-90.5 34z" />
    <glyph glyph-name="at.alt" horiz-adv-x="888" 
d="M640 516v-405q0 -26 16 -41.5t41 -15.5q24 0 40 15.5t16 41.5v257q0 120 -91 199t-218 79t-218 -79t-91 -199v-220q0 -120 91 -199t218 -79q108 0 191 57l35 -56q-98 -65 -226 -65q-159 0 -266.5 96.5t-107.5 245.5v220q0 149 107.5 245.5t266.5 96.5t266.5 -96.5
t107.5 -245.5v-262q0 -57 -32.5 -86.5t-88.5 -29.5q-96 0 -132 63q-19 -30 -54.5 -46.5t-72.5 -16.5q-83 0 -142.5 48.5t-59.5 153.5v136q0 105 59.5 153.5t142.5 48.5q37 0 72.5 -16.5t54.5 -46.5v49h75zM311 329v-138q0 -61 36.5 -95t90.5 -34t90.5 34t36.5 95v138
q0 61 -36.5 95t-90.5 34t-90.5 -34t-36.5 -95z" />
    <glyph glyph-name="at_alt.case" horiz-adv-x="898" 
d="M645 606v-405q0 -26 16 -41.5t41 -15.5q24 0 40 15.5t16 41.5v257q0 120 -91 199t-218 79t-218 -79t-91 -199v-220q0 -120 91 -199t218 -79q108 0 191 57l35 -56q-98 -65 -226 -65q-159 0 -266.5 96.5t-107.5 245.5v220q0 149 107.5 245.5t266.5 96.5t266.5 -96.5
t107.5 -245.5v-262q0 -57 -32.5 -86.5t-88.5 -29.5q-96 0 -132 63q-19 -30 -54.5 -46.5t-72.5 -16.5q-83 0 -142.5 48.5t-59.5 153.5v136q0 105 59.5 153.5t142.5 48.5q37 0 72.5 -16.5t54.5 -46.5v49h75zM316 419v-138q0 -61 36.5 -95t90.5 -34t90.5 34t36.5 95v138
q0 61 -36.5 95t-90.5 34t-90.5 -34t-36.5 -95z" />
    <glyph glyph-name="multiply.case" 
d="M71 175l162 162l-163 164l46 46l163 -164l164 164l46 -46l-164 -164l163 -162l-46 -46l-163 162l-162 -162z" />
    <glyph glyph-name="minus.case" 
d="M481 305h-404v65h404v-65z" />
    </font>
</defs>
</svg>
