<?xml version="1.0" encoding="utf-8"?>
<!-- Generator: Adobe Illustrator 17.1.0, SVG Export Plug-In . SVG Version: 6.00 Build 0)  -->
<!DOCTYPE svg PUBLIC "-//W3C//DTD SVG 1.1//EN" "http://www.w3.org/Graphics/SVG/1.1/DTD/svg11.dtd">
<svg version="1.1" id="Layer_1" xmlns="http://www.w3.org/2000/svg" xmlns:xlink="http://www.w3.org/1999/xlink" x="0px" y="0px"
	 viewBox="0 0 116.5 66" enable-background="new 0 0 116.5 66" xml:space="preserve">
<polygon fill="#18BEF0" points="116,2 114.5,0.6 83.3,31.8 52.1,0.6 50.7,2 81.9,33.3 50.7,64.5 52.1,65.9 83.3,34.7 114.5,65.9 
	116,64.5 84.7,33.3 "/>
<g>
	<path fill="#18BEF0" d="M6.1,31.7H5.3c-0.1-1-0.8-1.6-1.6-1.6c-0.9,0-1.6,0.6-1.6,1.8v2.7c0,1.2,0.7,1.8,1.6,1.8
		c0.9,0,1.5-0.5,1.6-1.6h0.8C6,36.3,5,37.2,3.6,37.2c-1.5,0-2.5-1-2.5-2.6v-2.7c0-1.6,1-2.6,2.5-2.6C5,29.3,6,30.2,6.1,31.7z"/>
	<path fill="#18BEF0" d="M8.1,29.4h0.8v6.9h3.5v0.8H8.1V29.4z"/>
	<path fill="#18BEF0" d="M18.6,34.6c0,1.6-1,2.6-2.5,2.6c-1.5,0-2.5-1-2.5-2.6v-2.7c0-1.6,1-2.6,2.5-2.6c1.5,0,2.5,1,2.5,2.6V34.6z
		 M17.8,31.9c0-1.2-0.7-1.8-1.6-1.8s-1.6,0.6-1.6,1.8v2.7c0,1.2,0.7,1.8,1.6,1.8s1.6-0.6,1.6-1.8V31.9z"/>
	<path fill="#18BEF0" d="M20.2,34.8h0.9c0.1,1,0.8,1.6,1.6,1.6c0.9,0,1.5-0.4,1.5-1.2c0-0.7-0.4-1.1-1.2-1.4l-1-0.3
		c-1.1-0.3-1.6-1.3-1.6-2.2c0-1.3,1-2,2.3-2c1.3,0,2.2,0.7,2.3,2.1h-0.9c-0.2-0.7-0.6-1.2-1.5-1.2c-0.9,0-1.4,0.5-1.4,1.2
		c0,0.7,0.4,1.1,1.1,1.4l0.9,0.3c1.1,0.3,1.8,1,1.8,2.2c0,1.2-0.8,2.1-2.3,2.1C21.3,37.2,20.4,36.3,20.2,34.8z"/>
	<path fill="#18BEF0" d="M27.8,36.3h3.5v0.8H27v-7.7h4.4v0.8h-3.5v2.6h3.5v0.8h-3.5V36.3z"/>
</g>
</svg>
