<?xml version="1.0" encoding="utf-8"?>
<!-- Generator: Adobe Illustrator 17.1.0, SVG Export Plug-In . SVG Version: 6.00 Build 0)  -->
<!DOCTYPE svg PUBLIC "-//W3C//DTD SVG 1.1//EN" "http://www.w3.org/Graphics/SVG/1.1/DTD/svg11.dtd">
<svg version="1.1" id="Layer_1" xmlns="http://www.w3.org/2000/svg" xmlns:xlink="http://www.w3.org/1999/xlink" x="0px" y="0px"
	 viewBox="0 0 562.8 147" enable-background="new 0 0 562.8 147" xml:space="preserve">
<g>
	<polygon fill="#E6E7E8" points="166.3,11.1 179.8,11.1 179.8,137.9 166.3,137.9 166.3,141.3 210.8,141.3 210.8,137.9 197.3,137.9 
		197.3,11.1 210.8,11.1 210.8,7.6 166.3,7.6 	"/>
	<path fill="#E6E7E8" d="M514.3,7.6v3.4h13.5v47.7c-1.1-0.8-2.3-1.7-3.5-2.4c-7.1-4.4-14.5-6.1-29.5-6.1h-6.5V11.1h13.5V7.6h-44.5
		v3.4h13.4v126.9h-13.4v3.4h32.9c11.3,0,23.1,0.3,33.4-5.5c13.7-7.5,21-22.8,21.6-37.9l0.1,0.1v-87h13.5V7.6H514.3z M523.2,121.1
		c-5.9,17.9-17.7,16.8-35.1,16.8V54.7c15.7,0,25.1,0.1,31,5.2c6.3,5.5,7.5,15,7.5,32.5C526.6,101.1,526.2,112,523.2,121.1z"/>
	<path fill="#E6E7E8" d="M60.4,94.1v-0.3c11.7-1.8,26.1-7.8,26.1-21.7c0-14.1-11.1-19.3-22.9-21l0,0V33.6h-3.8
		C59,48.2,52.1,50.2,39,50.2V11.1h14.9c5.6,0,11,0.4,14,1.8c9,4.1,11.1,13.6,13,22.6h3.7l-1-27.8H8v3.4h13.5v126.9l0,0v0h0H8v3.4
		h31.5c9.5,0,22.2,1.1,32.2-2.2c9.6-3.1,17.9-9.6,17.9-21.6C89.6,102,73.8,95.1,60.4,94.1z M39,53.6c16.9,0.4,28.9-3.4,28.9,18.6
		c0,15.6-6.4,20.3-16.8,20.3H39V53.6z M56.2,137.9H39v-42h12.9c13.9,0.1,18.1,8.2,18.1,21C70.1,126.5,68,137.9,56.2,137.9z"/>
	<path fill="#E6E7E8" d="M364.3,130.3c0-17.8-3.1-28.7-15.3-34c8-5.1,12.7-14.3,12.7-25.4c0-12.3-4.1-21.3-15.5-26.7
		c-2.9-1.4-6.3-2.3-9-3.1c-2.3-0.7-5-1.6-8.4-2.6C320.3,36.1,313,35,313,24.5c0-9.1,8.2-15.6,16.9-15.6c13.6,0,22.1,10.8,23.6,23.7
		h4.4V6.9h-2.5l-5.2,5.5c-6.3-4.9-12-6.8-19.9-6.8c-14.2,0-24.8,10.6-24.8,25c0,13,6.3,22.5,19,26.3c2.7,0.8,5.4,1.8,8.2,2.7
		c10.2,3.5,21.5,6,21.5,18.7c0,7.3-4.1,13.2-9.9,16.4c-1.9-0.5-3.9-1.4-6.1-1.7c-7.6-1.8-29.1-1.4-36.1-1.4v46.4l0.2-0.2v0.2h-0.2
		h-13.3v3.4h44.5v-3.4h-13.5V94.4h7.5c4.2,0,8.6,1.6,12.4,4.9c3.5,3,5.5,11.5,5.5,22.8c0,13.9,7.2,20.9,21,20.9
		c3.9,0,7.8-0.7,11.6-1.6v-3.3C364.7,140.5,364.3,135.1,364.3,130.3z"/>
</g>
</svg>
