<?xml version="1.0" encoding="utf-8"?>
<!-- Generator: Adobe Illustrator 17.1.0, SVG Export Plug-In . SVG Version: 6.00 Build 0)  -->
<!DOCTYPE svg PUBLIC "-//W3C//DTD SVG 1.1//EN" "http://www.w3.org/Graphics/SVG/1.1/DTD/svg11.dtd">
<svg version="1.1" id="Layer_1" xmlns="http://www.w3.org/2000/svg" xmlns:xlink="http://www.w3.org/1999/xlink" x="0px" y="0px"
	 viewBox="0 207.1 792 197.8" enable-background="new 0 207.1 792 197.8" xml:space="preserve">
<g>
	<polygon fill="#3CB878" points="227.7,214.8 247,214.8 247,397.2 227.7,397.2 227.7,402.5 291.8,402.5 291.8,397.2 272,397.2 
		272,214.8 291.8,214.8 291.8,210 227.7,210 	"/>
	<path fill="#3CB878" d="M727.8,210v4.8h19.3v68.5c-1.4-1-3.4-2.4-4.8-3.4c-10.1-6.3-20.7-8.7-42.4-8.7h-9.2v-56.4H710V210h-64.2
		v4.8h19.3v182.3h-19.3v4.8h47.3c16.4,0,33.3,0.5,48.2-7.7c19.8-10.6,30.4-32.8,30.9-54.5l0,0V214.8h19.3V210H727.8z M740.9,373
		c-8.7,25.6-25.6,24.1-50.6,24.1V277.5c22.7,0,36.2,0,44.4,7.7c9.2,7.7,10.6,21.7,10.6,46.8C745.7,344.6,745.2,360,740.9,373z"/>
	<path fill="#3CB878" d="M75.2,334.5L75.2,334.5c16.9-2.9,37.6-11.6,37.6-31.8c0-20.3-15.9-28-32.8-30.4l0,0v-25.1h-5.3
		c-1,21.2-11.1,23.6-29.9,23.6v-56H66c8.2,0,15.9,0.5,20.3,2.4c13,5.8,15.9,19.8,18.8,32.3h5.3l-1.4-40H0v4.8h19.3v182.3l0,0l0,0
		l0,0H0v4.8h45.3c13.5,0,31.8,1.4,46.3-3.4c14-4.3,25.6-14,25.6-30.9C117.2,345.6,94.5,335.9,75.2,334.5z M44.4,276.1
		c24.1,0.5,41.5-4.8,41.5,26.5c0,22.7-9.2,29.4-24.1,29.4H44.4V276.1z M69.5,397.2H44.4v-60.3h18.3c19.8,0,26,11.6,26,30.4
		C89.2,380.8,86.3,397.2,69.5,397.2z"/>
	<path fill="#3CB878" d="M512.2,386.6c0-25.6-4.3-41.5-22.2-48.7c11.6-7.2,18.3-20.7,18.3-36.7c0-17.8-5.8-30.4-22.2-38.6
		c-4.3-1.9-9.2-3.4-13-4.3c-3.4-1-7.2-2.4-12.1-3.9c-12.1-3.4-22.7-4.8-22.7-20.3c0-13,11.6-22.7,24.1-22.7
		c19.8,0,31.8,15.4,33.8,34.2h6.3V209h-3.4l-7.2,7.7c-9.2-7.2-17.4-9.6-28.5-9.6c-20.3,0-35.7,15.4-35.7,36.2
		c0,18.8,9.2,32.3,27.5,37.6c3.9,1,7.7,2.4,11.6,3.9c14.5,4.8,30.9,8.7,30.9,27c0,10.6-5.8,18.8-14.5,23.6c-2.9-0.5-5.8-1.9-8.7-2.4
		c-11.1-2.4-42-1.9-52.1-1.9v66.6l0.5-0.5v0.5h-0.5h-19.3v4.8h64.6v-4.8h-19.3V335H459c6.3,0,12.5,2.4,17.8,7.2
		c4.8,4.3,7.7,16.4,7.7,32.8c0,19.8,10.1,29.9,30.4,29.9c5.8,0,11.1-1,16.9-2.4v-4.8C512.7,401,512.2,393.3,512.2,386.6z"/>
</g>
</svg>
