<?xml version="1.0" encoding="utf-8"?>
<!-- Generator: Adobe Illustrator 17.1.0, SVG Export Plug-In . SVG Version: 6.00 Build 0)  -->
<!DOCTYPE svg PUBLIC "-//W3C//DTD SVG 1.1//EN" "http://www.w3.org/Graphics/SVG/1.1/DTD/svg11.dtd">
<svg version="1.1" id="Layer_1" xmlns="http://www.w3.org/2000/svg" xmlns:xlink="http://www.w3.org/1999/xlink" x="0px" y="0px"
	 viewBox="0 0 164.2 41" enable-background="new 0 0 164.2 41" xml:space="preserve">
<g>
	<polygon fill="#F79520" points="47.2,1.6 51.2,1.6 51.2,39.4 47.2,39.4 47.2,40.5 60.5,40.5 60.5,39.4 56.4,39.4 56.4,1.6 
		60.5,1.6 60.5,0.6 47.2,0.6 	"/>
	<path fill="#F79520" d="M150.9,0.6v1h4v14.2c-0.3-0.2-0.7-0.5-1-0.7c-2.1-1.3-4.3-1.8-8.8-1.8h-1.9V1.6h4v-1h-13.3v1h4v37.8h-4v1
		h9.8c3.4,0,6.9,0.1,10-1.6c4.1-2.2,6.3-6.8,6.4-11.3l0,0V1.6h4v-1H150.9z M153.6,34.4c-1.8,5.3-5.3,5-10.5,5V14.6
		c4.7,0,7.5,0,9.2,1.6c1.9,1.6,2.2,4.5,2.2,9.7C154.6,28.5,154.5,31.7,153.6,34.4z"/>
	<path fill="#F79520" d="M15.6,26.4L15.6,26.4c3.5-0.6,7.8-2.4,7.8-6.6c0-4.2-3.3-5.8-6.8-6.3l0,0V8.3h-1.1
		c-0.2,4.4-2.3,4.9-6.2,4.9V1.6h4.4c1.7,0,3.3,0.1,4.2,0.5c2.7,1.2,3.3,4.1,3.9,6.7h1.1l-0.3-8.3H0v1h4v37.8l0,0l0,0l0,0H0v1h9.4
		c2.8,0,6.6,0.3,9.6-0.7c2.9-0.9,5.3-2.9,5.3-6.4C24.3,28.7,19.6,26.7,15.6,26.4z M9.2,14.3c5,0.1,8.6-1,8.6,5.5
		c0,4.7-1.9,6.1-5,6.1H9.2V14.3z M14.4,39.4H9.2V26.9h3.8c4.1,0,5.4,2.4,5.4,6.3C18.5,36,17.9,39.4,14.4,39.4z"/>
	<path fill="#F79520" d="M106.2,37.2c0-5.3-0.9-8.6-4.6-10.1c2.4-1.5,3.8-4.3,3.8-7.6c0-3.7-1.2-6.3-4.6-8c-0.9-0.4-1.9-0.7-2.7-0.9
		c-0.7-0.2-1.5-0.5-2.5-0.8c-2.5-0.7-4.7-1-4.7-4.2c0-2.7,2.4-4.7,5-4.7c4.1,0,6.6,3.2,7,7.1h1.3V0.4h-0.7L102,2
		c-1.9-1.5-3.6-2-5.9-2c-4.2,0-7.4,3.2-7.4,7.5c0,3.9,1.9,6.7,5.7,7.8c0.8,0.2,1.6,0.5,2.4,0.8c3,1,6.4,1.8,6.4,5.6
		c0,2.2-1.2,3.9-3,4.9c-0.6-0.1-1.2-0.4-1.8-0.5c-2.3-0.5-8.7-0.4-10.8-0.4v13.8l0.1-0.1v0.1h-0.1h-4v1H97v-1h-4v-13h2.2
		c1.3,0,2.6,0.5,3.7,1.5c1,0.9,1.6,3.4,1.6,6.8c0,4.1,2.1,6.2,6.3,6.2c1.2,0,2.3-0.2,3.5-0.5v-1C106.3,40.2,106.2,38.6,106.2,37.2z"
		/>
</g>
</svg>
